<svg width="400" height="380" viewBox="0 0 400 380" fill="none" xmlns="http://www.w3.org/2000/svg">
<path d="M58.237 327.977C59.6456 327.977 60.7989 327.511 61.7057 326.578C62.6037 325.644 63.0615 324.359 63.0615 322.713C63.0615 321.859 62.903 321.084 62.5949 320.38C62.2867 319.675 61.8025 319.059 61.1423 318.531C60.482 318.003 59.6368 317.606 58.6068 317.325C57.5767 317.043 56.3354 316.911 54.8916 316.911C54.1344 316.911 53.527 316.656 53.0692 316.154C52.6114 315.652 52.3825 314.974 52.3825 314.129C52.3825 313.706 52.4529 313.372 52.6026 313.134C52.7523 312.888 52.9195 312.703 53.122 312.571C53.3157 312.439 53.5974 312.342 53.9584 312.28C54.3193 312.219 54.8299 312.183 55.4902 312.183C56.5467 312.183 57.4799 312.06 58.281 311.814C59.0822 311.567 59.7601 311.215 60.2795 310.748C60.7989 310.282 61.2039 309.736 61.468 309.093C61.7321 308.451 61.8642 307.746 61.8642 306.989C61.8642 305.836 61.4592 304.903 60.6492 304.198C59.8393 303.494 58.73 303.133 57.3126 303.133C56.6875 303.133 56.1153 303.195 55.6047 303.309C55.0941 303.424 54.6275 303.547 54.1961 303.679C53.7647 303.811 53.3773 303.934 53.034 304.049C52.6906 304.163 52.3649 304.216 52.0744 304.216C51.5109 304.216 51.0531 304.04 50.6922 303.679C50.3312 303.318 50.1463 302.86 50.1463 302.305C50.1463 301.751 50.3576 301.258 50.789 300.826C51.4757 300.14 52.5498 299.541 54.0112 299.03C55.4726 298.52 57.1806 298.265 59.1526 298.265C60.7285 298.265 62.1019 298.449 63.2816 298.81C64.4613 299.171 65.4473 299.673 66.2308 300.316C67.0144 300.958 67.6042 301.733 67.974 302.631C68.3526 303.538 68.5374 304.515 68.5374 305.572C68.5374 306.426 68.4142 307.253 68.1677 308.037C67.9212 308.829 67.569 309.569 67.1112 310.255C66.6534 310.942 66.1076 311.558 65.4649 312.078C64.8222 312.606 64.1091 313.02 63.3256 313.31V313.363C64.3116 313.592 65.2008 313.926 66.0019 314.367C66.8031 314.807 67.4986 315.37 68.0708 316.057C68.6431 316.744 69.0921 317.545 69.4266 318.46C69.7524 319.376 69.9196 320.388 69.9196 321.507C69.9196 323.047 69.6291 324.482 69.0569 325.82C68.4846 327.159 67.6483 328.321 66.5478 329.307C65.4473 330.284 64.1091 331.059 62.5333 331.613C60.9574 332.168 59.1878 332.45 57.2246 332.45C55.8512 332.45 54.6627 332.318 53.659 332.053C52.6554 331.789 51.8455 331.437 51.2204 330.997C50.5953 330.557 50.1375 330.055 49.8382 329.492C49.5477 328.937 49.398 328.356 49.398 327.766C49.398 326.947 49.6357 326.287 50.1111 325.794C50.5865 325.301 51.1852 325.054 51.9071 325.054C52.3649 325.054 52.7787 325.204 53.1396 325.495C53.5006 325.785 53.9055 326.129 54.3457 326.498C54.7859 326.877 55.3054 327.211 55.8952 327.511C56.4851 327.801 57.2598 327.951 58.2106 327.951L58.237 327.977Z" fill="white"/>
<path d="M74.6737 315.582C74.6737 312.729 75.0259 310.229 75.7302 308.081C76.4345 305.933 77.3941 304.128 78.609 302.666C79.8239 301.205 81.2501 300.105 82.8964 299.374C84.5428 298.634 86.2947 298.265 88.1699 298.265C90.1772 298.265 91.9819 298.581 93.593 299.224C95.2041 299.867 96.5687 300.862 97.6868 302.226C98.8049 303.591 99.6677 305.334 100.275 307.464C100.883 309.595 101.182 312.139 101.182 315.089C101.182 318.038 100.83 320.45 100.125 322.616C99.4212 324.782 98.4615 326.595 97.2466 328.057C96.0317 329.518 94.6055 330.618 92.9592 331.349C91.3129 332.089 89.5609 332.458 87.6857 332.458C85.6784 332.458 83.8737 332.141 82.2626 331.499C80.6515 330.856 79.2869 329.861 78.1688 328.497C77.0507 327.132 76.188 325.389 75.5805 323.258C74.973 321.128 74.6737 318.566 74.6737 315.582ZM81.5583 315.238C81.5583 317.571 81.7343 319.526 82.0953 321.119C82.4563 322.713 82.9405 323.998 83.5391 324.984C84.1378 325.97 84.8333 326.674 85.5992 327.097C86.3651 327.52 87.1751 327.74 88.029 327.74C88.883 327.74 89.6401 327.537 90.4061 327.123C91.172 326.718 91.8411 326.032 92.4133 325.081C92.9856 324.13 93.4434 322.871 93.7867 321.295C94.1301 319.719 94.2973 317.774 94.2973 315.441C94.2973 313.108 94.1213 311.153 93.7603 309.56C93.3994 307.966 92.924 306.69 92.3165 305.721C91.709 304.753 91.0135 304.057 90.23 303.626C89.4465 303.203 88.6453 302.983 87.8266 302.983C87.0078 302.983 86.1803 303.186 85.4231 303.6C84.666 304.013 84.0057 304.691 83.4423 305.642C82.87 306.593 82.4122 307.852 82.0689 309.41C81.7255 310.968 81.5583 312.914 81.5583 315.238Z" fill="white"/>
<path d="M132.576 311.84C132.444 311.805 132.312 311.778 132.189 311.743C132.057 311.708 131.898 311.681 131.705 311.646C131.511 311.611 131.282 311.593 131.018 311.593C129.389 311.593 128.016 312.254 126.889 313.583C125.762 314.904 125.199 316.99 125.199 319.834C125.199 322.484 125.78 324.438 126.942 325.697C128.104 326.956 129.715 327.581 131.766 327.581C132.356 327.581 132.858 327.537 133.289 327.458C133.712 327.379 134.099 327.29 134.443 327.211C134.786 327.132 135.094 327.044 135.376 326.965C135.657 326.886 135.904 326.841 136.133 326.841C136.652 326.841 137.066 327 137.357 327.308C137.647 327.616 137.797 328.056 137.797 328.611C137.797 329.236 137.55 329.791 137.057 330.284C136.793 330.548 136.441 330.812 136.001 331.067C135.561 331.331 135.032 331.56 134.425 331.754C133.817 331.948 133.14 332.115 132.382 332.247C131.625 332.379 130.807 332.441 129.926 332.441C126.317 332.441 123.482 331.402 121.413 329.315C119.344 327.229 118.314 324.341 118.314 320.635C118.314 318.566 118.64 316.682 119.3 314.974C119.952 313.266 120.867 311.822 122.029 310.616C123.191 309.419 124.582 308.494 126.211 307.834C127.84 307.183 129.627 306.848 131.599 306.848C133.104 306.848 134.275 306.989 135.094 307.271C135.913 307.552 136.538 307.905 136.96 308.327C137.225 308.591 137.409 308.935 137.524 309.357C137.638 309.78 137.7 310.554 137.7 311.673V313.292C137.7 313.618 137.682 314.146 137.647 314.868C137.612 315.555 137.427 316.057 137.084 316.365C136.74 316.673 136.291 316.832 135.728 316.832C135.164 316.832 134.724 316.673 134.399 316.347C134.073 316.022 133.791 315.537 133.562 314.886L132.576 311.813V311.84Z" fill="white"/>
<path d="M141.723 320.353C141.723 318.32 142.04 316.471 142.683 314.816C143.326 313.161 144.224 311.743 145.386 310.563C146.548 309.384 147.948 308.477 149.567 307.834C151.187 307.192 152.983 306.875 154.955 306.875C158.662 306.875 161.567 307.931 163.662 310.044C165.758 312.157 166.814 315.133 166.814 318.971C166.814 321.005 166.515 322.854 165.907 324.509C165.3 326.164 164.419 327.581 163.275 328.761C162.13 329.941 160.731 330.847 159.093 331.49C157.456 332.133 155.616 332.45 153.582 332.45C149.876 332.45 146.97 331.393 144.875 329.28C142.78 327.167 141.723 324.192 141.723 320.353ZM148.608 319.57C148.608 320.943 148.766 322.149 149.074 323.188C149.383 324.218 149.796 325.072 150.307 325.75C150.818 326.419 151.425 326.921 152.129 327.247C152.834 327.572 153.582 327.74 154.366 327.74C155.941 327.74 157.262 327.106 158.327 325.847C159.392 324.588 159.93 322.554 159.93 319.772C159.93 318.39 159.771 317.193 159.463 316.154C159.155 315.124 158.741 314.27 158.23 313.592C157.72 312.923 157.112 312.421 156.408 312.086C155.704 311.761 154.955 311.593 154.172 311.593C152.596 311.593 151.275 312.227 150.21 313.486C149.145 314.745 148.608 316.779 148.608 319.561V319.57Z" fill="white"/>
<path d="M173.848 311.99H171.982C170.503 311.99 169.772 311.338 169.772 310.017C169.772 309.234 170.01 308.6 170.485 308.125C170.961 307.649 171.639 307.412 172.528 307.412H173.857V306.276C173.857 303.001 174.755 300.465 176.56 298.678C178.365 296.891 180.971 296.002 184.378 296.002C185.328 296.002 186.165 296.09 186.887 296.275C187.609 296.46 188.119 296.689 188.41 296.988C188.542 297.12 188.647 297.252 188.727 297.384C188.806 297.516 188.885 297.692 188.947 297.903C189.008 298.115 189.061 298.396 189.096 298.74C189.132 299.083 189.149 299.523 189.149 300.043V301.319C189.149 301.583 189.132 301.988 189.096 302.552C189.061 303.177 188.885 303.635 188.559 303.934C188.234 304.225 187.793 304.374 187.23 304.374C186.667 304.374 186.226 304.216 185.901 303.908C185.575 303.6 185.293 303.115 185.064 302.455L184.474 300.685C184.404 300.685 184.325 300.668 184.228 300.633C184.131 300.597 184.017 300.571 183.885 300.562C183.753 300.553 183.603 300.536 183.444 300.536C182.494 300.536 181.772 300.826 181.279 301.399C180.786 301.971 180.539 302.966 180.539 304.374V307.42H184.034C185.513 307.42 186.244 308.081 186.244 309.392C186.244 310.211 186.015 310.854 185.557 311.312C185.099 311.769 184.404 311.998 183.488 311.998H180.539V327.202L182.899 327.845C183.62 328.039 184.113 328.285 184.378 328.585C184.642 328.875 184.774 329.307 184.774 329.861C184.774 330.451 184.562 330.944 184.131 331.34C183.708 331.736 183.119 331.93 182.362 331.93H172.272C171.515 331.93 170.925 331.736 170.503 331.34C170.08 330.944 169.86 330.451 169.86 329.861C169.86 329.307 169.992 328.884 170.256 328.602C170.52 328.321 171.013 328.074 171.735 327.836L173.848 327.194V311.99Z" fill="white"/>
<path d="M191.905 311.99H190.038C188.559 311.99 187.829 311.338 187.829 310.017C187.829 309.234 188.066 308.6 188.542 308.125C189.017 307.649 189.695 307.412 190.584 307.412H191.914V306.276C191.914 303.001 192.812 300.465 194.616 298.678C196.421 296.891 199.027 296.002 202.434 296.002C203.385 296.002 204.221 296.09 204.943 296.275C205.665 296.46 206.176 296.689 206.466 296.988C206.598 297.12 206.704 297.252 206.783 297.384C206.863 297.516 206.942 297.692 207.003 297.903C207.065 298.115 207.118 298.396 207.153 298.74C207.188 299.083 207.206 299.523 207.206 300.043V301.319C207.206 301.583 207.188 301.988 207.153 302.552C207.118 303.177 206.942 303.635 206.616 303.934C206.29 304.225 205.85 304.374 205.287 304.374C204.723 304.374 204.283 304.216 203.957 303.908C203.632 303.6 203.35 303.115 203.121 302.455L202.531 300.685C202.461 300.685 202.381 300.668 202.285 300.633C202.188 300.597 202.073 300.571 201.941 300.562C201.809 300.553 201.659 300.536 201.501 300.536C200.55 300.536 199.828 300.826 199.335 301.399C198.842 301.971 198.596 302.966 198.596 304.374V307.42H202.091C203.57 307.42 204.301 308.081 204.301 309.392C204.301 310.211 204.072 310.854 203.614 311.312C203.156 311.769 202.461 311.998 201.545 311.998H198.596V327.202L200.955 327.845C201.677 328.039 202.17 328.285 202.434 328.585C202.698 328.875 202.83 329.307 202.83 329.861C202.83 330.451 202.619 330.944 202.188 331.34C201.765 331.736 201.175 331.93 200.418 331.93H190.329C189.572 331.93 188.982 331.736 188.559 331.34C188.137 330.944 187.917 330.451 187.917 329.861C187.917 329.307 188.049 328.884 188.313 328.602C188.577 328.321 189.07 328.074 189.792 327.836L191.905 327.194V311.99Z" fill="white"/>
<path d="M213.545 320.749C213.773 322.977 214.504 324.676 215.737 325.838C216.969 327 218.695 327.581 220.922 327.581C221.679 327.581 222.322 327.528 222.868 327.431C223.405 327.335 223.88 327.238 224.294 327.141C224.708 327.044 225.06 326.947 225.377 326.842C225.685 326.745 225.993 326.692 226.284 326.692C226.812 326.692 227.217 326.85 227.516 327.159C227.807 327.467 227.956 327.907 227.956 328.462C227.956 328.787 227.895 329.087 227.78 329.351C227.666 329.615 227.472 329.879 227.217 330.134C226.662 330.689 225.703 331.217 224.338 331.71C222.973 332.203 221.213 332.45 219.047 332.45C217.11 332.45 215.385 332.177 213.853 331.64C212.321 331.103 211.053 330.31 210.014 329.28C208.984 328.25 208.192 326.974 207.655 325.468C207.118 323.963 206.845 322.237 206.845 320.3C206.845 318.205 207.144 316.321 207.752 314.666C208.359 313.011 209.204 311.611 210.287 310.458C211.37 309.313 212.664 308.424 214.17 307.799C215.675 307.174 217.348 306.866 219.188 306.866C222.269 306.866 224.673 307.737 226.398 309.472C228.124 311.215 228.978 313.724 228.978 316.999C228.978 318.249 228.678 319.182 228.088 319.799C227.499 320.415 226.662 320.732 225.579 320.732H213.527L213.545 320.749ZM222.454 316.964C222.392 315.027 221.987 313.636 221.248 312.782C220.508 311.928 219.549 311.505 218.369 311.505C217.092 311.505 216.045 311.981 215.217 312.932C214.399 313.882 213.87 315.229 213.641 316.964H222.445H222.454Z" fill="white"/>
<path d="M239.718 320.749C239.947 322.977 240.678 324.676 241.91 325.838C243.143 327 244.868 327.581 247.105 327.581C247.862 327.581 248.504 327.528 249.05 327.431C249.587 327.335 250.063 327.238 250.476 327.141C250.881 327.044 251.242 326.947 251.559 326.842C251.867 326.745 252.176 326.692 252.466 326.692C252.985 326.692 253.399 326.85 253.699 327.159C253.998 327.467 254.139 327.907 254.139 328.462C254.139 328.787 254.077 329.087 253.963 329.351C253.848 329.615 253.663 329.879 253.399 330.134C252.845 330.689 251.885 331.217 250.52 331.71C249.156 332.203 247.395 332.45 245.229 332.45C243.293 332.45 241.567 332.177 240.044 331.64C238.521 331.103 237.236 330.31 236.205 329.28C235.175 328.25 234.383 326.974 233.846 325.468C233.309 323.963 233.036 322.237 233.036 320.3C233.036 318.205 233.335 316.321 233.943 314.666C234.55 313.011 235.396 311.611 236.478 310.458C237.561 309.313 238.855 308.424 240.361 307.799C241.866 307.174 243.539 306.866 245.379 306.866C248.46 306.866 250.864 307.737 252.589 309.472C254.315 311.215 255.169 313.724 255.169 316.999C255.169 318.249 254.869 319.182 254.28 319.799C253.69 320.415 252.853 320.732 251.771 320.732H239.718V320.749ZM248.628 316.964C248.557 315.027 248.161 313.636 247.422 312.782C246.682 311.928 245.722 311.505 244.543 311.505C243.266 311.505 242.21 311.981 241.391 312.932C240.572 313.882 240.044 315.229 239.815 316.964H248.619H248.628Z" fill="white"/>
<path d="M277.161 327.44C277.46 327.572 277.786 327.687 278.147 327.784C278.473 327.854 278.878 327.916 279.353 327.977C279.828 328.039 280.357 328.074 280.955 328.074C282.434 328.074 283.455 327.836 284.028 327.361C284.6 326.886 284.89 326.269 284.89 325.512C284.89 324.755 284.582 324.218 283.957 323.787C283.332 323.355 282.557 322.977 281.624 322.633C280.691 322.29 279.67 321.929 278.578 321.55C277.478 321.172 276.465 320.688 275.532 320.098C274.599 319.508 273.815 318.76 273.199 317.862C272.574 316.964 272.266 315.784 272.266 314.34C272.266 313.328 272.477 312.359 272.9 311.435C273.322 310.519 273.983 309.718 274.863 309.049C275.743 308.38 276.861 307.843 278.2 307.447C279.538 307.051 281.122 306.857 282.962 306.857C284.926 306.857 286.414 307.024 287.426 307.35C288.438 307.676 289.107 308.01 289.442 308.336C289.706 308.6 289.891 308.908 290.005 309.269C290.12 309.63 290.182 310.167 290.182 310.889V312.166C290.182 312.491 290.164 312.835 290.129 313.196C290.058 313.821 289.856 314.279 289.512 314.569C289.169 314.868 288.72 315.009 288.157 315.009C287.593 315.009 287.162 314.86 286.854 314.569C286.546 314.279 286.273 313.812 286.044 313.196L285.551 311.769C285.26 311.708 284.926 311.62 284.565 311.523C284.274 311.461 283.913 311.391 283.508 311.329C283.095 311.268 282.646 311.232 282.153 311.232C280.77 311.232 279.855 311.426 279.397 311.822C278.939 312.218 278.71 312.738 278.71 313.398C278.71 314.058 279.018 314.587 279.643 315C280.269 315.414 281.043 315.784 281.976 316.11C282.91 316.435 283.931 316.788 285.023 317.166C286.123 317.545 287.135 318.038 288.069 318.645C289.002 319.253 289.785 320.027 290.402 320.961C291.027 321.894 291.335 323.1 291.335 324.579C291.335 325.662 291.106 326.674 290.648 327.625C290.19 328.576 289.504 329.403 288.588 330.108C287.672 330.812 286.502 331.375 285.084 331.807C283.658 332.229 282.003 332.45 280.101 332.45C278.006 332.45 276.421 332.265 275.338 331.912C274.256 331.552 273.551 331.208 273.225 330.882C272.961 330.618 272.776 330.31 272.662 329.949C272.548 329.588 272.486 329.051 272.486 328.329V326.956C272.486 326.63 272.504 326.287 272.539 325.926C272.6 325.301 272.812 324.843 273.155 324.544C273.498 324.244 273.947 324.104 274.511 324.104C275.074 324.104 275.506 324.253 275.814 324.544C276.122 324.834 276.395 325.301 276.624 325.926L277.161 327.449V327.44Z" fill="white"/>
<path d="M297.621 311.99H295.948C294.434 311.99 293.685 311.338 293.685 310.017C293.685 309.234 293.923 308.6 294.398 308.125C294.874 307.649 295.552 307.412 296.441 307.412H297.77L298.659 303.916C298.924 302.834 299.302 302.05 299.813 301.557C300.323 301.064 301.054 300.818 302.005 300.818C302.762 300.818 303.334 301.002 303.73 301.381C304.127 301.76 304.32 302.305 304.32 303.027V307.403H308.555C310.034 307.403 310.773 308.063 310.773 309.375C310.773 310.194 310.545 310.836 310.087 311.294C309.629 311.752 308.942 311.981 308.018 311.981H304.329V323.144C304.329 324.72 304.558 325.82 305.016 326.445C305.474 327.07 306.134 327.379 306.979 327.379C307.604 327.379 308.097 327.326 308.458 327.229C308.819 327.132 309.18 327.079 309.541 327.079C309.999 327.079 310.36 327.22 310.624 327.493C310.888 327.775 311.02 328.171 311.02 328.699C311.02 329.06 310.95 329.395 310.8 329.703C310.65 330.011 310.448 330.301 310.184 330.566C309.884 330.865 309.286 331.208 308.388 331.596C307.481 331.992 306.213 332.185 304.576 332.185C302.049 332.185 300.262 331.508 299.214 330.143C298.166 328.778 297.638 326.921 297.638 324.561V311.963L297.621 311.99Z" fill="white"/>
<path d="M328.223 317.008C328.223 315.036 327.879 313.68 327.192 312.923C326.506 312.166 325.308 311.787 323.601 311.787C322.65 311.787 321.822 311.849 321.118 311.963C320.414 312.078 319.797 312.201 319.269 312.333C318.741 312.465 318.292 312.588 317.913 312.703C317.535 312.817 317.2 312.879 316.91 312.879C316.355 312.879 315.897 312.703 315.527 312.342C315.158 311.981 314.99 311.505 314.99 310.916C314.99 310.396 315.202 309.912 315.633 309.489C315.924 309.199 316.373 308.9 316.962 308.609C317.552 308.31 318.265 308.046 319.102 307.799C319.938 307.553 320.871 307.35 321.901 307.183C322.931 307.016 324.041 306.936 325.22 306.936C328.733 306.936 331.225 307.614 332.695 308.979C334.174 310.343 334.905 312.483 334.905 315.397C334.905 317.334 334.887 319.209 334.852 321.031C334.817 322.854 334.887 324.896 335.045 327.159L336.912 327.449C337.563 327.546 338.03 327.757 338.294 328.065C338.558 328.373 338.69 328.814 338.69 329.368C338.69 329.923 338.541 330.363 338.25 330.671C337.951 330.979 337.493 331.252 336.868 331.481C336.208 331.71 335.486 331.895 334.702 332.045C333.919 332.194 333.047 332.265 332.096 332.265C330.943 332.265 330.115 331.992 329.587 331.455C329.059 330.918 328.804 330.117 328.804 329.069V328.823L328.707 328.77C328.311 329.456 327.791 330.064 327.131 330.592C326.576 331.05 325.837 331.472 324.921 331.851C324.006 332.23 322.87 332.414 321.523 332.414C320.343 332.414 319.26 332.23 318.274 331.851C317.288 331.472 316.443 330.971 315.739 330.328C315.034 329.685 314.489 328.928 314.119 328.039C313.74 327.15 313.555 326.217 313.555 325.231C313.555 324.245 313.776 323.329 314.216 322.475C314.656 321.621 315.334 320.89 316.232 320.283C317.13 319.675 318.283 319.2 319.674 318.857C321.065 318.513 322.711 318.337 324.622 318.337C325.141 318.337 325.617 318.355 326.048 318.39C326.471 318.425 326.849 318.46 327.184 318.487C327.545 318.522 327.888 318.557 328.214 318.584V317.008H328.223ZM328.17 322.369C327.941 322.334 327.677 322.29 327.377 322.22C327.113 322.184 326.788 322.158 326.409 322.123C326.03 322.088 325.608 322.07 325.15 322.07C323.468 322.07 322.262 322.299 321.532 322.757C320.81 323.214 320.44 323.84 320.44 324.623C320.44 325.407 320.748 326.085 321.356 326.639C321.963 327.194 322.799 327.475 323.856 327.475C324.551 327.475 325.159 327.387 325.687 327.203C326.215 327.018 326.664 326.815 327.025 326.586C327.457 326.322 327.835 326.032 328.161 325.697V322.352L328.17 322.369Z" fill="white"/>
<path d="M344.157 312.333L341.895 311.84C341.235 311.673 340.768 311.444 340.495 311.153C340.213 310.854 340.081 310.431 340.081 309.877C340.081 309.287 340.222 308.838 340.495 308.521C340.777 308.213 341.243 307.958 341.895 307.755C342.582 307.561 343.374 307.394 344.254 307.262C345.135 307.13 345.989 307.068 346.807 307.068C348.058 307.068 348.92 307.315 349.413 307.808C349.906 308.301 350.153 309.12 350.153 310.264V310.907L350.25 310.96C350.646 310.203 351.183 309.533 351.87 308.944C352.459 308.451 353.243 307.993 354.203 307.57C355.171 307.148 356.395 306.927 357.865 306.927C360.717 306.927 362.918 307.72 364.459 309.313C366 310.907 366.774 313.257 366.774 316.374V327.194L368.641 327.784C369.327 328.013 369.803 328.277 370.067 328.567C370.331 328.858 370.463 329.289 370.463 329.844C370.463 330.434 370.252 330.927 369.82 331.323C369.389 331.719 368.808 331.913 368.051 331.913H358.904C358.147 331.913 357.557 331.719 357.134 331.323C356.712 330.927 356.492 330.434 356.492 329.844C356.492 329.289 356.624 328.858 356.888 328.567C357.152 328.268 357.627 328.013 358.314 327.784L360.083 327.194V317.941C360.083 315.749 359.687 314.191 358.904 313.293C358.12 312.395 356.967 311.937 355.462 311.937C354.704 311.937 354.044 312.06 353.472 312.307C352.9 312.553 352.415 312.826 352.019 313.117C351.561 313.478 351.165 313.856 350.84 314.252V327.194L352.609 327.784C353.296 328.013 353.771 328.277 354.035 328.567C354.299 328.858 354.431 329.289 354.431 329.844C354.431 330.434 354.22 330.927 353.789 331.323C353.366 331.719 352.776 331.913 352.019 331.913H342.573C341.816 331.913 341.226 331.719 340.803 331.323C340.381 330.927 340.161 330.434 340.161 329.844C340.161 329.289 340.293 328.867 340.557 328.585C340.821 328.303 341.314 328.057 342.036 327.819L344.149 327.176V312.315L344.157 312.333Z" fill="white"/>
<path d="M389.515 301.46L387.252 300.967C386.601 300.8 386.125 300.571 385.852 300.281C385.571 299.981 385.438 299.559 385.438 299.004C385.438 298.414 385.579 297.965 385.852 297.648C386.134 297.34 386.601 297.085 387.252 296.882C387.939 296.689 388.731 296.521 389.611 296.389C390.492 296.257 391.416 296.196 392.367 296.196C393.846 296.196 394.85 296.468 395.396 297.006C395.941 297.543 396.206 298.555 396.206 300.034V327.088L398.222 327.431C398.873 327.563 399.34 327.775 399.604 328.074C399.868 328.365 400 328.796 400 329.351C400 329.905 399.85 330.345 399.56 330.654C399.26 330.962 398.803 331.235 398.178 331.464C397.517 331.692 396.795 331.877 396.012 332.027C395.228 332.177 394.392 332.247 393.503 332.247C392.349 332.247 391.522 331.974 390.994 331.437C390.465 330.9 390.21 330.099 390.21 329.051V328.409L390.113 328.356C389.717 329.113 389.18 329.782 388.493 330.372C387.904 330.9 387.12 331.367 386.16 331.772C385.192 332.185 383.968 332.388 382.498 332.388C379.61 332.388 377.304 331.428 375.561 329.509C373.817 327.59 372.955 324.632 372.955 320.626C372.955 318.46 373.263 316.523 373.888 314.824C374.513 313.116 375.411 311.673 376.591 310.493C377.77 309.313 379.223 308.415 380.949 307.79C382.674 307.165 384.629 306.857 386.829 306.857C387.226 306.857 387.578 306.875 387.886 306.91C388.194 306.945 388.485 306.971 388.749 307.007C389.048 307.068 389.303 307.121 389.532 307.156L389.629 307.059C389.594 306.698 389.567 306.329 389.559 305.95C389.541 305.572 389.532 305.105 389.532 304.55V301.451L389.515 301.46ZM389.515 312.535C389.251 312.368 388.942 312.227 388.581 312.095C388.256 311.963 387.86 311.849 387.402 311.752C386.944 311.655 386.416 311.602 385.826 311.602C383.986 311.602 382.533 312.236 381.45 313.495C380.367 314.754 379.83 316.884 379.83 319.869C379.83 322.554 380.315 324.482 381.283 325.653C382.252 326.815 383.458 327.396 384.901 327.396C385.659 327.396 386.319 327.282 386.891 327.053C387.463 326.824 387.948 326.56 388.344 326.269C388.802 325.908 389.198 325.512 389.523 325.09V312.544L389.515 312.535Z" fill="white"/>
<path d="M28.5683 318.24C28.4538 319.438 28.5507 320.239 28.8588 320.644C29.1669 321.049 29.6247 321.251 30.2498 321.251C30.8044 321.251 31.3767 321.084 31.9489 320.749C32.5212 320.415 33.0318 319.869 33.4896 319.112C33.9474 318.355 34.3083 317.369 34.5901 316.145C34.8718 314.921 35.0038 313.425 35.0038 311.646C35.0038 307.896 33.9474 304.991 31.8345 302.939C29.7216 300.888 26.5786 299.867 22.4144 299.867C19.967 299.867 17.7132 300.289 15.6619 301.135C13.6106 301.98 11.8323 303.151 10.3533 304.647C8.86541 306.144 7.70331 307.949 6.85815 310.035C6.01298 312.13 5.5904 314.419 5.5904 316.893C5.5904 321.524 6.67327 324.966 8.8478 327.22C11.0223 329.474 14.3502 330.61 18.8401 330.61C20.1519 330.61 21.2787 330.53 22.2296 330.372C23.1804 330.213 23.9815 330.029 24.633 329.826C25.2845 329.624 25.8479 329.439 26.3145 329.28C26.7811 329.122 27.1861 329.043 27.5382 329.043C27.9784 329.043 28.3218 329.183 28.5683 329.483C28.8148 329.773 28.938 330.125 28.938 330.53C28.938 331.059 28.7356 331.516 28.3306 331.93C28.0665 332.194 27.6263 332.485 26.9924 332.802C26.3585 333.119 25.6102 333.418 24.721 333.673C23.8318 333.937 22.8194 334.158 21.6837 334.325C20.548 334.501 19.3243 334.589 18.0125 334.589C15.0369 334.589 12.4309 334.21 10.186 333.453C7.94101 332.696 6.06581 331.596 4.56916 330.152C3.06372 328.708 1.92803 326.938 1.1621 324.843C0.387367 322.748 0 320.336 0 317.624C0 314.472 0.563442 311.558 1.68152 308.882C2.7996 306.197 4.38428 303.881 6.42676 301.927C8.46924 299.972 10.9343 298.441 13.8131 297.34C16.7008 296.231 19.8877 295.676 23.3917 295.676C26.1913 295.676 28.6475 296.02 30.7604 296.706C32.8733 297.393 34.6341 298.37 36.0339 299.638C37.4337 300.906 38.4901 302.437 39.2033 304.233C39.9164 306.029 40.2773 308.028 40.2773 310.246C40.2773 312.606 39.9692 314.71 39.3617 316.541C38.7455 318.381 37.9355 319.922 36.9143 321.172C35.893 322.422 34.7045 323.373 33.3487 324.016C31.993 324.658 30.5755 324.975 29.0877 324.975C27.7143 324.975 26.605 324.729 25.7599 324.236C24.9147 323.743 24.3337 323.074 24.0079 322.228L23.9199 322.184C23.5149 322.713 23.0307 323.179 22.4761 323.584C21.983 323.936 21.3844 324.253 20.6801 324.544C19.9846 324.834 19.1482 324.984 18.1886 324.984C17.141 324.984 16.1814 324.817 15.3274 324.482C14.4646 324.148 13.7251 323.655 13.1 322.994C12.475 322.343 11.9908 321.533 11.6562 320.591C11.3217 319.649 11.1544 318.557 11.1544 317.333C11.1544 315.529 11.4361 313.882 12.0084 312.412C12.5718 310.942 13.3641 309.683 14.359 308.627C15.3538 307.57 16.5687 306.769 17.9773 306.197C19.3859 305.633 20.953 305.343 22.6697 305.343C24.0695 305.343 25.1964 305.475 26.0768 305.739C26.9484 306.003 27.6175 306.276 28.0841 306.566C28.5771 306.883 28.938 307.227 29.1581 307.596C29.3782 307.957 29.4575 308.45 29.3958 309.067L28.6123 318.249L28.5683 318.24ZM23.9815 309.63C23.8318 309.569 23.647 309.498 23.4093 309.41C23.2068 309.348 22.9603 309.296 22.6874 309.234C22.4056 309.172 22.0623 309.146 21.6485 309.146C21.0322 309.146 20.4336 309.296 19.8437 309.586C19.2539 309.877 18.7433 310.326 18.3031 310.942C17.8629 311.549 17.5107 312.324 17.2466 313.257C16.9825 314.191 16.8504 315.317 16.8504 316.629C16.8504 318.091 17.141 319.147 17.7308 319.799C18.3207 320.459 19.069 320.785 19.9758 320.785C20.504 320.785 20.9706 320.705 21.3668 320.547C21.763 320.388 22.0975 320.203 22.3616 320.001C22.6874 319.772 22.9603 319.508 23.198 319.217L23.9815 309.639V309.63Z" fill="white"/>
<path d="M108.771 369.117H107.943C107.195 369.117 106.825 368.792 106.825 368.149C106.825 367.762 106.94 367.454 107.177 367.216C107.415 366.978 107.749 366.864 108.181 366.864H108.841L109.281 365.138C109.413 364.601 109.598 364.214 109.854 363.967C110.109 363.721 110.461 363.606 110.936 363.606C111.306 363.606 111.588 363.703 111.782 363.888C111.975 364.073 112.072 364.346 112.072 364.698V366.864H114.159C114.889 366.864 115.25 367.189 115.25 367.832C115.25 368.237 115.136 368.554 114.907 368.783C114.678 369.012 114.344 369.126 113.886 369.126H112.063V374.646C112.063 375.421 112.178 375.967 112.407 376.275C112.636 376.583 112.953 376.733 113.375 376.733C113.683 376.733 113.93 376.706 114.106 376.662C114.282 376.618 114.458 376.592 114.643 376.592C114.872 376.592 115.048 376.662 115.18 376.803C115.312 376.944 115.374 377.138 115.374 377.402C115.374 377.578 115.338 377.745 115.268 377.904C115.197 378.053 115.092 378.203 114.96 378.326C114.81 378.467 114.52 378.643 114.071 378.837C113.622 379.031 112.997 379.127 112.187 379.127C110.936 379.127 110.056 378.793 109.537 378.115C109.017 377.446 108.762 376.521 108.762 375.359V369.135L108.771 369.117Z" fill="white"/>
<path d="M125.102 371.6C125.102 370.632 124.934 369.954 124.591 369.584C124.248 369.214 123.658 369.02 122.813 369.02C122.346 369.02 121.932 369.047 121.589 369.109C121.246 369.17 120.938 369.223 120.682 369.293C120.427 369.364 120.198 369.417 120.013 369.478C119.828 369.54 119.661 369.566 119.511 369.566C119.238 369.566 119.009 369.478 118.833 369.302C118.657 369.126 118.569 368.888 118.569 368.598C118.569 368.343 118.675 368.105 118.886 367.894C119.036 367.744 119.247 367.603 119.538 367.453C119.828 367.304 120.18 367.172 120.594 367.057C121.008 366.934 121.466 366.837 121.976 366.749C122.487 366.67 123.033 366.626 123.614 366.626C125.348 366.626 126.581 366.96 127.311 367.629C128.042 368.299 128.403 369.355 128.403 370.799C128.403 371.758 128.403 372.683 128.377 373.581C128.359 374.479 128.394 375.491 128.474 376.609L129.398 376.759C129.724 376.803 129.944 376.909 130.076 377.058C130.208 377.217 130.27 377.428 130.27 377.701C130.27 377.974 130.199 378.194 130.049 378.344C129.909 378.493 129.68 378.634 129.372 378.74C129.046 378.854 128.694 378.942 128.306 379.022C127.919 379.101 127.488 379.127 127.021 379.127C126.458 379.127 126.044 378.995 125.78 378.731C125.524 378.467 125.392 378.071 125.392 377.551V377.428L125.339 377.402C125.146 377.745 124.882 378.044 124.565 378.3C124.292 378.529 123.922 378.731 123.473 378.916C123.015 379.101 122.461 379.198 121.791 379.198C121.21 379.198 120.673 379.101 120.189 378.916C119.705 378.731 119.282 378.476 118.939 378.159C118.596 377.842 118.323 377.463 118.138 377.032C117.953 376.592 117.856 376.134 117.856 375.65C117.856 375.166 117.962 374.708 118.182 374.285C118.402 373.863 118.728 373.502 119.177 373.202C119.626 372.903 120.189 372.665 120.876 372.498C121.563 372.331 122.381 372.243 123.315 372.243C123.57 372.243 123.808 372.251 124.019 372.269C124.23 372.287 124.415 372.304 124.573 372.322C124.75 372.34 124.926 372.357 125.084 372.366V371.591L125.102 371.6ZM125.075 374.25C124.961 374.232 124.829 374.206 124.688 374.18C124.556 374.162 124.397 374.144 124.213 374.127C124.028 374.109 123.816 374.1 123.587 374.1C122.76 374.1 122.161 374.215 121.8 374.444C121.439 374.673 121.263 374.981 121.263 375.368C121.263 375.755 121.413 376.09 121.712 376.363C122.012 376.636 122.425 376.777 122.945 376.777C123.288 376.777 123.587 376.733 123.852 376.645C124.116 376.557 124.336 376.451 124.512 376.336C124.723 376.204 124.908 376.064 125.075 375.896V374.241V374.25Z" fill="white"/>
<path d="M133.826 363.914L132.858 363.694C132.532 363.615 132.303 363.501 132.162 363.342C132.022 363.192 131.96 362.972 131.96 362.699C131.96 362.409 132.03 362.189 132.162 362.03C132.303 361.881 132.532 361.749 132.858 361.652C133.148 361.573 133.518 361.493 133.967 361.423C134.416 361.352 134.839 361.317 135.244 361.317C135.974 361.317 136.476 361.449 136.74 361.713C137.005 361.978 137.145 362.479 137.145 363.21V372.19L140.5 369.047L140.059 368.809C139.804 368.668 139.619 368.501 139.522 368.325C139.426 368.149 139.373 367.947 139.373 367.726C139.373 367.471 139.461 367.26 139.637 367.101C139.813 366.943 140.068 366.864 140.385 366.864H144.593C144.937 366.864 145.192 366.943 145.368 367.101C145.544 367.26 145.632 367.471 145.632 367.726C145.632 368.017 145.553 368.255 145.386 368.44C145.227 368.624 144.954 368.792 144.585 368.959L143.951 369.223L140.57 372.172L141.908 373.907C142.199 374.294 142.489 374.646 142.771 374.954C143.053 375.262 143.334 375.544 143.607 375.791C143.88 376.037 144.162 376.266 144.444 376.469C144.725 376.671 145.016 376.856 145.307 377.014C145.535 377.146 145.685 377.27 145.755 377.393C145.826 377.516 145.861 377.657 145.861 377.816C145.861 378.159 145.694 378.458 145.351 378.714C145.007 378.969 144.505 379.101 143.845 379.101C143.458 379.101 143.088 379.048 142.727 378.951C142.366 378.854 142.023 378.705 141.697 378.502C141.371 378.3 141.037 378.036 140.711 377.701C140.385 377.367 140.059 376.97 139.743 376.495L137.119 372.745V376.618L137.533 376.812C137.903 376.988 138.14 377.155 138.246 377.296C138.352 377.446 138.404 377.648 138.404 377.93C138.404 378.221 138.29 378.467 138.061 378.661C137.832 378.854 137.533 378.951 137.163 378.951H133.175C132.805 378.951 132.515 378.854 132.303 378.661C132.092 378.467 131.986 378.221 131.986 377.93C131.986 377.657 132.048 377.446 132.171 377.296C132.295 377.146 132.506 377.032 132.814 376.935L133.809 376.618V363.906L133.826 363.914Z" fill="white"/>
<path d="M151.566 373.44C151.68 374.541 152.041 375.377 152.649 375.958C153.256 376.53 154.11 376.821 155.211 376.821C155.58 376.821 155.906 376.794 156.17 376.75C156.434 376.697 156.672 376.653 156.875 376.601C157.077 376.548 157.253 376.504 157.412 376.451C157.561 376.398 157.711 376.381 157.861 376.381C158.116 376.381 158.318 376.46 158.468 376.609C158.618 376.768 158.688 376.979 158.688 377.252C158.688 377.411 158.662 377.56 158.6 377.692C158.539 377.824 158.451 377.948 158.318 378.08C158.046 378.353 157.57 378.617 156.892 378.854C156.214 379.092 155.352 379.215 154.278 379.215C153.318 379.215 152.464 379.083 151.716 378.819C150.959 378.555 150.333 378.159 149.823 377.648C149.312 377.138 148.925 376.513 148.652 375.764C148.388 375.016 148.256 374.171 148.256 373.211C148.256 372.172 148.405 371.248 148.705 370.429C149.004 369.61 149.418 368.915 149.955 368.351C150.492 367.788 151.126 367.348 151.874 367.04C152.622 366.732 153.45 366.582 154.357 366.582C155.88 366.582 157.068 367.013 157.913 367.867C158.767 368.721 159.19 369.963 159.19 371.582C159.19 372.199 159.04 372.657 158.75 372.965C158.459 373.273 158.046 373.422 157.509 373.422H151.557L151.566 373.44ZM155.959 371.574C155.924 370.623 155.73 369.927 155.36 369.505C154.999 369.082 154.524 368.871 153.943 368.871C153.309 368.871 152.79 369.109 152.385 369.575C151.98 370.042 151.724 370.711 151.61 371.565H155.959V371.574Z" fill="white"/>
<path d="M169.816 373.246C169.816 372.243 169.975 371.327 170.292 370.508C170.609 369.69 171.049 368.985 171.63 368.404C172.202 367.823 172.898 367.374 173.699 367.057C174.5 366.74 175.389 366.582 176.358 366.582C178.189 366.582 179.624 367.101 180.663 368.149C181.701 369.197 182.221 370.667 182.221 372.56C182.221 373.563 182.071 374.479 181.772 375.298C181.472 376.116 181.041 376.821 180.469 377.402C179.905 377.983 179.21 378.432 178.4 378.749C177.59 379.066 176.683 379.224 175.68 379.224C173.848 379.224 172.413 378.705 171.375 377.657C170.336 376.609 169.816 375.139 169.816 373.246ZM173.215 372.859C173.215 373.537 173.294 374.136 173.443 374.646C173.602 375.157 173.796 375.579 174.051 375.914C174.306 376.248 174.606 376.495 174.949 376.653C175.292 376.812 175.662 376.9 176.058 376.9C176.833 376.9 177.484 376.592 178.013 375.967C178.541 375.342 178.805 374.338 178.805 372.965C178.805 372.287 178.726 371.688 178.576 371.177C178.426 370.667 178.224 370.244 177.969 369.91C177.722 369.575 177.423 369.329 177.071 369.17C176.718 369.012 176.357 368.924 175.961 368.924C175.187 368.924 174.535 369.232 174.007 369.857C173.479 370.482 173.215 371.486 173.215 372.859Z" fill="white"/>
<path d="M186.464 369.285L185.496 369.065C185.17 368.985 184.941 368.871 184.8 368.712C184.659 368.563 184.598 368.343 184.598 368.07C184.598 367.779 184.668 367.559 184.8 367.401C184.941 367.251 185.17 367.119 185.496 367.022C185.786 366.943 186.156 366.864 186.605 366.793C187.054 366.723 187.476 366.688 187.881 366.688C188.612 366.688 189.105 366.82 189.378 367.084C189.642 367.348 189.774 367.85 189.774 368.58V373.88C189.774 374.937 189.959 375.667 190.329 376.09C190.699 376.513 191.253 376.724 191.984 376.724C192.354 376.724 192.688 376.671 192.979 376.557C193.269 376.442 193.516 376.31 193.71 376.169C193.938 375.993 194.132 375.799 194.291 375.588V369.293L193.173 369.047C192.847 368.968 192.618 368.853 192.477 368.704C192.336 368.563 192.275 368.351 192.275 368.07C192.275 367.779 192.345 367.559 192.477 367.401C192.618 367.251 192.847 367.119 193.173 367.022C193.516 366.925 193.903 366.846 194.343 366.776C194.784 366.714 195.233 366.679 195.708 366.679C196.439 366.679 196.932 366.811 197.205 367.075C197.469 367.339 197.61 367.841 197.61 368.572V376.565L198.604 376.733C198.93 376.794 199.159 376.9 199.282 377.05C199.406 377.199 199.476 377.402 199.476 377.684C199.476 377.965 199.406 378.176 199.256 378.326C199.106 378.476 198.886 378.617 198.578 378.722C198.252 378.837 197.9 378.925 197.513 379.004C197.125 379.083 196.712 379.11 196.271 379.11C195.708 379.11 195.294 378.978 195.03 378.714C194.766 378.449 194.643 378.053 194.643 377.534V377.217L194.59 377.19C194.396 377.56 194.132 377.895 193.789 378.185C193.498 378.441 193.111 378.678 192.618 378.881C192.134 379.083 191.526 379.18 190.796 379.18C189.405 379.18 188.33 378.802 187.591 378.036C186.843 377.279 186.473 376.143 186.473 374.637V369.267L186.464 369.285Z" fill="white"/>
<path d="M203.015 369.117H202.188C201.439 369.117 201.07 368.792 201.07 368.149C201.07 367.762 201.184 367.454 201.422 367.216C201.66 366.978 201.994 366.864 202.425 366.864H203.086L203.526 365.138C203.658 364.601 203.843 364.214 204.098 363.967C204.354 363.721 204.706 363.606 205.181 363.606C205.551 363.606 205.833 363.703 206.026 363.888C206.22 364.073 206.317 364.346 206.317 364.698V366.864H208.403C209.134 366.864 209.495 367.189 209.495 367.832C209.495 368.237 209.38 368.554 209.152 368.783C208.923 369.012 208.588 369.126 208.13 369.126H206.308V374.646C206.308 375.421 206.422 375.967 206.651 376.275C206.88 376.583 207.197 376.733 207.62 376.733C207.928 376.733 208.174 376.706 208.35 376.662C208.527 376.618 208.703 376.592 208.887 376.592C209.116 376.592 209.292 376.662 209.424 376.803C209.557 376.944 209.618 377.138 209.618 377.402C209.618 377.578 209.583 377.745 209.513 377.904C209.442 378.053 209.336 378.203 209.204 378.326C209.055 378.467 208.764 378.643 208.315 378.837C207.866 379.031 207.241 379.127 206.431 379.127C205.181 379.127 204.301 378.793 203.781 378.115C203.262 377.446 203.007 376.521 203.007 375.359V369.135L203.015 369.117Z" fill="white"/>
<path d="M226.513 369.047C226.451 369.029 226.381 369.012 226.319 369.003C226.257 368.985 226.169 368.968 226.081 368.959C225.984 368.941 225.87 368.933 225.747 368.933C224.946 368.933 224.259 369.258 223.704 369.91C223.15 370.561 222.868 371.591 222.868 373C222.868 374.312 223.158 375.271 223.731 375.896C224.303 376.521 225.095 376.83 226.116 376.83C226.407 376.83 226.653 376.812 226.865 376.768C227.076 376.724 227.261 376.689 227.437 376.645C227.604 376.601 227.763 376.565 227.895 376.521C228.027 376.477 228.159 376.46 228.273 376.46C228.529 376.46 228.731 376.539 228.881 376.689C229.022 376.847 229.101 377.058 229.101 377.331C229.101 377.639 228.978 377.912 228.74 378.159C228.608 378.291 228.432 378.414 228.221 378.546C228 378.678 227.745 378.793 227.446 378.89C227.146 378.986 226.812 379.066 226.442 379.136C226.072 379.207 225.667 379.233 225.227 379.233C223.449 379.233 222.04 378.722 221.019 377.692C219.998 376.662 219.487 375.236 219.487 373.405C219.487 372.384 219.646 371.45 219.971 370.614C220.297 369.769 220.746 369.056 221.318 368.466C221.891 367.876 222.586 367.418 223.387 367.093C224.188 366.767 225.078 366.608 226.046 366.608C226.794 366.608 227.367 366.679 227.772 366.811C228.177 366.952 228.485 367.119 228.696 367.33C228.828 367.462 228.916 367.63 228.978 367.841C229.03 368.052 229.066 368.431 229.066 368.985V369.787C229.066 369.945 229.057 370.209 229.039 370.561C229.022 370.905 228.934 371.151 228.758 371.301C228.59 371.459 228.361 371.53 228.088 371.53C227.816 371.53 227.595 371.45 227.437 371.292C227.279 371.133 227.138 370.896 227.023 370.57L226.539 369.056L226.513 369.047Z" fill="white"/>
<path d="M232.244 373.246C232.244 372.243 232.402 371.327 232.719 370.508C233.036 369.69 233.476 368.985 234.057 368.404C234.63 367.823 235.325 367.374 236.126 367.057C236.927 366.74 237.817 366.582 238.785 366.582C240.616 366.582 242.051 367.101 243.09 368.149C244.129 369.197 244.648 370.667 244.648 372.56C244.648 373.563 244.499 374.479 244.199 375.298C243.9 376.116 243.469 376.821 242.896 377.402C242.333 377.983 241.637 378.432 240.827 378.749C240.018 379.066 239.111 379.224 238.107 379.224C236.276 379.224 234.841 378.705 233.802 377.657C232.763 376.609 232.244 375.139 232.244 373.246ZM235.651 372.859C235.651 373.537 235.73 374.136 235.88 374.646C236.029 375.157 236.232 375.579 236.487 375.914C236.734 376.248 237.033 376.495 237.385 376.653C237.737 376.812 238.098 376.9 238.494 376.9C239.269 376.9 239.921 376.592 240.449 375.967C240.977 375.342 241.241 374.338 241.241 372.965C241.241 372.287 241.162 371.688 241.012 371.177C240.854 370.667 240.651 370.244 240.405 369.91C240.15 369.575 239.85 369.329 239.507 369.17C239.155 369.012 238.794 368.924 238.398 368.924C237.623 368.924 236.963 369.232 236.443 369.857C235.915 370.482 235.651 371.486 235.651 372.859Z" fill="white"/>
<path d="M249.332 369.117H248.407C247.677 369.117 247.316 368.792 247.316 368.149C247.316 367.761 247.43 367.453 247.668 367.216C247.906 366.978 248.24 366.864 248.672 366.864H249.332V366.309C249.332 364.689 249.781 363.439 250.67 362.55C251.559 361.66 252.845 361.22 254.535 361.22C255.001 361.22 255.415 361.264 255.776 361.352C256.137 361.44 256.384 361.555 256.533 361.704C256.595 361.766 256.648 361.837 256.692 361.898C256.736 361.96 256.771 362.048 256.797 362.153C256.833 362.259 256.85 362.4 256.868 362.567C256.885 362.735 256.894 362.955 256.894 363.21V363.844C256.894 363.976 256.885 364.178 256.868 364.451C256.85 364.759 256.762 364.988 256.604 365.129C256.445 365.27 256.225 365.349 255.952 365.349C255.679 365.349 255.459 365.27 255.292 365.12C255.125 364.971 254.993 364.724 254.878 364.407L254.588 363.536C254.588 363.536 254.517 363.536 254.464 363.509C254.412 363.492 254.359 363.483 254.297 363.474C254.236 363.465 254.156 363.465 254.077 363.465C253.61 363.465 253.25 363.606 253.012 363.888C252.774 364.17 252.651 364.663 252.651 365.358V366.864H254.376C255.107 366.864 255.468 367.189 255.468 367.832C255.468 368.237 255.354 368.554 255.125 368.783C254.896 369.012 254.561 369.126 254.104 369.126H252.642V376.636L253.813 376.953C254.165 377.049 254.412 377.173 254.544 377.314C254.676 377.463 254.737 377.666 254.737 377.947C254.737 378.238 254.632 378.484 254.42 378.678C254.209 378.872 253.919 378.969 253.549 378.969H248.566C248.196 378.969 247.906 378.872 247.694 378.678C247.483 378.484 247.377 378.238 247.377 377.947C247.377 377.675 247.439 377.463 247.571 377.331C247.703 377.19 247.941 377.067 248.302 376.953L249.349 376.636V369.126L249.332 369.117Z" fill="white"/>
<path d="M259.465 369.117H258.541C257.81 369.117 257.449 368.792 257.449 368.149C257.449 367.761 257.563 367.453 257.801 367.216C258.039 366.978 258.373 366.864 258.805 366.864H259.456V366.309C259.456 364.689 259.905 363.439 260.794 362.55C261.684 361.669 262.969 361.22 264.659 361.22C265.126 361.22 265.54 361.264 265.901 361.352C266.262 361.44 266.508 361.555 266.658 361.704C266.719 361.766 266.772 361.837 266.816 361.898C266.86 361.96 266.895 362.048 266.922 362.153C266.948 362.259 266.975 362.4 266.992 362.567C267.01 362.735 267.019 362.955 267.019 363.21V363.844C267.019 363.976 267.019 364.178 266.992 364.451C266.975 364.759 266.887 364.988 266.728 365.129C266.57 365.27 266.35 365.349 266.068 365.349C265.786 365.349 265.575 365.27 265.416 365.12C265.258 364.971 265.117 364.724 265.003 364.407L264.712 363.536C264.712 363.536 264.642 363.536 264.589 363.509C264.545 363.492 264.483 363.483 264.422 363.474C264.36 363.465 264.281 363.465 264.201 363.465C263.735 363.465 263.374 363.606 263.136 363.888C262.89 364.17 262.775 364.663 262.775 365.358V366.864H264.501C265.232 366.864 265.592 367.189 265.592 367.832C265.592 368.237 265.478 368.554 265.249 368.783C265.02 369.012 264.686 369.126 264.228 369.126H262.766V376.636L263.937 376.953C264.29 377.049 264.536 377.173 264.668 377.314C264.8 377.454 264.862 377.666 264.862 377.947C264.862 378.238 264.756 378.484 264.545 378.678C264.334 378.872 264.043 378.969 263.673 378.969H258.69C258.321 378.969 258.03 378.872 257.819 378.678C257.607 378.484 257.502 378.238 257.502 377.947C257.502 377.675 257.563 377.463 257.695 377.331C257.828 377.19 258.065 377.067 258.426 376.953L259.474 376.636V369.126L259.465 369.117Z" fill="white"/>
<path d="M271.368 373.44C271.482 374.541 271.843 375.377 272.451 375.958C273.058 376.53 273.912 376.821 275.013 376.821C275.382 376.821 275.708 376.794 275.972 376.75C276.236 376.697 276.474 376.653 276.677 376.601C276.879 376.548 277.055 376.504 277.214 376.451C277.372 376.398 277.522 376.381 277.663 376.381C277.918 376.381 278.12 376.46 278.27 376.609C278.42 376.768 278.49 376.979 278.49 377.252C278.49 377.411 278.464 377.56 278.402 377.692C278.34 377.824 278.252 377.948 278.12 378.08C277.847 378.353 277.372 378.617 276.703 378.854C276.034 379.101 275.162 379.215 274.088 379.215C273.129 379.215 272.275 379.083 271.526 378.819C270.769 378.555 270.144 378.159 269.633 377.648C269.123 377.138 268.736 376.513 268.463 375.764C268.198 375.016 268.058 374.171 268.058 373.211C268.058 372.172 268.207 371.248 268.507 370.429C268.806 369.61 269.22 368.915 269.757 368.351C270.294 367.788 270.928 367.348 271.676 367.04C272.424 366.732 273.243 366.582 274.15 366.582C275.673 366.582 276.861 367.013 277.715 367.867C278.569 368.721 278.992 369.963 278.992 371.582C278.992 372.199 278.842 372.657 278.552 372.965C278.261 373.273 277.847 373.422 277.31 373.422H271.359L271.368 373.44ZM275.77 371.574C275.734 370.623 275.541 369.927 275.171 369.505C274.81 369.082 274.335 368.871 273.745 368.871C273.111 368.871 272.592 369.109 272.187 369.575C271.782 370.042 271.526 370.711 271.412 371.565H275.761L275.77 371.574Z" fill="white"/>
<path d="M285.516 373.44C285.63 374.541 285.991 375.377 286.598 375.958C287.206 376.53 288.06 376.821 289.16 376.821C289.53 376.821 289.856 376.794 290.12 376.75C290.384 376.697 290.622 376.653 290.824 376.601C291.027 376.548 291.203 376.504 291.361 376.451C291.52 376.398 291.669 376.381 291.81 376.381C292.066 376.381 292.268 376.46 292.418 376.609C292.567 376.768 292.638 376.979 292.638 377.252C292.638 377.411 292.611 377.56 292.55 377.692C292.488 377.824 292.4 377.948 292.268 378.08C291.995 378.353 291.52 378.617 290.851 378.854C290.182 379.101 289.31 379.215 288.236 379.215C287.276 379.215 286.422 379.083 285.674 378.819C284.917 378.555 284.292 378.159 283.781 377.648C283.271 377.138 282.883 376.513 282.61 375.764C282.346 375.016 282.205 374.171 282.205 373.211C282.205 372.172 282.355 371.248 282.654 370.429C282.954 369.61 283.367 368.915 283.904 368.351C284.442 367.788 285.075 367.348 285.824 367.04C286.572 366.732 287.391 366.582 288.298 366.582C289.821 366.582 291.009 367.013 291.863 367.867C292.717 368.721 293.14 369.963 293.14 371.582C293.14 372.199 292.99 372.657 292.699 372.965C292.409 373.273 291.995 373.422 291.458 373.422H285.507L285.516 373.44ZM289.917 371.574C289.882 370.623 289.689 369.927 289.319 369.505C288.949 369.082 288.482 368.871 287.893 368.871C287.259 368.871 286.739 369.109 286.334 369.575C285.929 370.042 285.674 370.711 285.56 371.565H289.909L289.917 371.574Z" fill="white"/>
<path d="M120.374 44.8212C120.797 45.2966 121.149 45.5431 121.413 45.5695C121.686 45.5959 121.924 45.4903 122.152 45.2437C122.355 45.0237 122.487 44.7419 122.566 44.3986C122.646 44.0552 122.61 43.6591 122.478 43.2101C122.346 42.7611 122.091 42.2681 121.712 41.7134C121.334 41.1676 120.797 40.5777 120.101 39.9351C118.631 38.5881 117.117 37.963 115.558 38.0511C114 38.1479 112.477 39.0019 110.98 40.6306C110.1 41.5902 109.457 42.6202 109.052 43.7295C108.647 44.8388 108.471 45.948 108.524 47.0661C108.577 48.1842 108.859 49.2847 109.378 50.3675C109.898 51.4504 110.637 52.4364 111.606 53.3168C113.419 54.9719 115.153 55.7819 116.809 55.7467C118.473 55.7026 120.101 54.8047 121.712 53.0527C122.179 52.5421 122.557 52.0667 122.83 51.6441C123.103 51.2215 123.323 50.8341 123.482 50.5084C123.64 50.1827 123.764 49.8921 123.869 49.6544C123.975 49.4167 124.089 49.2231 124.213 49.091C124.371 48.9237 124.547 48.8357 124.75 48.8445C124.952 48.8533 125.137 48.9325 125.295 49.0734C125.498 49.2583 125.612 49.5048 125.621 49.8129C125.63 50.0066 125.586 50.2883 125.489 50.6493C125.392 51.0102 125.234 51.4064 125.014 51.8554C124.794 52.2956 124.521 52.771 124.177 53.2816C123.843 53.7922 123.438 54.3028 122.962 54.8135C121.897 55.9756 120.814 56.8647 119.714 57.4634C118.613 58.0709 117.513 58.4054 116.412 58.4758C115.312 58.5463 114.211 58.3526 113.111 57.9036C112.011 57.4546 110.936 56.7415 109.871 55.7731C108.639 54.6462 107.705 53.3784 107.054 51.9786C106.411 50.5788 106.068 49.1262 106.033 47.6296C105.998 46.1329 106.288 44.6187 106.887 43.0956C107.485 41.5726 108.419 40.1199 109.669 38.7554C110.672 37.6637 111.685 36.8273 112.715 36.2463C113.736 35.6652 114.749 35.3307 115.752 35.2338C116.747 35.137 117.724 35.2779 118.684 35.6388C119.643 35.9998 120.55 36.5808 121.422 37.3732C122.346 38.2183 123.059 39.0899 123.552 39.9879C124.054 40.8859 124.362 41.7574 124.485 42.6114C124.609 43.4566 124.556 44.2665 124.318 45.0237C124.081 45.7808 123.702 46.4587 123.165 47.0397C122.672 47.5767 122.179 47.9201 121.686 48.0698C121.193 48.2194 120.717 48.2106 120.268 48.0345L120.216 48.0522C120.277 48.3955 120.286 48.7565 120.242 49.1174C120.198 49.4343 120.11 49.7865 119.978 50.1651C119.837 50.5436 119.599 50.9222 119.256 51.3008C118.877 51.7145 118.473 52.0227 118.032 52.2428C117.592 52.4629 117.134 52.5685 116.65 52.5861C116.166 52.5949 115.682 52.4981 115.189 52.2868C114.696 52.0755 114.211 51.7585 113.736 51.3184C113.032 50.6669 112.486 49.9714 112.116 49.2231C111.746 48.4747 111.535 47.7176 111.482 46.9517C111.429 46.1858 111.544 45.4198 111.834 44.6627C112.116 43.9056 112.565 43.1925 113.181 42.5234C113.683 41.9775 114.141 41.5814 114.555 41.3349C114.969 41.0884 115.321 40.9299 115.602 40.8507C115.902 40.7714 116.166 40.7538 116.386 40.7978C116.606 40.8419 116.826 40.9827 117.046 41.2292L120.357 44.83L120.374 44.8212ZM115.365 43.5358C115.294 43.571 115.198 43.6238 115.074 43.6767C114.977 43.7383 114.872 43.8087 114.749 43.8968C114.625 43.9848 114.493 44.1081 114.344 44.2753C114.123 44.513 113.965 44.8036 113.868 45.1381C113.771 45.4726 113.762 45.8336 113.851 46.2298C113.939 46.6259 114.106 47.0309 114.379 47.4711C114.652 47.9113 115.039 48.3603 115.558 48.8357C116.131 49.3551 116.65 49.6192 117.117 49.628C117.583 49.628 117.98 49.4608 118.305 49.0998C118.49 48.8973 118.631 48.686 118.71 48.4747C118.789 48.2634 118.833 48.0698 118.851 47.8937C118.877 47.6824 118.869 47.4799 118.842 47.2862L115.382 43.5446L115.365 43.5358Z" fill="white"/>
<path d="M133.316 38.9138C133.844 38.5088 134.134 37.9982 134.205 37.3908C134.275 36.7833 134.073 36.167 133.597 35.5596C133.351 35.2426 133.069 34.9961 132.752 34.8201C132.435 34.644 132.074 34.5559 131.678 34.5471C131.282 34.5383 130.851 34.6352 130.384 34.8289C129.917 35.0225 129.416 35.3307 128.879 35.7445C128.597 35.9645 128.297 36.0438 127.981 35.991C127.664 35.9381 127.382 35.7533 127.144 35.4363C127.021 35.2778 126.95 35.137 126.942 34.9961C126.933 34.8553 126.942 34.7408 126.977 34.6352C127.012 34.5295 127.091 34.4151 127.206 34.283C127.32 34.151 127.505 33.9925 127.752 33.8076C128.148 33.4995 128.456 33.1914 128.685 32.8656C128.914 32.5399 129.063 32.2141 129.125 31.8884C129.187 31.5627 129.178 31.2457 129.09 30.9288C129.002 30.6118 128.852 30.3125 128.632 30.0308C128.297 29.5994 127.884 29.3705 127.373 29.3353C126.871 29.3001 126.352 29.4938 125.824 29.8987C125.595 30.0748 125.392 30.2597 125.243 30.4534C125.084 30.6383 124.943 30.8231 124.82 30.9992C124.697 31.1665 124.591 31.3249 124.494 31.4746C124.397 31.6243 124.292 31.7299 124.186 31.818C123.975 31.9764 123.755 32.0469 123.517 32.0116C123.279 31.9764 123.077 31.862 122.918 31.6507C122.76 31.4394 122.698 31.2017 122.733 30.92C122.795 30.4622 123.015 29.934 123.42 29.3177C123.816 28.7102 124.38 28.1204 125.119 27.5481C125.709 27.0991 126.273 26.7646 126.818 26.5621C127.364 26.3596 127.875 26.2628 128.35 26.2716C128.826 26.2804 129.266 26.4036 129.671 26.6325C130.076 26.8614 130.428 27.1696 130.727 27.5657C130.974 27.8827 131.168 28.226 131.3 28.5958C131.44 28.9655 131.52 29.3441 131.546 29.7315C131.572 30.1188 131.546 30.5062 131.458 30.8848C131.37 31.2633 131.22 31.6243 131.018 31.9588L131.035 31.9764C131.467 31.7739 131.898 31.6419 132.33 31.5803C132.752 31.5098 133.175 31.5274 133.589 31.6155C134.002 31.7035 134.398 31.8708 134.786 32.1173C135.173 32.3638 135.525 32.6983 135.851 33.1121C136.291 33.6844 136.599 34.3094 136.776 34.9697C136.952 35.6388 136.969 36.3079 136.846 36.9946C136.723 37.6725 136.441 38.3504 136.018 39.0107C135.596 39.6709 135.015 40.2872 134.275 40.8594C133.765 41.2556 133.28 41.5461 132.831 41.7398C132.382 41.9335 131.977 42.0304 131.616 42.048C131.256 42.0656 130.939 42.0039 130.666 41.8895C130.393 41.7662 130.173 41.599 130.005 41.3789C129.768 41.0707 129.671 40.7626 129.706 40.4369C129.741 40.1199 129.891 39.8558 130.164 39.6445C130.331 39.5125 130.534 39.4508 130.754 39.4508C130.974 39.4508 131.22 39.4685 131.493 39.4773C131.766 39.4949 132.057 39.4685 132.365 39.4068C132.673 39.3452 132.999 39.1779 133.351 38.905L133.316 38.9138Z" fill="white"/>
<path d="M137.277 28.6486C136.599 27.4865 136.15 26.386 135.922 25.3383C135.701 24.2995 135.657 23.3311 135.807 22.4507C135.957 21.5703 136.274 20.778 136.767 20.0913C137.26 19.3958 137.885 18.8323 138.651 18.3834C139.47 17.9079 140.279 17.6086 141.089 17.4854C141.899 17.3621 142.692 17.4502 143.466 17.7319C144.241 18.0224 145.016 18.5242 145.764 19.2549C146.513 19.9856 147.243 20.9365 147.948 22.1426C148.625 23.3047 149.083 24.4051 149.303 25.4616C149.532 26.5092 149.567 27.4777 149.427 28.358C149.277 29.2384 148.96 30.0308 148.467 30.7175C147.974 31.4041 147.34 31.9764 146.583 32.4254C145.764 32.9008 144.954 33.2001 144.144 33.3234C143.334 33.4466 142.542 33.3674 141.767 33.0769C140.993 32.7863 140.218 32.2845 139.47 31.5626C138.712 30.8407 137.982 29.8723 137.277 28.6574V28.6486ZM139.998 26.8702C140.552 27.821 141.089 28.5781 141.618 29.1328C142.146 29.6962 142.648 30.1012 143.123 30.3653C143.607 30.6206 144.047 30.7439 144.461 30.7351C144.875 30.7263 145.254 30.6206 145.606 30.4181C145.94 30.2244 146.213 29.9515 146.425 29.5994C146.636 29.2472 146.75 28.8158 146.759 28.2876C146.759 27.7682 146.653 27.1431 146.416 26.4212C146.178 25.6993 145.791 24.8629 145.236 23.9121C144.681 22.9613 144.144 22.213 143.616 21.6496C143.088 21.0861 142.595 20.6811 142.119 20.4346C141.644 20.1881 141.195 20.0649 140.772 20.0825C140.35 20.0913 139.971 20.1969 139.646 20.3906C139.302 20.5931 139.021 20.866 138.818 21.2094C138.607 21.5527 138.501 21.9929 138.492 22.5123C138.492 23.0318 138.598 23.6568 138.827 24.3699C139.056 25.083 139.452 25.9194 140.007 26.8614L139.998 26.8702Z" fill="white"/>
<path d="M164.014 13.9551C163.953 13.9551 163.891 13.9639 163.821 13.9727C163.759 13.9727 163.68 13.9903 163.592 14.0079C163.495 14.0255 163.398 14.0519 163.284 14.0959C162.562 14.3513 162.042 14.8531 161.752 15.619C161.453 16.3849 161.532 17.3974 161.972 18.6651C162.386 19.8448 162.94 20.6284 163.654 21.0069C164.367 21.3855 165.177 21.4207 166.092 21.1038C166.356 21.0157 166.576 20.9189 166.752 20.8132C166.929 20.7076 167.087 20.6107 167.228 20.5227C167.369 20.4347 167.492 20.3466 167.606 20.2674C167.721 20.1882 167.827 20.1265 167.923 20.0913C168.152 20.0121 168.364 20.0209 168.54 20.1089C168.716 20.2058 168.848 20.373 168.936 20.6195C169.033 20.8925 169.006 21.183 168.865 21.4823C168.786 21.6408 168.672 21.8081 168.513 21.9929C168.355 22.1778 168.161 22.3627 167.923 22.5388C167.686 22.7237 167.404 22.8997 167.087 23.0758C166.77 23.2519 166.418 23.4103 166.022 23.5424C164.411 24.097 162.993 24.0794 161.743 23.472C160.502 22.8645 159.595 21.7376 159.023 20.0825C158.706 19.1669 158.556 18.2689 158.583 17.415C158.609 16.5522 158.794 15.7687 159.128 15.0556C159.463 14.3424 159.938 13.7174 160.563 13.1715C161.188 12.6257 161.937 12.2031 162.808 11.895C163.477 11.6661 164.023 11.5428 164.428 11.5428C164.833 11.5428 165.168 11.6045 165.423 11.7277C165.582 11.807 165.714 11.9302 165.837 12.0975C165.951 12.2736 166.101 12.6081 166.268 13.1011L166.339 13.2948C166.409 13.4973 166.471 13.6734 166.524 13.823C166.576 13.9727 166.647 14.2016 166.744 14.5361C166.832 14.8443 166.832 15.0996 166.726 15.2933C166.62 15.4869 166.444 15.6278 166.198 15.707C165.951 15.7951 165.731 15.7863 165.529 15.6982C165.326 15.6102 165.133 15.4341 164.93 15.1788L164.014 13.9639V13.9551Z" fill="white"/>
<path d="M170.749 15.9888C170.547 15.0556 170.512 14.1664 170.644 13.3388C170.776 12.5113 171.049 11.7718 171.471 11.1115C171.894 10.4512 172.44 9.89655 173.126 9.43875C173.813 8.98096 174.605 8.65522 175.512 8.46153C177.22 8.09177 178.664 8.29426 179.844 9.06019C181.023 9.82612 181.798 11.1027 182.177 12.8634C182.379 13.7966 182.423 14.6858 182.3 15.5046C182.186 16.3233 181.921 17.0716 181.508 17.7231C181.094 18.3834 180.539 18.938 179.853 19.3958C179.157 19.8536 178.347 20.1794 177.405 20.3819C175.697 20.7428 174.253 20.5491 173.074 19.7744C171.894 19.0085 171.119 17.7407 170.741 15.9712L170.749 15.9888ZM173.848 14.9499C173.98 15.5838 174.174 16.1296 174.421 16.5698C174.667 17.01 174.94 17.371 175.239 17.6263C175.539 17.8816 175.873 18.0577 176.225 18.1369C176.586 18.2161 176.938 18.2249 177.308 18.1369C178.03 17.9784 178.585 17.5558 178.946 16.8691C179.315 16.1825 179.359 15.1964 179.087 13.9111C178.955 13.2772 178.761 12.7314 178.514 12.2912C178.268 11.8422 177.995 11.49 177.696 11.2347C177.396 10.9794 177.071 10.8033 176.71 10.7241C176.349 10.6449 175.996 10.6361 175.627 10.7241C174.905 10.8826 174.35 11.3052 173.989 11.9919C173.619 12.6785 173.575 13.6646 173.848 14.9499Z" fill="white"/>
<path d="M186.561 9.09539L185.681 9.18343C184.985 9.25386 184.615 8.98094 184.554 8.36468C184.519 7.99492 184.598 7.68679 184.8 7.44028C185.003 7.19377 185.311 7.05291 185.725 7.00889L186.35 6.94727L186.297 6.41904C186.147 4.87838 186.447 3.64585 187.212 2.73025C187.978 1.80586 189.158 1.26883 190.76 1.11036C191.209 1.06634 191.606 1.06634 191.949 1.11916C192.292 1.17198 192.548 1.26002 192.697 1.38328C192.768 1.4361 192.821 1.49772 192.865 1.55055C192.909 1.60337 192.953 1.6826 192.997 1.77945C193.041 1.87629 193.076 1.99954 193.102 2.16681C193.137 2.32528 193.164 2.52777 193.19 2.77427L193.208 2.95915C193.225 3.11762 193.234 3.24968 193.252 3.37293C193.261 3.49618 193.278 3.68987 193.287 3.95398C193.296 4.24451 193.234 4.4734 193.093 4.62307C192.953 4.78154 192.75 4.86957 192.495 4.89599C192.239 4.9224 192.019 4.86957 191.852 4.73752C191.685 4.60546 191.526 4.39417 191.394 4.09484L191.033 3.2937C191.033 3.2937 190.963 3.2937 190.919 3.28489C190.875 3.27609 190.813 3.26729 190.752 3.26729C190.69 3.26729 190.62 3.26729 190.54 3.27609C190.091 3.32011 189.766 3.48738 189.563 3.77791C189.361 4.06843 189.29 4.54383 189.361 5.21292L189.501 6.63914L191.139 6.48067C191.834 6.41024 192.204 6.68315 192.275 7.29942C192.31 7.68679 192.231 7.99492 192.037 8.23262C191.843 8.47032 191.526 8.61118 191.104 8.6552L189.722 8.79606L190.435 15.9271L191.57 16.112C191.914 16.1736 192.16 16.2617 192.301 16.3937C192.433 16.517 192.521 16.7107 192.548 16.9748C192.574 17.2565 192.495 17.4942 192.319 17.6967C192.143 17.8992 191.87 18.0224 191.518 18.0576L186.79 18.533C186.438 18.5683 186.147 18.5066 185.936 18.3394C185.716 18.1721 185.593 17.952 185.566 17.6791C185.54 17.415 185.584 17.2125 185.689 17.0716C185.795 16.9308 186.015 16.7899 186.35 16.649L187.309 16.2529L186.596 9.1218L186.561 9.09539Z" fill="white"/>
<path d="M196.641 8.3735L195.761 8.39111C195.065 8.39991 194.713 8.10058 194.704 7.48432C194.704 7.11456 194.81 6.81523 195.03 6.58633C195.25 6.35743 195.567 6.24298 195.99 6.23418H196.615L196.606 5.68834C196.58 4.13888 196.985 2.94156 197.821 2.0876C198.657 1.23363 199.881 0.79344 201.492 0.767029C201.941 0.767029 202.337 0.79344 202.681 0.872674C203.024 0.951908 203.262 1.05755 203.403 1.19841C203.464 1.26004 203.517 1.32167 203.552 1.38329C203.596 1.44492 203.632 1.52415 203.658 1.621C203.693 1.71784 203.72 1.84989 203.737 2.01717C203.755 2.17563 203.764 2.38693 203.772 2.63343V2.81831C203.772 2.97678 203.772 3.10884 203.781 3.23209C203.781 3.35534 203.781 3.54902 203.764 3.81314C203.755 4.10366 203.667 4.32376 203.517 4.46462C203.367 4.60548 203.156 4.67591 202.892 4.68471C202.628 4.68471 202.417 4.62309 202.258 4.47342C202.1 4.32376 201.968 4.10366 201.853 3.79553L201.563 2.96797C201.563 2.96797 201.492 2.96797 201.448 2.95037C201.404 2.93276 201.343 2.92396 201.281 2.91515C201.219 2.91515 201.149 2.90635 201.07 2.91515C200.621 2.91515 200.286 3.06482 200.057 3.33773C199.828 3.61065 199.723 4.07725 199.731 4.74634L199.758 6.18136L201.404 6.15494C202.1 6.14614 202.452 6.44547 202.461 7.06173C202.461 7.4491 202.364 7.74843 202.152 7.96852C201.941 8.18862 201.615 8.30307 201.184 8.31187L199.793 8.33828L199.908 15.5046L201.026 15.7863C201.369 15.8743 201.598 15.9888 201.73 16.1208C201.853 16.2617 201.924 16.4554 201.924 16.7195C201.924 17.0012 201.827 17.2301 201.633 17.415C201.439 17.5999 201.158 17.7055 200.805 17.7055L196.051 17.7847C195.699 17.7847 195.418 17.7055 195.215 17.5206C195.013 17.3358 194.907 17.1069 194.907 16.8251C194.907 16.561 194.96 16.3673 195.083 16.2353C195.206 16.1032 195.435 15.98 195.77 15.8655L196.765 15.5486L196.65 8.3823L196.641 8.3735Z" fill="white"/>
<path d="M208.253 12.749C208.262 13.8054 208.535 14.633 209.063 15.2316C209.592 15.8303 210.375 16.1825 211.423 16.2793C211.775 16.3145 212.083 16.3145 212.338 16.2969C212.594 16.2705 212.823 16.2441 213.025 16.2177C213.219 16.1913 213.395 16.156 213.544 16.1296C213.694 16.0944 213.835 16.0856 213.976 16.1032C214.222 16.1296 214.407 16.2177 214.531 16.3761C214.654 16.5346 214.707 16.7459 214.68 17.01C214.663 17.1597 214.627 17.3005 214.566 17.415C214.504 17.5294 214.398 17.6527 214.266 17.7583C213.985 17.996 213.509 18.1985 212.849 18.3746C212.189 18.5507 211.352 18.5859 210.331 18.489C209.424 18.4098 208.623 18.2073 207.928 17.8816C207.232 17.5647 206.669 17.1333 206.229 16.605C205.788 16.0768 205.471 15.4429 205.287 14.7122C205.102 13.9815 205.049 13.1628 205.128 12.256C205.216 11.2699 205.445 10.3984 205.797 9.65005C206.149 8.90173 206.607 8.27666 207.171 7.78365C207.725 7.29063 208.377 6.92968 209.107 6.70958C209.838 6.48069 210.639 6.41026 211.502 6.48949C212.946 6.62155 214.037 7.13217 214.777 8.03015C215.508 8.91933 215.807 10.1343 215.666 11.6749C215.613 12.256 215.437 12.6874 215.129 12.9515C214.821 13.2156 214.416 13.33 213.914 13.286L208.253 12.7666V12.749ZM212.602 11.358C212.655 10.4512 212.523 9.7733 212.215 9.34192C211.907 8.91053 211.476 8.66403 210.921 8.62001C210.322 8.56718 209.803 8.74326 209.38 9.15704C208.958 9.57081 208.65 10.1783 208.465 10.9794L212.602 11.358Z" fill="white"/>
<path d="M221.785 14.5802C221.67 15.6278 221.829 16.4906 222.278 17.1421C222.727 17.8024 223.466 18.2425 224.496 18.4714C224.84 18.5507 225.148 18.5859 225.403 18.5947C225.659 18.6035 225.887 18.6035 226.09 18.5947C226.284 18.5947 226.46 18.5859 226.618 18.5683C226.768 18.5595 226.918 18.5683 227.05 18.5947C227.287 18.6475 227.463 18.762 227.569 18.9292C227.675 19.1053 227.701 19.3166 227.639 19.5719C227.604 19.7216 227.551 19.8536 227.472 19.9593C227.393 20.0649 227.278 20.1706 227.129 20.2674C226.812 20.4699 226.319 20.6108 225.641 20.7076C224.963 20.7956 224.127 20.734 223.132 20.5139C222.243 20.3202 221.468 20.0209 220.825 19.6159C220.174 19.211 219.663 18.718 219.293 18.1369C218.924 17.5559 218.686 16.8956 218.589 16.1472C218.492 15.3989 218.536 14.5802 218.739 13.6822C218.95 12.7138 219.276 11.8774 219.725 11.1819C220.174 10.4776 220.702 9.91417 221.318 9.50039C221.935 9.08661 222.621 8.80489 223.378 8.66403C224.136 8.53197 224.937 8.54958 225.782 8.73446C227.199 9.04259 228.22 9.68527 228.837 10.6625C229.453 11.6397 229.603 12.881 229.268 14.3865C229.145 14.9587 228.916 15.3637 228.581 15.5926C228.247 15.8215 227.833 15.8831 227.331 15.7687L221.776 14.5538L221.785 14.5802ZM226.266 13.7262C226.433 12.8282 226.389 12.1503 226.134 11.6749C225.879 11.2083 225.483 10.9178 224.937 10.7945C224.347 10.6625 223.819 10.7769 223.343 11.1379C222.868 11.4988 222.498 12.0623 222.216 12.837L226.275 13.7174L226.266 13.7262Z" fill="white"/>
<path d="M239.938 23.2166C240.044 23.3311 240.167 23.4367 240.299 23.5423C240.431 23.6304 240.59 23.736 240.784 23.8505C240.977 23.9649 241.206 24.0794 241.461 24.185C242.104 24.4579 242.588 24.5372 242.932 24.4403C243.266 24.3435 243.504 24.1234 243.645 23.7977C243.777 23.4807 243.742 23.1814 243.557 22.8821C243.363 22.5827 243.099 22.2746 242.756 21.9489C242.412 21.6231 242.034 21.2886 241.629 20.9188C241.224 20.5579 240.863 20.1617 240.572 19.7303C240.282 19.2989 240.07 18.8411 239.965 18.3305C239.859 17.8287 239.938 17.2564 240.202 16.6314C240.387 16.1912 240.66 15.8038 241.012 15.4869C241.365 15.1699 241.796 14.9411 242.298 14.809C242.8 14.6769 243.389 14.6505 244.041 14.721C244.692 14.7914 245.423 15.0027 246.215 15.3372C247.069 15.6982 247.686 16.0415 248.064 16.3673C248.443 16.693 248.681 16.9571 248.76 17.1596C248.821 17.3181 248.848 17.4941 248.83 17.6702C248.813 17.8463 248.742 18.0928 248.61 18.4097L248.566 18.5154C248.496 18.6739 248.434 18.8235 248.381 18.9644C248.32 19.1052 248.249 19.2549 248.17 19.4046C248.029 19.6599 247.853 19.8272 247.65 19.8888C247.448 19.9504 247.228 19.9328 246.981 19.836C246.735 19.7303 246.576 19.5894 246.497 19.4046C246.418 19.2197 246.383 18.9732 246.392 18.6562L246.436 17.9431C246.321 17.8639 246.189 17.7671 246.048 17.6526C245.934 17.5734 245.793 17.4765 245.626 17.3709C245.458 17.2653 245.273 17.1684 245.053 17.0804C244.455 16.8251 244.023 16.7458 243.75 16.8339C243.477 16.9219 243.284 17.1068 243.161 17.3885C243.037 17.6702 243.081 17.9608 243.275 18.2513C243.469 18.5418 243.742 18.8411 244.085 19.1581C244.428 19.4662 244.807 19.8095 245.221 20.1705C245.626 20.5315 245.978 20.9364 246.277 21.3678C246.576 21.7992 246.77 22.2746 246.867 22.8028C246.964 23.3223 246.885 23.9033 246.612 24.546C246.418 25.0126 246.127 25.4176 245.758 25.7433C245.388 26.069 244.939 26.3067 244.411 26.4476C243.882 26.5885 243.275 26.6149 242.579 26.5444C241.884 26.474 241.118 26.2627 240.299 25.9106C239.393 25.532 238.732 25.1622 238.327 24.8013C237.922 24.4491 237.685 24.1674 237.597 23.9649C237.535 23.7977 237.508 23.6304 237.526 23.4543C237.544 23.2782 237.614 23.0317 237.746 22.7148L237.808 22.5651C237.869 22.4067 237.94 22.257 237.993 22.1161C238.046 21.9753 238.125 21.8256 238.204 21.6759C238.345 21.4206 238.521 21.2534 238.723 21.1917C238.926 21.1301 239.146 21.1477 239.393 21.2446C239.63 21.3502 239.797 21.4911 239.877 21.6759C239.956 21.8608 239.991 22.1073 239.974 22.4243L239.93 23.1902L239.938 23.2166Z" fill="white"/>
<path d="M253.109 21.2358L252.413 20.8572C251.788 20.5139 251.621 20.0737 251.92 19.5279C252.096 19.2021 252.334 18.9908 252.642 18.9028C252.941 18.8148 253.285 18.8676 253.646 19.0701L254.192 19.3694L255.345 18.1193C255.697 17.7319 256.032 17.4942 256.357 17.4061C256.674 17.3181 257.035 17.3797 257.431 17.591C257.74 17.7583 257.942 17.9696 258.012 18.2161C258.092 18.4626 258.048 18.7355 257.889 19.0349L256.903 20.8484L258.655 21.7992C259.263 22.1338 259.421 22.5652 259.131 23.111C258.946 23.4543 258.708 23.6656 258.417 23.7537C258.127 23.8417 257.784 23.7801 257.405 23.5688L255.873 22.7412L253.355 27.3632C253.003 28.0147 252.845 28.5253 252.897 28.8863C252.95 29.2472 253.144 29.529 253.505 29.7138C253.76 29.8547 253.98 29.9427 254.148 29.9868C254.315 30.0308 254.482 30.0924 254.632 30.1716C254.825 30.2773 254.94 30.4093 254.984 30.5854C255.028 30.7615 254.993 30.9552 254.878 31.1753C254.799 31.3249 254.693 31.4482 254.561 31.545C254.429 31.6419 254.28 31.7123 254.112 31.7651C253.927 31.8179 253.602 31.8267 253.135 31.7915C252.669 31.7475 252.105 31.545 251.418 31.1753C250.371 30.603 249.79 29.9163 249.658 29.124C249.526 28.3228 249.728 27.4337 250.265 26.4564L253.1 21.2446L253.109 21.2358Z" fill="white"/>
<path d="M265.531 31.6066C266.059 30.8407 266.288 30.2244 266.226 29.749C266.165 29.2736 265.804 28.807 265.135 28.3404C264.765 28.0851 264.43 27.8826 264.122 27.7418C263.823 27.6009 263.55 27.4777 263.312 27.3896C263.075 27.3016 262.863 27.2223 262.687 27.1695C262.511 27.1079 262.362 27.0463 262.247 26.967C262.027 26.8174 261.904 26.6237 261.86 26.386C261.816 26.1483 261.877 25.9194 262.036 25.6905C262.177 25.488 262.388 25.3559 262.67 25.3119C262.863 25.2767 263.119 25.2767 263.427 25.3295C263.735 25.3736 264.087 25.4616 264.474 25.5936C264.862 25.7257 265.284 25.893 265.725 26.1043C266.165 26.3156 266.623 26.5885 267.08 26.9054C268.436 27.8474 269.22 28.7806 269.431 29.705C269.634 30.6294 269.352 31.6595 268.559 32.7863C268.04 33.5347 267.529 34.2566 267.028 34.9521C266.526 35.6476 266.006 36.4575 265.461 37.3819L266.103 37.9982C266.332 38.2095 266.455 38.412 266.473 38.6056C266.491 38.7993 266.42 39.0018 266.27 39.2131C266.121 39.4244 265.945 39.5565 265.751 39.6005C265.549 39.6445 265.302 39.6269 265.003 39.5476C264.686 39.4596 264.36 39.3364 264.017 39.1867C263.673 39.037 263.312 38.8257 262.951 38.5704C262.511 38.2623 262.256 37.9366 262.194 37.5844C262.133 37.2323 262.247 36.8537 262.529 36.4487L262.599 36.3519L262.573 36.3079C262.238 36.4663 261.869 36.5632 261.472 36.5896C261.129 36.616 260.733 36.5896 260.275 36.4839C259.817 36.3783 259.333 36.1494 258.805 35.7884C258.347 35.4715 257.977 35.1105 257.696 34.6968C257.414 34.283 257.229 33.8604 257.123 33.4202C257.018 32.98 257.018 32.5398 257.106 32.0996C257.194 31.6507 257.379 31.2457 257.643 30.8583C257.907 30.4797 258.241 30.1804 258.638 29.9691C259.034 29.7578 259.492 29.6522 260.011 29.661C260.522 29.661 261.094 29.7931 261.728 30.0308C262.362 30.2685 263.048 30.647 263.779 31.1576C263.981 31.2985 264.158 31.4306 264.316 31.5626C264.475 31.6859 264.607 31.8003 264.73 31.906C264.862 32.0116 264.985 32.1173 265.1 32.2229L265.522 31.6154L265.531 31.6066ZM264.07 33.6755C263.99 33.5963 263.902 33.5083 263.805 33.4026C263.709 33.3234 263.594 33.2177 263.462 33.1033C263.321 32.9888 263.163 32.8656 262.987 32.7423C262.335 32.2933 261.807 32.0556 261.402 32.038C260.997 32.0204 260.689 32.1613 260.478 32.4694C260.266 32.7775 260.205 33.1209 260.293 33.4994C260.381 33.878 260.627 34.2126 261.032 34.4943C261.296 34.6792 261.56 34.8112 261.816 34.8816C262.071 34.9521 262.3 34.9961 262.502 35.0049C262.74 35.0225 262.969 35.0049 263.18 34.9697L264.078 33.6755H264.07Z" fill="white"/>
<path d="M274.299 35.4892L273.674 34.6C273.498 34.3359 273.41 34.107 273.41 33.9133C273.41 33.7196 273.498 33.5348 273.674 33.3411C273.859 33.1386 274.053 33.0241 274.255 33.0065C274.458 32.9889 274.696 33.0506 274.986 33.1914C275.285 33.3411 275.611 33.5348 275.963 33.7725C276.315 34.0102 276.632 34.2567 276.914 34.5208C277.346 34.917 277.566 35.2779 277.583 35.6125C277.601 35.9382 277.425 36.2992 277.055 36.7041L276.852 36.9242L276.87 36.9682C277.249 36.8362 277.654 36.7746 278.076 36.7834C278.437 36.801 278.851 36.889 279.326 37.0475C279.802 37.2059 280.286 37.5229 280.805 37.9983C281.791 38.9051 282.302 39.8911 282.328 40.9299C282.355 41.9688 281.871 43.034 280.876 44.1169L277.416 47.8761L277.874 48.6773C278.041 48.9766 278.12 49.2231 278.12 49.408C278.12 49.5929 278.023 49.7865 277.847 49.9802C277.662 50.1827 277.425 50.2884 277.152 50.2884C276.879 50.2884 276.615 50.1739 276.351 49.9274L273.181 47.0046C272.917 46.7668 272.776 46.5027 272.759 46.2386C272.732 45.9657 272.82 45.728 273.005 45.5255C273.181 45.3318 273.366 45.2262 273.551 45.2086C273.736 45.191 273.982 45.2526 274.299 45.3935L275.101 45.7544L278.05 42.5498C278.754 41.7927 279.106 41.1236 279.124 40.5602C279.141 39.9967 278.886 39.4685 278.358 38.9931C278.094 38.7554 277.83 38.5793 277.548 38.4825C277.266 38.3856 277.02 38.324 276.782 38.2976C276.509 38.28 276.254 38.28 276.007 38.3152L271.878 42.8051L272.301 43.5711C272.468 43.8704 272.547 44.1169 272.547 44.3018C272.547 44.4867 272.451 44.6804 272.275 44.874C272.09 45.0765 271.852 45.1822 271.579 45.1822C271.306 45.1822 271.042 45.0589 270.778 44.8212L267.503 41.8103C267.239 41.5726 267.098 41.3085 267.08 41.0444C267.054 40.7715 267.142 40.5338 267.327 40.3313C267.503 40.1376 267.688 40.032 267.864 40.0231C268.04 40.0143 268.295 40.076 268.621 40.2344L269.554 40.6922L274.299 35.542V35.4892Z" fill="white"/>
<path d="M294.425 49.0382L293.932 48.061C293.8 47.7704 293.738 47.5327 293.765 47.3479C293.791 47.163 293.905 46.9781 294.108 46.8108C294.319 46.6347 294.53 46.5555 294.724 46.5555C294.918 46.5643 295.156 46.6612 295.42 46.8372C295.693 47.0309 295.992 47.2686 296.3 47.5503C296.608 47.8321 296.907 48.149 297.189 48.5011C297.629 49.0382 297.832 49.4872 297.797 49.8481C297.761 50.2091 297.471 50.6053 296.934 51.0454L287.056 59.1185L287.531 59.9549C287.681 60.2366 287.743 60.4655 287.707 60.6504C287.681 60.8352 287.558 61.0113 287.355 61.1786C287.153 61.3459 286.95 61.4251 286.748 61.4075C286.545 61.3899 286.308 61.3018 286.044 61.1434C285.762 60.9761 285.48 60.7648 285.19 60.5183C284.899 60.2718 284.626 59.9901 284.362 59.6643C284.019 59.2506 283.869 58.8632 283.913 58.5022C283.957 58.1501 284.168 57.8156 284.547 57.5074L284.785 57.3137V57.2609C284.38 57.3401 283.975 57.349 283.552 57.2697C283.182 57.2081 282.777 57.0672 282.346 56.8383C281.915 56.6094 281.466 56.2221 281.025 55.685C280.163 54.6286 279.828 53.5017 280.004 52.2956C280.189 51.0895 281.008 49.8921 282.469 48.6948C283.262 48.0522 284.063 47.5856 284.864 47.3038C285.674 47.0221 286.466 46.9253 287.25 47.0045C288.033 47.0837 288.799 47.3479 289.539 47.788C290.278 48.2282 290.983 48.8533 291.634 49.6544C291.748 49.7953 291.845 49.9274 291.933 50.0506C292.013 50.1739 292.092 50.2883 292.153 50.394C292.215 50.5172 292.277 50.6317 292.329 50.7285H292.391C292.514 50.6141 292.638 50.4996 292.77 50.3764C292.902 50.2619 293.069 50.1122 293.271 49.945L294.407 49.0206L294.425 49.0382ZM290.393 52.3396C290.375 52.1899 290.331 52.0403 290.278 51.8642C290.225 51.7057 290.155 51.5296 290.049 51.3272C289.944 51.1247 289.812 50.9222 289.636 50.7109C289.09 50.0418 288.421 49.6985 287.637 49.6809C286.854 49.6632 285.912 50.0946 284.829 50.9926C283.851 51.7938 283.288 52.5421 283.147 53.2464C283.015 53.9507 283.156 54.5582 283.587 55.0864C283.816 55.3593 284.054 55.5706 284.309 55.7114C284.565 55.8523 284.802 55.9491 285.031 56.0108C285.295 56.0724 285.559 56.0988 285.815 56.09L290.393 52.3484V52.3396Z" fill="white"/>
<path d="M214.812 138.705C191.042 138.705 171.771 119.433 171.771 95.663C171.771 91.4988 172.36 87.4755 173.47 83.6635C155.536 88.8577 142.419 105.4 142.419 125.015C142.419 148.785 161.69 168.057 185.461 168.057C205.067 168.057 221.618 154.939 226.812 137.006C223 138.106 218.977 138.705 214.812 138.705Z" fill="white"/>
<path d="M199.987 220.333C146.777 220.333 103.488 177.045 103.488 123.835C103.488 70.6251 146.777 27.3281 199.987 27.3281C253.197 27.3281 296.485 70.6163 296.485 123.826C296.485 177.036 253.197 220.325 199.987 220.325V220.333ZM199.987 34.0982C150.509 34.0982 110.259 74.3491 110.259 123.826C110.259 173.304 150.509 213.555 199.987 213.555C249.464 213.555 289.715 173.304 289.715 123.826C289.715 74.3491 249.464 34.0982 199.987 34.0982Z" fill="white"/>
<path d="M272.125 117.382C269.352 114.494 265.698 112.558 261.719 112.355L261.42 113.139C263.964 115.375 265.989 117.831 267.301 120.789C269.009 124.654 269.229 128.871 268.137 132.903C267.08 136.838 264.809 140.598 261.067 142.534C252.449 146.989 244.384 142.376 241.259 133.546C240.889 132.507 240.669 131.336 240.572 130.112C240.493 128.985 239.754 128.017 238.671 127.7L238.547 127.665C236.945 127.198 235.325 128.325 235.193 129.989C235.167 130.315 235.14 130.641 235.105 130.966C234.366 138.661 232.332 146.012 227.983 152.324C211.097 177.098 176.71 181.421 153.573 162.845C138.915 151.18 133.298 132.489 137.189 114.424C139.866 101.051 149.11 89.7381 161.277 83.5491C165.476 81.3657 170.036 79.7458 174.887 78.6454L174.834 77.5977C164.481 76.3916 153.705 79.4289 145.051 85.4243C120.911 102.24 119.45 135.976 137.154 158.108C153.344 179.387 184.51 187.117 208.377 174.836C222.076 168.057 233.424 155.318 238.01 140.818C243.125 149.621 255.116 153.777 265.108 149.666C272.222 146.743 274.784 141.443 276.518 135.201C278.252 129.021 276.501 122.013 272.107 117.364L272.125 117.382Z" fill="white"/>
<path d="M235.677 77.9234L238.926 84.491L246.171 85.5387L240.924 90.6537L242.166 97.8728L235.677 94.4657L229.198 97.8728L230.439 90.6537L225.192 85.5387L232.438 84.491L235.677 77.9234Z" fill="white"/>
<path d="M199.987 243.162C134.187 243.162 80.6514 189.626 80.6514 123.826C80.6514 103.217 85.9865 82.8975 96.0933 65.0787C96.9648 63.5292 98.9369 62.9834 100.486 63.8638C102.036 64.7441 102.582 66.7074 101.701 68.2568C92.1492 85.1161 87.0958 104.335 87.0958 123.835C87.0958 186.087 137.735 236.726 199.987 236.726C262.238 236.726 312.878 186.087 312.878 123.835C312.878 104.335 307.824 85.1249 298.272 68.2568C297.392 66.7074 297.938 64.7441 299.487 63.8638C301.028 62.9922 303 63.5292 303.88 65.0787C313.987 82.9063 319.322 103.225 319.322 123.826C319.322 189.626 265.786 243.162 199.987 243.162Z" fill="white"/>
</svg>
