<svg width="14" height="18" viewBox="0 0 14 18" fill="none" xmlns="http://www.w3.org/2000/svg">
<path d="M14 7C14 12.4444 7 17.1111 7 17.1111C7 17.1111 0 12.4444 0 7C2.76642e-08 5.14349 0.737498 3.36301 2.05025 2.05025C3.36301 0.737498 5.14348 0 7 0C8.85652 0 10.637 0.737498 11.9497 2.05025C13.2625 3.36301 14 5.14349 14 7Z" fill="#D1AA3C"/>
<path d="M6.99984 9.33366C8.2885 9.33366 9.33317 8.28899 9.33317 7.00033C9.33317 5.71166 8.2885 4.66699 6.99984 4.66699C5.71117 4.66699 4.6665 5.71166 4.6665 7.00033C4.6665 8.28899 5.71117 9.33366 6.99984 9.33366Z" fill="white"/>
</svg>
