<?xml version="1.0" encoding="UTF-8"?>
<svg id="_レイヤー_1" data-name="レイヤー 1" xmlns="http://www.w3.org/2000/svg" version="1.1" viewBox="0 0 168 24">
  <defs>
    <style>
      .cls-1 {
        fill: #d0c2b4;
        stroke-width: 0px;
      }
    </style>
  </defs>
  <path class="cls-1" d="M.2,10.3c0-1.3.2-2.5.6-3.6.4-1.1,1-2,1.7-2.7.7-.8,1.6-1.3,2.6-1.7,1-.4,2.1-.6,3.3-.6s2.2.2,3.1.6c.9.4,1.7.9,2.4,1.6.7.7,1.2,1.5,1.5,2.5.4,1,.5,2.1.5,3.4s-.2,2.5-.6,3.6c-.4,1.1-1,2-1.7,2.7-.7.8-1.6,1.3-2.6,1.8-1,.4-2.1.6-3.3.6s-2.2-.2-3.1-.5c-.9-.4-1.7-.9-2.4-1.6-.7-.7-1.2-1.5-1.5-2.5-.4-1-.5-2.1-.5-3.4ZM3.7,9.9c0,1,.1,1.9.3,2.6.2.7.6,1.4,1,1.8.4.5.9.9,1.4,1.1.5.2,1.1.4,1.7.4s1.2-.1,1.7-.4c.5-.2,1-.6,1.4-1.1.4-.5.7-1.1.9-1.8s.3-1.6.3-2.6-.1-1.9-.4-2.6c-.2-.8-.5-1.4-.9-1.9-.4-.5-.9-.9-1.4-1.1-.5-.3-1.1-.4-1.7-.4s-1.2.1-1.7.4c-.5.2-1,.6-1.3,1.1-.4.5-.7,1.1-.9,1.8-.2.7-.3,1.6-.3,2.6ZM19.4,8.4l-1.1-.2c-.3,0-.6-.2-.7-.3-.1-.1-.2-.4-.2-.6s0-.5.2-.6c.1-.2.4-.3.7-.4.3,0,.7-.2,1.2-.2.4,0,.8,0,1.2,0,.6,0,1,.1,1.3.4.2.2.4.6.4,1.2v.7h0c.2-.3.4-.7.6-1,.2-.3.5-.6.7-.8.3-.2.6-.4.9-.5.3-.1.7-.2,1-.2s.7.1,1,.3c.2.2.3.5.3,1s0,.7-.1.9c0,.3-.2.5-.3.6-.1.2-.2.3-.4.4-.1,0-.3.1-.4.1s-.2,0-.3,0c0,0-.2,0-.2,0s-.2,0-.3,0c0,0-.2,0-.3,0-.3,0-.7,0-1,.2-.3.1-.6.4-.9.7v5.9l1.2.3c.4,0,.6.2.7.4s.2.4.2.6-.1.5-.3.7-.5.3-.9.3h-4.9c-.4,0-.7,0-.9-.3s-.3-.4-.3-.7,0-.5.2-.6c.1-.1.4-.3.7-.4l1-.3v-7.2ZM29.6,8.4l-1.1-.2c-.3,0-.6-.2-.7-.3-.1-.1-.2-.4-.2-.6s0-.5.2-.6c.1-.2.4-.3.7-.4.3,0,.7-.2,1.2-.2.4,0,.9,0,1.3,0,.7,0,1.2.1,1.5.4.3.3.4.7.4,1.5v7.9l1,.3c.3,0,.5.2.6.3.1.1.2.3.2.6s-.1.6-.3.8c-.2.2-.5.3-.9.3h-4.6c-.4,0-.7,0-.9-.3s-.3-.4-.3-.7,0-.5.2-.6c.1-.1.4-.3.7-.4l1-.3v-7.2ZM29.2,2.8c0-.6.2-1.1.6-1.4.4-.4.9-.6,1.4-.6s1,.2,1.4.6c.4.4.6.8.6,1.4s-.2,1.1-.6,1.4c-.4.4-.9.6-1.4.6s-1-.2-1.4-.6-.6-.8-.6-1.4ZM42.7,15.8c1.7,0,2.9.3,3.6.9.7.6,1.1,1.4,1.1,2.4s-.1,1.1-.4,1.7c-.3.5-.7,1-1.3,1.5-.5.4-1.2.8-2,1-.8.3-1.7.4-2.8.4s-1.8,0-2.4-.3-1.2-.4-1.7-.7c-.4-.3-.7-.7-.9-1.1-.2-.4-.3-.9-.3-1.3s0-.6.1-.9c.1-.3.3-.6.4-.8.2-.2.4-.5.6-.6.2-.2.5-.4.8-.5-.3-.2-.5-.4-.6-.6-.2-.3-.2-.6-.2-1.1s0-.4,0-.6c0-.2.2-.4.3-.6.1-.2.3-.4.4-.5.2-.2.4-.3.6-.4-.5-.3-.9-.7-1.2-1.2s-.5-1.2-.5-1.9.1-1.3.4-1.8c.2-.6.6-1,1.1-1.4.5-.4,1-.7,1.7-1s1.4-.3,2.3-.3.6,0,.8,0c.2,0,.4,0,.6,0,.2,0,.3,0,.5.1.4-.7.9-1.3,1.3-1.7.4-.4.9-.6,1.3-.6s.7.1.9.4c.3.2.4.5.4.8s0,.4-.2.6c-.1.2-.3.3-.5.5s-.4.3-.7.5c-.2.2-.5.4-.7.6.3.3.6.6.8,1.1.2.5.3,1,.3,1.6s-.1,1.3-.4,1.8c-.2.6-.6,1-1.1,1.5-.5.4-1,.7-1.7.9-.7.2-1.4.3-2.3.3h-.5c-.2,0-.3,0-.5,0-.2,0-.3,0-.5,0,0,0,0,.1-.1.2s0,.1,0,.2c0,0,0,.2,0,.3s0,.3,0,.4c0,.1.2.2.3.3.2,0,.4.1.6.2.3,0,.6,0,1.1,0h1.2ZM41.1,18.2c-.3,0-.5,0-.8,0-.2,0-.4,0-.6,0-.2,0-.3,0-.5,0-.1.1-.2.3-.3.5,0,.1-.1.3-.2.5,0,.2,0,.4,0,.6,0,.6.2,1,.6,1.3.4.3,1.1.5,2.1.5s1.6-.2,2-.6c.5-.4.7-.8.7-1.3s-.2-.8-.5-1c-.3-.2-.8-.4-1.6-.4h-1ZM39.6,10c0,.6.2,1.1.5,1.5.4.4.8.5,1.3.5s.9-.2,1.3-.5c.3-.3.5-.8.5-1.4s-.2-1.1-.5-1.4c-.4-.4-.8-.6-1.3-.6s-.9.2-1.3.5c-.3.3-.5.8-.5,1.4ZM50.2,8.4l-1.1-.2c-.3,0-.6-.2-.7-.3-.1-.1-.2-.4-.2-.6s0-.5.2-.6c.1-.2.4-.3.7-.4.3,0,.7-.2,1.2-.2.4,0,.9,0,1.3,0,.7,0,1.2.1,1.5.4.3.3.4.7.4,1.5v7.9l1,.3c.3,0,.5.2.6.3.1.1.2.3.2.6s-.1.6-.3.8c-.2.2-.5.3-.9.3h-4.6c-.4,0-.7,0-.9-.3s-.3-.4-.3-.7,0-.5.2-.6c.1-.1.4-.3.7-.4l1-.3v-7.2ZM49.8,2.8c0-.6.2-1.1.6-1.4.4-.4.9-.6,1.4-.6s1,.2,1.4.6c.4.4.6.8.6,1.4s-.2,1.1-.6,1.4c-.4.4-.9.6-1.4.6s-1-.2-1.4-.6-.6-.8-.6-1.4ZM58.1,8.4l-1.1-.2c-.3,0-.6-.2-.7-.3-.1-.1-.2-.4-.2-.6s0-.5.2-.6c.1-.2.4-.3.7-.4.3,0,.7-.2,1.2-.2.4,0,.8,0,1.2,0,.6,0,1,.1,1.3.4.2.2.4.6.4,1.2v.3h0c.2-.3.5-.7.8-1,.3-.2.7-.5,1.1-.7.5-.2,1.1-.3,1.8-.3,1.4,0,2.5.4,3.2,1.2.8.8,1.1,1.9,1.1,3.4v5.3l.9.3c.3.1.6.2.7.4s.2.4.2.6-.1.5-.3.7-.5.3-.9.3h-4.5c-.4,0-.7,0-.9-.3s-.3-.4-.3-.7,0-.5.2-.6.4-.3.7-.4l.9-.3v-4.5c0-1.1-.2-1.8-.6-2.3-.4-.4-.9-.7-1.7-.7s-.7,0-1,.2c-.3.1-.5.2-.7.4-.2.2-.4.4-.6.6v6.3l.9.3c.3.1.6.2.7.4.1.1.2.4.2.6s-.1.5-.3.7-.5.3-.9.3h-4.6c-.4,0-.7,0-.9-.3s-.3-.4-.3-.7,0-.5.2-.6c.1-.1.4-.3.7-.4l1-.3v-7.2ZM79.3,10.7c0-1-.2-1.6-.5-2s-.9-.6-1.8-.6-.9,0-1.2,0c-.3,0-.6.1-.9.2-.3,0-.5.1-.7.2-.2,0-.3,0-.5,0-.3,0-.5,0-.7-.3-.2-.2-.3-.4-.3-.7s.1-.5.3-.7c.1-.1.4-.3.6-.4.3-.1.6-.3,1-.4.4-.1.9-.2,1.4-.3.5,0,1.1-.1,1.6-.1,1.7,0,2.9.3,3.6,1,.7.7,1.1,1.7,1.1,3.1s0,1.9,0,2.8c0,.9,0,1.9,0,3h.9c.3.2.5.3.7.5.1.1.2.4.2.6s0,.5-.2.6c-.1.1-.4.3-.7.4-.3.1-.7.2-1.1.3-.4,0-.8.1-1.3.1s-1-.1-1.2-.4c-.3-.3-.4-.7-.4-1.2h0c0-.1,0-.1,0-.1-.2.3-.4.6-.8.9-.3.2-.6.4-1.1.6-.4.2-1,.3-1.7.3s-1.1,0-1.6-.3c-.5-.2-.9-.4-1.2-.7-.3-.3-.6-.7-.8-1.1-.2-.4-.3-.9-.3-1.4s.1-.9.3-1.3c.2-.4.6-.8,1-1.1.4-.3,1-.5,1.7-.7.7-.2,1.5-.3,2.4-.3s.5,0,.7,0c.2,0,.4,0,.6,0,.2,0,.3,0,.5,0v-.8ZM79.3,13.3c-.1,0-.2,0-.4,0-.1,0-.3,0-.5,0-.2,0-.4,0-.6,0-.8,0-1.4.1-1.8.3s-.5.5-.5.9.1.7.4,1c.3.3.7.4,1.2.4s.6,0,.9-.1c.3,0,.5-.2.6-.3.2-.1.4-.3.6-.4v-1.6ZM86.7,3.1l-1-.2c-.3,0-.6-.2-.7-.3-.1-.2-.2-.4-.2-.6s0-.5.2-.6c.1-.2.4-.3.7-.4.3,0,.6-.2,1.1-.2.4,0,.9-.1,1.3-.1.7,0,1.2.1,1.5.4.3.3.4.7.4,1.5v13.2l.9.3c.3.1.6.2.7.4s.2.4.2.6-.1.5-.3.7-.5.3-.9.3h-4.5c-.4,0-.7,0-.9-.3s-.3-.4-.3-.7,0-.5.2-.6c.1-.1.3-.3.6-.4l1-.3V3.1ZM109.9,4.4c-.1,0-.3-.1-.5-.2-.2,0-.4,0-.7,0-.3,0-.6,0-1,0-.8,0-1.5.1-2.1.4-.6.2-1.1.6-1.6,1.1-.4.5-.8,1.1-1,1.8-.2.7-.4,1.6-.4,2.5s.1,1.8.4,2.6c.3.8.6,1.4,1.1,1.9.5.5,1,.9,1.7,1.2.7.3,1.4.4,2.3.4h.6c.2,0,.4,0,.5,0,.1,0,.3,0,.3,0v-3.8l-1.8-.5c-.4,0-.6-.2-.8-.4-.2-.2-.2-.4-.2-.7s0-.4.3-.6c.2-.2.4-.3.8-.3h4c.8,0,1.2.4,1.2,1.2v4.6c0,.5,0,.9-.2,1.1-.1.3-.3.5-.6.7-.1.1-.3.2-.6.4-.2.1-.6.3-1,.4-.4.1-.9.2-1.4.3-.6,0-1.2.1-2,.1-1.2,0-2.3-.2-3.3-.6-1-.4-1.8-.9-2.5-1.6-.7-.7-1.2-1.5-1.6-2.5-.4-1-.6-2.1-.6-3.3s.2-2.5.6-3.5c.4-1.1,1-2,1.8-2.7.8-.8,1.7-1.4,2.9-1.8,1.1-.4,2.4-.6,3.8-.6s2,0,2.6.3c.6.2,1.1.4,1.3.6,0,0,.1.2.2.3,0,0,.1.2.1.4,0,.1,0,.3,0,.5,0,.2,0,.5,0,.8v1.2c0,.2,0,.5,0,.8,0,.3-.1.6-.3.7-.2.1-.4.2-.7.2s-.5,0-.7-.2c-.2-.2-.3-.4-.4-.7l-.7-2.1ZM115.5,12.4c0-1,.2-1.9.5-2.7.3-.8.8-1.5,1.3-2.1.6-.6,1.3-1,2-1.3.8-.3,1.7-.5,2.6-.5,1.8,0,3.2.5,4.2,1.6,1,1,1.5,2.5,1.5,4.3s-.2,1.9-.5,2.7c-.3.8-.7,1.5-1.3,2.1-.6.6-1.2,1-2,1.3-.8.3-1.7.5-2.7.5-1.8,0-3.2-.5-4.2-1.5-1-1-1.5-2.5-1.5-4.4ZM118.8,12c0,.7,0,1.3.2,1.8.2.5.4.9.6,1.2.3.3.6.6.9.7.4.2.7.2,1.1.2.8,0,1.4-.3,1.9-.9.5-.6.8-1.6.8-3s0-1.3-.2-1.8c-.1-.5-.3-.9-.6-1.2-.2-.3-.5-.6-.9-.7-.3-.2-.7-.2-1.1-.2-.8,0-1.4.3-1.9.9-.5.6-.8,1.6-.8,3ZM129.6,12.4c0-1,.2-1.9.5-2.7.3-.8.8-1.5,1.3-2.1.6-.6,1.3-1,2-1.3.8-.3,1.7-.5,2.6-.5,1.8,0,3.2.5,4.2,1.6,1,1,1.5,2.5,1.5,4.3s-.2,1.9-.5,2.7c-.3.8-.7,1.5-1.3,2.1-.6.6-1.2,1-2,1.3-.8.3-1.7.5-2.7.5-1.8,0-3.2-.5-4.2-1.5-1-1-1.5-2.5-1.5-4.4ZM133,12c0,.7,0,1.3.2,1.8.2.5.4.9.6,1.2.3.3.6.6.9.7.4.2.7.2,1.1.2.8,0,1.4-.3,1.9-.9.5-.6.8-1.6.8-3s0-1.3-.2-1.8c-.1-.5-.3-.9-.6-1.2-.2-.3-.5-.6-.9-.7-.3-.2-.7-.2-1.1-.2-.8,0-1.4.3-1.9.9-.5.6-.8,1.6-.8,3ZM151.9,3.1l-1.1-.2c-.3,0-.6-.2-.7-.3-.1-.1-.2-.4-.2-.6s0-.5.2-.6c.1-.2.4-.3.7-.4.3,0,.7-.2,1.2-.2.4,0,.9,0,1.3,0,.7,0,1.2.1,1.5.4.3.3.4.7.4,1.5v13.2l1,.2c.3,0,.5.2.7.3.1.1.2.4.2.6s0,.5-.2.6c-.1.1-.4.3-.7.4-.3.1-.7.2-1.1.3-.4,0-.8.1-1.2.1s-1-.1-1.2-.4c-.3-.3-.4-.7-.4-1.2v-.3h0c-.2.3-.5.7-.8,1-.3.3-.7.5-1.2.7-.5.2-1.1.3-1.8.3-1.4,0-2.5-.5-3.4-1.4-.8-.9-1.3-2.4-1.3-4.3s.2-2,.5-2.8.7-1.5,1.3-2.1c.6-.6,1.3-1,2.1-1.3.8-.3,1.8-.5,2.9-.5s.4,0,.5,0c.2,0,.3,0,.4,0,.1,0,.3,0,.4,0h0c0-.2,0-.4,0-.6v-2.2ZM151.9,8.5c-.1,0-.3-.2-.5-.2-.2,0-.4-.1-.6-.2-.2,0-.5,0-.8,0-.9,0-1.6.3-2.1.9-.5.6-.8,1.6-.8,3.1s.2,2.3.7,2.8c.5.6,1.1.8,1.8.8s.7,0,1-.2c.3-.1.5-.2.7-.4.2-.2.4-.4.6-.6v-6.1ZM160.8,15.8c.1,0,.3.1.5.2.2,0,.4,0,.6,0,.2,0,.5,0,.8,0,.7,0,1.2-.1,1.5-.3.3-.2.4-.5.4-.9s-.2-.6-.5-.8-.7-.4-1.2-.6c-.4-.2-.9-.4-1.5-.5-.5-.2-1-.4-1.5-.7-.4-.3-.8-.6-1.1-1.1-.3-.4-.5-1-.5-1.7s.1-1,.3-1.4c.2-.4.5-.8,1-1.2.4-.3,1-.6,1.6-.8.7-.2,1.4-.3,2.3-.3s1.7,0,2.2.2c.5.2.8.3,1,.5.1.1.2.3.3.5,0,.2,0,.4,0,.8h0v.6c0,.2,0,.3,0,.5,0,.3-.1.5-.3.7-.2.1-.4.2-.6.2s-.5,0-.6-.2c-.1-.1-.3-.4-.4-.7l-.2-.7c-.1,0-.3,0-.5-.1-.1,0-.3,0-.5,0-.2,0-.4,0-.6,0-.7,0-1.1,0-1.3.3-.2.2-.3.4-.3.8s.2.6.5.8c.3.2.7.4,1.1.5.5.2,1,.3,1.5.5.5.2,1,.4,1.5.7.5.3.8.7,1.2,1.1.3.4.5,1,.5,1.8s-.1,1-.3,1.5-.6.9-1,1.2c-.4.3-1,.6-1.7.8-.7.2-1.5.3-2.4.3s-1.8,0-2.3-.3-.9-.3-1-.5c-.1-.1-.2-.3-.3-.5,0-.2,0-.4,0-.8v-.7c0-.2,0-.3,0-.5,0-.3.1-.5.3-.7.2-.1.4-.2.7-.2s.5,0,.6.2c.2.1.3.4.4.7l.3.7Z"/>
</svg>