<svg width="151" height="30" viewBox="0 0 151 30" fill="none" xmlns="http://www.w3.org/2000/svg">
<path d="M3.13238 3.088L1.53238 2.672C1.10571 2.52267 0.807042 2.36267 0.636375 2.192C0.487042 2 0.412375 1.73333 0.412375 1.392C0.412375 1.136 0.497708 0.922666 0.668375 0.751999C0.860375 0.559999 1.14838 0.463999 1.53238 0.463999H8.38038C8.74304 0.463999 9.02038 0.559999 9.21238 0.751999C9.40438 0.922666 9.50038 1.136 9.50038 1.392C9.50038 1.73333 9.41504 2 9.24438 2.192C9.09504 2.36267 8.79638 2.52267 8.34838 2.672L6.74838 3.088V19.376L8.47638 19.824C8.88171 19.952 9.14838 20.0907 9.27638 20.24C9.42571 20.3893 9.50038 20.6133 9.50038 20.912C9.50038 21.232 9.38304 21.4987 9.14838 21.712C8.93504 21.904 8.63638 22 8.25238 22H1.66038C1.25504 22 0.945708 21.904 0.732375 21.712C0.519042 21.4987 0.412375 21.232 0.412375 20.912C0.412375 20.6133 0.476375 20.3893 0.604375 20.24C0.753708 20.0907 1.02038 19.952 1.40438 19.824L3.13238 19.376V3.088ZM13.8779 8.816L12.1819 8.528C11.7979 8.44267 11.5312 8.32533 11.3819 8.176C11.2325 8.00533 11.1579 7.78133 11.1579 7.504C11.1579 7.184 11.2325 6.94933 11.3819 6.8C11.5312 6.62933 11.8085 6.48 12.2139 6.352C12.6192 6.24533 13.0779 6.16 13.5899 6.096C14.1232 6.032 14.6352 6 15.1259 6C15.8512 6 16.3525 6.13867 16.6299 6.416C16.9285 6.69333 17.0779 7.184 17.0779 7.888V8.4L17.1419 8.432C17.4192 7.94133 17.7819 7.51467 18.2299 7.152C18.6139 6.832 19.1152 6.544 19.7339 6.288C20.3739 6.01067 21.1632 5.872 22.1019 5.872C23.9792 5.872 25.4085 6.384 26.3899 7.408C27.3925 8.41067 27.8939 9.92533 27.8939 11.952V19.408L29.3339 19.824C29.7179 19.9307 29.9739 20.0693 30.1019 20.24C30.2512 20.3893 30.3259 20.6133 30.3259 20.912C30.3259 21.232 30.2192 21.4987 30.0059 21.712C29.7925 21.904 29.4832 22 29.0779 22H23.2539C22.8485 22 22.5285 21.904 22.2939 21.712C22.0805 21.4987 21.9739 21.232 21.9739 20.912C21.9739 20.6133 22.0485 20.3893 22.1979 20.24C22.3472 20.0693 22.6139 19.9307 22.9979 19.824L24.3739 19.408V12.848C24.3739 11.2907 24.0752 10.1813 23.4779 9.52C22.8805 8.85867 22.0165 8.528 20.8859 8.528C20.3312 8.528 19.8299 8.624 19.3819 8.816C18.9552 8.98667 18.5925 9.18933 18.2939 9.424C17.9525 9.70133 17.6539 9.98933 17.3979 10.288V19.408L18.8059 19.824C19.1899 19.9307 19.4459 20.0693 19.5739 20.24C19.7232 20.3893 19.7979 20.6133 19.7979 20.912C19.7979 21.232 19.6805 21.4987 19.4459 21.712C19.2325 21.904 18.9339 22 18.5499 22H12.5019C12.0965 22 11.7872 21.904 11.5739 21.712C11.3605 21.4987 11.2539 21.232 11.2539 20.912C11.2539 20.6133 11.3179 20.3893 11.4459 20.24C11.5952 20.0907 11.8725 19.9627 12.2779 19.856L13.8779 19.408V8.816ZM35.3721 19.472C35.5641 19.5787 35.7881 19.664 36.0441 19.728C36.2575 19.792 36.5348 19.8453 36.8761 19.888C37.2175 19.9307 37.6121 19.952 38.0601 19.952C39.1268 19.952 39.8735 19.7707 40.3001 19.408C40.7481 19.024 40.9721 18.5333 40.9721 17.936C40.9721 17.3813 40.7588 16.944 40.3321 16.624C39.9268 16.304 39.4148 16.0267 38.7961 15.792C38.1775 15.536 37.5055 15.2907 36.7801 15.056C36.0548 14.8 35.3828 14.4907 34.7641 14.128C34.1668 13.7653 33.6548 13.296 33.2281 12.72C32.8228 12.144 32.6201 11.3973 32.6201 10.48C32.6201 9.86133 32.7481 9.27467 33.0041 8.72C33.2815 8.144 33.6868 7.64267 34.2201 7.216C34.7748 6.78933 35.4681 6.45867 36.3001 6.224C37.1321 5.968 38.1028 5.84 39.2121 5.84C40.3641 5.84 41.2601 5.936 41.9001 6.128C42.5615 6.32 42.9988 6.52267 43.2121 6.736C43.3828 6.88533 43.5001 7.07733 43.5641 7.312C43.6281 7.52533 43.6601 7.87733 43.6601 8.368V8.56C43.6601 8.816 43.6601 9.04 43.6601 9.232C43.6601 9.424 43.6495 9.65867 43.6281 9.936C43.5855 10.2987 43.4681 10.5653 43.2761 10.736C43.1055 10.8853 42.8708 10.96 42.5721 10.96C42.2948 10.96 42.0708 10.8853 41.9001 10.736C41.7295 10.5653 41.5801 10.2987 41.4521 9.936L41.0681 8.592C40.8761 8.54933 40.6521 8.48533 40.3961 8.4C40.2041 8.35733 39.9588 8.31467 39.6601 8.272C39.3615 8.22933 39.0308 8.208 38.6681 8.208C37.6655 8.208 36.9721 8.368 36.5881 8.688C36.2041 9.008 36.0121 9.43467 36.0121 9.968C36.0121 10.48 36.2148 10.896 36.6201 11.216C37.0468 11.5147 37.5695 11.7813 38.1881 12.016C38.8068 12.2293 39.4788 12.464 40.2041 12.72C40.9295 12.9547 41.6015 13.264 42.2201 13.648C42.8388 14.032 43.3508 14.5227 43.7561 15.12C44.1615 15.696 44.3641 16.4533 44.3641 17.392C44.3641 18.0747 44.2255 18.7147 43.9481 19.312C43.6708 19.9093 43.2441 20.432 42.6681 20.88C42.1135 21.3067 41.3988 21.6587 40.5241 21.936C39.6708 22.192 38.6575 22.32 37.4841 22.32C36.2468 22.32 35.2761 22.2133 34.5721 22C33.8681 21.7867 33.4095 21.5733 33.1961 21.36C33.0255 21.1893 32.9081 20.9973 32.8441 20.784C32.7801 20.5707 32.7481 20.208 32.7481 19.696V19.44C32.7481 19.2053 32.7481 18.992 32.7481 18.8C32.7481 18.5867 32.7588 18.3413 32.7801 18.064C32.8228 17.7013 32.9295 17.4453 33.1001 17.296C33.2921 17.1253 33.5375 17.04 33.8361 17.04C34.1135 17.04 34.3375 17.1253 34.5081 17.296C34.6788 17.4453 34.8281 17.7013 34.9561 18.064L35.3721 19.472ZM48.7096 8.592H47.3656C46.5336 8.592 46.1176 8.24 46.1176 7.536C46.1176 7.13067 46.2456 6.8 46.5016 6.544C46.7576 6.288 47.131 6.16 47.6216 6.16H48.7416L49.2536 3.792C49.403 3.10933 49.6056 2.62933 49.8616 2.352C50.139 2.05333 50.523 1.904 51.0136 1.904C51.3976 1.904 51.6856 2 51.8776 2.192C52.091 2.384 52.1976 2.672 52.1976 3.056V6.16H55.2696C56.0803 6.16 56.4856 6.512 56.4856 7.216C56.4856 7.64267 56.3576 7.984 56.1016 8.24C55.867 8.47467 55.4936 8.592 54.9816 8.592H52.1976V16.848C52.1976 17.872 52.347 18.5867 52.6456 18.992C52.9656 19.3973 53.435 19.6 54.0536 19.6C54.5016 19.6 54.8536 19.5573 55.1096 19.472C55.3656 19.3867 55.611 19.344 55.8456 19.344C56.0803 19.344 56.2616 19.4187 56.3896 19.568C56.539 19.7173 56.6136 19.9307 56.6136 20.208C56.6136 20.4 56.571 20.5813 56.4856 20.752C56.4216 20.9013 56.3256 21.0507 56.1976 21.2C56.027 21.3493 55.6643 21.552 55.1096 21.808C54.5763 22.064 53.7976 22.192 52.7736 22.192C51.2803 22.192 50.2243 21.7973 49.6056 21.008C49.0083 20.2187 48.7096 19.1307 48.7096 17.744V8.592ZM67.9924 12.208C67.9924 10.8427 67.7364 9.88267 67.2244 9.328C66.7124 8.752 65.8697 8.464 64.6964 8.464C64.0564 8.464 63.5017 8.50667 63.0324 8.592C62.563 8.67733 62.1577 8.77333 61.8164 8.88C61.475 8.96533 61.187 9.05067 60.9524 9.136C60.7177 9.22133 60.515 9.264 60.3444 9.264C60.0457 9.264 59.8004 9.168 59.6084 8.976C59.4164 8.784 59.3204 8.53867 59.3204 8.24C59.3204 7.94133 59.4377 7.67467 59.6724 7.44C59.843 7.26933 60.1097 7.09867 60.4724 6.928C60.835 6.736 61.2724 6.56533 61.7844 6.416C62.3177 6.26667 62.9044 6.13867 63.5444 6.032C64.1844 5.92533 64.8777 5.872 65.6244 5.872C67.715 5.872 69.2084 6.30933 70.1044 7.184C71.0217 8.05867 71.4804 9.424 71.4804 11.28C71.4804 12.5813 71.4697 13.8827 71.4484 15.184C71.427 16.464 71.4697 17.872 71.5764 19.408L73.0164 19.6C73.379 19.664 73.635 19.7813 73.7844 19.952C73.9337 20.1013 74.0084 20.3253 74.0084 20.624C74.0084 20.9227 73.923 21.1573 73.7524 21.328C73.603 21.4773 73.347 21.616 72.9844 21.744C72.6004 21.872 72.163 21.9787 71.6724 22.064C71.203 22.1493 70.7017 22.192 70.1684 22.192C69.507 22.192 69.0164 22.032 68.6964 21.712C68.3977 21.392 68.2484 20.9227 68.2484 20.304V20.016L68.1844 19.984C67.9284 20.4107 67.587 20.7947 67.1604 21.136C66.7977 21.4347 66.3177 21.712 65.7204 21.968C65.123 22.2027 64.387 22.32 63.5124 22.32C62.7444 22.32 62.0404 22.2027 61.4004 21.968C60.7604 21.712 60.2164 21.3813 59.7684 20.976C59.3204 20.5707 58.979 20.0907 58.7444 19.536C58.5097 18.9813 58.3924 18.3947 58.3924 17.776C58.3924 17.1573 58.5204 16.592 58.7764 16.08C59.0537 15.5467 59.4697 15.088 60.0244 14.704C60.6004 14.32 61.315 14.0213 62.1684 13.808C63.0217 13.5947 64.035 13.488 65.2084 13.488C65.6137 13.488 65.9764 13.5093 66.2964 13.552C66.6377 13.5733 66.9364 13.5947 67.1924 13.616C67.4697 13.6587 67.7364 13.6907 67.9924 13.712V12.208ZM67.9284 15.792C67.7364 15.7707 67.523 15.7387 67.2884 15.696C67.075 15.6533 66.819 15.6213 66.5204 15.6C66.2217 15.5787 65.891 15.568 65.5284 15.568C64.3124 15.568 63.427 15.7387 62.8724 16.08C62.3177 16.4 62.0404 16.8693 62.0404 17.488C62.0404 18.0853 62.275 18.608 62.7444 19.056C63.2137 19.4827 63.8537 19.696 64.6644 19.696C65.1764 19.696 65.635 19.6213 66.0404 19.472C66.467 19.3227 66.819 19.152 67.0964 18.96C67.4164 18.7467 67.6937 18.5013 67.9284 18.224V15.792ZM84.5026 19.472C86.6786 19.472 88.2253 19.8667 89.1426 20.656C90.06 21.4453 90.5186 22.48 90.5186 23.76C90.5186 24.5067 90.3373 25.232 89.9746 25.936C89.612 26.64 89.0786 27.2693 88.3746 27.824C87.6706 28.3787 86.796 28.8267 85.7506 29.168C84.7053 29.5093 83.5106 29.68 82.1666 29.68C80.9506 29.68 79.9053 29.5627 79.0306 29.328C78.1773 29.0933 77.4733 28.7627 76.9186 28.336C76.364 27.9307 75.9586 27.4507 75.7026 26.896C75.4466 26.3413 75.3186 25.7547 75.3186 25.136C75.3186 24.56 75.4146 24.048 75.6066 23.6C75.7986 23.152 76.0333 22.7573 76.3106 22.416C76.588 22.0747 76.8653 21.7973 77.1426 21.584C77.4413 21.3707 77.6973 21.2 77.9106 21.072C77.5906 20.8587 77.3133 20.5707 77.0786 20.208C76.8653 19.8453 76.7586 19.3867 76.7586 18.832C76.7586 18.4693 76.8226 18.128 76.9506 17.808C77.0786 17.488 77.228 17.2107 77.3986 16.976C77.5693 16.72 77.7506 16.5067 77.9426 16.336C78.156 16.144 78.3373 16.0053 78.4866 15.92C77.8893 15.5573 77.3773 15.024 76.9506 14.32C76.5453 13.616 76.3426 12.7733 76.3426 11.792C76.3426 10.9387 76.492 10.1493 76.7906 9.424C77.1106 8.69867 77.5586 8.08 78.1346 7.568C78.732 7.03467 79.4573 6.61867 80.3106 6.32C81.1853 6.02133 82.1666 5.872 83.2546 5.872C83.66 5.872 84.0226 5.89333 84.3426 5.936C84.684 5.97867 84.9613 6.02133 85.1746 6.064C85.4306 6.14933 85.644 6.21333 85.8146 6.256C86.4333 5.33867 86.9986 4.61333 87.5106 4.08C88.044 3.52533 88.588 3.248 89.1426 3.248C89.5693 3.248 89.9213 3.376 90.1986 3.632C90.476 3.888 90.604 4.19733 90.5826 4.56C90.5826 4.85867 90.4973 5.104 90.3266 5.296C90.1773 5.488 89.964 5.68 89.6866 5.872C89.4306 6.064 89.132 6.26667 88.7906 6.48C88.4706 6.69333 88.1293 6.98133 87.7666 7.344C88.2146 7.70667 88.588 8.19733 88.8866 8.816C89.1853 9.43467 89.3346 10.16 89.3346 10.992C89.3346 11.8453 89.1746 12.6347 88.8546 13.36C88.556 14.0853 88.108 14.7147 87.5106 15.248C86.9133 15.76 86.188 16.1653 85.3346 16.464C84.4813 16.7627 83.5106 16.912 82.4226 16.912C82.124 16.912 81.836 16.9013 81.5586 16.88C81.3026 16.8587 81.0786 16.8267 80.8866 16.784C80.652 16.7413 80.4386 16.6987 80.2466 16.656C80.14 16.7627 80.0546 16.8693 79.9906 16.976C79.9266 17.104 79.8626 17.2533 79.7986 17.424C79.756 17.5733 79.7346 17.744 79.7346 17.936C79.7346 18.1707 79.7773 18.384 79.8626 18.576C79.9693 18.768 80.14 18.928 80.3746 19.056C80.6093 19.184 80.9293 19.2907 81.3346 19.376C81.74 19.44 82.2626 19.472 82.9026 19.472H84.5026ZM82.3266 22.064C81.9213 22.064 81.5586 22.0533 81.2386 22.032C80.94 22.0107 80.6733 21.9787 80.4386 21.936C80.204 21.8933 80.0013 21.8507 79.8306 21.808C79.6173 22 79.4253 22.2347 79.2546 22.512C79.1053 22.7253 78.9773 22.992 78.8706 23.312C78.7853 23.632 78.7426 23.984 78.7426 24.368C78.7426 25.2213 79.052 25.904 79.6706 26.416C80.2893 26.928 81.324 27.184 82.7746 27.184C84.204 27.184 85.26 26.8853 85.9426 26.288C86.6466 25.712 86.9986 25.0293 86.9986 24.24C86.9986 23.5573 86.764 23.024 86.2946 22.64C85.8466 22.256 85.004 22.064 83.7666 22.064H82.3266ZM79.8626 11.344C79.8626 12.2827 80.14 13.0293 80.6946 13.584C81.2493 14.1387 81.9746 14.416 82.8706 14.416C83.7453 14.416 84.4493 14.16 84.9826 13.648C85.516 13.1147 85.7826 12.3787 85.7826 11.44C85.7826 10.5013 85.5053 9.75467 84.9506 9.2C84.396 8.64533 83.6706 8.368 82.7746 8.368C81.9 8.368 81.196 8.63467 80.6626 9.168C80.1293 9.68 79.8626 10.4053 79.8626 11.344ZM94.6591 8.816L92.9631 8.528C92.5791 8.44267 92.3125 8.32533 92.1631 8.176C92.0138 8.00533 91.9391 7.78133 91.9391 7.504C91.9391 7.184 92.0138 6.94933 92.1631 6.8C92.3125 6.62933 92.5898 6.48 92.9951 6.352C93.4005 6.24533 93.8591 6.16 94.3711 6.096C94.9045 6.032 95.4165 6 95.9071 6C96.6325 6 97.1338 6.13867 97.4111 6.416C97.7098 6.69333 97.8591 7.184 97.8591 7.888V8.816L97.9231 8.848C98.1365 8.37867 98.3925 7.96267 98.6911 7.6C98.9898 7.216 99.3205 6.896 99.6831 6.64C100.046 6.36267 100.43 6.14933 100.835 6C101.262 5.85067 101.71 5.776 102.179 5.776C102.691 5.776 103.075 5.91467 103.331 6.192C103.608 6.448 103.747 6.81067 103.747 7.28C103.747 7.664 103.704 8.00533 103.619 8.304C103.534 8.58133 103.416 8.816 103.267 9.008C103.139 9.2 102.99 9.34933 102.819 9.456C102.648 9.56267 102.488 9.616 102.339 9.616C102.19 9.616 102.062 9.59467 101.955 9.552C101.848 9.50933 101.742 9.46667 101.635 9.424C101.55 9.38133 101.443 9.34933 101.315 9.328C101.208 9.28533 101.08 9.264 100.931 9.264C100.462 9.264 99.9925 9.392 99.5231 9.648C99.0538 9.88267 98.6058 10.288 98.1791 10.864V19.408L99.9711 19.856C100.376 19.9413 100.643 20.0693 100.771 20.24C100.92 20.3893 100.995 20.6133 100.995 20.912C100.995 21.232 100.878 21.4987 100.643 21.712C100.43 21.904 100.12 22 99.7151 22H93.2831C92.8778 22 92.5685 21.904 92.3551 21.712C92.1418 21.4987 92.0351 21.232 92.0351 20.912C92.0351 20.6133 92.0991 20.3893 92.2271 20.24C92.3765 20.0907 92.6538 19.9627 93.0591 19.856L94.6591 19.408V8.816ZM114.68 12.208C114.68 10.8427 114.424 9.88267 113.912 9.328C113.4 8.752 112.557 8.464 111.384 8.464C110.744 8.464 110.189 8.50667 109.72 8.592C109.251 8.67733 108.845 8.77333 108.504 8.88C108.163 8.96533 107.875 9.05067 107.64 9.136C107.405 9.22133 107.203 9.264 107.032 9.264C106.733 9.264 106.488 9.168 106.296 8.976C106.104 8.784 106.008 8.53867 106.008 8.24C106.008 7.94133 106.125 7.67467 106.36 7.44C106.531 7.26933 106.797 7.09867 107.16 6.928C107.523 6.736 107.96 6.56533 108.472 6.416C109.005 6.26667 109.592 6.13867 110.232 6.032C110.872 5.92533 111.565 5.872 112.312 5.872C114.403 5.872 115.896 6.30933 116.792 7.184C117.709 8.05867 118.168 9.424 118.168 11.28C118.168 12.5813 118.157 13.8827 118.136 15.184C118.115 16.464 118.157 17.872 118.264 19.408L119.704 19.6C120.067 19.664 120.323 19.7813 120.472 19.952C120.621 20.1013 120.696 20.3253 120.696 20.624C120.696 20.9227 120.611 21.1573 120.44 21.328C120.291 21.4773 120.035 21.616 119.672 21.744C119.288 21.872 118.851 21.9787 118.36 22.064C117.891 22.1493 117.389 22.192 116.856 22.192C116.195 22.192 115.704 22.032 115.384 21.712C115.085 21.392 114.936 20.9227 114.936 20.304V20.016L114.872 19.984C114.616 20.4107 114.275 20.7947 113.848 21.136C113.485 21.4347 113.005 21.712 112.408 21.968C111.811 22.2027 111.075 22.32 110.2 22.32C109.432 22.32 108.728 22.2027 108.088 21.968C107.448 21.712 106.904 21.3813 106.456 20.976C106.008 20.5707 105.667 20.0907 105.432 19.536C105.197 18.9813 105.08 18.3947 105.08 17.776C105.08 17.1573 105.208 16.592 105.464 16.08C105.741 15.5467 106.157 15.088 106.712 14.704C107.288 14.32 108.003 14.0213 108.856 13.808C109.709 13.5947 110.723 13.488 111.896 13.488C112.301 13.488 112.664 13.5093 112.984 13.552C113.325 13.5733 113.624 13.5947 113.88 13.616C114.157 13.6587 114.424 13.6907 114.68 13.712V12.208ZM114.616 15.792C114.424 15.7707 114.211 15.7387 113.976 15.696C113.763 15.6533 113.507 15.6213 113.208 15.6C112.909 15.5787 112.579 15.568 112.216 15.568C111 15.568 110.115 15.7387 109.56 16.08C109.005 16.4 108.728 16.8693 108.728 17.488C108.728 18.0853 108.963 18.608 109.432 19.056C109.901 19.4827 110.541 19.696 111.352 19.696C111.864 19.696 112.323 19.6213 112.728 19.472C113.155 19.3227 113.507 19.152 113.784 18.96C114.104 18.7467 114.381 18.5013 114.616 18.224V15.792ZM124.534 8.816L122.838 8.528C122.454 8.44267 122.187 8.32533 122.038 8.176C121.889 8.00533 121.814 7.78133 121.814 7.504C121.814 7.184 121.889 6.94933 122.038 6.8C122.187 6.62933 122.465 6.48 122.87 6.352C123.275 6.24533 123.734 6.16 124.246 6.096C124.779 6.032 125.291 6 125.782 6C126.507 6 127.009 6.13867 127.286 6.416C127.585 6.69333 127.734 7.184 127.734 7.888V8.4L127.798 8.432C128.054 7.94133 128.406 7.51467 128.854 7.152C129.217 6.832 129.707 6.544 130.326 6.288C130.966 6.01067 131.734 5.872 132.63 5.872C133.867 5.872 134.902 6.10667 135.734 6.576C136.566 7.04533 137.206 7.728 137.654 8.624C137.974 8.112 138.379 7.664 138.87 7.28C139.275 6.91733 139.809 6.59733 140.47 6.32C141.131 6.02133 141.942 5.872 142.902 5.872C144.715 5.872 146.113 6.384 147.094 7.408C148.075 8.41067 148.566 9.92533 148.566 11.952V19.408L150.006 19.824C150.39 19.9307 150.646 20.0693 150.774 20.24C150.923 20.3893 150.998 20.6133 150.998 20.912C150.998 21.232 150.891 21.4987 150.678 21.712C150.465 21.904 150.155 22 149.75 22H144.054C143.649 22 143.329 21.904 143.094 21.712C142.881 21.4987 142.774 21.232 142.774 20.912C142.774 20.6133 142.838 20.3893 142.966 20.24C143.115 20.0693 143.382 19.92 143.766 19.792L145.046 19.408V12.848C145.046 11.2907 144.747 10.1813 144.15 9.52C143.574 8.85867 142.753 8.528 141.686 8.528C141.131 8.528 140.63 8.63467 140.182 8.848C139.755 9.04 139.393 9.25333 139.094 9.488C138.753 9.76533 138.454 10.0853 138.198 10.448C138.198 10.5547 138.219 10.672 138.262 10.8C138.262 10.928 138.273 11.088 138.294 11.28C138.315 11.472 138.326 11.696 138.326 11.952V19.408L139.606 19.792C139.99 19.92 140.246 20.0693 140.374 20.24C140.523 20.3893 140.598 20.6133 140.598 20.912C140.598 21.232 140.481 21.4987 140.246 21.712C140.033 21.904 139.723 22 139.318 22H133.782C133.377 22 133.067 21.904 132.854 21.712C132.641 21.4987 132.534 21.232 132.534 20.912C132.534 20.6133 132.598 20.3893 132.726 20.24C132.875 20.0693 133.142 19.92 133.526 19.792L134.806 19.408V12.848C134.806 11.2907 134.507 10.1813 133.91 9.52C133.334 8.85867 132.502 8.528 131.414 8.528C130.881 8.528 130.401 8.624 129.974 8.816C129.569 8.98667 129.227 9.18933 128.95 9.424C128.609 9.70133 128.31 9.98933 128.054 10.288V19.408L129.334 19.792C129.718 19.92 129.974 20.0693 130.102 20.24C130.251 20.3893 130.326 20.6133 130.326 20.912C130.326 21.232 130.219 21.4987 130.006 21.712C129.793 21.904 129.483 22 129.078 22H123.158C122.753 22 122.443 21.904 122.23 21.712C122.017 21.4987 121.91 21.232 121.91 20.912C121.91 20.6133 121.974 20.3893 122.102 20.24C122.251 20.0907 122.529 19.9627 122.934 19.856L124.534 19.408V8.816Z" fill="#29231D"/>
</svg>
