<svg width="32" height="32" viewBox="0 0 32 32" fill="none" xmlns="http://www.w3.org/2000/svg">
<path fill-rule="evenodd" clip-rule="evenodd" d="M16 31C24.2843 31 31 24.2843 31 16C31 7.71573 24.2843 1 16 1C7.71573 1 1 7.71573 1 16C1 24.2843 7.71573 31 16 31ZM16 32C24.8366 32 32 24.8366 32 16C32 7.16344 24.8366 0 16 0C7.16344 0 0 7.16344 0 16C0 24.8366 7.16344 32 16 32Z" fill="white"/>
<path d="M17.4502 12.4049C17.3702 12.3749 17.2702 12.3399 17.1502 12.2999C17.0402 12.2799 16.9052 12.2599 16.7452 12.2399C16.5952 12.2099 16.4052 12.1949 16.1752 12.1949C15.6752 12.1949 15.3052 12.2999 15.0652 12.5099C14.8352 12.7099 14.7202 12.9649 14.7202 13.2749C14.7202 13.6249 14.8352 13.9049 15.0652 14.1149C15.3052 14.3249 15.6002 14.5099 15.9502 14.6699C16.3002 14.8199 16.6802 14.9699 17.0902 15.1199C17.5002 15.2699 17.8802 15.4649 18.2302 15.7049C18.5802 15.9349 18.8702 16.2349 19.1002 16.6049C19.3402 16.9749 19.4602 17.4549 19.4602 18.0449C19.4602 18.4849 19.3752 18.8949 19.2052 19.2749C19.0352 19.6549 18.7802 19.9849 18.4402 20.2649C18.1102 20.5349 17.6952 20.7499 17.1952 20.9099C16.6952 21.0699 16.1152 21.1499 15.4552 21.1499C14.7952 21.1499 14.2552 21.0999 13.8352 20.9999C13.4152 20.8899 13.1252 20.7549 12.9652 20.5949C12.9152 20.5449 12.8702 20.4899 12.8302 20.4299C12.8002 20.3699 12.7752 20.2999 12.7552 20.2199C12.7352 20.1299 12.7202 20.0299 12.7102 19.9199C12.7102 19.7999 12.7102 19.6549 12.7102 19.4849V19.2599C12.7102 19.0399 12.7102 18.8749 12.7102 18.7649C12.7102 18.6549 12.7152 18.5299 12.7252 18.3899C12.7452 18.1799 12.8052 18.0299 12.9052 17.9399C13.0152 17.8399 13.1552 17.7899 13.3252 17.7899C13.6552 17.7899 13.8852 17.9849 14.0152 18.3749L14.3902 19.4699C14.4902 19.5099 14.6102 19.5499 14.7502 19.5899C14.8702 19.6199 15.0152 19.6499 15.1852 19.6799C15.3652 19.6999 15.5802 19.7099 15.8302 19.7099C16.3302 19.7099 16.7102 19.5899 16.9702 19.3499C17.2402 19.0999 17.3752 18.7949 17.3752 18.4349C17.3752 18.1549 17.3052 17.9249 17.1652 17.7449C17.0352 17.5549 16.8552 17.3899 16.6252 17.2499C16.4052 17.1099 16.1552 16.9849 15.8752 16.8749C15.5952 16.7649 15.3052 16.6549 15.0052 16.5449C14.7052 16.4249 14.4152 16.2899 14.1352 16.1399C13.8552 15.9899 13.6002 15.8049 13.3702 15.5849C13.1502 15.3649 12.9702 15.0999 12.8302 14.7899C12.7002 14.4799 12.6352 14.1049 12.6352 13.6649C12.6352 13.2549 12.7152 12.8749 12.8752 12.5249C13.0352 12.1649 13.2752 11.8549 13.5952 11.5949C13.9252 11.3349 14.3352 11.1299 14.8252 10.9799C15.3252 10.8299 15.9152 10.7549 16.5952 10.7549C17.1952 10.7549 17.6802 10.8049 18.0502 10.9049C18.4302 11.0049 18.7002 11.1349 18.8602 11.2949C18.9102 11.3449 18.9502 11.3999 18.9802 11.4599C19.0202 11.5199 19.0502 11.5949 19.0702 11.6849C19.0902 11.7649 19.1002 11.8649 19.1002 11.9849C19.1102 12.0949 19.1152 12.2349 19.1152 12.4049V12.5849C19.1152 12.7849 19.1152 12.9449 19.1152 13.0649C19.1152 13.1749 19.1102 13.2999 19.1002 13.4399C19.0802 13.6499 19.0152 13.8049 18.9052 13.9049C18.8052 13.9949 18.6702 14.0399 18.5002 14.0399C18.3302 14.0399 18.1902 13.9949 18.0802 13.9049C17.9702 13.8049 17.8802 13.6549 17.8102 13.4549L17.4502 12.4049Z" fill="white"/>
</svg>
