<svg width="45" height="45" viewBox="0 0 45 45" fill="none" xmlns="http://www.w3.org/2000/svg">
<path fill-rule="evenodd" clip-rule="evenodd" d="M22.5 44C34.3741 44 44 34.3741 44 22.5C44 10.6259 34.3741 1 22.5 1C10.6259 1 1 10.6259 1 22.5C1 34.3741 10.6259 44 22.5 44ZM22.5 45C34.9264 45 45 34.9264 45 22.5C45 10.0736 34.9264 0 22.5 0C10.0736 0 0 10.0736 0 22.5C0 34.9264 10.0736 45 22.5 45Z" fill="white"/>
<path d="M24.4336 17.5401C24.3269 17.5001 24.1936 17.4534 24.0336 17.4001C23.8869 17.3734 23.7069 17.3468 23.4936 17.3201C23.2936 17.2801 23.0403 17.2601 22.7336 17.2601C22.0669 17.2601 21.5736 17.4001 21.2536 17.6801C20.9469 17.9468 20.7936 18.2868 20.7936 18.7001C20.7936 19.1668 20.9469 19.5401 21.2536 19.8201C21.5736 20.1001 21.9669 20.3468 22.4336 20.5601C22.9003 20.7601 23.4069 20.9601 23.9536 21.1601C24.5003 21.3601 25.0069 21.6201 25.4736 21.9401C25.9403 22.2468 26.3269 22.6468 26.6336 23.1401C26.9536 23.6334 27.1136 24.2734 27.1136 25.0601C27.1136 25.6468 27.0003 26.1934 26.7736 26.7001C26.5469 27.2068 26.2069 27.6468 25.7536 28.0201C25.3136 28.3801 24.7603 28.6668 24.0936 28.8801C23.4269 29.0934 22.6536 29.2001 21.7736 29.2001C20.8936 29.2001 20.1736 29.1334 19.6136 29.0001C19.0536 28.8534 18.6669 28.6734 18.4536 28.4601C18.3869 28.3934 18.3269 28.3201 18.2736 28.2401C18.2336 28.1601 18.2003 28.0668 18.1736 27.9601C18.1469 27.8401 18.1269 27.7068 18.1136 27.5601C18.1136 27.4001 18.1136 27.2068 18.1136 26.9801V26.6801C18.1136 26.3868 18.1136 26.1668 18.1136 26.0201C18.1136 25.8734 18.1203 25.7068 18.1336 25.5201C18.1603 25.2401 18.2403 25.0401 18.3736 24.9201C18.5203 24.7868 18.7069 24.7201 18.9336 24.7201C19.3736 24.7201 19.6803 24.9801 19.8536 25.5001L20.3536 26.9601C20.4869 27.0134 20.6469 27.0668 20.8336 27.1201C20.9936 27.1601 21.1869 27.2001 21.4136 27.2401C21.6536 27.2668 21.9403 27.2801 22.2736 27.2801C22.9403 27.2801 23.4469 27.1201 23.7936 26.8001C24.1536 26.4668 24.3336 26.0601 24.3336 25.5801C24.3336 25.2068 24.2403 24.9001 24.0536 24.6601C23.8803 24.4068 23.6403 24.1868 23.3336 24.0001C23.0403 23.8134 22.7069 23.6468 22.3336 23.5001C21.9603 23.3534 21.5736 23.2068 21.1736 23.0601C20.7736 22.9001 20.3869 22.7201 20.0136 22.5201C19.6403 22.3201 19.3003 22.0734 18.9936 21.7801C18.7003 21.4868 18.4603 21.1334 18.2736 20.7201C18.1003 20.3068 18.0136 19.8068 18.0136 19.2201C18.0136 18.6734 18.1203 18.1668 18.3336 17.7001C18.5469 17.2201 18.8669 16.8068 19.2936 16.4601C19.7336 16.1134 20.2803 15.8401 20.9336 15.6401C21.6003 15.4401 22.3869 15.3401 23.2936 15.3401C24.0936 15.3401 24.7403 15.4068 25.2336 15.5401C25.7403 15.6734 26.1003 15.8468 26.3136 16.0601C26.3803 16.1268 26.4336 16.2001 26.4736 16.2801C26.5269 16.3601 26.5669 16.4601 26.5936 16.5801C26.6203 16.6868 26.6336 16.8201 26.6336 16.9801C26.6469 17.1268 26.6536 17.3134 26.6536 17.5401V17.7801C26.6536 18.0468 26.6536 18.2601 26.6536 18.4201C26.6536 18.5668 26.6469 18.7334 26.6336 18.9201C26.6069 19.2001 26.5203 19.4068 26.3736 19.5401C26.2403 19.6601 26.0603 19.7201 25.8336 19.7201C25.6069 19.7201 25.4203 19.6601 25.2736 19.5401C25.1269 19.4068 25.0069 19.2068 24.9136 18.9401L24.4336 17.5401Z" fill="white"/>
</svg>
