<svg width="23" height="23" viewBox="0 0 23 23" fill="none" xmlns="http://www.w3.org/2000/svg">
<path fill-rule="evenodd" clip-rule="evenodd" d="M11.5 22C17.299 22 22 17.299 22 11.5C22 5.70101 17.299 1 11.5 1C5.70101 1 1 5.70101 1 11.5C1 17.299 5.70101 22 11.5 22ZM11.5 23C17.8513 23 23 17.8513 23 11.5C23 5.14873 17.8513 0 11.5 0C5.14873 0 0 5.14873 0 11.5C0 17.8513 5.14873 23 11.5 23Z" fill="white"/>
<path d="M12.4668 8.76992C12.4135 8.74992 12.3468 8.72659 12.2668 8.69992C12.1935 8.68659 12.1035 8.67326 11.9968 8.65992C11.8968 8.63992 11.7701 8.62992 11.6168 8.62992C11.2835 8.62992 11.0368 8.69992 10.8768 8.83992C10.7235 8.97326 10.6468 9.14326 10.6468 9.34992C10.6468 9.58326 10.7235 9.76992 10.8768 9.90992C11.0368 10.0499 11.2335 10.1733 11.4668 10.2799C11.7001 10.3799 11.9535 10.4799 12.2268 10.5799C12.5001 10.6799 12.7535 10.8099 12.9868 10.9699C13.2201 11.1233 13.4135 11.3233 13.5668 11.5699C13.7268 11.8166 13.8068 12.1366 13.8068 12.5299C13.8068 12.8233 13.7501 13.0966 13.6368 13.3499C13.5235 13.6033 13.3535 13.8233 13.1268 14.0099C12.9068 14.1899 12.6301 14.3333 12.2968 14.4399C11.9635 14.5466 11.5768 14.5999 11.1368 14.5999C10.6968 14.5999 10.3368 14.5666 10.0568 14.4999C9.7768 14.4266 9.58346 14.3366 9.4768 14.2299C9.44346 14.1966 9.41346 14.1599 9.3868 14.1199C9.3668 14.0799 9.35013 14.0333 9.3368 13.9799C9.32346 13.9199 9.31346 13.8533 9.3068 13.7799C9.3068 13.6999 9.3068 13.6033 9.3068 13.4899V13.3399C9.3068 13.1933 9.3068 13.0833 9.3068 13.0099C9.3068 12.9366 9.31013 12.8533 9.3168 12.7599C9.33013 12.6199 9.37013 12.5199 9.4368 12.4599C9.51013 12.3933 9.60346 12.3599 9.7168 12.3599C9.9368 12.3599 10.0901 12.4899 10.1768 12.7499L10.4268 13.4799C10.4935 13.5066 10.5735 13.5333 10.6668 13.5599C10.7468 13.5799 10.8435 13.5999 10.9568 13.6199C11.0768 13.6333 11.2201 13.6399 11.3868 13.6399C11.7201 13.6399 11.9735 13.5599 12.1468 13.3999C12.3268 13.2333 12.4168 13.0299 12.4168 12.7899C12.4168 12.6033 12.3701 12.4499 12.2768 12.3299C12.1901 12.2033 12.0701 12.0933 11.9168 11.9999C11.7701 11.9066 11.6035 11.8233 11.4168 11.7499C11.2301 11.6766 11.0368 11.6033 10.8368 11.5299C10.6368 11.4499 10.4435 11.3599 10.2568 11.2599C10.0701 11.1599 9.90013 11.0366 9.7468 10.8899C9.60013 10.7433 9.48013 10.5666 9.3868 10.3599C9.30013 10.1533 9.2568 9.90326 9.2568 9.60992C9.2568 9.33659 9.31013 9.08326 9.4168 8.84992C9.52346 8.60992 9.68346 8.40326 9.8968 8.22992C10.1168 8.05659 10.3901 7.91992 10.7168 7.81992C11.0501 7.71992 11.4435 7.66992 11.8968 7.66992C12.2968 7.66992 12.6201 7.70326 12.8668 7.76992C13.1201 7.83659 13.3001 7.92326 13.4068 8.02992C13.4401 8.06326 13.4668 8.09992 13.4868 8.13992C13.5135 8.17992 13.5335 8.22992 13.5468 8.28992C13.5601 8.34326 13.5668 8.40992 13.5668 8.48992C13.5735 8.56326 13.5768 8.65659 13.5768 8.76992V8.88992C13.5768 9.02326 13.5768 9.12992 13.5768 9.20992C13.5768 9.28326 13.5735 9.36659 13.5668 9.45992C13.5535 9.59992 13.5101 9.70326 13.4368 9.76992C13.3701 9.82992 13.2801 9.85992 13.1668 9.85992C13.0535 9.85992 12.9601 9.82992 12.8868 9.76992C12.8135 9.70326 12.7535 9.60326 12.7068 9.46992L12.4668 8.76992Z" fill="white"/>
</svg>
