<?xml version="1.0" encoding="UTF-8"?>
<svg id="_レイヤー_1" data-name="レイヤー 1" xmlns="http://www.w3.org/2000/svg" version="1.1" viewBox="0 0 47 16">
  <defs>
    <style>
      .cls-1 {
        fill: #d0c2b4;
        stroke-width: 0px;
      }
    </style>
  </defs>
  <path class="cls-1" d="M6.9,2.9c0,0-.1,0-.2,0,0,0-.2,0-.3,0-.1,0-.2,0-.4,0-.4,0-.8,0-1.2.3-.4.2-.7.4-.9.7-.3.3-.5.7-.6,1.2-.1.5-.2,1.1-.2,1.7s0,1.2.2,1.6c.2.5.4.9.7,1.2.3.3.6.6,1,.7.4.2.8.2,1.3.2s.6,0,.8,0c.2,0,.4,0,.6-.1.2,0,.3,0,.4-.1.1,0,.2,0,.3,0,.2,0,.3,0,.4.2,0,0,.1.3.1.5s0,.2,0,.3c0,0,0,.2-.2.3,0,0-.2.2-.4.3-.2,0-.4.2-.6.3-.2,0-.5.2-.9.2-.3,0-.7,0-1.1,0-.7,0-1.4-.1-2-.4-.6-.2-1.1-.6-1.6-1-.4-.4-.8-1-1-1.6-.2-.7-.4-1.4-.4-2.2s.1-1.7.4-2.4c.3-.7.7-1.3,1.2-1.9.5-.5,1.1-.9,1.8-1.2.7-.3,1.4-.4,2.2-.4s1.1,0,1.4.2c.4,0,.7.2.8.4,0,0,0,.1.1.2,0,0,0,.1,0,.2,0,0,0,.2,0,.4,0,.1,0,.3,0,.5v.8c0,.2,0,.3,0,.5,0,.2,0,.4-.2.5-.1,0-.3.1-.5.1s-.3,0-.5-.1c-.1-.1-.2-.3-.3-.5l-.4-1.4ZM9.8,8.2c0-.7.1-1.3.3-1.8.2-.5.5-1,.9-1.4.4-.4.8-.7,1.4-.9.5-.2,1.1-.3,1.8-.3,1.2,0,2.1.3,2.8,1,.7.7,1,1.6,1,2.9s-.1,1.3-.3,1.8c-.2.5-.5,1-.8,1.4-.4.4-.8.7-1.4.9-.5.2-1.1.3-1.8.3-1.2,0-2.1-.3-2.8-1-.7-.7-1-1.7-1-2.9ZM12.1,8c0,.4,0,.8.1,1.2.1.3.2.6.4.8.2.2.4.4.6.5.2.1.5.2.7.2.5,0,.9-.2,1.3-.6.4-.4.5-1.1.5-2s0-.8-.2-1.2c0-.3-.2-.6-.4-.8-.2-.2-.4-.4-.6-.5-.2-.1-.5-.2-.7-.2-.5,0-.9.2-1.3.6-.3.4-.5,1.1-.5,2ZM20.3,5.5h-.6c-.5,0-.7-.2-.7-.6s0-.5.2-.6c.2-.2.4-.2.7-.2h.4v-.4c0-1.1.3-1.9.9-2.5.6-.6,1.4-.9,2.5-.9s.6,0,.8,0c.2,0,.4.1.5.2,0,0,0,0,0,.1,0,0,0,.1,0,.2,0,0,0,.2,0,.3,0,.1,0,.2,0,.4h0v.4c0,0,0,.2,0,.4,0,.2,0,.4-.2.4-.1,0-.3.1-.4.1s-.3,0-.4-.1c-.1-.1-.2-.3-.3-.5l-.2-.6s0,0,0,0c0,0,0,0-.1,0,0,0,0,0-.1,0-.3,0-.5,0-.7.3-.2.2-.2.5-.2,1v1h1.1c.5,0,.7.2.7.6s0,.5-.2.6c-.1.1-.4.2-.7.2h-1v4.9l.8.2c.2,0,.4.1.5.2,0,0,.1.2.1.4s0,.4-.2.5c-.1.1-.3.2-.6.2h-3.3c-.2,0-.4,0-.6-.2-.1-.1-.2-.3-.2-.5s0-.3.1-.4c0,0,.2-.2.5-.3l.7-.2v-4.9ZM26.2,5.5h-.6c-.5,0-.7-.2-.7-.6s0-.5.2-.6c.2-.2.4-.2.7-.2h.4v-.4c0-1.1.3-1.9.9-2.5.6-.6,1.4-.9,2.5-.9s.6,0,.8,0c.2,0,.4.1.5.2,0,0,0,0,0,.1,0,0,0,.1,0,.2,0,0,0,.2,0,.3,0,.1,0,.2,0,.4h0v.4c0,0,0,.2,0,.4,0,.2,0,.4-.2.4-.1,0-.3.1-.4.1s-.3,0-.4-.1c-.1-.1-.2-.3-.3-.5l-.2-.6s0,0,0,0c0,0,0,0-.1,0,0,0,0,0-.1,0-.3,0-.5,0-.7.3-.2.2-.2.5-.2,1v1h1.1c.5,0,.7.2.7.6s0,.5-.2.6c-.1.1-.4.2-.7.2h-1v4.9l.8.2c.2,0,.4.1.5.2,0,0,.1.2.1.4s0,.4-.2.5c-.1.1-.3.2-.6.2h-3.3c-.2,0-.4,0-.6-.2-.1-.1-.2-.3-.2-.5s0-.3.1-.4c0,0,.2-.2.5-.3l.7-.2v-4.9ZM33.1,8.4c0,.7.3,1.3.7,1.7.4.4,1,.6,1.7.6s.5,0,.6,0c.2,0,.3,0,.5,0,.1,0,.3,0,.4,0,.1,0,.2,0,.3,0,.2,0,.3,0,.4.2,0,0,.1.2.1.4s0,.2,0,.3c0,0,0,.2-.2.3-.2.2-.5.4-.9.5-.4.2-1,.2-1.7.2s-1.2,0-1.7-.3c-.5-.2-.9-.4-1.2-.8-.3-.3-.6-.8-.8-1.2-.2-.5-.3-1.1-.3-1.7s0-1.3.3-1.8c.2-.5.5-1,.8-1.4.4-.4.8-.7,1.3-.9.5-.2,1-.3,1.6-.3,1,0,1.8.3,2.3.8.6.6.8,1.4.8,2.4s0,.7-.3.9c-.2.2-.5.3-.8.3h-3.9ZM35.9,7.1c0-.6-.2-1.1-.4-1.4-.2-.3-.5-.4-.9-.4s-.8.2-1,.5c-.3.3-.4.7-.5,1.3h2.9ZM41.6,8.4c0,.7.3,1.3.7,1.7.4.4,1,.6,1.7.6s.5,0,.6,0c.2,0,.3,0,.5,0,.1,0,.3,0,.4,0,.1,0,.2,0,.3,0,.2,0,.3,0,.4.2,0,0,.1.2.1.4s0,.2,0,.3c0,0,0,.2-.2.3-.2.2-.5.4-.9.5-.4.2-1,.2-1.7.2s-1.2,0-1.7-.3c-.5-.2-.9-.4-1.2-.8-.3-.3-.6-.8-.8-1.2-.2-.5-.3-1.1-.3-1.7s0-1.3.3-1.8c.2-.5.5-1,.8-1.4.4-.4.8-.7,1.3-.9.5-.2,1-.3,1.6-.3,1,0,1.8.3,2.3.8.6.6.8,1.4.8,2.4s0,.7-.3.9c-.2.2-.5.3-.8.3h-3.9ZM44.5,7.1c0-.6-.2-1.1-.4-1.4-.2-.3-.5-.4-.9-.4s-.8.2-1,.5c-.3.3-.4.7-.5,1.3h2.9Z"/>
</svg>