<?xml version="1.0" encoding="UTF-8"?>
<svg id="_レイヤー_1" data-name="レイヤー 1" xmlns="http://www.w3.org/2000/svg" version="1.1" viewBox="0 0 68 16">
  <defs>
    <style>
      .cls-1 {
        fill: #d0c2b4;
        stroke-width: 0px;
      }
    </style>
  </defs>
  <path class="cls-1" d="M6,2.8c0,0-.2,0-.3-.1-.1,0-.3,0-.4,0-.2,0-.4,0-.6,0-.5,0-.9.1-1.2.3-.2.2-.4.5-.4.8s.1.7.4.9c.3.2.6.4.9.6.4.2.8.3,1.2.5.4.2.8.4,1.2.6.4.2.7.6.9,1,.3.4.4.9.4,1.5s0,.9-.3,1.3c-.2.4-.5.8-.8,1.1-.4.3-.8.5-1.3.7s-1.2.3-1.9.3-1.3,0-1.7-.2c-.4-.1-.8-.3-.9-.4,0,0-.1-.1-.1-.2,0,0,0-.1,0-.2,0,0,0-.2,0-.3v-.7c0-.2,0-.4,0-.5s0-.3,0-.4c0-.2,0-.4.2-.5.1-.1.3-.2.4-.2.4,0,.6.2.7.6l.4,1.2c.1,0,.2,0,.4.1.1,0,.3,0,.5,0,.2,0,.4,0,.7,0,.5,0,.9-.1,1.2-.4.3-.3.4-.6.4-1s0-.5-.2-.7c-.1-.2-.3-.4-.6-.5-.2-.1-.5-.3-.8-.4-.3-.1-.6-.2-.9-.4-.3-.1-.6-.3-.9-.4s-.6-.4-.8-.6c-.2-.2-.4-.5-.6-.8-.1-.3-.2-.7-.2-1.2,0-.4,0-.8.3-1.2.2-.4.4-.7.8-1,.4-.3.8-.5,1.3-.7.5-.2,1.2-.2,1.9-.2s1.2,0,1.6.2c.4.1.7.2.9.4s0,.1.1.2c0,0,0,.1,0,.2,0,0,0,.2,0,.3,0,.1,0,.3,0,.4v.7c0,.1,0,.3,0,.4,0,.2,0,.4-.2.5-.1,0-.3.1-.4.1s-.3,0-.4-.1c-.1-.1-.2-.3-.3-.5l-.4-1.1ZM11.7,8.4c0,.7.3,1.3.7,1.7.4.4,1,.6,1.7.6s.5,0,.6,0c.2,0,.3,0,.5,0,.1,0,.3,0,.4,0,.1,0,.2,0,.3,0,.2,0,.3,0,.4.2,0,0,.1.2.1.4s0,.2,0,.3c0,0,0,.2-.2.3-.2.2-.5.4-.9.5-.4.2-1,.2-1.7.2s-1.2,0-1.7-.3c-.5-.2-.9-.4-1.2-.8-.3-.3-.6-.8-.8-1.2-.2-.5-.3-1.1-.3-1.7s0-1.3.3-1.8c.2-.5.5-1,.8-1.4.4-.4.8-.7,1.3-.9.5-.2,1-.3,1.6-.3,1,0,1.8.3,2.3.8.6.6.8,1.4.8,2.4s0,.7-.3.9c-.2.2-.5.3-.8.3h-3.9ZM14.6,7.1c0-.6-.2-1.1-.4-1.4-.2-.3-.5-.4-.9-.4s-.8.2-1,.5c-.3.3-.4.7-.5,1.3h2.9ZM22.8,7.2c0-.6-.1-1.1-.3-1.3-.2-.2-.6-.4-1.2-.4s-.6,0-.8,0c-.2,0-.4,0-.6.1-.2,0-.3,0-.4.1-.1,0-.2,0-.3,0-.2,0-.3,0-.4-.2-.1-.1-.2-.3-.2-.5s0-.3.2-.5c0,0,.2-.2.4-.3.2,0,.4-.2.7-.3.3,0,.6-.2.9-.2.3,0,.7,0,1.1,0,1.1,0,2,.2,2.4.7.5.4.7,1.1.7,2.1s0,1.2,0,1.8c0,.6,0,1.2,0,2h.6c.2.1.4.2.4.3,0,0,.1.2.1.4s0,.3-.1.4c0,0-.2.2-.4.3-.2,0-.4.1-.7.2-.3,0-.5,0-.8,0s-.6,0-.8-.3c-.2-.2-.3-.4-.3-.8h0c0,0,0,0,0,0-.1.2-.3.4-.5.6-.2.1-.4.3-.7.4-.3.1-.7.2-1.1.2s-.7,0-1.1-.2c-.3-.1-.6-.3-.8-.5-.2-.2-.4-.5-.5-.8-.1-.3-.2-.6-.2-.9s0-.6.2-.9c.1-.3.4-.5.7-.7.3-.2.7-.4,1.1-.5.5-.1,1-.2,1.6-.2s.3,0,.5,0c.1,0,.3,0,.4,0,.1,0,.2,0,.3,0v-.5ZM22.8,8.9c0,0-.2,0-.3,0,0,0-.2,0-.3,0-.1,0-.3,0-.4,0-.5,0-.9,0-1.2.2-.2.1-.4.4-.4.6s0,.5.3.7c.2.2.5.3.8.3s.4,0,.6,0c.2,0,.3-.1.4-.2.1,0,.3-.2.4-.3v-1.1ZM28.7,10.5c0,0,.2,0,.3.1.1,0,.2,0,.4,0,.2,0,.3,0,.5,0,.5,0,.8,0,1-.2.2-.2.3-.4.3-.6s-.1-.4-.3-.6c-.2-.1-.5-.3-.8-.4-.3-.1-.6-.2-1-.4-.4-.1-.7-.3-1-.5-.3-.2-.5-.4-.8-.7-.2-.3-.3-.7-.3-1.2s0-.6.2-.9c.1-.3.4-.6.6-.8.3-.2.7-.4,1.1-.5.4-.1,1-.2,1.6-.2s1.1,0,1.5.2c.3.1.5.2.7.3,0,0,.1.2.2.3,0,.1,0,.3,0,.5h0v.4c0,.1,0,.2,0,.3,0,.2,0,.4-.2.4-.1,0-.3.1-.4.1s-.3,0-.4-.1c0,0-.2-.2-.3-.4l-.2-.5c0,0-.2,0-.3,0,0,0-.2,0-.4,0-.1,0-.3,0-.4,0-.4,0-.7,0-.9.2-.1.1-.2.3-.2.5s.1.4.3.5c.2.1.5.2.8.4.3.1.6.2,1,.4.4.1.7.3,1,.5.3.2.6.4.8.8.2.3.3.7.3,1.2s0,.7-.2,1c-.1.3-.4.6-.7.8-.3.2-.7.4-1.2.5-.5.1-1,.2-1.6.2s-1.2,0-1.6-.2c-.4-.1-.6-.2-.7-.3,0,0-.1-.2-.2-.3,0-.1,0-.3,0-.5h0v-.4c0-.1,0-.2,0-.3,0-.2,0-.4.2-.4.1,0,.3-.1.4-.1s.3,0,.4.1c.1,0,.2.2.3.4l.2.5ZM34.7,8.2c0-.7.1-1.3.3-1.8.2-.5.5-1,.9-1.4.4-.4.8-.7,1.4-.9.5-.2,1.1-.3,1.8-.3,1.2,0,2.1.3,2.8,1,.7.7,1,1.6,1,2.9s-.1,1.3-.3,1.8c-.2.5-.5,1-.8,1.4-.4.4-.8.7-1.4.9-.5.2-1.1.3-1.8.3-1.2,0-2.1-.3-2.8-1-.7-.7-1-1.7-1-2.9ZM36.9,8c0,.4,0,.8.1,1.2.1.3.2.6.4.8.2.2.4.4.6.5.2.1.5.2.7.2.5,0,.9-.2,1.3-.6.4-.4.5-1.1.5-2s0-.8-.2-1.2c0-.3-.2-.6-.4-.8-.2-.2-.4-.4-.6-.5-.2-.1-.5-.2-.7-.2-.5,0-.9.2-1.3.6-.3.4-.5,1.1-.5,2ZM45.1,5.6l-.7-.2c-.2,0-.4-.1-.5-.2,0,0-.1-.2-.1-.4s0-.3.1-.4c0-.1.3-.2.5-.3.2,0,.5-.1.8-.2.3,0,.6,0,.8,0,.4,0,.7,0,.8.2.2.2.2.4.2.8v.2h0c.1-.2.3-.4.5-.6.2-.2.4-.3.8-.4.3-.1.7-.2,1.2-.2.9,0,1.6.3,2.1.8.5.5.8,1.3.8,2.3v3.5l.6.2c.2,0,.4.2.5.3,0,0,.1.2.1.4s0,.4-.2.5c-.1.1-.3.2-.6.2h-3c-.2,0-.4,0-.6-.2-.1-.1-.2-.3-.2-.5s0-.3.1-.4c0,0,.2-.2.5-.3l.6-.2v-3c0-.7-.1-1.2-.4-1.5-.3-.3-.6-.4-1.1-.4s-.5,0-.7.1c-.2,0-.3.2-.5.3-.1.1-.3.2-.4.4v4.2l.6.2c.2,0,.4.2.5.3,0,0,.1.2.1.4s0,.4-.2.5c-.1.1-.3.2-.6.2h-3.1c-.2,0-.4,0-.6-.2-.1-.1-.2-.3-.2-.5s0-.3.1-.4c0,0,.2-.2.5-.3l.7-.2v-4.8ZM59.3,7.2c0-.6-.1-1.1-.3-1.3-.2-.2-.6-.4-1.2-.4s-.6,0-.8,0c-.2,0-.4,0-.6.1-.2,0-.3,0-.4.1-.1,0-.2,0-.3,0-.2,0-.3,0-.4-.2-.1-.1-.2-.3-.2-.5s0-.3.2-.5c0,0,.2-.2.4-.3.2,0,.4-.2.7-.3.3,0,.6-.2.9-.2.3,0,.7,0,1.1,0,1.1,0,2,.2,2.4.7.5.4.7,1.1.7,2.1s0,1.2,0,1.8c0,.6,0,1.2,0,2h.6c.2.1.4.2.4.3,0,0,.1.2.1.4s0,.3-.1.4c0,0-.2.2-.4.3-.2,0-.4.1-.7.2-.3,0-.5,0-.8,0s-.6,0-.8-.3c-.2-.2-.3-.4-.3-.8h0c0,0,0,0,0,0-.1.2-.3.4-.5.6-.2.1-.4.3-.7.4-.3.1-.7.2-1.1.2s-.7,0-1.1-.2c-.3-.1-.6-.3-.8-.5-.2-.2-.4-.5-.5-.8-.1-.3-.2-.6-.2-.9s0-.6.2-.9c.1-.3.4-.5.7-.7.3-.2.7-.4,1.1-.5.5-.1,1-.2,1.6-.2s.3,0,.5,0c.1,0,.3,0,.4,0,.1,0,.2,0,.3,0v-.5ZM59.3,8.9c0,0-.2,0-.3,0,0,0-.2,0-.3,0-.1,0-.3,0-.4,0-.5,0-.9,0-1.2.2-.2.1-.4.4-.4.6s0,.5.3.7c.2.2.5.3.8.3s.4,0,.6,0c.2,0,.3-.1.4-.2.1,0,.3-.2.4-.3v-1.1ZM64.2,2.1h-.6c-.2-.2-.4-.3-.5-.4,0-.1-.1-.3-.1-.4s0-.3.1-.4c0-.1.3-.2.5-.3.2,0,.4-.1.7-.1.3,0,.6,0,.8,0,.5,0,.8,0,1,.3.2.2.3.5.3,1v8.8l.6.2c.2,0,.4.2.5.3,0,0,.1.2.1.4s0,.4-.2.5c-.1.1-.3.2-.6.2h-3c-.2,0-.4,0-.6-.2-.1-.1-.2-.3-.2-.5s0-.3.1-.4c0,0,.2-.2.4-.2l.7-.2V2.1Z"/>
</svg>