<?xml version="1.0" encoding="UTF-8"?>
<svg id="_レイヤー_1" data-name="レイヤー 1" xmlns="http://www.w3.org/2000/svg" version="1.1" viewBox="0 0 58 16">
  <defs>
    <style>
      .cls-1 {
        fill: #d0c2b4;
        stroke-width: 0px;
      }
    </style>
  </defs>
  <path class="cls-1" d="M4.1,2.5c0-.3.2-.5.3-.6.1-.2.2-.3.4-.4.1-.1.3-.2.5-.2.2,0,.4,0,.6,0s.4,0,.6,0c.2,0,.3.1.5.2.1,0,.3.2.4.4.1.2.2.4.3.6l2.9,8,.4.2c.2,0,.4.2.5.3,0,0,.1.2.1.4s0,.4-.2.5c-.1.1-.3.2-.6.2h-2.9c-.2,0-.4,0-.6-.2-.1-.1-.2-.3-.2-.5s0-.3.1-.4c0,0,.3-.2.5-.3l.5-.2-.5-1.4H3.6l-.5,1.4.5.2c.2,0,.4.2.5.3,0,0,.1.2.1.4s0,.4-.2.5c-.1.1-.3.2-.6.2H.9c-.2,0-.4,0-.6-.2-.1-.1-.2-.3-.2-.5s0-.3.1-.4c0,0,.2-.2.5-.3l.4-.2,2.9-8ZM7.2,7.7l-1-2.8c0-.2-.2-.4-.2-.6,0-.2-.1-.4-.2-.6,0-.2-.1-.4-.2-.6h0c0,.2-.1.4-.2.6,0,.2-.1.4-.2.6,0,.2-.1.4-.2.6l-1,2.8h3.1ZM13,2.1h-.6c-.2-.2-.4-.3-.5-.4,0-.1-.1-.3-.1-.4s0-.3.1-.4c0-.1.3-.2.5-.3.2,0,.4-.1.7-.1.3,0,.6,0,.8,0,.5,0,.8,0,1,.3.2.2.3.5.3,1v8.8s.6.2.6.2c.2,0,.4.2.5.3,0,0,.1.2.1.4s0,.4-.2.5c-.1.1-.3.2-.6.2h-3c-.2,0-.4,0-.6-.2-.1-.1-.2-.3-.2-.5s0-.3.1-.4c0,0,.2-.2.4-.2l.7-.2V2.1ZM21.9,5.5s0,0-.1,0c0,0,0,0-.2,0,0,0-.1,0-.2,0-.5,0-1,.2-1.4.7-.4.4-.5,1.1-.5,2s.2,1.5.6,1.9c.4.4.9.6,1.6.6s.4,0,.5,0c.1,0,.3,0,.4,0,.1,0,.2,0,.3,0,0,0,.2,0,.3,0,.2,0,.3,0,.4.2,0,0,.1.2.1.4s0,.4-.2.5c0,0-.2.2-.4.3-.1,0-.3.2-.5.2-.2,0-.4.1-.7.2-.2,0-.5,0-.8,0-1.2,0-2.1-.3-2.8-1-.7-.7-1-1.6-1-2.8s.1-1.3.3-1.8c.2-.6.5-1,.9-1.4.4-.4.8-.7,1.4-.9.5-.2,1.1-.3,1.8-.3s.9,0,1.1.1c.3,0,.5.2.6.3,0,0,.1.2.2.3,0,.1,0,.4,0,.8h0v.5c0,.1,0,.3,0,.5,0,.2,0,.4-.2.5-.1,0-.3.1-.4.1s-.3,0-.4-.2c-.1-.1-.2-.3-.3-.5l-.3-1ZM24.7,8.2c0-.7.1-1.3.3-1.8.2-.5.5-1,.9-1.4.4-.4.8-.7,1.4-.9.5-.2,1.1-.3,1.8-.3,1.2,0,2.1.3,2.8,1,.7.7,1,1.6,1,2.9s-.1,1.3-.3,1.8c-.2.5-.5,1-.8,1.4-.4.4-.8.7-1.4.9-.5.2-1.1.3-1.8.3-1.2,0-2.1-.3-2.8-1-.7-.7-1-1.7-1-2.9ZM27,8c0,.4,0,.8.1,1.2.1.3.2.6.4.8.2.2.4.4.6.5.2.1.5.2.7.2.5,0,.9-.2,1.3-.6.4-.4.5-1.1.5-2s0-.8-.2-1.2c0-.3-.2-.6-.4-.8-.2-.2-.4-.4-.6-.5-.2-.1-.5-.2-.7-.2-.5,0-.9.2-1.3.6-.3.4-.5,1.1-.5,2ZM35,2.1h-.6c-.2-.2-.4-.3-.5-.4,0-.1-.1-.3-.1-.4s0-.3.1-.4c0-.1.3-.2.5-.3.2,0,.4-.1.7-.1.3,0,.6,0,.8,0,.5,0,.8,0,1,.3.2.2.3.5.3,1v2c0,.2,0,.4,0,.7,0,.2,0,.5,0,.7h0c.1-.2.3-.4.5-.5.2-.1.4-.3.7-.4.3-.1.7-.2,1.1-.2.9,0,1.6.3,2.1.8.5.5.8,1.3.8,2.3v3.5l.6.2c.2,0,.4.2.5.3,0,0,.1.2.1.4s0,.4-.2.5c-.1.1-.3.2-.6.2h-3c-.2,0-.4,0-.6-.2-.1-.1-.2-.3-.2-.5s0-.3.1-.4c0,0,.2-.2.5-.3l.6-.2v-3c0-.7-.1-1.2-.4-1.5-.3-.3-.6-.4-1.1-.4s-.5,0-.7.1c-.2,0-.3.2-.5.3-.1.1-.3.2-.4.4v4.2l.6.2c.2,0,.4.2.5.3,0,0,.1.2.1.4s0,.4-.2.5c-.1.1-.3.2-.6.2h-3c-.2,0-.4,0-.6-.2-.1-.1-.2-.3-.2-.5s0-.3.1-.4c0,0,.2-.2.4-.2l.7-.2V2.1ZM44.3,8.2c0-.7.1-1.3.3-1.8.2-.5.5-1,.9-1.4.4-.4.8-.7,1.4-.9.5-.2,1.1-.3,1.8-.3,1.2,0,2.1.3,2.8,1,.7.7,1,1.6,1,2.9s-.1,1.3-.3,1.8c-.2.5-.5,1-.8,1.4-.4.4-.8.7-1.4.9-.5.2-1.1.3-1.8.3-1.2,0-2.1-.3-2.8-1-.7-.7-1-1.7-1-2.9ZM46.6,8c0,.4,0,.8.1,1.2.1.3.2.6.4.8.2.2.4.4.6.5.2.1.5.2.7.2.5,0,.9-.2,1.3-.6.4-.4.5-1.1.5-2s0-.8-.2-1.2c0-.3-.2-.6-.4-.8-.2-.2-.4-.4-.6-.5-.2-.1-.5-.2-.7-.2-.5,0-.9.2-1.3.6-.3.4-.5,1.1-.5,2ZM54.5,2.1h-.6c-.2-.2-.4-.3-.5-.4,0-.1-.1-.3-.1-.4s0-.3.1-.4c0-.1.3-.2.5-.3.2,0,.4-.1.7-.1.3,0,.6,0,.8,0,.5,0,.8,0,1,.3.2.2.3.5.3,1v8.8l.6.2c.2,0,.4.2.5.3,0,0,.1.2.1.4s0,.4-.2.5c-.1.1-.3.2-.6.2h-3c-.2,0-.4,0-.6-.2-.1-.1-.2-.3-.2-.5s0-.3.1-.4c0,0,.2-.2.4-.2l.7-.2V2.1Z"/>
</svg>