<?xml version="1.0" encoding="UTF-8"?>
<svg id="_レイヤー_1" data-name="レイヤー 1" xmlns="http://www.w3.org/2000/svg" version="1.1" viewBox="0 0 52 16">
  <defs>
    <style>
      .cls-1 {
        fill: #d0c2b4;
        stroke-width: 0px;
      }
    </style>
  </defs>
  <path class="cls-1" d="M1.7,1.8l-.7-.2c-.2,0-.4-.2-.5-.3,0-.1-.1-.3-.1-.5s0-.3.2-.4c.1-.1.3-.2.5-.2h6.4c.2,0,.3,0,.5,0,.1,0,.2.1.3.2s.1.2.2.3c0,.1,0,.3,0,.7v.7c0,.1,0,.3,0,.4,0,.2,0,.4-.2.5-.1,0-.3.1-.5.1s-.3,0-.5-.1c-.1-.1-.2-.3-.3-.5l-.3-.8h-2.8v3.2h2l.2-.4c0-.2.2-.3.3-.4.1,0,.2-.1.4-.1s.3,0,.4.2c.1.1.2.3.2.5v2c0,.2,0,.4-.2.5-.1.1-.3.2-.4.2s-.3,0-.4-.1c0,0-.2-.2-.3-.4l-.2-.4h-2v3l.9.3c.2,0,.4.1.5.2,0,0,.1.2.1.4s0,.4-.2.5c-.1.1-.3.2-.6.2H1.1c-.2,0-.4,0-.6-.2-.1-.1-.2-.3-.2-.5s0-.3.1-.4c0,0,.2-.2.5-.3l.8-.2V1.8ZM10.3,4.6l-.7-.2c-.2,0-.4-.1-.5-.2,0,0-.1-.2-.1-.4s0-.3.1-.4c0-.1.3-.2.5-.3.2,0,.5-.1.8-.2.3,0,.6,0,.8,0,.4,0,.7,0,.8.2.2.2.2.4.2.8v.4h0c.1-.2.2-.4.4-.6.1-.2.3-.4.5-.5.2-.1.4-.2.6-.3.2,0,.4-.1.7-.1s.5,0,.6.2c.1.1.2.4.2.6s0,.4,0,.6c0,.2-.1.3-.2.4,0,.1-.2.2-.3.3,0,0-.2,0-.3,0s-.1,0-.2,0c0,0-.1,0-.2,0,0,0-.1,0-.2,0,0,0-.1,0-.2,0-.2,0-.4,0-.7.1-.2,0-.4.3-.6.5v3.9l.8.2c.2,0,.4.1.5.2,0,0,.1.2.1.4s0,.4-.2.5c-.1.1-.3.2-.6.2h-3.3c-.2,0-.4,0-.6-.2-.1-.1-.2-.3-.2-.5s0-.3.1-.4c0,0,.2-.2.5-.3l.7-.2v-4.8ZM20.6,6.2c0-.6-.1-1.1-.3-1.3-.2-.2-.6-.4-1.2-.4s-.6,0-.8,0c-.2,0-.4,0-.6.1-.2,0-.3,0-.4.1-.1,0-.2,0-.3,0-.2,0-.3,0-.4-.2-.1-.1-.2-.3-.2-.5s0-.3.2-.5c0,0,.2-.2.4-.3.2,0,.4-.2.7-.3.3,0,.6-.2.9-.2.3,0,.7,0,1.1,0,1.1,0,2,.2,2.4.7.5.4.7,1.1.7,2.1s0,1.2,0,1.8c0,.6,0,1.2,0,2h.6c.2.1.4.2.4.3,0,0,.1.2.1.4s0,.3-.1.4c0,0-.2.2-.4.3-.2,0-.4.1-.7.2-.3,0-.5,0-.8,0s-.6,0-.8-.3c-.2-.2-.3-.4-.3-.8h0c0,0,0,0,0,0-.1.2-.3.4-.5.6-.2.1-.4.3-.7.4-.3.1-.7.2-1.1.2s-.7,0-1.1-.2c-.3-.1-.6-.3-.8-.5-.2-.2-.4-.5-.5-.8-.1-.3-.2-.6-.2-.9s0-.6.2-.9c.1-.3.4-.5.7-.7.3-.2.7-.4,1.1-.5.5-.1,1-.2,1.6-.2s.3,0,.5,0c.1,0,.3,0,.4,0,.1,0,.2,0,.3,0v-.5ZM20.6,7.9c0,0-.2,0-.3,0,0,0-.2,0-.3,0-.1,0-.3,0-.4,0-.5,0-.9,0-1.2.2-.2.1-.4.4-.4.6s0,.5.3.7c.2.2.5.3.8.3s.4,0,.6,0c.2,0,.3-.1.4-.2.1,0,.3-.2.4-.3v-1.1ZM25.5,4.6h-.6c-.2-.2-.4-.3-.5-.4,0-.1-.1-.3-.1-.4s0-.3.1-.4c0-.1.3-.2.5-.3,0,0,.2,0,.3,0,.1,0,.3,0,.4,0,.1,0,.3,0,.4,0,.1,0,.3,0,.4,0,.4,0,.7,0,.8.2.2.2.2.4.2.8v.2h0c.1-.2.3-.4.5-.6.2-.2.4-.3.8-.4.3-.1.7-.2,1.2-.2.9,0,1.7.3,2.3.9.6.6.8,1.6.8,2.9s-.1,1.3-.3,1.9c-.2.6-.5,1-.9,1.4-.4.4-.9.7-1.4.9-.6.2-1.2.3-1.9.3s-.2,0-.4,0c-.1,0-.2,0-.3,0,0,0-.2,0-.2,0h0c0,.1,0,.3,0,.4,0,.1,0,.3,0,.5v1.2l.7.2c.2,0,.4.2.5.2,0,0,.1.2.1.4s0,.4-.2.5c-.1.1-.3.2-.6.2h-3.1c-.2,0-.4,0-.6-.2-.1-.1-.2-.3-.2-.5s0-.3.1-.4c0,0,.2-.2.4-.2l.7-.2V4.6ZM27.7,9.3c0,0,.2.1.3.2.1,0,.2,0,.4.1.1,0,.3,0,.5,0,.6,0,1.1-.2,1.4-.6.4-.4.5-1.1.5-2.1s-.2-1.5-.5-1.9c-.3-.4-.7-.6-1.2-.6s-.5,0-.7.1c-.2,0-.3.2-.5.3-.1.1-.3.2-.4.4v4.1ZM35.1,4.6h-.6c-.2-.2-.4-.3-.5-.4,0-.1-.1-.3-.1-.4s0-.3.1-.4c0-.1.3-.2.5-.3,0,0,.2,0,.3,0,.1,0,.3,0,.4,0,.1,0,.3,0,.4,0,.1,0,.3,0,.4,0,.4,0,.7,0,.8.2.2.2.2.4.2.8v.2h0c.1-.2.3-.4.5-.6.2-.2.4-.3.8-.4.3-.1.7-.2,1.2-.2.9,0,1.7.3,2.3.9.6.6.8,1.6.8,2.9s-.1,1.3-.3,1.9c-.2.6-.5,1-.9,1.4-.4.4-.9.7-1.4.9-.6.2-1.2.3-1.9.3s-.2,0-.4,0c-.1,0-.2,0-.3,0,0,0-.2,0-.2,0h0c0,.1,0,.3,0,.4,0,.1,0,.3,0,.5v1.2l.7.2c.2,0,.4.2.5.2,0,0,.1.2.1.4s0,.4-.2.5c-.1.1-.3.2-.6.2h-3.1c-.2,0-.4,0-.6-.2-.1-.1-.2-.3-.2-.5s0-.3.1-.4c0,0,.2-.2.4-.2l.7-.2V4.6ZM37.3,9.3c0,0,.2.1.3.2.1,0,.2,0,.4.1.1,0,.3,0,.5,0,.6,0,1.1-.2,1.4-.6.4-.4.5-1.1.5-2.1s-.2-1.5-.5-1.9c-.3-.4-.7-.6-1.2-.6s-.5,0-.7.1c-.2,0-.3.2-.5.3-.1.1-.3.2-.4.4v4.1ZM46.1,7.4c0,.7.3,1.3.7,1.7.4.4,1,.6,1.7.6s.5,0,.6,0c.2,0,.3,0,.5,0,.1,0,.3,0,.4,0,.1,0,.2,0,.3,0,.2,0,.3,0,.4.2,0,0,.1.2.1.4s0,.2,0,.3c0,0,0,.2-.2.3-.2.2-.5.4-.9.5-.4.2-1,.2-1.7.2s-1.2,0-1.7-.3c-.5-.2-.9-.4-1.2-.8-.3-.3-.6-.8-.8-1.2-.2-.5-.3-1.1-.3-1.7s0-1.3.3-1.8c.2-.5.5-1,.8-1.4.4-.4.8-.7,1.3-.9.5-.2,1-.3,1.6-.3,1,0,1.8.3,2.3.8.6.6.8,1.4.8,2.4s0,.7-.3.9c-.2.2-.5.3-.8.3h-3.9ZM49,6.1c0-.6-.2-1.1-.4-1.4-.2-.3-.5-.4-.9-.4s-.8.2-1,.5c-.3.3-.4.7-.5,1.3h2.9Z"/>
</svg>