<svg width="45" height="45" viewBox="0 0 45 45" fill="none" xmlns="http://www.w3.org/2000/svg">
<path fill-rule="evenodd" clip-rule="evenodd" d="M22.5 44C34.3741 44 44 34.3741 44 22.5C44 10.6259 34.3741 1 22.5 1C10.6259 1 1 10.6259 1 22.5C1 34.3741 10.6259 44 22.5 44ZM22.5 45C34.9264 45 45 34.9264 45 22.5C45 10.0736 34.9264 0 22.5 0C10.0736 0 0 10.0736 0 22.5C0 34.9264 10.0736 45 22.5 45Z" fill="white"/>
<path d="M15.5297 17.48L14.8097 17.24C14.503 17.1334 14.2897 17.0067 14.1697 16.86C14.0497 16.7 13.9897 16.4934 13.9897 16.24C13.9897 16.04 14.063 15.8734 14.2097 15.74C14.3564 15.6067 14.563 15.54 14.8297 15.54H18.4097C18.743 15.54 18.9964 15.6067 19.1697 15.74C19.3564 15.86 19.4964 16.0667 19.5897 16.36L21.9297 24.24C22.0097 24.5334 22.083 24.8067 22.1497 25.06C22.2164 25.3134 22.2697 25.54 22.3097 25.74C22.363 25.98 22.4097 26.1934 22.4497 26.38H22.4897C22.5297 26.18 22.5764 25.96 22.6297 25.72C22.6697 25.52 22.7164 25.2934 22.7697 25.04C22.8364 24.7867 22.9164 24.5134 23.0097 24.22L25.3497 16.36C25.523 15.8134 25.923 15.54 26.5497 15.54H30.1697C30.4364 15.54 30.643 15.6067 30.7897 15.74C30.9364 15.8734 31.0097 16.04 31.0097 16.24C31.0097 16.4934 30.9497 16.7 30.8297 16.86C30.7097 17.0067 30.4964 17.1334 30.1897 17.24L29.4697 17.48L30.5497 27.04L31.1097 27.28C31.3897 27.4 31.583 27.52 31.6897 27.64C31.7964 27.76 31.8497 27.9334 31.8497 28.16C31.8497 28.4 31.763 28.6 31.5897 28.76C31.4164 28.92 31.1764 29 30.8697 29H27.3297C27.023 29 26.783 28.92 26.6097 28.76C26.4364 28.6 26.3497 28.4 26.3497 28.16C26.3497 27.9467 26.403 27.7867 26.5097 27.68C26.6297 27.56 26.843 27.4267 27.1497 27.28L27.6697 27.04L27.1097 20.96C27.083 20.64 27.0564 20.3134 27.0297 19.98C27.0164 19.6467 26.9964 19.3467 26.9697 19.08C26.943 18.76 26.923 18.4534 26.9097 18.16H26.8697L24.0897 27.46C23.903 28.0867 23.6697 28.52 23.3897 28.76C23.123 28.9867 22.7364 29.1 22.2297 29.1C21.723 29.1 21.3364 28.9867 21.0697 28.76C20.803 28.5334 20.5764 28.1 20.3897 27.46L17.6097 18.14H17.5697C17.5564 18.4334 17.5364 18.74 17.5097 19.06C17.483 19.3267 17.4564 19.6334 17.4297 19.98C17.4164 20.3134 17.3964 20.64 17.3697 20.96L16.8097 27.04L17.3297 27.28C17.6364 27.4267 17.843 27.56 17.9497 27.68C18.0697 27.7867 18.1297 27.9467 18.1297 28.16C18.1297 28.4 18.043 28.6 17.8697 28.76C17.6964 28.92 17.4564 29 17.1497 29H14.1297C13.823 29 13.583 28.92 13.4097 28.76C13.2364 28.6 13.1497 28.4 13.1497 28.16C13.1497 27.9334 13.203 27.76 13.3097 27.64C13.4164 27.52 13.6097 27.4 13.8897 27.28L14.4497 27.04L15.5297 17.48Z" fill="white"/>
</svg>
