<?xml version="1.0" encoding="UTF-8"?>
<svg id="_レイヤー_1" data-name="レイヤー 1" xmlns="http://www.w3.org/2000/svg" version="1.1" viewBox="0 0 66 24">
  <defs>
    <style>
      .cls-1 {
        fill: #d0c2b4;
        stroke-width: 0px;
      }
    </style>
  </defs>
  <path class="cls-1" d="M2.9,3.2l-.9-.3c-.4-.1-.6-.3-.8-.5-.1-.2-.2-.4-.2-.7s0-.4.3-.6c.2-.2.4-.2.7-.2h4.3c.4,0,.7,0,.9.2.2.1.4.4.5.7l2.8,9.5c0,.4.2.7.3,1s.1.6.2.8c0,.3.1.5.2.8h0c0-.2.1-.5.2-.8,0-.2.1-.5.2-.8,0-.3.2-.6.3-1L14.7,1.8c.2-.7.7-1,1.4-1h4.3c.3,0,.6,0,.7.2.2.2.3.4.3.6s0,.6-.2.7c-.1.2-.4.3-.8.5l-.9.3,1.3,11.5.7.3c.3.1.6.3.7.4.1.1.2.4.2.6s-.1.5-.3.7-.5.3-.9.3h-4.2c-.4,0-.7,0-.9-.3s-.3-.4-.3-.7,0-.4.2-.6c.1-.1.4-.3.8-.5l.6-.3-.7-7.3c0-.4,0-.8,0-1.2,0-.4,0-.8,0-1.1,0-.4,0-.8,0-1.1h0l-3.3,11.2c-.2.8-.5,1.3-.8,1.6-.3.3-.8.4-1.4.4s-1.1-.1-1.4-.4c-.3-.3-.6-.8-.8-1.6L5.4,4h0c0,.4,0,.7,0,1.1,0,.3,0,.7,0,1.1,0,.4,0,.8,0,1.2l-.7,7.3.6.3c.4.2.6.3.7.5.1.1.2.3.2.6s-.1.5-.3.7c-.2.2-.5.3-.9.3H1.2c-.4,0-.7,0-.9-.3-.2-.2-.3-.4-.3-.7s0-.5.2-.6.4-.3.7-.4l.7-.3L2.9,3.2ZM27,11.6c.1,1.1.5,1.9,1.1,2.5.6.6,1.5.8,2.5.8s.7,0,.9,0c.3,0,.5,0,.7-.1.2,0,.4,0,.5-.1.2,0,.3,0,.5,0,.3,0,.5,0,.6.2.1.1.2.4.2.6s0,.3,0,.4c0,.1-.1.3-.3.4-.3.3-.7.5-1.4.8-.7.2-1.5.4-2.6.4s-1.8-.1-2.5-.4c-.7-.3-1.4-.7-1.9-1.2-.5-.5-.9-1.1-1.2-1.9-.3-.7-.4-1.6-.4-2.5s.1-1.9.4-2.7c.3-.8.7-1.5,1.2-2.1.5-.6,1.2-1,1.9-1.3.7-.3,1.6-.5,2.4-.5,1.5,0,2.7.4,3.5,1.3.8.8,1.3,2.1,1.3,3.7s-.1,1.1-.4,1.4c-.3.3-.7.5-1.2.5h-5.9ZM31.3,9.7c0-.9-.2-1.6-.6-2-.4-.4-.8-.6-1.4-.6s-1.1.2-1.5.7c-.4.5-.7,1.1-.8,2h4.3ZM38,7.4l-1.1-.2c-.3,0-.6-.2-.7-.3-.1-.1-.2-.4-.2-.6s0-.5.2-.6c.1-.2.4-.3.7-.4.3,0,.7-.2,1.2-.2.4,0,.8,0,1.2,0,.6,0,1,.1,1.3.4.2.2.4.6.4,1.2v.3h0c.2-.3.5-.7.8-1,.3-.2.7-.5,1.1-.7.5-.2,1.1-.3,1.8-.3,1.4,0,2.5.4,3.2,1.2.8.8,1.1,1.9,1.1,3.4v5.3l.9.3c.3.1.6.2.7.4.1.1.2.4.2.6s-.1.5-.3.7-.5.3-.9.3h-4.5c-.4,0-.7,0-.9-.3s-.3-.4-.3-.7,0-.5.2-.6c.1-.1.4-.3.7-.4l.9-.3v-4.5c0-1.1-.2-1.8-.6-2.3-.4-.4-.9-.7-1.7-.7s-.7,0-1,.2c-.3.1-.5.2-.7.4-.2.2-.4.4-.6.6v6.3l.9.3c.3.1.6.2.7.4.1.1.2.4.2.6s-.1.5-.3.7-.5.3-.9.3h-4.6c-.4,0-.7,0-.9-.3s-.3-.4-.3-.7,0-.5.2-.6c.1-.1.4-.3.7-.4l1-.3v-7.2ZM53.1,7.4l-1-.2c-.3,0-.6-.2-.7-.3-.1-.2-.2-.4-.2-.6s0-.5.2-.6c.1-.2.4-.3.7-.4.3,0,.6-.2,1.1-.2.4,0,.9-.1,1.3-.1.7,0,1.2.1,1.5.4.3.3.4.7.4,1.5v5.2c0,1,.2,1.8.6,2.2.4.4.9.6,1.6.6s.7,0,1-.2c.3-.1.5-.2.7-.4.2-.2.4-.4.6-.6v-6.2l-1.1-.2c-.3,0-.6-.2-.7-.3-.1-.1-.2-.4-.2-.6s0-.5.2-.6c.1-.2.4-.3.7-.4.3,0,.7-.2,1.2-.2.4,0,.9,0,1.3,0,.7,0,1.2.1,1.5.4.3.3.4.7.4,1.5v7.9l1,.2c.3,0,.5.2.7.3.1.1.2.4.2.6s0,.5-.2.6c-.1.1-.4.3-.7.4-.3.1-.7.2-1.1.3-.4,0-.8.1-1.2.1s-1-.1-1.2-.4c-.3-.3-.4-.7-.4-1.2v-.3h0c-.2.3-.5.7-.8,1-.3.3-.7.5-1.2.7-.5.2-1.1.3-1.8.3-1.4,0-2.4-.4-3.2-1.1-.7-.8-1.1-1.9-1.1-3.4v-5.3Z"/>
</svg>