<svg width="32" height="32" viewBox="0 0 32 32" fill="none" xmlns="http://www.w3.org/2000/svg">
<path fill-rule="evenodd" clip-rule="evenodd" d="M16 31C24.2843 31 31 24.2843 31 16C31 7.71573 24.2843 1 16 1C7.71573 1 1 7.71573 1 16C1 24.2843 7.71573 31 16 31ZM16 32C24.8366 32 32 24.8366 32 16C32 7.16344 24.8366 0 16 0C7.16344 0 0 7.16344 0 16C0 24.8366 7.16344 32 16 32Z" fill="white"/>
<path d="M10.7723 12.36L10.2323 12.18C10.0023 12.1 9.84227 12.005 9.75227 11.895C9.66227 11.775 9.61727 11.62 9.61727 11.43C9.61727 11.28 9.67227 11.155 9.78227 11.055C9.89227 10.955 10.0473 10.905 10.2473 10.905H12.9323C13.1823 10.905 13.3723 10.955 13.5023 11.055C13.6423 11.145 13.7473 11.3 13.8173 11.52L15.5723 17.43C15.6323 17.65 15.6873 17.855 15.7373 18.045C15.7873 18.235 15.8273 18.405 15.8573 18.555C15.8973 18.735 15.9323 18.895 15.9623 19.035H15.9923C16.0223 18.885 16.0573 18.72 16.0973 18.54C16.1273 18.39 16.1623 18.22 16.2023 18.03C16.2523 17.84 16.3123 17.635 16.3823 17.415L18.1373 11.52C18.2673 11.11 18.5673 10.905 19.0373 10.905H21.7523C21.9523 10.905 22.1073 10.955 22.2173 11.055C22.3273 11.155 22.3823 11.28 22.3823 11.43C22.3823 11.62 22.3373 11.775 22.2473 11.895C22.1573 12.005 21.9973 12.1 21.7673 12.18L21.2273 12.36L22.0373 19.53L22.4573 19.71C22.6673 19.8 22.8123 19.89 22.8923 19.98C22.9723 20.07 23.0123 20.2 23.0123 20.37C23.0123 20.55 22.9473 20.7 22.8173 20.82C22.6873 20.94 22.5073 21 22.2773 21H19.6223C19.3923 21 19.2123 20.94 19.0823 20.82C18.9523 20.7 18.8873 20.55 18.8873 20.37C18.8873 20.21 18.9273 20.09 19.0073 20.01C19.0973 19.92 19.2573 19.82 19.4873 19.71L19.8773 19.53L19.4573 14.97C19.4373 14.73 19.4173 14.485 19.3973 14.235C19.3873 13.985 19.3723 13.76 19.3523 13.56C19.3323 13.32 19.3173 13.09 19.3073 12.87H19.2773L17.1923 19.845C17.0523 20.315 16.8773 20.64 16.6673 20.82C16.4673 20.99 16.1773 21.075 15.7973 21.075C15.4173 21.075 15.1273 20.99 14.9273 20.82C14.7273 20.65 14.5573 20.325 14.4173 19.845L12.3323 12.855H12.3023C12.2923 13.075 12.2773 13.305 12.2573 13.545C12.2373 13.745 12.2173 13.975 12.1973 14.235C12.1873 14.485 12.1723 14.73 12.1523 14.97L11.7323 19.53L12.1223 19.71C12.3523 19.82 12.5073 19.92 12.5873 20.01C12.6773 20.09 12.7223 20.21 12.7223 20.37C12.7223 20.55 12.6573 20.7 12.5273 20.82C12.3973 20.94 12.2173 21 11.9873 21H9.72227C9.49227 21 9.31227 20.94 9.18227 20.82C9.05227 20.7 8.98727 20.55 8.98727 20.37C8.98727 20.2 9.02727 20.07 9.10727 19.98C9.18727 19.89 9.33227 19.8 9.54227 19.71L9.96227 19.53L10.7723 12.36Z" fill="white"/>
</svg>
