<svg width="54" height="16" viewBox="0 0 54 16" fill="none" xmlns="http://www.w3.org/2000/svg">
<path d="M6 2.832C5.91467 2.8 5.808 2.76267 5.68 2.72C5.56267 2.69867 5.41867 2.67733 5.248 2.656C5.088 2.624 4.88533 2.608 4.64 2.608C4.10667 2.608 3.712 2.72 3.456 2.944C3.21067 3.15733 3.088 3.42933 3.088 3.76C3.088 4.13333 3.21067 4.432 3.456 4.656C3.712 4.88 4.02667 5.07733 4.4 5.248C4.77333 5.408 5.17867 5.568 5.616 5.728C6.05333 5.888 6.45867 6.096 6.832 6.352C7.20533 6.59733 7.51467 6.91733 7.76 7.312C8.016 7.70667 8.144 8.21867 8.144 8.848C8.144 9.31733 8.05333 9.75467 7.872 10.16C7.69067 10.5653 7.41867 10.9173 7.056 11.216C6.704 11.504 6.26133 11.7333 5.728 11.904C5.19467 12.0747 4.576 12.16 3.872 12.16C3.168 12.16 2.592 12.1067 2.144 12C1.696 11.8827 1.38666 11.7387 1.216 11.568C1.16266 11.5147 1.11466 11.456 1.072 11.392C1.04 11.328 1.01333 11.2533 0.991998 11.168C0.970665 11.072 0.954665 10.9653 0.943998 10.848C0.943998 10.72 0.943998 10.5653 0.943998 10.384L0.943998 10.144C0.943999 9.90933 0.943999 9.73333 0.943999 9.616C0.943999 9.49867 0.949332 9.36533 0.959999 9.216C0.981332 8.992 1.04533 8.832 1.152 8.736C1.26933 8.62933 1.41867 8.576 1.6 8.576C1.952 8.576 2.19733 8.784 2.336 9.2L2.736 10.368C2.84267 10.4107 2.97067 10.4533 3.12 10.496C3.248 10.528 3.40267 10.56 3.584 10.592C3.776 10.6133 4.00533 10.624 4.272 10.624C4.80533 10.624 5.21067 10.496 5.488 10.24C5.776 9.97333 5.92 9.648 5.92 9.264C5.92 8.96533 5.84533 8.72 5.696 8.528C5.55733 8.32533 5.36533 8.14933 5.12 8C4.88533 7.85067 4.61867 7.71733 4.32 7.6C4.02133 7.48267 3.712 7.36533 3.392 7.248C3.072 7.12 2.76267 6.976 2.464 6.816C2.16533 6.656 1.89333 6.45867 1.648 6.224C1.41333 5.98933 1.22133 5.70667 1.072 5.376C0.933333 5.04533 0.863999 4.64533 0.863999 4.176C0.864 3.73867 0.949333 3.33333 1.12 2.96C1.29067 2.576 1.54667 2.24533 1.888 1.968C2.24 1.69067 2.67733 1.472 3.2 1.312C3.73333 1.152 4.36267 1.072 5.088 1.072C5.728 1.072 6.24533 1.12533 6.64 1.232C7.04533 1.33867 7.33333 1.47733 7.504 1.648C7.55733 1.70133 7.6 1.76 7.632 1.824C7.67467 1.888 7.70667 1.968 7.728 2.064C7.74933 2.14933 7.76 2.256 7.76 2.384C7.77067 2.50133 7.776 2.65067 7.776 2.832L7.776 3.024C7.776 3.23733 7.776 3.408 7.776 3.536C7.776 3.65333 7.77067 3.78667 7.76 3.936C7.73867 4.16 7.66933 4.32533 7.552 4.432C7.44533 4.528 7.30133 4.576 7.12 4.576C6.93867 4.576 6.78933 4.528 6.672 4.432C6.55467 4.32533 6.45867 4.16533 6.384 3.952L6 2.832ZM10.2982 5.632L9.65825 5.488C9.44492 5.43467 9.29025 5.36 9.19425 5.264C9.10892 5.15733 9.06625 5.01333 9.06625 4.832C9.06625 4.64 9.10892 4.496 9.19425 4.4C9.29025 4.29333 9.44492 4.208 9.65825 4.144C9.75425 4.112 9.86625 4.08533 9.99425 4.064C10.1222 4.032 10.2502 4.00533 10.3782 3.984C10.5169 3.96267 10.6556 3.94667 10.7942 3.936C10.9329 3.92534 11.0662 3.92 11.1942 3.92C11.5782 3.92 11.8502 4 12.0102 4.16C12.1702 4.32 12.2502 4.58667 12.2502 4.96L12.2502 5.168L12.2822 5.184C12.4102 4.93867 12.5862 4.72 12.8102 4.528C13.0022 4.368 13.2529 4.21867 13.5622 4.08C13.8822 3.94134 14.2822 3.872 14.7622 3.872C15.7009 3.872 16.4529 4.18667 17.0182 4.816C17.5836 5.43467 17.8662 6.39467 17.8662 7.696C17.8662 8.4 17.7649 9.02934 17.5622 9.584C17.3596 10.1387 17.0662 10.608 16.6822 10.992C16.2982 11.376 15.8236 11.6693 15.2582 11.872C14.7036 12.0747 14.0689 12.176 13.3542 12.176C13.2262 12.176 13.1089 12.1707 13.0022 12.16C12.8956 12.16 12.7996 12.1493 12.7142 12.128C12.6182 12.1173 12.5382 12.1013 12.4742 12.08L12.4422 12.112C12.4529 12.2293 12.4582 12.3467 12.4582 12.464C12.4689 12.592 12.4742 12.7467 12.4742 12.928L12.4742 14.128L13.1622 14.336C13.3969 14.4107 13.5569 14.4907 13.6422 14.576C13.7276 14.672 13.7702 14.8107 13.7702 14.992C13.7702 15.184 13.7009 15.344 13.5622 15.472C13.4236 15.6 13.2316 15.664 12.9862 15.664L9.88225 15.664C9.63691 15.664 9.44491 15.6 9.30625 15.472C9.16758 15.344 9.09825 15.184 9.09825 14.992C9.09825 14.8107 9.13558 14.672 9.21025 14.576C9.29558 14.48 9.43958 14.4 9.64225 14.336L10.2982 14.128L10.2982 5.632ZM12.4742 10.336C12.5596 10.4 12.6609 10.4533 12.7782 10.496C12.8849 10.5387 13.0076 10.576 13.1462 10.608C13.2956 10.6293 13.4716 10.64 13.6742 10.64C14.2716 10.64 14.7462 10.4373 15.0982 10.032C15.4502 9.616 15.6262 8.92267 15.6262 7.952C15.6262 7.07734 15.4662 6.45334 15.1462 6.08C14.8369 5.696 14.4476 5.504 13.9782 5.504C13.7329 5.504 13.5142 5.54667 13.3222 5.632C13.1409 5.70667 12.9862 5.792 12.8582 5.888C12.7089 6.00534 12.5809 6.128 12.4742 6.256L12.4742 10.336ZM21.316 8.368C21.3907 9.09334 21.6253 9.648 22.02 10.032C22.4253 10.4053 22.9907 10.592 23.716 10.592C23.9613 10.592 24.1693 10.576 24.34 10.544C24.5213 10.512 24.676 10.48 24.804 10.448C24.9427 10.416 25.06 10.384 25.156 10.352C25.2627 10.32 25.364 10.304 25.46 10.304C25.6307 10.304 25.764 10.3573 25.86 10.464C25.956 10.56 26.004 10.6987 26.004 10.88C26.004 10.9867 25.9827 11.0827 25.94 11.168C25.908 11.2533 25.8493 11.3387 25.764 11.424C25.5827 11.6053 25.268 11.776 24.82 11.936C24.3827 12.096 23.812 12.176 23.108 12.176C22.4787 12.176 21.9133 12.0907 21.412 11.92C20.9213 11.7387 20.5053 11.4827 20.164 11.152C19.8333 10.8107 19.5773 10.3947 19.396 9.904C19.2253 9.41334 19.14 8.85334 19.14 8.224C19.14 7.54134 19.236 6.93334 19.428 6.4C19.6307 5.856 19.908 5.39734 20.26 5.024C20.612 4.65067 21.0333 4.36267 21.524 4.16C22.0147 3.95734 22.5587 3.856 23.156 3.856C24.1587 3.856 24.9373 4.13867 25.492 4.704C26.0573 5.26934 26.34 6.08534 26.34 7.152C26.34 7.55734 26.244 7.86134 26.052 8.064C25.86 8.26667 25.588 8.368 25.236 8.368L21.316 8.368ZM24.212 7.136C24.1907 6.50667 24.0573 6.05334 23.812 5.776C23.5773 5.49867 23.268 5.36 22.884 5.36C22.468 5.36 22.1267 5.51467 21.86 5.824C21.5933 6.13334 21.4227 6.57067 21.348 7.136L24.212 7.136ZM32.2956 5.45601C32.253 5.44534 32.2103 5.43467 32.1676 5.42401C32.125 5.41334 32.0716 5.40267 32.0076 5.39201C31.9436 5.38134 31.869 5.37601 31.7836 5.37601C31.2503 5.376 30.797 5.59467 30.4236 6.032C30.061 6.45867 29.8796 7.13601 29.8796 8.06401C29.8796 8.92801 30.0663 9.56801 30.4396 9.98401C30.8236 10.3893 31.3516 10.592 32.0236 10.592C32.2156 10.592 32.381 10.5813 32.5196 10.56C32.6583 10.528 32.781 10.5013 32.8876 10.48C33.005 10.448 33.1063 10.4213 33.1916 10.4C33.2876 10.368 33.373 10.352 33.4476 10.352C33.6183 10.352 33.7516 10.4053 33.8476 10.512C33.9436 10.608 33.9916 10.7467 33.9916 10.928C33.9916 11.1307 33.9116 11.312 33.7516 11.472C33.6663 11.5573 33.549 11.6427 33.3996 11.728C33.261 11.8133 33.0903 11.888 32.8876 11.952C32.6956 12.016 32.477 12.0693 32.2316 12.112C31.9863 12.1547 31.7196 12.176 31.4316 12.176C30.2583 12.176 29.3356 11.84 28.6636 11.168C27.9916 10.4853 27.6556 9.54134 27.6556 8.336C27.6556 7.664 27.7623 7.05067 27.9756 6.496C28.189 5.94134 28.4823 5.472 28.8556 5.088C29.2396 4.69334 29.693 4.38934 30.2156 4.176C30.749 3.96267 31.3356 3.85601 31.9756 3.85601C32.4663 3.85601 32.845 3.90401 33.1116 4.00001C33.3783 4.08534 33.581 4.19734 33.7196 4.33601C33.805 4.42134 33.8636 4.53334 33.8956 4.67201C33.9383 4.81067 33.9596 5.06134 33.9596 5.42401L33.9596 5.56801C33.9596 5.71734 33.9596 5.84534 33.9596 5.95201C33.9596 6.05867 33.9543 6.22934 33.9436 6.46401C33.933 6.68801 33.869 6.85334 33.7516 6.96001C33.645 7.05601 33.501 7.10401 33.3196 7.10401C33.1383 7.10401 32.9943 7.05067 32.8876 6.94401C32.781 6.83734 32.6903 6.67734 32.6156 6.46401L32.2956 5.45601ZM36.273 5.63201L35.537 5.47201C35.3237 5.41867 35.169 5.34401 35.073 5.24801C34.9877 5.15201 34.945 5.01334 34.945 4.83201C34.945 4.64001 34.9877 4.49601 35.073 4.40001C35.169 4.29334 35.3237 4.20801 35.537 4.14401C35.761 4.08001 36.017 4.02667 36.305 3.98401C36.593 3.94134 36.8917 3.92001 37.201 3.92001C37.681 3.92001 38.0063 4.01067 38.177 4.19201C38.3583 4.36267 38.449 4.68801 38.449 5.16801L38.449 10.464L39.105 10.656C39.3077 10.7093 39.4463 10.784 39.521 10.88C39.6063 10.976 39.649 11.104 39.649 11.264C39.649 11.4773 39.5743 11.6533 39.425 11.792C39.2863 11.9307 39.0943 12 38.849 12L35.761 12C35.5157 12 35.3237 11.936 35.185 11.808C35.0463 11.68 34.977 11.52 34.977 11.328C34.977 11.1467 35.0197 11.0133 35.105 10.928C35.1903 10.832 35.3503 10.7467 35.585 10.672L36.273 10.464L36.273 5.63201ZM35.985 1.87201C35.985 1.48801 36.113 1.16801 36.369 0.912006C36.625 0.656006 36.945 0.528006 37.329 0.528006C37.713 0.528006 38.0277 0.650673 38.273 0.896007C38.5183 1.14134 38.641 1.45601 38.641 1.84001C38.641 2.22401 38.513 2.54401 38.257 2.80001C38.001 3.05601 37.681 3.18401 37.297 3.18401C36.913 3.18401 36.5983 3.06134 36.353 2.81601C36.1077 2.57067 35.985 2.25601 35.985 1.87201ZM45.2994 7.15201C45.2994 6.51201 45.1874 6.06934 44.9634 5.82401C44.7394 5.57867 44.35 5.45601 43.7954 5.45601C43.486 5.45601 43.214 5.47734 42.9794 5.52001C42.7554 5.55201 42.558 5.58934 42.3874 5.63201C42.2167 5.67467 42.0674 5.71734 41.9394 5.76001C41.822 5.79201 41.7154 5.80801 41.6194 5.80801C41.438 5.80801 41.2887 5.74934 41.1714 5.63201C41.054 5.51467 40.9954 5.36001 40.9954 5.16801C40.9954 4.99734 41.0647 4.84267 41.2034 4.70401C41.2994 4.60801 41.4434 4.51201 41.6354 4.41601C41.8274 4.32001 42.0567 4.23467 42.3234 4.16001C42.6007 4.07467 42.9047 4.00534 43.2354 3.95201C43.5767 3.89867 43.9394 3.87201 44.3234 3.87201C45.4647 3.87201 46.2754 4.09601 46.7554 4.54401C47.2354 4.98134 47.4754 5.67467 47.4754 6.62401C47.4754 7.25334 47.47 7.86667 47.4594 8.46401C47.4487 9.05067 47.47 9.71201 47.5234 10.448L48.1314 10.544C48.3447 10.576 48.494 10.6453 48.5794 10.752C48.6647 10.848 48.7074 10.9867 48.7074 11.168C48.7074 11.3493 48.6594 11.4933 48.5634 11.6C48.4674 11.696 48.318 11.7813 48.1154 11.856C47.902 11.9307 47.6674 11.9893 47.4114 12.032C47.1554 12.0853 46.8727 12.112 46.5634 12.112C46.19 12.112 45.918 12.0267 45.7474 11.856C45.5767 11.6747 45.4914 11.4133 45.4914 11.072L45.4914 10.992L45.4594 10.976C45.3314 11.2 45.1607 11.3973 44.9474 11.568C44.766 11.7173 44.526 11.856 44.2274 11.984C43.9287 12.1013 43.5607 12.16 43.1234 12.16C42.7394 12.16 42.3874 12.1013 42.0674 11.984C41.7474 11.856 41.47 11.6907 41.2354 11.488C41.0114 11.2747 40.8354 11.024 40.7074 10.736C40.59 10.448 40.5314 10.144 40.5314 9.82401C40.5314 9.50401 40.6007 9.20534 40.7394 8.92801C40.8887 8.65067 41.1074 8.41601 41.3954 8.22401C41.694 8.02134 42.0674 7.86667 42.5154 7.76001C42.974 7.64267 43.5127 7.58401 44.1314 7.58401C44.302 7.58401 44.4567 7.58934 44.5954 7.60001C44.734 7.61067 44.8567 7.62134 44.9634 7.63201C45.0807 7.64267 45.1927 7.65334 45.2994 7.66401L45.2994 7.15201ZM45.2834 8.89601C45.2087 8.88534 45.1234 8.86934 45.0274 8.84801C44.942 8.83734 44.8354 8.82667 44.7074 8.81601C44.59 8.80534 44.4567 8.80001 44.3074 8.80001C43.7634 8.80001 43.374 8.87467 43.1394 9.02401C42.9047 9.17334 42.7874 9.37601 42.7874 9.63201C42.7874 9.88801 42.8834 10.1067 43.0754 10.288C43.278 10.4693 43.55 10.56 43.8914 10.56C44.1154 10.56 44.3127 10.5333 44.4834 10.48C44.654 10.416 44.798 10.3467 44.9154 10.272C45.054 10.1867 45.1767 10.0907 45.2834 9.98401L45.2834 8.89601ZM50.2361 2.09601L49.5961 1.95201C49.3828 1.89868 49.2281 1.82401 49.1321 1.72801C49.0468 1.62134 49.0041 1.47734 49.0041 1.29601C49.0041 1.10401 49.0468 0.960008 49.1321 0.864008C49.2281 0.757341 49.3828 0.672008 49.5961 0.608008C49.7881 0.554675 50.0281 0.506675 50.3161 0.464009C50.6148 0.410675 50.8975 0.384009 51.1641 0.384009C51.6441 0.384009 51.9695 0.474675 52.1401 0.656008C52.3215 0.826675 52.4121 1.15201 52.4121 1.63201L52.4121 10.464L53.0201 10.656C53.2441 10.7307 53.3988 10.816 53.4841 10.912C53.5695 11.008 53.6121 11.1467 53.6121 11.328C53.6121 11.52 53.5428 11.68 53.4041 11.808C53.2655 11.936 53.0735 12 52.8281 12L49.8201 12C49.5748 12 49.3828 11.936 49.2441 11.808C49.1055 11.68 49.0361 11.52 49.0361 11.328C49.0361 11.1467 49.0735 11.008 49.1481 10.912C49.2335 10.816 49.3775 10.736 49.5801 10.672L50.2361 10.464L50.2361 2.09601Z" fill="#D0C2B4"/>
</svg>
