<svg width="23" height="23" viewBox="0 0 23 23" fill="none" xmlns="http://www.w3.org/2000/svg">
<path fill-rule="evenodd" clip-rule="evenodd" d="M11.5 22C17.299 22 22 17.299 22 11.5C22 5.70101 17.299 1 11.5 1C5.70101 1 1 5.70101 1 11.5C1 17.299 5.70101 22 11.5 22ZM11.5 23C17.8513 23 23 17.8513 23 11.5C23 5.14873 17.8513 0 11.5 0C5.14873 0 0 5.14873 0 11.5C0 17.8513 5.14873 23 11.5 23Z" fill="white"/>
<path d="M8.01484 8.74002L7.65484 8.62002C7.50151 8.56669 7.39484 8.50335 7.33484 8.43002C7.27484 8.35002 7.24484 8.24669 7.24484 8.12002C7.24484 8.02002 7.28151 7.93669 7.35484 7.87002C7.42818 7.80335 7.53151 7.77002 7.66484 7.77002H9.45484C9.62151 7.77002 9.74818 7.80335 9.83484 7.87002C9.92818 7.93002 9.99818 8.03335 10.0448 8.18002L11.2148 12.12C11.2548 12.2667 11.2915 12.4034 11.3248 12.53C11.3582 12.6567 11.3848 12.77 11.4048 12.87C11.4315 12.99 11.4548 13.0967 11.4748 13.19H11.4948C11.5148 13.09 11.5382 12.98 11.5648 12.86C11.5848 12.76 11.6082 12.6467 11.6348 12.52C11.6682 12.3934 11.7082 12.2567 11.7548 12.11L12.9248 8.18002C13.0115 7.90669 13.2115 7.77002 13.5248 7.77002H15.3348C15.4682 7.77002 15.5715 7.80335 15.6448 7.87002C15.7182 7.93669 15.7548 8.02002 15.7548 8.12002C15.7548 8.24669 15.7248 8.35002 15.6648 8.43002C15.6048 8.50335 15.4982 8.56669 15.3448 8.62002L14.9848 8.74002L15.5248 13.52L15.8048 13.64C15.9448 13.7 16.0415 13.76 16.0948 13.82C16.1482 13.88 16.1748 13.9667 16.1748 14.08C16.1748 14.2 16.1315 14.3 16.0448 14.38C15.9582 14.46 15.8382 14.5 15.6848 14.5H13.9148C13.7615 14.5 13.6415 14.46 13.5548 14.38C13.4682 14.3 13.4248 14.2 13.4248 14.08C13.4248 13.9734 13.4515 13.8934 13.5048 13.84C13.5648 13.78 13.6715 13.7134 13.8248 13.64L14.0848 13.52L13.8048 10.48C13.7915 10.32 13.7782 10.1567 13.7648 9.99002C13.7582 9.82335 13.7482 9.67335 13.7348 9.54002C13.7215 9.38002 13.7115 9.22669 13.7048 9.08002H13.6848L12.2948 13.73C12.2015 14.0434 12.0848 14.26 11.9448 14.38C11.8115 14.4934 11.6182 14.55 11.3648 14.55C11.1115 14.55 10.9182 14.4934 10.7848 14.38C10.6515 14.2667 10.5382 14.05 10.4448 13.73L9.05484 9.07002H9.03484C9.02818 9.21669 9.01818 9.37002 9.00484 9.53002C8.99151 9.66335 8.97818 9.81669 8.96484 9.99002C8.95818 10.1567 8.94818 10.32 8.93484 10.48L8.65484 13.52L8.91484 13.64C9.06818 13.7134 9.17151 13.78 9.22484 13.84C9.28484 13.8934 9.31484 13.9734 9.31484 14.08C9.31484 14.2 9.27151 14.3 9.18484 14.38C9.09818 14.46 8.97818 14.5 8.82484 14.5H7.31484C7.16151 14.5 7.04151 14.46 6.95484 14.38C6.86818 14.3 6.82484 14.2 6.82484 14.08C6.82484 13.9667 6.85151 13.88 6.90484 13.82C6.95818 13.76 7.05484 13.7 7.19484 13.64L7.47484 13.52L8.01484 8.74002Z" fill="white"/>
</svg>
