<?xml version="1.0" encoding="UTF-8"?>
<svg id="_レイヤー_1" data-name="レイヤー 1" xmlns="http://www.w3.org/2000/svg" version="1.1" viewBox="0 0 63 24">
  <defs>
    <style>
      .cls-1 {
        fill: #d0c2b4;
        stroke-width: 0px;
      }
    </style>
  </defs>
  <path class="cls-1" d="M2.6,3.2l-1.1-.3c-.4-.1-.6-.3-.8-.4-.1-.2-.2-.4-.2-.7s0-.4.3-.6c.2-.2.4-.3.8-.3h3.4c.4,0,.8,0,1.1.2.3.2.6.5.9.9l5.2,8c.2.3.4.7.6,1,.2.4.4.7.6,1,.2.3.4.7.5,1h0c0-.3,0-.7,0-1.1,0-.3,0-.7,0-1.1V3.2s-1.1-.3-1.1-.3c-.4-.1-.6-.3-.8-.4-.1-.2-.2-.4-.2-.7s0-.4.3-.6c.2-.2.4-.3.8-.3h4.8c.3,0,.6,0,.7.3.2.2.3.4.3.6s0,.5-.2.7c-.1.2-.4.3-.7.5l-1,.3v12c0,.6-.2,1.1-.5,1.4-.3.3-.9.5-1.6.5s-1-.1-1.3-.3c-.4-.2-.7-.5-.9-.9l-5.2-8c-.2-.3-.4-.7-.6-1-.2-.4-.4-.7-.5-1-.2-.3-.4-.7-.5-1h0c0,.3,0,.7,0,1.1,0,.3,0,.7,0,1.1,0,.4,0,.8,0,1.2v6.5s1.2.4,1.2.4c.4.1.6.2.7.4.1.1.2.3.2.6s-.1.5-.3.7c-.2.2-.5.3-.9.3H1.7c-.4,0-.7,0-.9-.3-.2-.2-.3-.4-.3-.7s0-.5.2-.6c.1-.1.4-.3.7-.4l1.1-.4V3.2ZM22.8,11.6c.1,1.1.5,1.9,1.1,2.5.6.6,1.5.8,2.5.8s.7,0,.9,0c.3,0,.5,0,.7-.1.2,0,.4,0,.5-.1.2,0,.3,0,.5,0,.3,0,.5,0,.6.2.1.1.2.4.2.6s0,.3,0,.4c0,.1-.1.3-.3.4-.3.3-.7.5-1.4.8-.7.2-1.5.4-2.6.4s-1.8-.1-2.5-.4c-.7-.3-1.4-.7-1.9-1.2-.5-.5-.9-1.1-1.2-1.9-.3-.7-.4-1.6-.4-2.5s.1-1.9.4-2.7c.3-.8.7-1.5,1.2-2.1.5-.6,1.2-1,1.9-1.3.7-.3,1.6-.5,2.4-.5,1.5,0,2.7.4,3.5,1.3.8.8,1.3,2.1,1.3,3.7s-.1,1.1-.4,1.4c-.3.3-.7.5-1.2.5h-5.9ZM27.1,9.7c0-.9-.2-1.6-.6-2-.4-.4-.8-.6-1.4-.6s-1.1.2-1.5.7c-.4.5-.7,1.1-.8,2h4.3ZM32.6,7.4l-.4-.2c-.4-.1-.6-.3-.8-.5-.1-.2-.2-.5-.2-.7s0-.5.3-.6c.2-.2.4-.2.8-.2h4.1c.3,0,.6,0,.8.2.2.2.3.4.3.6s0,.5-.2.7-.4.4-.8.5l-.4.2,1.3,4.5c0,.3.2.6.2.9,0,.3.1.5.2.8,0,.3.1.5.1.7h0c0-.2,0-.5.1-.8,0-.2,0-.5.1-.7,0-.3.1-.6.2-.9l1.1-4.8c.2-.8.4-1.3.8-1.6.4-.3.9-.5,1.5-.5s1.1.1,1.5.4c.4.3.6.8.8,1.6l1.2,4.9c0,.3.1.6.2.9s0,.5.1.8c0,.3,0,.5.1.7h0c0-.2,0-.4.1-.7,0-.2.1-.5.2-.8,0-.3.2-.6.3-.9l1.3-4.5-.4-.2c-.4-.2-.6-.4-.8-.5-.1-.2-.2-.4-.2-.7s0-.5.3-.6c.2-.2.4-.2.8-.2h3.4c.3,0,.6,0,.8.2.2.2.3.4.3.6s0,.5-.2.7c-.1.2-.4.4-.8.5l-.4.2-2.5,7.8c-.3.8-.6,1.3-.9,1.6-.3.3-.8.4-1.5.4s-1.1-.1-1.5-.4c-.4-.3-.6-.8-.8-1.6l-1.2-5.2c0-.3-.1-.6-.2-.8,0-.3,0-.5-.1-.7,0-.3,0-.5,0-.7h0c0,.2,0,.4,0,.7,0,.2,0,.5-.1.8,0,.3-.1.6-.2.9l-1.2,5.1c-.2.8-.4,1.3-.8,1.6-.4.3-.8.4-1.4.4s-.7,0-.9,0c-.2,0-.5-.2-.6-.3-.2-.2-.4-.4-.5-.6-.1-.3-.3-.6-.4-1l-2.5-7.8ZM55.1,14.8c.1,0,.3.1.5.2.2,0,.4,0,.6,0,.2,0,.5,0,.8,0,.7,0,1.2-.1,1.5-.3.3-.2.4-.5.4-.9s-.2-.6-.5-.8-.7-.4-1.2-.6c-.4-.2-.9-.4-1.5-.5-.5-.2-1-.4-1.5-.7-.4-.3-.8-.6-1.1-1.1-.3-.4-.5-1-.5-1.7s.1-1,.3-1.4c.2-.4.5-.8,1-1.2.4-.3,1-.6,1.6-.8.7-.2,1.4-.3,2.3-.3s1.7,0,2.2.2c.5.2.8.3,1,.5.1.1.2.3.3.5,0,.2,0,.4,0,.8h0v.6c0,.2,0,.3,0,.5,0,.3-.1.5-.3.7-.2.1-.4.2-.6.2s-.5,0-.6-.2c-.1-.1-.3-.4-.4-.7l-.2-.7c-.1,0-.3,0-.5-.1-.1,0-.3,0-.5,0-.2,0-.4,0-.6,0-.7,0-1.1,0-1.3.3-.2.2-.3.4-.3.8s.2.6.5.8c.3.2.7.4,1.1.5.5.2,1,.3,1.5.5.5.2,1,.4,1.5.7.5.3.8.7,1.2,1.1.3.4.5,1,.5,1.8s-.1,1-.3,1.5c-.2.5-.6.9-1,1.2-.4.3-1,.6-1.7.8-.7.2-1.5.3-2.4.3s-1.8,0-2.3-.3-.9-.3-1-.5c-.1-.1-.2-.3-.3-.5,0-.2,0-.4,0-.8v-.7c0-.2,0-.3,0-.5,0-.3.1-.5.3-.7.2-.1.4-.2.7-.2s.5,0,.6.2c.2.1.3.4.4.7l.3.7Z"/>
</svg>