<svg width="16" height="15" viewBox="0 0 16 15" fill="none" xmlns="http://www.w3.org/2000/svg">
<path fill-rule="evenodd" clip-rule="evenodd" d="M9.34315 0.298305L15.7071 6.77983C16.0976 7.17757 16.0976 7.82243 15.7071 8.22017L9.34315 14.7017C8.95262 15.0994 8.31946 15.0994 7.92893 14.7017C7.53841 14.304 7.53841 13.6591 7.92893 13.2614L12.5858 8.51848L0.999999 8.51847C0.447714 8.51847 -7.04846e-07 8.06249 -6.55671e-07 7.5C-6.06497e-07 6.93751 0.447715 6.48153 0.999999 6.48153L12.5858 6.48153L7.92893 1.73864C7.53841 1.34091 7.53841 0.696044 7.92893 0.298305C8.31946 -0.099434 8.95262 -0.0994339 9.34315 0.298305Z" fill="#29231D"/>
</svg>
