<svg width="162" height="15" viewBox="0 0 162 15" fill="none" xmlns="http://www.w3.org/2000/svg">
<path d="M0.948813 6.8C0.948813 5.968 1.09281 5.20533 1.38081 4.512C1.66881 3.808 2.06348 3.20533 2.56481 2.704C3.07681 2.192 3.67948 1.792 4.37281 1.504C5.06615 1.216 5.82348 1.072 6.64481 1.072C7.45548 1.072 8.19148 1.20533 8.85281 1.472C9.51415 1.73867 10.0795 2.112 10.5488 2.592C11.0181 3.06133 11.3808 3.62667 11.6368 4.288C11.8928 4.93867 12.0208 5.65867 12.0208 6.448C12.0208 7.26933 11.8768 8.032 11.5888 8.736C11.3008 9.44 10.9008 10.0427 10.3888 10.544C9.88748 11.0453 9.29015 11.44 8.59681 11.728C7.90348 12.016 7.14615 12.16 6.32481 12.16C5.51415 12.16 4.77815 12.032 4.11681 11.776C3.45548 11.5093 2.89015 11.136 2.42081 10.656C1.95148 10.176 1.58881 9.61067 1.33281 8.96C1.07681 8.30933 0.948813 7.58933 0.948813 6.8ZM2.21281 6.64C2.21281 7.312 2.31415 7.92533 2.51681 8.48C2.73015 9.03467 3.02348 9.50933 3.39681 9.904C3.78081 10.288 4.23415 10.5867 4.75681 10.8C5.27948 11.0027 5.85548 11.104 6.48481 11.104C7.10348 11.104 7.67415 10.9973 8.19681 10.784C8.73015 10.5707 9.18348 10.272 9.55681 9.888C9.94081 9.49333 10.2341 9.01867 10.4368 8.464C10.6501 7.90933 10.7568 7.29067 10.7568 6.608C10.7568 5.92533 10.6501 5.30667 10.4368 4.752C10.2341 4.19733 9.94081 3.728 9.55681 3.344C9.18348 2.94933 8.73548 2.65067 8.21281 2.448C7.69015 2.23467 7.11415 2.128 6.48481 2.128C5.85548 2.128 5.27948 2.23467 4.75681 2.448C4.23415 2.66133 3.78081 2.96533 3.39681 3.36C3.02348 3.744 2.73015 4.21333 2.51681 4.768C2.31415 5.32267 2.21281 5.94667 2.21281 6.64ZM7.41281 4.544C7.35948 4.53333 7.30081 4.51733 7.23681 4.496C7.18348 4.47467 7.11948 4.45867 7.04481 4.448C6.97015 4.43733 6.87415 4.432 6.75681 4.432C6.28748 4.432 5.89815 4.608 5.58881 4.96C5.27948 5.30133 5.12481 5.824 5.12481 6.528C5.12481 7.25333 5.29548 7.80267 5.63681 8.176C5.98881 8.53867 6.45281 8.72 7.02881 8.72C7.18881 8.72 7.32215 8.70933 7.42881 8.688C7.54615 8.66667 7.64748 8.64533 7.73281 8.624C7.81815 8.60267 7.89281 8.58133 7.95681 8.56C8.02081 8.53867 8.08481 8.528 8.14881 8.528C8.25548 8.528 8.33548 8.56 8.38881 8.624C8.45281 8.67733 8.48481 8.76267 8.48481 8.88C8.48481 9.01867 8.43148 9.136 8.32481 9.232C8.20748 9.34933 8.00481 9.46667 7.71681 9.584C7.42881 9.69067 7.05015 9.744 6.58081 9.744C5.71681 9.744 5.02348 9.47733 4.50081 8.944C3.98881 8.41067 3.73281 7.65867 3.73281 6.688C3.73281 6.21867 3.81281 5.78667 3.97281 5.392C4.13281 4.99733 4.35148 4.66133 4.62881 4.384C4.90615 4.096 5.24215 3.872 5.63681 3.712C6.03148 3.552 6.45815 3.472 6.91681 3.472C7.26881 3.472 7.55681 3.50933 7.78081 3.584C8.01548 3.648 8.18615 3.728 8.29281 3.824C8.34615 3.888 8.38348 3.968 8.40481 4.064C8.43681 4.16 8.45281 4.336 8.45281 4.592V4.688C8.45281 4.816 8.45281 4.91733 8.45281 4.992C8.45281 5.06667 8.44748 5.17333 8.43681 5.312C8.42615 5.472 8.38881 5.584 8.32481 5.648C8.26081 5.70133 8.17015 5.728 8.05281 5.728C7.93548 5.728 7.83948 5.70133 7.76481 5.648C7.69015 5.584 7.63148 5.472 7.58881 5.312L7.41281 4.544ZM40.0839 8.672C40.0413 9.14133 40.0839 9.46667 40.2119 9.648C40.3399 9.81867 40.5373 9.904 40.8039 9.904C41.0386 9.904 41.2733 9.84 41.5079 9.712C41.7533 9.57333 41.9666 9.35467 42.1479 9.056C42.3399 8.75733 42.4893 8.368 42.5959 7.888C42.7133 7.408 42.7719 6.82133 42.7719 6.128C42.7719 4.66667 42.3666 3.54667 41.5559 2.768C40.7453 1.97867 39.5453 1.584 37.9559 1.584C37.0173 1.584 36.1533 1.744 35.3639 2.064C34.5853 2.37333 33.9133 2.816 33.3479 3.392C32.7826 3.95733 32.3399 4.64 32.0199 5.44C31.7106 6.24 31.5559 7.11467 31.5559 8.064C31.5559 9.84533 31.9879 11.1787 32.8519 12.064C33.7159 12.9493 35.0173 13.392 36.7559 13.392C37.2679 13.392 37.7053 13.36 38.0679 13.296C38.4306 13.2427 38.7346 13.1787 38.9799 13.104C39.2253 13.0293 39.4226 12.96 39.5719 12.896C39.7319 12.8427 39.8706 12.816 39.9879 12.816C40.1159 12.816 40.2173 12.8587 40.2919 12.944C40.3666 13.0293 40.4039 13.136 40.4039 13.264C40.4039 13.424 40.3453 13.568 40.2279 13.696C40.1426 13.7707 39.9933 13.8613 39.7799 13.968C39.5666 14.0853 39.2999 14.1867 38.9799 14.272C38.6599 14.368 38.2866 14.4427 37.8599 14.496C37.4439 14.56 36.9799 14.592 36.4679 14.592C35.3799 14.592 34.4253 14.4533 33.6039 14.176C32.7826 13.8987 32.0946 13.4933 31.5399 12.96C30.9959 12.4267 30.5799 11.776 30.2919 11.008C30.0039 10.2293 29.8599 9.33867 29.8599 8.336C29.8599 7.17333 30.0626 6.10133 30.4679 5.12C30.8733 4.13867 31.4386 3.296 32.1639 2.592C32.8999 1.87733 33.7853 1.32267 34.8199 0.927999C35.8653 0.522666 37.0226 0.32 38.2919 0.32C39.2839 0.32 40.1586 0.448 40.9159 0.704C41.6839 0.949333 42.3186 1.30667 42.8199 1.776C43.3213 2.23467 43.6999 2.79467 43.9559 3.456C44.2226 4.11733 44.3559 4.85867 44.3559 5.68C44.3559 6.544 44.2493 7.312 44.0359 7.984C43.8226 8.64533 43.5346 9.20533 43.1719 9.664C42.8093 10.112 42.3933 10.448 41.9239 10.672C41.4546 10.896 40.9639 11.008 40.4519 11.008C39.9506 11.008 39.5506 10.912 39.2519 10.72C38.9639 10.528 38.7719 10.2667 38.6759 9.936L38.6439 9.92C38.4946 10.1227 38.3133 10.304 38.0999 10.464C37.9186 10.6027 37.6893 10.7307 37.4119 10.848C37.1453 10.9547 36.8253 11.008 36.4519 11.008C36.0679 11.008 35.7159 10.9493 35.3959 10.832C35.0866 10.704 34.8146 10.5227 34.5799 10.288C34.3559 10.0427 34.1799 9.74933 34.0519 9.408C33.9346 9.06667 33.8759 8.672 33.8759 8.224C33.8759 7.57333 33.9773 6.98667 34.1799 6.464C34.3826 5.93067 34.6653 5.47733 35.0279 5.104C35.3906 4.72 35.8226 4.42667 36.3239 4.224C36.8359 4.02133 37.3959 3.92 38.0039 3.92C38.5053 3.92 38.9213 3.96267 39.2519 4.048C39.5826 4.13333 39.8333 4.23467 40.0039 4.352C40.1533 4.45867 40.2599 4.57067 40.3239 4.688C40.3879 4.80533 40.4093 4.96 40.3879 5.152L40.0839 8.672ZM38.7559 5.296C38.6813 5.264 38.5959 5.22667 38.4999 5.184C38.4039 5.16267 38.2866 5.14133 38.1479 5.12C38.0199 5.088 37.8653 5.072 37.6839 5.072C37.3959 5.072 37.1239 5.13067 36.8679 5.248C36.6226 5.36533 36.4039 5.54667 36.2119 5.792C36.0306 6.03733 35.8813 6.34133 35.7639 6.704C35.6573 7.06667 35.6039 7.49867 35.6039 8C35.6039 8.59733 35.7319 9.04 35.9879 9.328C36.2439 9.60533 36.5799 9.744 36.9959 9.744C37.2413 9.744 37.4546 9.70667 37.6359 9.632C37.8173 9.54667 37.9666 9.456 38.0839 9.36C38.2333 9.25333 38.3559 9.12533 38.4519 8.976L38.7559 5.296ZM52.8347 10.96C53.3894 10.96 53.8374 10.784 54.1787 10.432C54.5307 10.08 54.7067 9.6 54.7067 8.992C54.7067 8.704 54.648 8.432 54.5307 8.176C54.424 7.92 54.248 7.70133 54.0027 7.52C53.768 7.328 53.464 7.184 53.0907 7.088C52.728 6.98133 52.2907 6.928 51.7787 6.928C51.544 6.928 51.3627 6.85867 51.2347 6.72C51.1067 6.58133 51.0427 6.4 51.0427 6.176C51.0427 6.06933 51.0587 5.984 51.0907 5.92C51.1227 5.856 51.1654 5.80267 51.2187 5.76C51.2827 5.71733 51.368 5.68533 51.4747 5.664C51.5814 5.64267 51.7467 5.632 51.9707 5.632C52.344 5.632 52.6747 5.58933 52.9627 5.504C53.2614 5.408 53.5067 5.28 53.6987 5.12C53.9014 4.94933 54.0507 4.752 54.1467 4.528C54.2427 4.304 54.2907 4.05867 54.2907 3.792C54.2907 3.376 54.1414 3.04 53.8427 2.784C53.5547 2.51733 53.144 2.384 52.6107 2.384C52.376 2.384 52.168 2.40533 51.9867 2.448C51.8054 2.48 51.64 2.51733 51.4907 2.56C51.352 2.60267 51.2294 2.64533 51.1227 2.688C51.016 2.73067 50.92 2.752 50.8347 2.752C50.6854 2.752 50.5627 2.704 50.4667 2.608C50.3707 2.512 50.3227 2.38933 50.3227 2.24C50.3227 2.09067 50.3814 1.952 50.4987 1.824C50.6907 1.64267 51.016 1.472 51.4747 1.312C51.9334 1.152 52.472 1.072 53.0907 1.072C53.592 1.072 54.0294 1.13067 54.4027 1.248C54.776 1.35467 55.0854 1.51467 55.3307 1.728C55.576 1.93067 55.7574 2.176 55.8747 2.464C56.0027 2.752 56.0667 3.06133 56.0667 3.392C56.0667 3.68 56.024 3.95733 55.9387 4.224C55.8534 4.48 55.7307 4.72533 55.5707 4.96C55.4107 5.184 55.224 5.38133 55.0107 5.552C54.7974 5.72267 54.5627 5.85067 54.3067 5.936V5.952C54.616 6.02667 54.904 6.13867 55.1707 6.288C55.4374 6.42667 55.672 6.608 55.8747 6.832C56.0774 7.056 56.232 7.32267 56.3387 7.632C56.456 7.93067 56.5147 8.26667 56.5147 8.64C56.5147 9.13067 56.424 9.59467 56.2427 10.032C56.0614 10.4587 55.7947 10.832 55.4427 11.152C55.1014 11.472 54.6854 11.7227 54.1947 11.904C53.704 12.0747 53.1547 12.16 52.5467 12.16C52.1094 12.16 51.7307 12.1173 51.4107 12.032C51.1014 11.9573 50.8454 11.856 50.6427 11.728C50.44 11.5893 50.2907 11.44 50.1947 11.28C50.0987 11.1093 50.0507 10.9387 50.0507 10.768C50.0507 10.5227 50.12 10.3307 50.2587 10.192C50.3974 10.0427 50.568 9.968 50.7707 9.968C50.9094 9.968 51.032 10.0213 51.1387 10.128C51.256 10.224 51.384 10.336 51.5227 10.464C51.672 10.592 51.848 10.7093 52.0507 10.816C52.2534 10.912 52.5147 10.96 52.8347 10.96ZM58.1389 6.688C58.1389 5.76 58.2509 4.94933 58.4749 4.256C58.6989 3.552 59.0029 2.96533 59.3869 2.496C59.7709 2.016 60.2189 1.65867 60.7309 1.424C61.2536 1.18933 61.8136 1.072 62.4109 1.072C63.0296 1.072 63.5896 1.17867 64.0909 1.392C64.6029 1.59467 65.0349 1.92 65.3869 2.368C65.7496 2.816 66.0269 3.38667 66.2189 4.08C66.4216 4.76267 66.5229 5.57867 66.5229 6.528C66.5229 7.456 66.4109 8.272 66.1869 8.976C65.9629 9.68 65.6589 10.272 65.2749 10.752C64.8909 11.2213 64.4376 11.5733 63.9149 11.808C63.3923 12.0427 62.8429 12.16 62.2669 12.16C61.6376 12.16 61.0669 12.0587 60.5549 11.856C60.0536 11.6427 59.6216 11.312 59.2589 10.864C58.9069 10.416 58.6296 9.85067 58.4269 9.168C58.2349 8.47467 58.1389 7.648 58.1389 6.688ZM59.9469 6.576C59.9469 7.35467 60.0109 8.02133 60.1389 8.576C60.2776 9.12 60.4589 9.56267 60.6829 9.904C60.9069 10.2453 61.1629 10.496 61.4509 10.656C61.7389 10.816 62.0429 10.896 62.3629 10.896C62.6829 10.896 62.9869 10.8213 63.2749 10.672C63.5629 10.5227 63.8136 10.2827 64.0269 9.952C64.2403 9.61067 64.4056 9.17333 64.5229 8.64C64.6509 8.096 64.7149 7.42933 64.7149 6.64C64.7149 5.86133 64.6509 5.2 64.5229 4.656C64.3949 4.112 64.2189 3.66933 63.9949 3.328C63.7709 2.98667 63.5096 2.736 63.2109 2.576C62.9229 2.416 62.6189 2.336 62.2989 2.336C61.9789 2.336 61.6749 2.41067 61.3869 2.56C61.1096 2.70933 60.8589 2.94933 60.6349 3.28C60.4216 3.61067 60.2509 4.048 60.1229 4.592C60.0056 5.12533 59.9469 5.78667 59.9469 6.576ZM77.0092 5.28C76.9559 5.26933 76.9025 5.25333 76.8492 5.232C76.7852 5.22133 76.7105 5.21067 76.6252 5.2C76.5505 5.17867 76.4599 5.168 76.3532 5.168C75.7025 5.168 75.1639 5.408 74.7372 5.888C74.3212 6.35733 74.1132 7.088 74.1132 8.08C74.1132 9.008 74.3265 9.70667 74.7532 10.176C75.1799 10.6347 75.7612 10.864 76.4972 10.864C76.6999 10.864 76.8759 10.848 77.0252 10.816C77.1852 10.784 77.3239 10.7573 77.4412 10.736C77.5585 10.704 77.6599 10.6773 77.7452 10.656C77.8305 10.624 77.9105 10.608 77.9852 10.608C78.1345 10.608 78.2465 10.6507 78.3212 10.736C78.4065 10.8107 78.4492 10.9227 78.4492 11.072C78.4492 11.232 78.3799 11.3813 78.2412 11.52C78.1665 11.5947 78.0599 11.6693 77.9212 11.744C77.7825 11.8187 77.6172 11.888 77.4252 11.952C77.2439 12.016 77.0305 12.064 76.7852 12.096C76.5505 12.1387 76.2945 12.16 76.0172 12.16C74.8759 12.16 73.9745 11.824 73.3132 11.152C72.6519 10.48 72.3212 9.536 72.3212 8.32C72.3212 7.65867 72.4225 7.056 72.6252 6.512C72.8385 5.968 73.1319 5.504 73.5052 5.12C73.8785 4.736 74.3212 4.44267 74.8332 4.24C75.3452 4.02667 75.9159 3.92 76.5452 3.92C76.9825 3.92 77.3345 3.96267 77.6012 4.048C77.8785 4.12267 78.0812 4.224 78.2092 4.352C78.2839 4.42667 78.3372 4.528 78.3692 4.656C78.4012 4.784 78.4172 5.024 78.4172 5.376V5.488C78.4172 5.63733 78.4172 5.77067 78.4172 5.888C78.4172 5.99467 78.4119 6.15467 78.4012 6.368C78.3905 6.56 78.3372 6.69867 78.2412 6.784C78.1559 6.86933 78.0385 6.912 77.8892 6.912C77.7399 6.912 77.6172 6.86933 77.5212 6.784C77.4359 6.69867 77.3665 6.56 77.3132 6.368L77.0092 5.28ZM79.7743 8.24C79.7743 7.58933 79.8756 6.99733 80.0783 6.464C80.281 5.93067 80.5636 5.47733 80.9263 5.104C81.2996 4.73067 81.7423 4.44267 82.2543 4.24C82.7663 4.02667 83.3263 3.92 83.9343 3.92C85.1076 3.92 86.025 4.26133 86.6863 4.944C87.3583 5.62667 87.6943 6.592 87.6943 7.84C87.6943 8.49067 87.593 9.08267 87.3903 9.616C87.1983 10.1493 86.921 10.608 86.5583 10.992C86.1956 11.3653 85.7583 11.6533 85.2463 11.856C84.7343 12.0587 84.1636 12.16 83.5343 12.16C82.3716 12.16 81.4543 11.8187 80.7823 11.136C80.1103 10.4533 79.7743 9.488 79.7743 8.24ZM81.5823 8.016C81.5823 8.496 81.641 8.91733 81.7583 9.28C81.8756 9.632 82.0303 9.93067 82.2223 10.176C82.4143 10.4213 82.6436 10.6027 82.9103 10.72C83.177 10.8373 83.465 10.896 83.7743 10.896C84.3823 10.896 84.8836 10.6667 85.2783 10.208C85.6836 9.74933 85.8863 9.04 85.8863 8.08C85.8863 7.6 85.8276 7.17867 85.7103 6.816C85.6036 6.45333 85.449 6.15467 85.2463 5.92C85.0543 5.67467 84.825 5.49333 84.5583 5.376C84.2916 5.248 84.009 5.184 83.7103 5.184C83.1023 5.184 82.5956 5.41333 82.1903 5.872C81.785 6.33067 81.5823 7.04533 81.5823 8.016ZM90.1264 5.296H89.3744C88.9691 5.296 88.7664 5.12 88.7664 4.768C88.7664 4.56533 88.8304 4.4 88.9584 4.272C89.0864 4.144 89.2731 4.08 89.5184 4.08H90.1264V3.616C90.1264 2.54933 90.4038 1.73333 90.9584 1.168C91.5131 0.602666 92.2971 0.32 93.3104 0.32C93.6198 0.32 93.8811 0.352 94.0944 0.415999C94.3078 0.469333 94.4518 0.538666 94.5264 0.624C94.5691 0.656 94.6011 0.693333 94.6224 0.735999C94.6438 0.778666 94.6598 0.831999 94.6704 0.896C94.6918 0.949333 94.7078 1.02933 94.7184 1.136C94.7291 1.24267 94.7344 1.37067 94.7344 1.52V1.632C94.7344 1.74933 94.7344 1.85067 94.7344 1.936C94.7344 2.02133 94.7291 2.15467 94.7184 2.336C94.7078 2.51733 94.6544 2.65067 94.5584 2.736C94.4731 2.81067 94.3611 2.848 94.2224 2.848C94.0731 2.848 93.9504 2.80533 93.8544 2.72C93.7691 2.63467 93.6998 2.496 93.6464 2.304L93.4384 1.584C93.4064 1.584 93.3744 1.57867 93.3424 1.568C93.2998 1.55733 93.2518 1.552 93.1984 1.552C93.1558 1.54133 93.0971 1.536 93.0224 1.536C92.6491 1.536 92.3664 1.648 92.1744 1.872C91.9824 2.096 91.8864 2.496 91.8864 3.072V4.08H93.1824C93.5878 4.08 93.7904 4.256 93.7904 4.608C93.7904 4.82133 93.7264 4.992 93.5984 5.12C93.4704 5.23733 93.2838 5.296 93.0384 5.296H91.8864V10.704L92.7824 10.928C92.9851 10.9707 93.1184 11.0347 93.1824 11.12C93.2571 11.1947 93.2944 11.3067 93.2944 11.456C93.2944 11.616 93.2358 11.7493 93.1184 11.856C93.0118 11.952 92.8571 12 92.6544 12H89.4384C89.2358 12 89.0811 11.952 88.9744 11.856C88.8678 11.7493 88.8144 11.616 88.8144 11.456C88.8144 11.3067 88.8464 11.1947 88.9104 11.12C88.9851 11.0453 89.1238 10.9813 89.3264 10.928L90.1264 10.704V5.296ZM95.7358 5.296H94.9838C94.5785 5.296 94.3758 5.12 94.3758 4.768C94.3758 4.56533 94.4398 4.4 94.5678 4.272C94.6958 4.144 94.8825 4.08 95.1278 4.08H95.7358V3.616C95.7358 2.54933 96.0131 1.73333 96.5678 1.168C97.1225 0.602666 97.9065 0.32 98.9198 0.32C99.2291 0.32 99.4905 0.352 99.7038 0.415999C99.9171 0.469333 100.061 0.538666 100.136 0.624C100.178 0.656 100.21 0.693333 100.232 0.735999C100.253 0.778666 100.269 0.831999 100.28 0.896C100.301 0.949333 100.317 1.02933 100.328 1.136C100.338 1.24267 100.344 1.37067 100.344 1.52V1.632C100.344 1.74933 100.344 1.85067 100.344 1.936C100.344 2.02133 100.338 2.15467 100.328 2.336C100.317 2.51733 100.264 2.65067 100.168 2.736C100.082 2.81067 99.9705 2.848 99.8318 2.848C99.6825 2.848 99.5598 2.80533 99.4638 2.72C99.3785 2.63467 99.3091 2.496 99.2558 2.304L99.0478 1.584C99.0158 1.584 98.9838 1.57867 98.9518 1.568C98.9091 1.55733 98.8611 1.552 98.8078 1.552C98.7651 1.54133 98.7065 1.536 98.6318 1.536C98.2585 1.536 97.9758 1.648 97.7838 1.872C97.5918 2.096 97.4958 2.496 97.4958 3.072V4.08H98.7918C99.1971 4.08 99.3998 4.256 99.3998 4.608C99.3998 4.82133 99.3358 4.992 99.2078 5.12C99.0798 5.23733 98.8931 5.296 98.6478 5.296H97.4958V10.704L98.3918 10.928C98.5945 10.9707 98.7278 11.0347 98.7918 11.12C98.8665 11.1947 98.9038 11.3067 98.9038 11.456C98.9038 11.616 98.8451 11.7493 98.7278 11.856C98.6211 11.952 98.4665 12 98.2638 12H95.0478C94.8451 12 94.6905 11.952 94.5838 11.856C94.4771 11.7493 94.4238 11.616 94.4238 11.456C94.4238 11.3067 94.4558 11.1947 94.5198 11.12C94.5945 11.0453 94.7331 10.9813 94.9358 10.928L95.7358 10.704V5.296ZM101.972 8.256C102.015 9.10933 102.255 9.76 102.692 10.208C103.14 10.6453 103.754 10.864 104.532 10.864C104.799 10.864 105.023 10.848 105.204 10.816C105.396 10.784 105.562 10.752 105.7 10.72C105.839 10.6773 105.956 10.64 106.052 10.608C106.148 10.576 106.239 10.56 106.324 10.56C106.474 10.56 106.586 10.6027 106.66 10.688C106.735 10.7627 106.772 10.8747 106.772 11.024C106.772 11.1093 106.756 11.1893 106.724 11.264C106.703 11.3387 106.655 11.408 106.58 11.472C106.42 11.632 106.122 11.7867 105.684 11.936C105.258 12.0853 104.708 12.16 104.036 12.16C103.439 12.16 102.9 12.0747 102.42 11.904C101.94 11.7333 101.535 11.4827 101.204 11.152C100.884 10.8107 100.634 10.3947 100.452 9.904C100.282 9.41333 100.196 8.85333 100.196 8.224C100.196 7.56267 100.292 6.96533 100.484 6.432C100.676 5.89867 100.943 5.45067 101.284 5.088C101.636 4.71467 102.047 4.42667 102.516 4.224C102.986 4.02133 103.498 3.92 104.052 3.92C105.002 3.92 105.748 4.20267 106.292 4.768C106.836 5.32267 107.108 6.128 107.108 7.184C107.108 7.54667 107.023 7.81867 106.852 8C106.692 8.17067 106.452 8.256 106.132 8.256H101.972ZM105.38 7.216C105.359 6.512 105.204 5.99467 104.916 5.664C104.628 5.33333 104.26 5.168 103.812 5.168C103.322 5.168 102.916 5.34933 102.596 5.712C102.276 6.07467 102.079 6.576 102.004 7.216H105.38ZM110.347 8.256C110.39 9.10933 110.63 9.76 111.067 10.208C111.515 10.6453 112.129 10.864 112.907 10.864C113.174 10.864 113.398 10.848 113.579 10.816C113.771 10.784 113.937 10.752 114.075 10.72C114.214 10.6773 114.331 10.64 114.427 10.608C114.523 10.576 114.614 10.56 114.699 10.56C114.849 10.56 114.961 10.6027 115.035 10.688C115.11 10.7627 115.147 10.8747 115.147 11.024C115.147 11.1093 115.131 11.1893 115.099 11.264C115.078 11.3387 115.03 11.408 114.955 11.472C114.795 11.632 114.497 11.7867 114.059 11.936C113.633 12.0853 113.083 12.16 112.411 12.16C111.814 12.16 111.275 12.0747 110.795 11.904C110.315 11.7333 109.91 11.4827 109.579 11.152C109.259 10.8107 109.009 10.3947 108.827 9.904C108.657 9.41333 108.571 8.85333 108.571 8.224C108.571 7.56267 108.667 6.96533 108.859 6.432C109.051 5.89867 109.318 5.45067 109.659 5.088C110.011 4.71467 110.422 4.42667 110.891 4.224C111.361 4.02133 111.873 3.92 112.427 3.92C113.377 3.92 114.123 4.20267 114.667 4.768C115.211 5.32267 115.483 6.128 115.483 7.184C115.483 7.54667 115.398 7.81867 115.227 8C115.067 8.17067 114.827 8.256 114.507 8.256H110.347ZM113.755 7.216C113.734 6.512 113.579 5.99467 113.291 5.664C113.003 5.33333 112.635 5.168 112.187 5.168C111.697 5.168 111.291 5.34933 110.971 5.712C110.651 6.07467 110.454 6.576 110.379 7.216H113.755ZM122.686 10.736C122.782 10.7893 122.894 10.832 123.022 10.864C123.129 10.896 123.267 10.9227 123.438 10.944C123.609 10.9653 123.806 10.976 124.03 10.976C124.563 10.976 124.937 10.8853 125.15 10.704C125.374 10.512 125.486 10.2667 125.486 9.968C125.486 9.69067 125.379 9.472 125.166 9.312C124.963 9.152 124.707 9.01333 124.398 8.896C124.089 8.768 123.753 8.64533 123.39 8.528C123.027 8.4 122.691 8.24533 122.382 8.064C122.083 7.88267 121.827 7.648 121.614 7.36C121.411 7.072 121.31 6.69867 121.31 6.24C121.31 5.93067 121.374 5.63733 121.502 5.36C121.641 5.072 121.843 4.82133 122.11 4.608C122.387 4.39467 122.734 4.22933 123.15 4.112C123.566 3.984 124.051 3.92 124.606 3.92C125.182 3.92 125.63 3.968 125.95 4.064C126.281 4.16 126.499 4.26133 126.606 4.368C126.691 4.44267 126.75 4.53867 126.782 4.656C126.814 4.76267 126.83 4.93867 126.83 5.184V5.28C126.83 5.408 126.83 5.52 126.83 5.616C126.83 5.712 126.825 5.82933 126.814 5.968C126.793 6.14933 126.734 6.28267 126.638 6.368C126.553 6.44267 126.435 6.48 126.286 6.48C126.147 6.48 126.035 6.44267 125.95 6.368C125.865 6.28267 125.79 6.14933 125.726 5.968L125.534 5.296C125.438 5.27467 125.326 5.24267 125.198 5.2C125.102 5.17867 124.979 5.15733 124.83 5.136C124.681 5.11467 124.515 5.104 124.334 5.104C123.833 5.104 123.486 5.184 123.294 5.344C123.102 5.504 123.006 5.71733 123.006 5.984C123.006 6.24 123.107 6.448 123.31 6.608C123.523 6.75733 123.785 6.89067 124.094 7.008C124.403 7.11467 124.739 7.232 125.102 7.36C125.465 7.47733 125.801 7.632 126.11 7.824C126.419 8.016 126.675 8.26133 126.878 8.56C127.081 8.848 127.182 9.22667 127.182 9.696C127.182 10.0373 127.113 10.3573 126.974 10.656C126.835 10.9547 126.622 11.216 126.334 11.44C126.057 11.6533 125.699 11.8293 125.262 11.968C124.835 12.096 124.329 12.16 123.742 12.16C123.123 12.16 122.638 12.1067 122.286 12C121.934 11.8933 121.705 11.7867 121.598 11.68C121.513 11.5947 121.454 11.4987 121.422 11.392C121.39 11.2853 121.374 11.104 121.374 10.848V10.72C121.374 10.6027 121.374 10.496 121.374 10.4C121.374 10.2933 121.379 10.1707 121.39 10.032C121.411 9.85067 121.465 9.72267 121.55 9.648C121.646 9.56267 121.769 9.52 121.918 9.52C122.057 9.52 122.169 9.56267 122.254 9.648C122.339 9.72267 122.414 9.85067 122.478 10.032L122.686 10.736ZM129.355 5.296H128.683C128.267 5.296 128.059 5.12 128.059 4.768C128.059 4.56533 128.123 4.4 128.251 4.272C128.379 4.144 128.565 4.08 128.811 4.08H129.371L129.627 2.896C129.701 2.55467 129.803 2.31467 129.931 2.176C130.069 2.02667 130.261 1.952 130.507 1.952C130.699 1.952 130.843 2 130.939 2.096C131.045 2.192 131.099 2.336 131.099 2.528V4.08H132.635C133.04 4.08 133.243 4.256 133.243 4.608C133.243 4.82133 133.179 4.992 133.051 5.12C132.933 5.23733 132.747 5.296 132.491 5.296H131.099V9.424C131.099 9.936 131.173 10.2933 131.323 10.496C131.483 10.6987 131.717 10.8 132.027 10.8C132.251 10.8 132.427 10.7787 132.555 10.736C132.683 10.6933 132.805 10.672 132.923 10.672C133.04 10.672 133.131 10.7093 133.195 10.784C133.269 10.8587 133.307 10.9653 133.307 11.104C133.307 11.2 133.285 11.2907 133.243 11.376C133.211 11.4507 133.163 11.5253 133.099 11.6C133.013 11.6747 132.832 11.776 132.555 11.904C132.288 12.032 131.899 12.096 131.387 12.096C130.64 12.096 130.112 11.8987 129.803 11.504C129.504 11.1093 129.355 10.5653 129.355 9.872V5.296ZM138.996 7.104C138.996 6.42133 138.868 5.94133 138.612 5.664C138.356 5.376 137.935 5.232 137.348 5.232C137.028 5.232 136.751 5.25333 136.516 5.296C136.282 5.33867 136.079 5.38667 135.908 5.44C135.738 5.48267 135.594 5.52533 135.476 5.568C135.359 5.61067 135.258 5.632 135.172 5.632C135.023 5.632 134.9 5.584 134.804 5.488C134.708 5.392 134.66 5.26933 134.66 5.12C134.66 4.97067 134.719 4.83733 134.836 4.72C134.922 4.63467 135.055 4.54933 135.236 4.464C135.418 4.368 135.636 4.28267 135.892 4.208C136.159 4.13333 136.452 4.06933 136.772 4.016C137.092 3.96267 137.439 3.936 137.812 3.936C138.858 3.936 139.604 4.15467 140.052 4.592C140.511 5.02933 140.74 5.712 140.74 6.64C140.74 7.29067 140.735 7.94133 140.724 8.592C140.714 9.232 140.735 9.936 140.788 10.704L141.508 10.8C141.69 10.832 141.818 10.8907 141.892 10.976C141.967 11.0507 142.004 11.1627 142.004 11.312C142.004 11.4613 141.962 11.5787 141.876 11.664C141.802 11.7387 141.674 11.808 141.492 11.872C141.3 11.936 141.082 11.9893 140.836 12.032C140.602 12.0747 140.351 12.096 140.084 12.096C139.754 12.096 139.508 12.016 139.348 11.856C139.199 11.696 139.124 11.4613 139.124 11.152V11.008L139.092 10.992C138.964 11.2053 138.794 11.3973 138.58 11.568C138.399 11.7173 138.159 11.856 137.86 11.984C137.562 12.1013 137.194 12.16 136.756 12.16C136.372 12.16 136.02 12.1013 135.7 11.984C135.38 11.856 135.108 11.6907 134.884 11.488C134.66 11.2853 134.49 11.0453 134.372 10.768C134.255 10.4907 134.196 10.1973 134.196 9.888C134.196 9.57867 134.26 9.296 134.388 9.04C134.527 8.77333 134.735 8.544 135.012 8.352C135.3 8.16 135.658 8.01067 136.084 7.904C136.511 7.79733 137.018 7.744 137.604 7.744C137.807 7.744 137.988 7.75467 138.148 7.776C138.319 7.78667 138.468 7.79733 138.596 7.808C138.735 7.82933 138.868 7.84533 138.996 7.856V7.104ZM138.964 8.896C138.868 8.88533 138.762 8.86933 138.644 8.848C138.538 8.82667 138.41 8.81067 138.26 8.8C138.111 8.78933 137.946 8.784 137.764 8.784C137.156 8.784 136.714 8.86933 136.436 9.04C136.159 9.2 136.02 9.43467 136.02 9.744C136.02 10.0427 136.138 10.304 136.372 10.528C136.607 10.7413 136.927 10.848 137.332 10.848C137.588 10.848 137.818 10.8107 138.02 10.736C138.234 10.6613 138.41 10.576 138.548 10.48C138.708 10.3733 138.847 10.2507 138.964 10.112V8.896ZM143.923 5.408L143.075 5.264C142.883 5.22133 142.75 5.16267 142.675 5.088C142.601 5.00267 142.563 4.89067 142.563 4.752C142.563 4.592 142.601 4.47467 142.675 4.4C142.75 4.31467 142.889 4.24 143.091 4.176C143.294 4.12267 143.523 4.08 143.779 4.048C144.046 4.016 144.302 4 144.547 4C144.91 4 145.161 4.06933 145.299 4.208C145.449 4.34667 145.523 4.592 145.523 4.944V5.2L145.555 5.216C145.694 4.97067 145.875 4.75733 146.099 4.576C146.291 4.416 146.542 4.272 146.851 4.144C147.171 4.00533 147.566 3.936 148.035 3.936C148.974 3.936 149.689 4.192 150.179 4.704C150.681 5.20533 150.931 5.96267 150.931 6.976V10.704L151.651 10.912C151.843 10.9653 151.971 11.0347 152.035 11.12C152.11 11.1947 152.147 11.3067 152.147 11.456C152.147 11.616 152.094 11.7493 151.987 11.856C151.881 11.952 151.726 12 151.523 12H148.611C148.409 12 148.249 11.952 148.131 11.856C148.025 11.7493 147.971 11.616 147.971 11.456C147.971 11.3067 148.009 11.1947 148.083 11.12C148.158 11.0347 148.291 10.9653 148.483 10.912L149.171 10.704V7.424C149.171 6.64533 149.022 6.09067 148.723 5.76C148.425 5.42933 147.993 5.264 147.427 5.264C147.15 5.264 146.899 5.312 146.675 5.408C146.462 5.49333 146.281 5.59467 146.131 5.712C145.961 5.85067 145.811 5.99467 145.683 6.144V10.704L146.387 10.912C146.579 10.9653 146.707 11.0347 146.771 11.12C146.846 11.1947 146.883 11.3067 146.883 11.456C146.883 11.616 146.825 11.7493 146.707 11.856C146.601 11.952 146.451 12 146.259 12H143.235C143.033 12 142.878 11.952 142.771 11.856C142.665 11.7493 142.611 11.616 142.611 11.456C142.611 11.3067 142.643 11.1947 142.707 11.12C142.782 11.0453 142.921 10.9813 143.123 10.928L143.923 10.704V5.408ZM158.606 1.808L157.742 1.664C157.55 1.62133 157.417 1.56267 157.342 1.488C157.278 1.40267 157.246 1.29067 157.246 1.152C157.246 0.992 157.284 0.874666 157.358 0.799999C157.433 0.714666 157.566 0.64 157.758 0.575999C157.961 0.522666 158.196 0.479999 158.462 0.447999C158.729 0.405333 159.001 0.384 159.278 0.384C159.694 0.384 159.977 0.464 160.126 0.624C160.276 0.773333 160.35 1.05067 160.35 1.456V10.704L161.118 10.8C161.3 10.8427 161.428 10.9013 161.502 10.976C161.577 11.0507 161.614 11.1627 161.614 11.312C161.614 11.4613 161.572 11.5787 161.486 11.664C161.412 11.7387 161.284 11.808 161.102 11.872C160.91 11.936 160.697 11.9893 160.462 12.032C160.228 12.0747 159.982 12.096 159.726 12.096C159.396 12.096 159.15 12.016 158.99 11.856C158.841 11.696 158.766 11.4613 158.766 11.152V10.896L158.734 10.88C158.596 11.1147 158.414 11.328 158.19 11.52C157.988 11.68 157.726 11.8293 157.406 11.968C157.097 12.096 156.713 12.16 156.254 12.16C155.294 12.16 154.526 11.8453 153.95 11.216C153.385 10.5867 153.102 9.62667 153.102 8.336C153.102 7.65333 153.204 7.04 153.406 6.496C153.609 5.94133 153.897 5.47733 154.27 5.104C154.644 4.72 155.097 4.42667 155.63 4.224C156.174 4.02133 156.782 3.92 157.454 3.92C157.625 3.92 157.78 3.93067 157.918 3.952C158.057 3.96267 158.18 3.97333 158.286 3.984C158.404 4.016 158.51 4.03733 158.606 4.048L158.638 4.016C158.628 3.87733 158.617 3.73867 158.606 3.6C158.606 3.45067 158.606 3.28533 158.606 3.104V1.808ZM158.606 5.504C158.5 5.45067 158.377 5.39733 158.238 5.344C158.11 5.30133 157.956 5.264 157.774 5.232C157.604 5.2 157.406 5.184 157.182 5.184C156.489 5.184 155.934 5.41333 155.518 5.872C155.113 6.33067 154.91 7.07733 154.91 8.112C154.91 9.072 155.092 9.76533 155.454 10.192C155.817 10.608 156.281 10.816 156.846 10.816C157.134 10.816 157.385 10.7733 157.598 10.688C157.822 10.6027 158.009 10.5013 158.158 10.384C158.329 10.256 158.478 10.1067 158.606 9.936V5.504Z" fill="#29231D"/>
</svg>
