<svg width="114" height="95" viewBox="0 0 114 95" fill="none" xmlns="http://www.w3.org/2000/svg">
<path d="M16.5732 93.1184C16.9741 93.1184 17.3023 92.9856 17.5604 92.72C17.8159 92.4545 17.9462 92.0887 17.9462 91.6202C17.9462 91.3772 17.9011 91.1567 17.8134 90.9562C17.7257 90.7558 17.5879 90.5804 17.4 90.4301C17.2121 90.2798 16.9716 90.167 16.6785 90.0869C16.3853 90.0067 16.0321 89.9691 15.6212 89.9691C15.4057 89.9691 15.2328 89.8965 15.1026 89.7536C14.9723 89.6108 14.9071 89.4179 14.9071 89.1774C14.9071 89.0571 14.9272 88.9619 14.9698 88.8943C15.0124 88.8241 15.06 88.7715 15.1176 88.7339C15.1727 88.6964 15.2529 88.6688 15.3556 88.6513C15.4583 88.6337 15.6036 88.6237 15.7915 88.6237C16.0922 88.6237 16.3578 88.5886 16.5858 88.5185C16.8137 88.4483 17.0067 88.3481 17.1545 88.2153C17.3023 88.0825 17.4176 87.9272 17.4927 87.7443C17.5679 87.5614 17.6055 87.361 17.6055 87.1455C17.6055 86.8173 17.4902 86.5517 17.2597 86.3513C17.0292 86.1509 16.7135 86.0481 16.3102 86.0481C16.1323 86.0481 15.9694 86.0657 15.8241 86.0983C15.6788 86.1308 15.546 86.1659 15.4232 86.2035C15.3005 86.2411 15.1902 86.2761 15.0925 86.3087C14.9948 86.3413 14.9021 86.3563 14.8194 86.3563C14.6591 86.3563 14.5288 86.3062 14.4261 86.2035C14.3234 86.1008 14.2708 85.9705 14.2708 85.8126C14.2708 85.6548 14.3309 85.5145 14.4537 85.3917C14.6491 85.1963 14.9547 85.0259 15.3706 84.8806C15.7865 84.7353 16.2726 84.6627 16.8338 84.6627C17.2823 84.6627 17.6731 84.7153 18.0088 84.818C18.3446 84.9207 18.6252 85.0635 18.8481 85.2464C19.0711 85.4293 19.239 85.6498 19.3442 85.9053C19.4519 86.1634 19.5046 86.4415 19.5046 86.7422C19.5046 86.9852 19.4695 87.2207 19.3993 87.4437C19.3292 87.6691 19.229 87.8796 19.0987 88.075C18.9684 88.2704 18.8131 88.4458 18.6302 88.5936C18.4473 88.744 18.2443 88.8617 18.0214 88.9444V88.9594C18.302 89.0246 18.555 89.1198 18.783 89.2451C19.011 89.3703 19.2089 89.5307 19.3718 89.7261C19.5346 89.9215 19.6624 90.1495 19.7576 90.4101C19.8503 90.6706 19.8979 90.9587 19.8979 91.2769C19.8979 91.7154 19.8152 92.1238 19.6524 92.5046C19.4895 92.8854 19.2515 93.2161 18.9383 93.4967C18.6252 93.7748 18.2443 93.9953 17.7959 94.1531C17.3474 94.311 16.8438 94.3912 16.2851 94.3912C15.8943 94.3912 15.556 94.3536 15.2704 94.2784C14.9848 94.2032 14.7543 94.103 14.5764 93.9778C14.3985 93.8525 14.2683 93.7097 14.1831 93.5493C14.1004 93.3915 14.0578 93.2261 14.0578 93.0583C14.0578 92.8253 14.1254 92.6374 14.2607 92.4971C14.396 92.3568 14.5664 92.2866 14.7718 92.2866C14.9021 92.2866 15.0199 92.3292 15.1226 92.4119C15.2253 92.4946 15.3406 92.5923 15.4658 92.6975C15.5911 92.8052 15.7389 92.9004 15.9068 92.9856C16.0747 93.0683 16.2951 93.1109 16.5657 93.1109L16.5732 93.1184Z" fill="#764C25"/>
<path d="M21.2509 89.5908C21.2509 88.779 21.3511 88.0675 21.5515 87.4562C21.7519 86.8449 22.025 86.3313 22.3708 85.9154C22.7165 85.4995 23.1224 85.1863 23.5909 84.9783C24.0594 84.7679 24.558 84.6627 25.0916 84.6627C25.6629 84.6627 26.1765 84.7529 26.635 84.9357C27.0935 85.1186 27.4818 85.4018 27.8 85.7901C28.1182 86.1784 28.3637 86.6745 28.5366 87.2808C28.7095 87.8871 28.7946 88.6112 28.7946 89.4505C28.7946 90.2898 28.6944 90.9763 28.494 91.5926C28.2936 92.2089 28.0205 92.7251 27.6747 93.141C27.329 93.5569 26.9231 93.87 26.4546 94.078C25.9861 94.2884 25.4875 94.3937 24.9538 94.3937C24.3826 94.3937 23.869 94.3035 23.4105 94.1206C22.952 93.9377 22.5637 93.6546 22.2455 93.2662C21.9273 92.8779 21.6818 92.3818 21.5089 91.7755C21.336 91.1692 21.2509 90.4401 21.2509 89.5908ZM23.2101 89.4931C23.2101 90.157 23.2602 90.7132 23.3629 91.1667C23.4656 91.6202 23.6034 91.986 23.7738 92.2666C23.9442 92.5472 24.1421 92.7476 24.3601 92.8679C24.578 92.9881 24.8085 93.0508 25.0516 93.0508C25.2946 93.0508 25.51 92.9931 25.728 92.8754C25.946 92.7601 26.1364 92.5647 26.2992 92.2941C26.4621 92.0235 26.5924 91.6653 26.6901 91.2168C26.7878 90.7683 26.8354 90.2146 26.8354 89.5507C26.8354 88.8868 26.7853 88.3306 26.6826 87.8771C26.5799 87.4236 26.4446 87.0603 26.2717 86.7847C26.0988 86.5091 25.9009 86.3112 25.6779 86.1885C25.4549 86.0682 25.2269 86.0056 24.9939 86.0056C24.7609 86.0056 24.5254 86.0632 24.31 86.1809C24.0945 86.2987 23.9066 86.4916 23.7462 86.7622C23.5834 87.0328 23.4531 87.391 23.3554 87.8345C23.2577 88.278 23.2101 88.8317 23.2101 89.4931Z" fill="#764C25"/>
<path d="M37.7289 88.526C37.6913 88.516 37.6538 88.5084 37.6187 88.4984C37.5811 88.4884 37.536 88.4809 37.4809 88.4709C37.4258 88.4608 37.3606 88.4558 37.2855 88.4558C36.822 88.4558 36.4311 88.6437 36.1104 89.022C35.7897 89.3979 35.6294 89.9916 35.6294 90.8009C35.6294 91.555 35.7948 92.1112 36.1255 92.4695C36.4562 92.8278 36.9147 93.0056 37.4984 93.0056C37.6663 93.0056 37.8091 92.9931 37.9319 92.9706C38.0521 92.948 38.1624 92.923 38.2601 92.9004C38.3578 92.8779 38.4455 92.8528 38.5256 92.8303C38.6058 92.8077 38.676 92.7952 38.7411 92.7952C38.8889 92.7952 39.0067 92.8403 39.0894 92.928C39.172 93.0157 39.2146 93.1409 39.2146 93.2988C39.2146 93.4767 39.1445 93.6345 39.0042 93.7748C38.929 93.85 38.8288 93.9251 38.7035 93.9978C38.5783 94.0729 38.4279 94.1381 38.2551 94.1932C38.0822 94.2483 37.8893 94.2959 37.6738 94.3335C37.4583 94.3711 37.2253 94.3886 36.9748 94.3886C35.9476 94.3886 35.1408 94.093 34.5521 93.4992C33.9633 92.9054 33.6702 92.0837 33.6702 91.0289C33.6702 90.4401 33.7629 89.9039 33.9508 89.4179C34.1362 88.9319 34.3967 88.521 34.7274 88.1777C35.0582 87.837 35.454 87.5739 35.9175 87.386C36.381 87.2006 36.8896 87.1054 37.4508 87.1054C37.8792 87.1054 38.2125 87.1455 38.4455 87.2257C38.6785 87.3058 38.8564 87.4061 38.9766 87.5263C39.0518 87.6015 39.1044 87.6992 39.137 87.8195C39.1695 87.9397 39.1871 88.1602 39.1871 88.4784V88.9394C39.1871 89.0321 39.1821 89.1824 39.172 89.3878C39.162 89.5833 39.1094 89.7261 39.0117 89.8138C38.914 89.9014 38.7862 89.9465 38.6259 89.9465C38.4655 89.9465 38.3402 89.9014 38.2475 89.8087C38.1548 89.716 38.0747 89.5782 38.0095 89.3928L37.7289 88.5185V88.526Z" fill="#764C25"/>
<path d="M40.332 90.9488C40.332 90.37 40.4222 89.8439 40.6051 89.3729C40.788 88.9018 41.0436 88.4985 41.3743 88.1627C41.705 87.827 42.1034 87.569 42.5643 87.3861C43.0253 87.2032 43.5364 87.113 44.0977 87.113C45.1524 87.113 45.9792 87.4136 46.5755 88.0149C47.1718 88.6162 47.4724 89.4631 47.4724 90.5554C47.4724 91.1342 47.3873 91.6603 47.2144 92.1313C47.0415 92.6023 46.791 93.0057 46.4653 93.3414C46.1396 93.6771 45.7412 93.9352 45.2752 94.1181C44.8092 94.301 44.2856 94.3912 43.7068 94.3912C42.652 94.3912 41.8253 94.0905 41.229 93.4892C40.6327 92.8879 40.332 92.0411 40.332 90.9488ZM42.2913 90.7258C42.2913 91.1166 42.3364 91.4599 42.424 91.7555C42.5117 92.0486 42.6295 92.2917 42.7748 92.4846C42.9201 92.675 43.093 92.8178 43.2934 92.9105C43.4939 93.0032 43.7068 93.0508 43.9298 93.0508C44.3783 93.0508 44.7541 92.8704 45.0572 92.5121C45.3604 92.1539 45.5132 91.5751 45.5132 90.7834C45.5132 90.39 45.4681 90.0493 45.3804 89.7537C45.2927 89.4605 45.175 89.2175 45.0297 89.0246C44.8844 88.8342 44.7115 88.6914 44.5111 88.5962C44.3106 88.5035 44.0977 88.4559 43.8747 88.4559C43.4262 88.4559 43.0504 88.6363 42.7472 88.9945C42.4441 89.3528 42.2913 89.9316 42.2913 90.7233V90.7258Z" fill="#764C25"/>
<path d="M49.4742 88.5686H48.9431C48.5222 88.5686 48.3142 88.3832 48.3142 88.0074C48.3142 87.7844 48.3819 87.604 48.5171 87.4687C48.6524 87.3335 48.8454 87.2658 49.0984 87.2658H49.4767V86.9426C49.4767 86.0106 49.7323 85.289 50.2459 84.7804C50.7595 84.2718 51.5011 84.0188 52.4707 84.0188C52.7413 84.0188 52.9793 84.0439 53.1847 84.0965C53.3902 84.1491 53.5355 84.2142 53.6182 84.2994C53.6557 84.337 53.6858 84.3746 53.7083 84.4121C53.7309 84.4497 53.7534 84.4998 53.771 84.56C53.7885 84.6201 53.8036 84.7003 53.8136 84.798C53.8236 84.8957 53.8286 85.021 53.8286 85.1688V85.5321C53.8286 85.6072 53.8236 85.7225 53.8136 85.8828C53.8036 86.0607 53.7534 86.191 53.6607 86.2762C53.568 86.3589 53.4428 86.4014 53.2824 86.4014C53.1221 86.4014 52.9968 86.3563 52.9041 86.2687C52.8114 86.181 52.7312 86.0432 52.6661 85.8553L52.4982 85.3517C52.4782 85.3517 52.4556 85.3467 52.4281 85.3366C52.4005 85.3266 52.368 85.3191 52.3304 85.3166C52.2928 85.3141 52.2502 85.3091 52.2051 85.3091C51.9345 85.3091 51.7291 85.3918 51.5888 85.5546C51.4485 85.7175 51.3783 86.0006 51.3783 86.4014V87.2683H52.373C52.7939 87.2683 53.0018 87.4562 53.0018 87.8295C53.0018 88.0625 52.9367 88.2454 52.8064 88.3757C52.6761 88.506 52.4782 88.5711 52.2176 88.5711H51.3783V92.898L52.0498 93.0809C52.2552 93.136 52.3955 93.2061 52.4707 93.2913C52.5458 93.374 52.5834 93.4968 52.5834 93.6546C52.5834 93.8225 52.5233 93.9628 52.4005 94.0755C52.2803 94.1882 52.1124 94.2434 51.8969 94.2434H49.0257C48.8103 94.2434 48.6424 94.1882 48.5222 94.0755C48.4019 93.9628 48.3393 93.8225 48.3393 93.6546C48.3393 93.4968 48.3768 93.3765 48.452 93.2963C48.5272 93.2162 48.6675 93.146 48.8729 93.0783L49.4742 92.8955V88.5686Z" fill="#764C25"/>
<path d="M54.6129 88.5686H54.0817C53.6608 88.5686 53.4529 88.3832 53.4529 88.0074C53.4529 87.7844 53.5205 87.604 53.6558 87.4687C53.7911 87.3335 53.984 87.2658 54.2371 87.2658H54.6154V86.9426C54.6154 86.0106 54.8709 85.289 55.3845 84.7804C55.8982 84.2718 56.6398 84.0188 57.6093 84.0188C57.8799 84.0188 58.1179 84.0439 58.3234 84.0965C58.5288 84.1491 58.6741 84.2142 58.7568 84.2994C58.7944 84.337 58.8245 84.3746 58.847 84.4121C58.8696 84.4497 58.8921 84.4998 58.9097 84.56C58.9272 84.6201 58.9422 84.7003 58.9522 84.798C58.9623 84.8957 58.9673 85.021 58.9673 85.1688V85.5321C58.9673 85.6072 58.9623 85.7225 58.9522 85.8828C58.9422 86.0607 58.8921 86.191 58.7994 86.2762C58.7067 86.3589 58.5814 86.4014 58.4211 86.4014C58.2608 86.4014 58.1355 86.3563 58.0428 86.2687C57.9501 86.181 57.8699 86.0432 57.8048 85.8553L57.6369 85.3517C57.6169 85.3517 57.5943 85.3467 57.5668 85.3366C57.5392 85.3266 57.5066 85.3191 57.469 85.3166C57.4315 85.3141 57.3889 85.3091 57.3438 85.3091C57.0732 85.3091 56.8677 85.3918 56.7274 85.5546C56.5871 85.7175 56.517 86.0006 56.517 86.4014V87.2683H57.5116C57.9325 87.2683 58.1405 87.4562 58.1405 87.8295C58.1405 88.0625 58.0754 88.2454 57.9451 88.3757C57.8148 88.506 57.6169 88.5711 57.3563 88.5711H56.517V92.898L57.1884 93.0809C57.3939 93.136 57.5342 93.2061 57.6093 93.2913C57.6845 93.374 57.7221 93.4968 57.7221 93.6546C57.7221 93.8225 57.662 93.9628 57.5392 94.0755C57.4189 94.1882 57.2511 94.2434 57.0356 94.2434H54.1644C53.949 94.2434 53.7811 94.1882 53.6608 94.0755C53.5406 93.9628 53.4779 93.8225 53.4779 93.6546C53.4779 93.4968 53.5155 93.3765 53.5907 93.2963C53.6658 93.2162 53.8061 93.146 54.0116 93.0783L54.6129 92.8955V88.5686Z" fill="#764C25"/>
<path d="M60.7711 91.0615C60.8363 91.6954 61.0442 92.1789 61.395 92.5097C61.7457 92.8404 62.2368 93.0057 62.8706 93.0057C63.0861 93.0057 63.269 92.9907 63.4243 92.9631C63.5772 92.9356 63.7125 92.908 63.8302 92.8805C63.948 92.8529 64.0482 92.8253 64.1384 92.7953C64.2261 92.7677 64.3138 92.7527 64.3964 92.7527C64.5468 92.7527 64.662 92.7978 64.7472 92.8855C64.8299 92.9732 64.8725 93.0984 64.8725 93.2563C64.8725 93.349 64.8549 93.4341 64.8224 93.5093C64.7898 93.5845 64.7347 93.6596 64.662 93.7323C64.5042 93.8901 64.2311 94.0405 63.8427 94.1808C63.4544 94.3211 62.9533 94.3912 62.337 94.3912C61.7858 94.3912 61.2947 94.3135 60.8588 94.1607C60.4229 94.0079 60.0621 93.7824 59.7664 93.4893C59.4733 93.1961 59.2478 92.8328 59.095 92.4044C58.9422 91.976 58.8645 91.4849 58.8645 90.9337C58.8645 90.3375 58.9497 89.8013 59.1226 89.3303C59.2954 88.8593 59.536 88.4609 59.8441 88.1327C60.1523 87.807 60.5206 87.554 60.949 87.3761C61.3774 87.1982 61.8535 87.1105 62.3771 87.1105C63.254 87.1105 63.938 87.3585 64.429 87.8521C64.9201 88.3482 65.1631 89.0622 65.1631 89.9942C65.1631 90.35 65.0779 90.6156 64.91 90.7909C64.7422 90.9663 64.5042 91.0565 64.196 91.0565H60.7661L60.7711 91.0615ZM63.3066 89.9842C63.2891 89.433 63.1738 89.0372 62.9633 88.7941C62.7529 88.5511 62.4798 88.4309 62.1441 88.4309C61.7808 88.4309 61.4827 88.5661 61.2471 88.8367C61.0141 89.1073 60.8638 89.4906 60.7987 89.9842H63.3041H63.3066Z" fill="#764C25"/>
<path d="M68.2197 91.0615C68.2849 91.6954 68.4928 92.1789 68.8436 92.5097C69.1943 92.8404 69.6854 93.0057 70.3218 93.0057C70.5372 93.0057 70.7201 92.9907 70.8755 92.9631C71.0283 92.9356 71.1636 92.908 71.2813 92.8805C71.3966 92.8529 71.4993 92.8253 71.5895 92.7953C71.6772 92.7677 71.7649 92.7527 71.8475 92.7527C71.9954 92.7527 72.1131 92.7978 72.1983 92.8855C72.2835 92.9732 72.3236 93.0984 72.3236 93.2563C72.3236 93.349 72.306 93.4341 72.2735 93.5093C72.2409 93.5845 72.1883 93.6596 72.1131 93.7323C71.9553 93.8901 71.6822 94.0405 71.2938 94.1808C70.9055 94.3211 70.4044 94.3912 69.7881 94.3912C69.2369 94.3912 68.7459 94.3135 68.3124 94.1607C67.879 94.0079 67.5132 93.7824 67.2201 93.4893C66.9269 93.1961 66.7014 92.8328 66.5486 92.4044C66.3958 91.976 66.3181 91.4849 66.3181 90.9337C66.3181 90.3375 66.4033 89.8013 66.5762 89.3303C66.749 88.8593 66.9896 88.4609 67.2977 88.1327C67.6059 87.807 67.9742 87.554 68.4026 87.3761C68.831 87.1982 69.3071 87.1105 69.8307 87.1105C70.7076 87.1105 71.3916 87.3585 71.8826 87.8521C72.3737 88.3482 72.6167 89.0622 72.6167 89.9942C72.6167 90.35 72.5315 90.6156 72.3637 90.7909C72.1958 90.9663 71.9578 91.0565 71.6496 91.0565H68.2197V91.0615ZM70.7552 89.9842C70.7351 89.433 70.6224 89.0372 70.4119 88.7941C70.2015 88.5511 69.9284 88.4309 69.5927 88.4309C69.2294 88.4309 68.9287 88.5661 68.6957 88.8367C68.4627 89.1073 68.3124 89.4906 68.2473 89.9842H70.7527H70.7552Z" fill="#764C25"/>
<path d="M78.8752 92.9656C78.9604 93.0032 79.0531 93.0358 79.1558 93.0633C79.2485 93.0834 79.3638 93.1009 79.4991 93.1184C79.6344 93.136 79.7847 93.146 79.9551 93.146C80.376 93.146 80.6666 93.0784 80.8295 92.9431C80.9923 92.8078 81.075 92.6324 81.075 92.4169C81.075 92.2015 80.9873 92.0486 80.8094 91.9259C80.6315 91.8031 80.4111 91.6954 80.1455 91.5977C79.8799 91.4999 79.5893 91.3972 79.2786 91.2895C78.9654 91.1818 78.6773 91.044 78.4117 90.8761C78.1462 90.7082 77.9232 90.4953 77.7478 90.2397C77.5699 89.9842 77.4822 89.6485 77.4822 89.2376C77.4822 88.9494 77.5424 88.6739 77.6626 88.4108C77.7829 88.1502 77.9708 87.9222 78.2213 87.7318C78.4719 87.5414 78.7901 87.3886 79.1709 87.2758C79.5517 87.1631 80.0027 87.108 80.5263 87.108C81.085 87.108 81.5084 87.1556 81.7965 87.2483C82.0847 87.341 82.2751 87.4362 82.3703 87.5289C82.4454 87.604 82.4981 87.6917 82.5306 87.7945C82.5632 87.8972 82.5807 88.05 82.5807 88.2554V88.6187C82.5807 88.7114 82.5757 88.8091 82.5657 88.9119C82.5457 89.0898 82.488 89.22 82.3903 89.3027C82.2926 89.3879 82.1648 89.428 82.0045 89.428C81.8441 89.428 81.7214 89.3854 81.6337 89.3027C81.546 89.22 81.4683 89.0872 81.4032 88.9119L81.2629 88.506C81.1802 88.4884 81.085 88.4634 80.9823 88.4358C80.8996 88.4183 80.7969 88.3983 80.6816 88.3807C80.5639 88.3632 80.4361 88.3532 80.2958 88.3532C79.9025 88.3532 79.6419 88.4083 79.5116 88.521C79.3813 88.6338 79.3162 88.7816 79.3162 88.9695C79.3162 89.1574 79.4039 89.3077 79.5818 89.4255C79.7597 89.5432 79.9801 89.6485 80.2457 89.7412C80.5113 89.8339 80.8019 89.9341 81.1126 90.0418C81.4257 90.1495 81.7139 90.2898 81.9794 90.4627C82.245 90.6356 82.468 90.8561 82.6434 91.1216C82.8213 91.3872 82.909 91.7304 82.909 92.1514C82.909 92.4595 82.8438 92.7476 82.7135 93.0182C82.5832 93.2888 82.3878 93.5243 82.1273 93.7248C81.8667 93.9252 81.5335 94.0855 81.1301 94.2083C80.7242 94.3286 80.2532 94.3912 79.712 94.3912C79.1158 94.3912 78.6648 94.3386 78.3566 94.2384C78.0485 94.1356 77.848 94.0379 77.7553 93.9452C77.6802 93.8701 77.6275 93.7824 77.595 93.6797C77.5624 93.5769 77.5449 93.4241 77.5449 93.2187V92.8278C77.5449 92.7351 77.5499 92.6374 77.5599 92.5347C77.5774 92.3568 77.6376 92.2265 77.7353 92.1413C77.833 92.0561 77.9608 92.0161 78.1211 92.0161C78.2815 92.0161 78.4042 92.0587 78.4919 92.1413C78.5796 92.224 78.6573 92.3568 78.7224 92.5347L78.8752 92.9681V92.9656Z" fill="#764C25"/>
<path d="M84.6977 88.5686H84.2217C83.7908 88.5686 83.5778 88.3832 83.5778 88.0074C83.5778 87.7844 83.6455 87.604 83.7808 87.4687C83.916 87.3334 84.109 87.2658 84.362 87.2658H84.7403L84.9934 86.2711C85.0685 85.963 85.1763 85.74 85.3216 85.5997C85.4669 85.4594 85.6748 85.3892 85.9454 85.3892C86.1609 85.3892 86.3237 85.4418 86.4365 85.5496C86.5492 85.6573 86.6044 85.8126 86.6044 86.0181V87.2633H87.8095C88.2304 87.2633 88.4408 87.4512 88.4408 87.8245C88.4408 88.0575 88.3757 88.2404 88.2454 88.3707C88.1151 88.5009 87.9197 88.5661 87.6566 88.5661H86.6069V91.7429C86.6069 92.1914 86.672 92.5046 86.8023 92.6825C86.9326 92.8603 87.1205 92.948 87.361 92.948C87.5389 92.948 87.6792 92.933 87.7819 92.9054C87.8846 92.8779 87.9873 92.8629 88.0901 92.8629C88.2203 92.8629 88.3231 92.9029 88.3982 92.9806C88.4734 93.0608 88.511 93.1735 88.511 93.3238C88.511 93.4266 88.4909 93.5218 88.4483 93.6095C88.4057 93.6972 88.3481 93.7798 88.2729 93.855C88.1878 93.9402 88.0174 94.0379 87.7619 94.1481C87.5038 94.2609 87.143 94.316 86.677 94.316C85.958 94.316 85.4494 94.1231 85.1512 93.7347C84.8531 93.3464 84.7027 92.8178 84.7027 92.1463V88.5611L84.6977 88.5686Z" fill="#764C25"/>
<path d="M93.4065 89.9967C93.4065 89.4355 93.3088 89.0497 93.1134 88.8342C92.9179 88.6188 92.5772 88.511 92.0912 88.511C91.8206 88.511 91.5851 88.5286 91.3846 88.5611C91.1842 88.5937 91.0088 88.6288 90.8585 88.6664C90.7082 88.704 90.5804 88.739 90.4727 88.7716C90.3649 88.8042 90.2697 88.8217 90.187 88.8217C90.0292 88.8217 89.8989 88.7716 89.7937 88.6689C89.6885 88.5662 89.6409 88.4309 89.6409 88.263C89.6409 88.1152 89.701 87.9774 89.8238 87.8571C89.9064 87.7744 90.0342 87.6893 90.2021 87.6066C90.3699 87.5214 90.5729 87.4462 90.8109 87.3761C91.0489 87.3059 91.3145 87.2483 91.6076 87.2007C91.9007 87.1531 92.2164 87.1306 92.5521 87.1306C93.5518 87.1306 94.2608 87.3235 94.6792 87.7118C95.1001 88.1001 95.3081 88.709 95.3081 89.5383C95.3081 90.0894 95.3031 90.6231 95.2931 91.1417C95.283 91.6603 95.3031 92.2416 95.3482 92.8855L95.8793 92.9681C96.0647 92.9957 96.1975 93.0558 96.2727 93.1435C96.3478 93.2312 96.3854 93.3565 96.3854 93.5143C96.3854 93.6722 96.3428 93.7974 96.2601 93.8851C96.175 93.9728 96.0447 94.0505 95.8668 94.1156C95.6789 94.1808 95.4734 94.2334 95.2505 94.276C95.0275 94.3186 94.7795 94.3386 94.5089 94.3386C94.1807 94.3386 93.9452 94.2609 93.7948 94.1081C93.6445 93.9553 93.5718 93.7273 93.5718 93.4291V93.359L93.5443 93.344C93.4315 93.5394 93.2837 93.7123 93.0958 93.8626C92.938 93.9929 92.7275 94.1131 92.467 94.2209C92.2064 94.3286 91.8832 94.3812 91.4999 94.3812C91.1641 94.3812 90.856 94.3286 90.5754 94.2209C90.2948 94.1131 90.0543 93.9703 89.8538 93.7874C89.6534 93.6045 89.4981 93.3891 89.3928 93.136C89.2851 92.883 89.2325 92.6174 89.2325 92.3368C89.2325 92.0562 89.2951 91.7956 89.4204 91.5526C89.5457 91.3096 89.7386 91.1016 89.9941 90.9288C90.2497 90.7559 90.5779 90.6206 90.9737 90.5229C91.3696 90.4252 91.8381 90.3751 92.3818 90.3751C92.5296 90.3751 92.6649 90.3801 92.7877 90.3901C92.9079 90.4001 93.0156 90.4101 93.1109 90.4176C93.2136 90.4277 93.3113 90.4377 93.404 90.4452V89.9967H93.4065ZM93.3915 91.5225C93.3263 91.5125 93.2512 91.5 93.166 91.4799C93.0908 91.4699 92.9981 91.4624 92.8904 91.4524C92.7826 91.4424 92.6624 91.4373 92.5321 91.4373C92.0536 91.4373 91.7103 91.5025 91.5024 91.6328C91.2969 91.7631 91.1917 91.9409 91.1917 92.1639C91.1917 92.3869 91.2794 92.5798 91.4523 92.7377C91.6251 92.8955 91.8632 92.9757 92.1638 92.9757C92.3617 92.9757 92.5346 92.9506 92.6849 92.898C92.8353 92.8454 92.963 92.7878 93.0658 92.7226C93.1885 92.6475 93.2963 92.5648 93.389 92.4696V91.5175L93.3915 91.5225Z" fill="#764C25"/>
<path d="M97.9413 88.6664L97.2974 88.5261C97.1095 88.4785 96.9767 88.4133 96.8991 88.3307C96.8189 88.2455 96.7813 88.1252 96.7813 87.9674C96.7813 87.7995 96.8214 87.6717 96.8991 87.5815C96.9792 87.4938 97.112 87.4212 97.2974 87.3636C97.4928 87.3084 97.7183 87.2608 97.9689 87.2233C98.2194 87.1857 98.4624 87.1681 98.6954 87.1681C99.0512 87.1681 99.2967 87.2383 99.437 87.3786C99.5773 87.5189 99.6475 87.7519 99.6475 88.0776V88.2605L99.6751 88.2755C99.7878 88.0601 99.9406 87.8697 100.136 87.7018C100.304 87.5615 100.527 87.4312 100.8 87.3109C101.076 87.1907 101.424 87.1281 101.842 87.1281C102.654 87.1281 103.28 87.3535 103.719 87.807C104.157 88.2605 104.378 88.9294 104.378 89.8164V92.8955L104.909 93.0634C105.104 93.1285 105.24 93.2037 105.315 93.2863C105.39 93.369 105.427 93.4918 105.427 93.6496C105.427 93.8175 105.367 93.9578 105.245 94.0705C105.122 94.1833 104.956 94.2384 104.741 94.2384H102.138C101.922 94.2384 101.755 94.1833 101.634 94.0705C101.514 93.9578 101.451 93.8175 101.451 93.6496C101.451 93.4918 101.489 93.369 101.564 93.2863C101.639 93.2012 101.775 93.1285 101.97 93.0634L102.474 92.8955V90.2623C102.474 89.6385 102.361 89.195 102.138 88.9395C101.915 88.6839 101.587 88.5536 101.158 88.5536C100.943 88.5536 100.755 88.5887 100.592 88.6589C100.429 88.729 100.291 88.8067 100.179 88.8894C100.048 88.9921 99.9356 89.0998 99.8429 89.2126V92.8955L100.346 93.0634C100.542 93.1285 100.677 93.2037 100.752 93.2863C100.828 93.369 100.865 93.4918 100.865 93.6496C100.865 93.8175 100.805 93.9578 100.682 94.0705C100.562 94.1833 100.394 94.2384 100.179 94.2384H97.4903C97.2749 94.2384 97.107 94.1833 96.9868 94.0705C96.8665 93.9578 96.8039 93.8175 96.8039 93.6496C96.8039 93.4918 96.8414 93.3715 96.9166 93.2914C96.9918 93.2112 97.1321 93.141 97.3375 93.0734L97.9388 92.8905V88.6614L97.9413 88.6664Z" fill="#764C25"/>
<path d="M110.849 85.5721L110.205 85.4318C110.02 85.3842 109.885 85.3191 109.807 85.2364C109.727 85.1512 109.689 85.031 109.689 84.8731C109.689 84.7053 109.729 84.5775 109.807 84.4873C109.887 84.3996 110.02 84.327 110.205 84.2693C110.401 84.2142 110.626 84.1666 110.877 84.129C111.127 84.0915 111.39 84.0739 111.661 84.0739C112.082 84.0739 112.368 84.1516 112.523 84.3044C112.678 84.4572 112.753 84.7454 112.753 85.1663V92.8654L113.327 92.9631C113.513 93.0007 113.645 93.0608 113.72 93.146C113.796 93.2287 113.833 93.3514 113.833 93.5093C113.833 93.6671 113.791 93.7924 113.708 93.8801C113.623 93.9678 113.492 94.0454 113.315 94.1106C113.127 94.1757 112.921 94.2283 112.698 94.2709C112.475 94.3135 112.237 94.3336 111.984 94.3336C111.656 94.3336 111.42 94.2559 111.27 94.1031C111.12 93.9502 111.047 93.7222 111.047 93.4241V93.2412L111.02 93.2262C110.907 93.4416 110.754 93.632 110.559 93.7999C110.391 93.9502 110.168 94.083 109.895 94.1983C109.619 94.316 109.271 94.3736 108.852 94.3736C108.031 94.3736 107.374 94.1006 106.878 93.5544C106.382 93.0082 106.137 92.1664 106.137 91.0264C106.137 90.4101 106.224 89.8589 106.402 89.3754C106.58 88.8893 106.836 88.4784 107.171 88.1427C107.507 87.807 107.92 87.5514 108.412 87.3735C108.903 87.1957 109.459 87.108 110.085 87.108C110.198 87.108 110.298 87.113 110.386 87.123C110.473 87.133 110.556 87.1405 110.631 87.1506C110.716 87.1681 110.789 87.1831 110.854 87.1931L110.882 87.1656C110.872 87.0629 110.864 86.9576 110.862 86.8499C110.857 86.7422 110.854 86.6094 110.854 86.4515V85.5696L110.849 85.5721ZM110.849 88.724C110.774 88.6764 110.686 88.6363 110.584 88.5987C110.491 88.5611 110.378 88.5285 110.248 88.501C110.118 88.4734 109.967 88.4584 109.8 88.4584C109.276 88.4584 108.862 88.6388 108.554 88.997C108.246 89.3553 108.093 89.9616 108.093 90.811C108.093 91.5751 108.231 92.1238 108.507 92.457C108.782 92.7877 109.126 92.9531 109.536 92.9531C109.752 92.9531 109.94 92.9205 110.103 92.8554C110.266 92.7902 110.403 92.7151 110.516 92.6324C110.646 92.5297 110.759 92.4169 110.852 92.2967V88.7265L110.849 88.724Z" fill="#764C25"/>
<path d="M8.13005 90.3474C8.09747 90.6882 8.12503 90.9162 8.21272 91.0314C8.30041 91.1467 8.43069 91.2043 8.60858 91.2043C8.76642 91.2043 8.92927 91.1567 9.09212 91.0615C9.25497 90.9663 9.40029 90.8109 9.53057 90.5955C9.66085 90.38 9.76357 90.0994 9.84374 89.7512C9.92392 89.4029 9.9615 88.977 9.9615 88.4709C9.9615 87.4036 9.66085 86.5768 9.05955 85.993C8.45825 85.4093 7.56382 85.1187 6.37877 85.1187C5.68226 85.1187 5.04088 85.2389 4.45712 85.4794C3.87336 85.72 3.36727 86.0532 2.94636 86.4791C2.52294 86.905 2.19223 87.4186 1.95171 88.0124C1.71119 88.6087 1.59093 89.2601 1.59093 89.9641C1.59093 91.282 1.8991 92.2616 2.51793 92.903C3.13677 93.5443 4.08381 93.8675 5.36157 93.8675C5.73488 93.8675 6.05557 93.845 6.32615 93.7999C6.59674 93.7548 6.82473 93.7022 7.01013 93.6446C7.19553 93.5869 7.35587 93.5343 7.48866 93.4892C7.62145 93.4441 7.7367 93.4216 7.83691 93.4216C7.96218 93.4216 8.05989 93.4617 8.13005 93.5469C8.2002 93.6295 8.23527 93.7297 8.23527 93.845C8.23527 93.9953 8.17765 94.1256 8.0624 94.2434C7.98724 94.3185 7.86197 94.4012 7.68158 94.4914C7.50119 94.5816 7.28823 94.6668 7.03518 94.7394C6.78214 94.8146 6.49401 94.8772 6.17082 94.9248C5.84762 94.9749 5.49937 95 5.12606 95C4.27923 95 3.53763 94.8923 2.89876 94.6768C2.25988 94.4613 1.72623 94.1481 1.30031 93.7373C0.871881 93.3264 0.548684 92.8228 0.330714 92.2265C0.110238 91.6302 0 90.9437 0 90.1721C0 89.2751 0.160346 88.4458 0.478533 87.6842C0.796719 86.92 1.24769 86.2611 1.82895 85.7049C2.4102 85.1487 3.11172 84.7128 3.93098 84.3996C4.75276 84.0839 5.65971 83.9261 6.65687 83.9261C7.45358 83.9261 8.15259 84.0238 8.75389 84.2192C9.35519 84.4146 9.85627 84.6927 10.2546 85.0535C10.653 85.4143 10.9536 85.8502 11.1566 86.3613C11.3595 86.8724 11.4622 87.4412 11.4622 88.0725C11.4622 88.744 11.3745 89.3428 11.2017 89.8639C11.0263 90.3875 10.7958 90.826 10.5052 91.1817C10.2145 91.5375 9.87631 91.8081 9.49048 91.991C9.10465 92.1739 8.70128 92.2641 8.27786 92.2641C7.88702 92.2641 7.57134 92.1939 7.33082 92.0536C7.0903 91.9133 6.92494 91.7229 6.83224 91.4824L6.80719 91.4699C6.69194 91.6202 6.55414 91.753 6.3963 91.8682C6.256 91.9684 6.08563 92.0586 5.8852 92.1413C5.68727 92.224 5.44926 92.2666 5.17617 92.2666C4.87803 92.2666 4.60494 92.219 4.36191 92.1238C4.11638 92.0286 3.90593 91.8883 3.72805 91.7004C3.55016 91.515 3.41236 91.2845 3.31716 91.0164C3.22195 90.7483 3.17435 90.4376 3.17435 90.0894C3.17435 89.5758 3.25452 89.1073 3.41737 88.6889C3.57772 88.2705 3.80321 87.9122 4.08632 87.6115C4.36943 87.3109 4.71518 87.0829 5.11604 86.9201C5.51691 86.7597 5.96287 86.677 6.45142 86.677C6.84978 86.677 7.17047 86.7146 7.42101 86.7898C7.66905 86.8649 7.85946 86.9426 7.99225 87.0253C8.13255 87.1155 8.23527 87.2132 8.29791 87.3184C8.36054 87.4211 8.38309 87.5614 8.36555 87.7368L8.14257 90.35L8.13005 90.3474ZM6.82473 87.8972C6.78214 87.8796 6.72952 87.8596 6.66188 87.8345C6.60425 87.817 6.5341 87.802 6.45643 87.7844C6.37626 87.7669 6.27855 87.7594 6.1608 87.7594C5.98542 87.7594 5.81505 87.802 5.64719 87.8846C5.47932 87.9673 5.33401 88.0951 5.20874 88.2705C5.08347 88.4433 4.98325 88.6638 4.90809 88.9294C4.83293 89.195 4.79535 89.5157 4.79535 89.889C4.79535 90.3049 4.87803 90.6055 5.04589 90.7909C5.21375 90.9788 5.42671 91.0715 5.68477 91.0715C5.83509 91.0715 5.96788 91.049 6.08062 91.0039C6.19337 90.9588 6.28857 90.9062 6.36373 90.8485C6.45643 90.7834 6.5341 90.7082 6.60175 90.6255L6.82473 87.8997V87.8972Z" fill="#764C25"/>
<path d="M34.2564 12.537C34.3767 12.6723 34.4769 12.7425 34.5521 12.75C34.6297 12.7575 34.6974 12.7274 34.7625 12.6573C34.8202 12.5946 34.8577 12.5145 34.8803 12.4168C34.9028 12.3191 34.8928 12.2063 34.8552 12.0785C34.8176 11.9508 34.745 11.8105 34.6373 11.6526C34.5295 11.4973 34.3767 11.3294 34.1788 11.1465C33.7604 10.7632 33.3294 10.5853 32.886 10.6104C32.4425 10.6379 32.0091 10.8809 31.5832 11.3444C31.3326 11.6175 31.1497 11.9107 31.0345 12.2264C30.9192 12.542 30.8691 12.8577 30.8842 13.1759C30.8992 13.4941 30.9794 13.8073 31.1272 14.1154C31.275 14.4236 31.4855 14.7042 31.7611 14.9547C32.2772 15.4258 32.7707 15.6563 33.2417 15.6462C33.7153 15.6337 34.1788 15.3782 34.6373 14.8796C34.77 14.7343 34.8778 14.599 34.9554 14.4787C35.0331 14.3585 35.0957 14.2482 35.1408 14.1555C35.1859 14.0628 35.221 13.9801 35.2511 13.9125C35.2811 13.8448 35.3137 13.7897 35.3488 13.7521C35.3939 13.7045 35.444 13.6795 35.5016 13.682C35.5592 13.6845 35.6119 13.707 35.657 13.7471C35.7146 13.7997 35.7472 13.8699 35.7497 13.9576C35.7522 14.0127 35.7396 14.0929 35.7121 14.1956C35.6845 14.2983 35.6394 14.4111 35.5768 14.5388C35.5142 14.6641 35.4365 14.7994 35.3388 14.9447C35.2436 15.09 35.1283 15.2353 34.993 15.3807C34.6899 15.7114 34.3817 15.9644 34.0685 16.1348C33.7554 16.3077 33.4422 16.4029 33.129 16.4229C32.8158 16.443 32.5027 16.3878 32.1895 16.2601C31.8763 16.1323 31.5706 15.9293 31.2675 15.6537C30.9167 15.3331 30.6512 14.9723 30.4658 14.5739C30.2829 14.1756 30.1852 13.7622 30.1751 13.3362C30.1651 12.9103 30.2478 12.4794 30.4182 12.046C30.5885 11.6125 30.8541 11.1991 31.2099 10.8108C31.4955 10.5001 31.7836 10.2621 32.0767 10.0968C32.3674 9.9314 32.6555 9.83619 32.9411 9.80863C33.2242 9.78108 33.5023 9.82116 33.7754 9.92388C34.0485 10.0266 34.3065 10.192 34.5546 10.4174C34.8176 10.658 35.0206 10.906 35.1609 11.1616C35.3037 11.4171 35.3914 11.6651 35.4265 11.9082C35.4615 12.1487 35.4465 12.3792 35.3789 12.5946C35.3112 12.8101 35.2035 13.003 35.0506 13.1684C34.9103 13.3212 34.77 13.4189 34.6297 13.4615C34.4894 13.5041 34.3541 13.5016 34.2264 13.4515L34.2113 13.4565C34.2289 13.5542 34.2314 13.6569 34.2189 13.7597C34.2063 13.8499 34.1813 13.9501 34.1437 14.0578C34.1036 14.1655 34.036 14.2733 33.9383 14.381C33.8305 14.4988 33.7153 14.5864 33.59 14.6491C33.4647 14.7117 33.3344 14.7418 33.1966 14.7468C33.0589 14.7493 32.9211 14.7217 32.7808 14.6616C32.6404 14.6015 32.5027 14.5113 32.3674 14.386C32.1669 14.2006 32.0116 14.0027 31.9064 13.7897C31.8011 13.5768 31.741 13.3613 31.726 13.1433C31.7109 12.9254 31.7435 12.7074 31.8262 12.4919C31.9064 12.2765 32.0341 12.0735 32.2095 11.8831C32.3523 11.7278 32.4826 11.615 32.6004 11.5449C32.7181 11.4747 32.8183 11.4296 32.8985 11.4071C32.9837 11.3845 33.0589 11.3795 33.1215 11.3921C33.1841 11.4046 33.2468 11.4447 33.3094 11.5148L34.2514 12.5395L34.2564 12.537ZM32.8309 12.1712C32.8108 12.1813 32.7833 12.1963 32.7482 12.2113C32.7206 12.2289 32.6906 12.2489 32.6555 12.274C32.6204 12.299 32.5828 12.3341 32.5402 12.3817C32.4776 12.4493 32.4325 12.532 32.4049 12.6272C32.3774 12.7224 32.3749 12.8251 32.3999 12.9379C32.425 13.0506 32.4726 13.1659 32.5503 13.2912C32.6279 13.4164 32.7382 13.5442 32.886 13.6795C33.0488 13.8273 33.1966 13.9025 33.3294 13.905C33.4622 13.905 33.575 13.8574 33.6677 13.7547C33.7203 13.697 33.7604 13.6369 33.7829 13.5768C33.8055 13.5166 33.818 13.4615 33.823 13.4114C33.8305 13.3513 33.828 13.2937 33.8205 13.2385L32.8359 12.1737L32.8309 12.1712Z" fill="#764C25"/>
<path d="M37.9393 10.8559C38.0897 10.7407 38.1723 10.5954 38.1924 10.4225C38.2124 10.2496 38.1548 10.0742 38.0195 9.90136C37.9494 9.81116 37.8692 9.74101 37.779 9.6909C37.6888 9.64079 37.5861 9.61574 37.4733 9.61323C37.3606 9.61073 37.2378 9.63829 37.105 9.69341C36.9723 9.74853 36.8294 9.83622 36.6766 9.95397C36.5964 10.0166 36.5113 10.0392 36.4211 10.0241C36.3309 10.0091 36.2507 9.95647 36.1831 9.86628C36.148 9.82118 36.1279 9.7811 36.1254 9.74101C36.1229 9.70092 36.1254 9.66835 36.1354 9.63829C36.1455 9.60822 36.168 9.57565 36.2006 9.53807C36.2332 9.50049 36.2858 9.45539 36.3559 9.40278C36.4687 9.31509 36.5564 9.2274 36.6215 9.1347C36.6866 9.042 36.7292 8.9493 36.7468 8.8566C36.7643 8.7639 36.7618 8.67371 36.7367 8.58351C36.7117 8.49332 36.6691 8.40813 36.6065 8.32796C36.5113 8.2052 36.3935 8.14006 36.2482 8.13003C36.1054 8.12001 35.9576 8.17513 35.8072 8.29038C35.7421 8.34049 35.6845 8.3931 35.6419 8.44822C35.5968 8.50083 35.5567 8.55345 35.5216 8.60356C35.4865 8.65116 35.4565 8.69626 35.4289 8.73885C35.4014 8.78144 35.3713 8.8115 35.3412 8.83656C35.2811 8.88166 35.2185 8.9017 35.1508 8.89168C35.0832 8.88166 35.0256 8.84909 34.9805 8.78896C34.9354 8.72883 34.9178 8.66118 34.9278 8.58101C34.9454 8.45073 35.008 8.3004 35.1233 8.12502C35.236 7.95215 35.3964 7.78429 35.6068 7.62144C35.7747 7.49366 35.935 7.39845 36.0904 7.34083C36.2457 7.28321 36.391 7.25565 36.5263 7.25815C36.6616 7.26066 36.7869 7.29573 36.9021 7.36087C37.0174 7.42601 37.1176 7.5137 37.2028 7.62645C37.2729 7.71664 37.328 7.81435 37.3656 7.91958C37.4057 8.02481 37.4282 8.13254 37.4358 8.24278C37.4433 8.35301 37.4358 8.46325 37.4107 8.57099C37.3856 8.67872 37.3431 8.78144 37.2854 8.87664L37.2904 8.88166C37.4132 8.82403 37.536 8.78645 37.6587 8.76891C37.779 8.74887 37.8993 8.75388 38.017 8.77893C38.1348 8.80399 38.2475 8.85159 38.3577 8.92174C38.468 8.99189 38.5682 9.0871 38.6609 9.20485C38.7862 9.3677 38.8739 9.54559 38.924 9.73349C38.9741 9.9239 38.9791 10.1143 38.944 10.3097C38.9089 10.5027 38.8288 10.6956 38.7085 10.8835C38.5882 11.0714 38.4229 11.2468 38.2124 11.4096C38.0671 11.5224 37.9293 11.605 37.8015 11.6602C37.6738 11.7153 37.5585 11.7428 37.4558 11.7478C37.3531 11.7529 37.2629 11.7353 37.1852 11.7027C37.1075 11.6677 37.0449 11.6201 36.9973 11.5574C36.9297 11.4697 36.9021 11.3821 36.9121 11.2894C36.9221 11.1992 36.9647 11.124 37.0424 11.0639C37.09 11.0263 37.1476 11.0087 37.2103 11.0087C37.2729 11.0087 37.3431 11.0138 37.4207 11.0163C37.4984 11.0213 37.5811 11.0138 37.6688 10.9962C37.7564 10.9787 37.8491 10.9311 37.9494 10.8534L37.9393 10.8559Z" fill="#764C25"/>
<path d="M39.0668 7.93461C38.8739 7.60389 38.7461 7.29072 38.681 6.99257C38.6183 6.69694 38.6058 6.42134 38.6484 6.1708C38.691 5.92026 38.7812 5.69477 38.9215 5.49935C39.0618 5.30142 39.2397 5.14108 39.4576 5.0133C39.6906 4.87801 39.9211 4.79283 40.1516 4.75775C40.3821 4.72268 40.6076 4.74773 40.8281 4.8279C41.0486 4.91058 41.2691 5.05339 41.482 5.26134C41.695 5.46929 41.9029 5.73987 42.1034 6.08311C42.2963 6.41383 42.4265 6.727 42.4892 7.02765C42.5543 7.32579 42.5643 7.60139 42.5243 7.85193C42.4817 8.10247 42.3915 8.32796 42.2512 8.52338C42.1109 8.7188 41.9305 8.88165 41.715 9.00943C41.482 9.14472 41.2515 9.2299 41.021 9.26498C40.7905 9.30005 40.565 9.27751 40.3446 9.19483C40.1241 9.11215 39.9036 8.96934 39.6906 8.7639C39.4752 8.55845 39.2672 8.28286 39.0668 7.93711V7.93461ZM39.841 7.42851C39.9988 7.6991 40.1516 7.91456 40.302 8.0724C40.4523 8.23275 40.5951 8.348 40.7304 8.42316C40.8682 8.49582 40.9935 8.53089 41.1112 8.52839C41.229 8.52588 41.3367 8.49582 41.4369 8.43819C41.5321 8.38307 41.6098 8.30541 41.6699 8.20519C41.73 8.10497 41.7626 7.98221 41.7651 7.83189C41.7651 7.68407 41.7351 7.50618 41.6674 7.30074C41.5998 7.0953 41.4895 6.85728 41.3317 6.5867C41.1738 6.31611 41.021 6.10315 40.8707 5.94281C40.7204 5.78246 40.5801 5.66721 40.4448 5.59706C40.3095 5.52691 40.1817 5.49184 40.0614 5.49685C39.9412 5.49935 39.8335 5.52942 39.7408 5.58454C39.643 5.64216 39.5629 5.71983 39.5052 5.81754C39.4451 5.91525 39.415 6.04052 39.4125 6.18834C39.4125 6.33616 39.4426 6.51404 39.5078 6.71698C39.5729 6.91992 39.6856 7.15793 39.8435 7.42601L39.841 7.42851Z" fill="#764C25"/>
<path d="M46.6757 3.7531C46.6582 3.7531 46.6406 3.75561 46.6206 3.75811C46.6031 3.75811 46.5805 3.76312 46.5555 3.76813C46.5279 3.77314 46.5003 3.78066 46.4678 3.79319C46.2623 3.86584 46.1145 4.00865 46.0318 4.22662C45.9466 4.44459 45.9692 4.73272 46.0945 5.09349C46.2122 5.42922 46.37 5.6522 46.573 5.75993C46.7759 5.86766 47.0064 5.87769 47.267 5.78749C47.3421 5.76244 47.4048 5.73488 47.4549 5.70481C47.505 5.67475 47.5501 5.64719 47.5902 5.62213C47.6303 5.59708 47.6653 5.57203 47.6979 5.54948C47.7305 5.52693 47.7606 5.50939 47.7881 5.49937C47.8533 5.47682 47.9134 5.47933 47.9635 5.50438C48.0136 5.53194 48.0512 5.57954 48.0762 5.64969C48.1038 5.72736 48.0963 5.81004 48.0562 5.89522C48.0336 5.94032 48.0011 5.98792 47.956 6.04054C47.9109 6.09315 47.8558 6.14576 47.7881 6.19587C47.7205 6.24849 47.6403 6.29859 47.5501 6.3487C47.4599 6.39881 47.3597 6.44391 47.2469 6.48149C46.7885 6.63933 46.3851 6.63432 46.0293 6.46145C45.6761 6.28857 45.418 5.96788 45.2551 5.49686C45.165 5.2363 45.1224 4.98075 45.1299 4.73773C45.1374 4.4922 45.19 4.26922 45.2852 4.06628C45.3804 3.86334 45.5157 3.68546 45.6936 3.53012C45.8715 3.37478 46.0844 3.25453 46.3325 3.16684C46.5229 3.1017 46.6782 3.06662 46.7935 3.06662C46.9087 3.06662 47.0039 3.08416 47.0766 3.11923C47.1217 3.14178 47.1593 3.17686 47.1943 3.22446C47.2269 3.27457 47.2695 3.36977 47.3171 3.51008L47.3371 3.5652C47.3572 3.62282 47.3747 3.67293 47.3897 3.71552C47.4048 3.75811 47.4248 3.82325 47.4524 3.91846C47.4774 4.00615 47.4774 4.0788 47.4474 4.13392C47.4173 4.18904 47.3672 4.22913 47.297 4.25168C47.2269 4.27673 47.1643 4.27423 47.1066 4.24917C47.049 4.22412 46.9939 4.17401 46.9363 4.10135L46.6757 3.75561V3.7531Z" fill="#764C25"/>
<path d="M48.5924 4.33184C48.5347 4.06627 48.5247 3.81322 48.5623 3.57772C48.5999 3.34221 48.6775 3.13175 48.7978 2.94385C48.9181 2.75594 49.0734 2.5981 49.2688 2.46782C49.4642 2.33754 49.6897 2.24484 49.9478 2.18972C50.4338 2.08449 50.8447 2.14212 51.1804 2.36009C51.5162 2.57806 51.7366 2.94134 51.8444 3.44242C51.902 3.708 51.9145 3.96104 51.8795 4.19405C51.8469 4.42705 51.7717 4.64001 51.654 4.82541C51.5362 5.01331 51.3784 5.17115 51.1829 5.30144C50.985 5.43172 50.7545 5.52442 50.4864 5.58204C50.0004 5.68476 49.5895 5.62964 49.2538 5.40917C48.9181 5.1912 48.6976 4.83042 48.5899 4.32683L48.5924 4.33184ZM49.4743 4.03621C49.5118 4.2166 49.567 4.37193 49.6371 4.4972C49.7073 4.62247 49.7849 4.72519 49.8701 4.79785C49.9553 4.87051 50.0505 4.92061 50.1507 4.94316C50.2534 4.96571 50.3537 4.96822 50.4589 4.94316C50.6643 4.89807 50.8222 4.77781 50.9249 4.58238C51.0301 4.38696 51.0426 4.10636 50.965 3.74057C50.9274 3.56018 50.8723 3.40484 50.8021 3.27957C50.732 3.1518 50.6543 3.05158 50.5691 2.97892C50.4839 2.90627 50.3912 2.85616 50.2885 2.83361C50.1858 2.81106 50.0856 2.80856 49.9804 2.83361C49.7749 2.87871 49.6171 2.99897 49.5143 3.19439C49.4091 3.38981 49.3966 3.67042 49.4743 4.03621Z" fill="#764C25"/>
<path d="M53.0921 2.37013L52.8416 2.39518C52.6436 2.41523 52.5384 2.33756 52.5209 2.16218C52.5108 2.05695 52.5334 1.96927 52.591 1.89911C52.6486 1.82896 52.7363 1.78888 52.8541 1.77635L53.032 1.75881L53.0169 1.60849C52.9743 1.17004 53.0595 0.819284 53.2775 0.558721C53.4955 0.295654 53.8312 0.142824 54.2872 0.0977265C54.4149 0.0851995 54.5277 0.0851995 54.6254 0.100232C54.7231 0.115264 54.7958 0.140318 54.8384 0.175394C54.8584 0.190427 54.8734 0.207964 54.886 0.222997C54.8985 0.238029 54.911 0.260578 54.9235 0.288137C54.9361 0.315697 54.9461 0.350773 54.9536 0.398375C54.9636 0.443473 54.9711 0.501097 54.9787 0.571248L54.9837 0.623862C54.9887 0.668959 54.9912 0.70654 54.9962 0.741616C54.9987 0.776692 55.0037 0.831811 55.0062 0.906973C55.0087 0.989651 54.9912 1.05479 54.9511 1.09738C54.911 1.14248 54.8534 1.16754 54.7807 1.17505C54.7081 1.18257 54.6454 1.16754 54.5978 1.12995C54.5502 1.09237 54.5051 1.03224 54.4676 0.947059L54.3648 0.719067C54.3648 0.719067 54.3448 0.719067 54.3323 0.716562C54.3197 0.714056 54.3022 0.711551 54.2847 0.711551C54.2671 0.711551 54.2471 0.711551 54.2245 0.714056C54.0968 0.726584 54.0041 0.774186 53.9464 0.856865C53.8888 0.939543 53.8688 1.07484 53.8888 1.26525L53.9289 1.67112L54.3949 1.62602C54.5928 1.60598 54.6981 1.68365 54.7181 1.85903C54.7281 1.96927 54.7056 2.05695 54.6505 2.1246C54.5953 2.19225 54.5051 2.23233 54.3849 2.24486L53.9915 2.28495L54.1945 4.31433L54.5177 4.36694C54.6154 4.38448 54.6855 4.40953 54.7256 4.44711C54.7632 4.48219 54.7883 4.53731 54.7958 4.61247C54.8033 4.69264 54.7807 4.76029 54.7306 4.81791C54.6805 4.87554 54.6029 4.91061 54.5026 4.92063L53.1572 5.05593C53.057 5.06595 52.9743 5.04841 52.9142 5.00081C52.8516 4.9532 52.8165 4.89057 52.809 4.8129C52.8015 4.73774 52.814 4.68012 52.8441 4.64003C52.8741 4.59994 52.9368 4.55986 53.032 4.51977L53.305 4.40703L53.1021 2.37765L53.0921 2.37013Z" fill="#764C25"/>
<path d="M55.9607 2.16467L55.7102 2.16968C55.5123 2.17219 55.4121 2.087 55.4095 1.91163C55.4095 1.8064 55.4396 1.72121 55.5022 1.65607C55.5649 1.59093 55.6551 1.55836 55.7753 1.55586H55.9532L55.9507 1.40052C55.9432 0.959571 56.0584 0.618835 56.2965 0.375811C56.5345 0.132787 56.8827 0.00751622 57.3412 0C57.469 0 57.5817 0.00751622 57.6794 0.0300649C57.7772 0.0526135 57.8448 0.0826784 57.8849 0.122765C57.9024 0.140303 57.9175 0.157841 57.9275 0.175378C57.94 0.192916 57.95 0.215465 57.9575 0.243024C57.9676 0.270584 57.9751 0.308165 57.9801 0.355768C57.9851 0.400865 57.9876 0.460995 57.9901 0.531146V0.58376C57.9901 0.628857 57.9901 0.666438 57.9926 0.701514C57.9926 0.736589 57.9926 0.791708 57.9876 0.866871C57.9851 0.949549 57.96 1.01218 57.9175 1.05227C57.8749 1.09236 57.8147 1.1124 57.7396 1.11491C57.6644 1.11491 57.6043 1.09737 57.5592 1.05478C57.5141 1.01218 57.4765 0.949549 57.4439 0.86186L57.3613 0.626352C57.3613 0.626352 57.3412 0.626352 57.3287 0.621341C57.3162 0.61633 57.2986 0.613825 57.2811 0.611319C57.2635 0.611319 57.2435 0.608814 57.221 0.611319C57.0932 0.611319 56.998 0.653911 56.9328 0.731579C56.8677 0.809246 56.8376 0.942033 56.8401 1.13244L56.8476 1.54082L57.3162 1.53331C57.5141 1.5308 57.6143 1.61599 57.6168 1.79137C57.6168 1.9016 57.5892 1.98679 57.5291 2.04942C57.469 2.11206 57.3763 2.14463 57.2535 2.14713L56.8577 2.15465L56.8902 4.19405L57.2084 4.27422C57.3061 4.29928 57.3713 4.33185 57.4089 4.36943C57.4439 4.40952 57.464 4.46463 57.464 4.5398C57.464 4.61997 57.4364 4.68511 57.3813 4.73772C57.3262 4.79034 57.246 4.8204 57.1458 4.8204L55.7929 4.84295C55.6927 4.84295 55.6125 4.8204 55.5549 4.76779C55.4972 4.71518 55.4672 4.65003 55.4672 4.56986C55.4672 4.4947 55.4822 4.43958 55.5173 4.402C55.5524 4.36442 55.6175 4.32934 55.7127 4.29677L55.9958 4.20658L55.9632 2.16718L55.9607 2.16467Z" fill="#764C25"/>
<path d="M59.2654 3.40988C59.2679 3.71053 59.3456 3.94604 59.4959 4.11641C59.6462 4.28677 59.8692 4.38699 60.1674 4.41455C60.2676 4.42457 60.3553 4.42457 60.4279 4.41956C60.5006 4.41204 60.5657 4.40453 60.6233 4.39701C60.6785 4.38949 60.7286 4.37947 60.7712 4.37196C60.8138 4.36193 60.8538 4.35943 60.8939 4.36444C60.9641 4.37196 61.0167 4.39701 61.0518 4.44211C61.0868 4.48721 61.1019 4.54733 61.0944 4.6225C61.0893 4.66509 61.0793 4.70518 61.0618 4.73775C61.0442 4.77032 61.0142 4.80539 60.9766 4.83546C60.8964 4.9031 60.7611 4.96073 60.5732 5.01084C60.3853 5.06094 60.1473 5.07096 59.8567 5.04341C59.5986 5.02086 59.3706 4.96323 59.1727 4.87053C58.9748 4.78034 58.8144 4.65757 58.6892 4.50725C58.5639 4.35692 58.4737 4.17653 58.4211 3.96859C58.3685 3.76064 58.3534 3.52763 58.376 3.26958C58.401 2.98897 58.4662 2.74094 58.5664 2.52798C58.6666 2.31502 58.7969 2.13713 58.9572 1.99683C59.1151 1.85653 59.3005 1.75381 59.5084 1.69117C59.7164 1.62603 59.9444 1.60599 60.1899 1.62854C60.6008 1.66612 60.9115 1.81143 61.1219 2.06698C61.3299 2.32003 61.415 2.66577 61.375 3.10422C61.3599 3.26958 61.3098 3.39234 61.2221 3.4675C61.1344 3.54267 61.0192 3.57524 60.8764 3.56271L59.2654 3.41489V3.40988ZM60.5031 3.01403C60.5181 2.75597 60.4805 2.56305 60.3928 2.44029C60.3052 2.31752 60.1824 2.24737 60.0245 2.23484C59.8542 2.21981 59.7064 2.26992 59.5861 2.38767C59.4658 2.50543 59.3782 2.6783 59.3255 2.90629L60.5031 3.01403Z" fill="#764C25"/>
<path d="M63.1162 3.93099C63.0837 4.22913 63.1287 4.47466 63.2565 4.66006C63.3843 4.84797 63.5948 4.97324 63.8879 5.03838C63.9856 5.06093 64.0733 5.07095 64.1459 5.07345C64.2186 5.07596 64.2837 5.07596 64.3414 5.07345C64.3965 5.07345 64.4466 5.07095 64.4917 5.06594C64.5343 5.06343 64.5769 5.06594 64.6145 5.07345C64.6821 5.08849 64.7322 5.12106 64.7623 5.16866C64.7923 5.21877 64.7999 5.2789 64.7823 5.35156C64.7723 5.39415 64.7573 5.43173 64.7347 5.46179C64.7122 5.49186 64.6796 5.52192 64.637 5.54948C64.5468 5.60711 64.4065 5.64719 64.2136 5.67475C64.0207 5.69981 63.7827 5.68227 63.4995 5.61963C63.2465 5.56451 63.026 5.47933 62.8431 5.36408C62.6577 5.24883 62.5124 5.10853 62.4072 4.94317C62.302 4.77782 62.2343 4.58991 62.2068 4.37695C62.1792 4.16399 62.1917 3.93099 62.2494 3.67544C62.3095 3.39984 62.4022 3.16183 62.53 2.9639C62.6577 2.76347 62.8081 2.60312 62.9834 2.48537C63.1588 2.36762 63.3542 2.28744 63.5697 2.24736C63.7852 2.20977 64.0132 2.21479 64.2537 2.2674C64.657 2.35509 64.9477 2.53798 65.1231 2.81608C65.2984 3.09418 65.341 3.44745 65.2458 3.87587C65.2107 4.03872 65.1456 4.15397 65.0504 4.21911C64.9552 4.28425 64.8374 4.30179 64.6946 4.26922L63.1137 3.92347L63.1162 3.93099ZM64.3915 3.68796C64.4391 3.43241 64.4266 3.2395 64.3539 3.1042C64.2812 2.97142 64.1685 2.88874 64.0132 2.85366C63.8453 2.81608 63.695 2.84865 63.5597 2.95138C63.4244 3.0541 63.3192 3.21444 63.239 3.43492L64.394 3.68546L64.3915 3.68796Z" fill="#764C25"/>
<path d="M68.2824 6.38877C68.3125 6.42134 68.3476 6.4514 68.3852 6.48147C68.4227 6.50652 68.4678 6.53659 68.5229 6.56916C68.5781 6.60173 68.6432 6.6343 68.7159 6.66436C68.8988 6.74203 69.0366 6.76458 69.1343 6.73702C69.2295 6.70946 69.2971 6.64683 69.3372 6.55413C69.3748 6.46393 69.3648 6.37875 69.3121 6.29356C69.257 6.20838 69.1819 6.12069 69.0842 6.02799C68.9864 5.93529 68.8787 5.84008 68.7635 5.73486C68.6482 5.63214 68.5455 5.51939 68.4628 5.39663C68.3801 5.27386 68.32 5.14358 68.2899 4.99827C68.2599 4.85546 68.2824 4.69261 68.3576 4.51472C68.4102 4.38945 68.4879 4.27922 68.5881 4.18902C68.6883 4.09883 68.8111 4.03369 68.9539 3.9961C69.0967 3.95852 69.2646 3.95101 69.45 3.97105C69.6354 3.99109 69.8433 4.05122 70.0688 4.14643C70.3118 4.24915 70.4872 4.34686 70.5949 4.43956C70.7026 4.53226 70.7703 4.60742 70.7928 4.66505C70.8104 4.71015 70.8179 4.76025 70.8129 4.81036C70.8079 4.86047 70.7878 4.93062 70.7503 5.02082L70.7377 5.05088C70.7177 5.09598 70.7001 5.13857 70.6851 5.17866C70.6676 5.21874 70.6475 5.26134 70.625 5.30393C70.5849 5.37658 70.5348 5.42419 70.4772 5.44172C70.4195 5.45926 70.3569 5.45425 70.2868 5.42669C70.2166 5.39663 70.1715 5.35654 70.149 5.30393C70.1264 5.25131 70.1164 5.18116 70.1189 5.09097L70.1314 4.88803C70.0989 4.86548 70.0613 4.83792 70.0212 4.80535C69.9886 4.7828 69.9485 4.75524 69.9009 4.72518C69.8533 4.69511 69.8007 4.66755 69.7381 4.6425C69.5677 4.56984 69.4449 4.54729 69.3673 4.57235C69.2896 4.5974 69.2345 4.65002 69.1994 4.73019C69.1643 4.81036 69.1769 4.89304 69.232 4.97572C69.2871 5.0584 69.3648 5.14358 69.4625 5.23378C69.5602 5.32146 69.6679 5.41918 69.7857 5.5219C69.9009 5.62462 70.0011 5.73987 70.0863 5.86263C70.1715 5.9854 70.2266 6.12069 70.2542 6.27101C70.2817 6.41883 70.2592 6.58419 70.1815 6.76708C70.1264 6.89987 70.0437 7.01512 69.9385 7.10782C69.8333 7.20052 69.7055 7.26817 69.5552 7.30825C69.4049 7.34834 69.232 7.35586 69.0341 7.33581C68.8361 7.31577 68.6182 7.25564 68.3852 7.15542C68.1271 7.04769 67.9392 6.94246 67.8239 6.83974C67.7087 6.73953 67.641 6.65935 67.616 6.60173C67.5985 6.55413 67.5909 6.50652 67.5959 6.45641C67.601 6.40631 67.621 6.33615 67.6586 6.24596L67.6761 6.20337C67.6937 6.15827 67.7137 6.11568 67.7287 6.07559C67.7438 6.03551 67.7663 5.99291 67.7889 5.95032C67.829 5.87767 67.8791 5.83006 67.9367 5.81252C67.9943 5.79499 68.0569 5.8 68.1271 5.82756C68.1947 5.85762 68.2423 5.89771 68.2649 5.95032C68.2874 6.00294 68.2975 6.07309 68.2924 6.16328L68.2799 6.38125L68.2824 6.38877Z" fill="#764C25"/>
<path d="M72.0304 5.82503L71.8325 5.71729C71.6546 5.61958 71.607 5.49431 71.6922 5.33898C71.7423 5.24628 71.8099 5.18615 71.8976 5.16109C71.9828 5.13604 72.0805 5.15107 72.1833 5.2087L72.3386 5.29388L72.6668 4.93811C72.767 4.82787 72.8622 4.76023 72.9549 4.73517C73.0451 4.71012 73.1478 4.72766 73.2606 4.78779C73.3483 4.83539 73.4059 4.89552 73.4259 4.96567C73.4485 5.03582 73.436 5.11349 73.3909 5.19867L73.1102 5.71479L73.6088 5.98537C73.7817 6.08058 73.8268 6.20334 73.7441 6.35868C73.6915 6.45639 73.6239 6.51652 73.5412 6.54157C73.4585 6.56663 73.3608 6.54909 73.2531 6.48896L72.8171 6.25345L72.1006 7.56879C72.0004 7.75419 71.9553 7.8995 71.9703 8.00222C71.9853 8.10495 72.0404 8.18512 72.1432 8.23773C72.2158 8.27782 72.2785 8.30287 72.3261 8.3154C72.3737 8.32793 72.4213 8.34546 72.4639 8.36801C72.519 8.39808 72.5515 8.43566 72.5641 8.48577C72.5766 8.53588 72.5666 8.59099 72.534 8.65363C72.5115 8.69622 72.4814 8.7313 72.4438 8.75886C72.4062 8.78642 72.3636 8.80646 72.316 8.82149C72.2634 8.83652 72.1707 8.83903 72.0379 8.82901C71.9051 8.81648 71.7448 8.75886 71.5494 8.65363C71.2512 8.49078 71.0859 8.29536 71.0483 8.06987C71.0107 7.84188 71.0683 7.58883 71.2212 7.31073L72.0279 5.82753L72.0304 5.82503Z" fill="#764C25"/>
<path d="M75.5656 8.77644C75.7159 8.55847 75.7811 8.38309 75.7635 8.2478C75.746 8.11251 75.6433 7.97972 75.4529 7.84693C75.3476 7.77428 75.2524 7.71665 75.1647 7.67657C75.0796 7.63648 75.0019 7.6014 74.9342 7.57635C74.8666 7.55129 74.8065 7.52875 74.7564 7.51371C74.7062 7.49618 74.6637 7.47864 74.6311 7.45609C74.5684 7.4135 74.5334 7.35838 74.5208 7.29073C74.5083 7.22309 74.5259 7.15795 74.571 7.09281C74.611 7.03518 74.6712 6.9976 74.7513 6.98507C74.8065 6.97505 74.8791 6.97505 74.9668 6.99008C75.0545 7.00261 75.1547 7.02766 75.265 7.06525C75.3752 7.10283 75.4954 7.15043 75.6207 7.21056C75.746 7.27069 75.8763 7.34836 76.0065 7.43855C76.3924 7.70663 76.6154 7.9722 76.6755 8.23527C76.7331 8.49834 76.6529 8.79147 76.4275 9.11216C76.2796 9.32512 76.1343 9.53057 75.9915 9.72849C75.8487 9.92642 75.7009 10.1569 75.5456 10.42L75.7285 10.5954C75.7936 10.6555 75.8287 10.7131 75.8337 10.7682C75.8387 10.8234 75.8186 10.881 75.7761 10.9411C75.7335 11.0012 75.6834 11.0388 75.6282 11.0513C75.5706 11.0639 75.5005 11.0589 75.4153 11.0363C75.3251 11.0113 75.2324 10.9762 75.1347 10.9336C75.037 10.891 74.9342 10.8309 74.8315 10.7582C74.7062 10.6705 74.6336 10.5778 74.6161 10.4776C74.5985 10.3774 74.6311 10.2697 74.7113 10.1544L74.7313 10.1269L74.7238 10.1143C74.6286 10.1594 74.5234 10.187 74.4106 10.1945C74.3129 10.202 74.2002 10.1945 74.0699 10.1644C73.9396 10.1344 73.8018 10.0692 73.6515 9.96651C73.5212 9.87631 73.416 9.77359 73.3358 9.65584C73.2556 9.53808 73.203 9.41782 73.1729 9.29255C73.1429 9.16728 73.1429 9.04201 73.1679 8.91674C73.193 8.78897 73.2456 8.67372 73.3208 8.56348C73.3959 8.45575 73.4911 8.37056 73.6039 8.31043C73.7166 8.2503 73.8469 8.22024 73.9947 8.22274C74.14 8.22274 74.3029 8.26032 74.4833 8.32797C74.6637 8.39562 74.8591 8.50335 75.067 8.64866C75.1246 8.68875 75.1748 8.72633 75.2199 8.76391C75.265 8.79899 75.3025 8.83156 75.3376 8.86162C75.3752 8.89169 75.4103 8.92175 75.4428 8.95182L75.5631 8.77894L75.5656 8.77644ZM75.1497 9.36521C75.1272 9.34266 75.1021 9.31761 75.0745 9.28754C75.047 9.26499 75.0144 9.23493 74.9768 9.20236C74.9367 9.16979 74.8916 9.13471 74.8415 9.09964C74.6561 8.97186 74.5058 8.90421 74.3906 8.8992C74.2753 8.89419 74.1876 8.93428 74.1275 9.02197C74.0674 9.10966 74.0498 9.20737 74.0749 9.3151C74.0999 9.42283 74.1701 9.51804 74.2853 9.59821C74.3605 9.65083 74.4357 9.68841 74.5083 9.70845C74.581 9.72849 74.6461 9.74102 74.7037 9.74353C74.7714 9.74854 74.8365 9.74353 74.8967 9.7335L75.1522 9.36521H75.1497Z" fill="#764C25"/>
<path d="M78.0609 9.88131L77.8831 9.62826C77.8329 9.5531 77.8079 9.48796 77.8079 9.43284C77.8079 9.37772 77.8329 9.32511 77.8831 9.26999C77.9357 9.21237 77.9908 9.1798 78.0484 9.17479C78.106 9.16977 78.1737 9.18731 78.2564 9.2274C78.3415 9.26999 78.4342 9.32511 78.5345 9.39276C78.6347 9.4604 78.7249 9.53055 78.805 9.60571C78.9278 9.71846 78.9904 9.82118 78.9954 9.91639C79.0005 10.0091 78.9504 10.1118 78.8451 10.2271L78.7875 10.2897L78.7925 10.3022C78.9002 10.2646 79.0155 10.2471 79.1358 10.2496C79.2385 10.2546 79.3562 10.2797 79.4915 10.3248C79.6268 10.3699 79.7646 10.4601 79.9124 10.5954C80.193 10.8534 80.3383 11.134 80.3459 11.4297C80.3534 11.7253 80.2156 12.0284 79.9325 12.3366L78.9478 13.4064L79.0781 13.6344C79.1257 13.7196 79.1483 13.7897 79.1483 13.8424C79.1483 13.895 79.1207 13.9501 79.0706 14.0052C79.018 14.0628 78.9504 14.0929 78.8727 14.0929C78.795 14.0929 78.7199 14.0603 78.6447 13.9902L77.7427 13.1584C77.6676 13.0907 77.6275 13.0156 77.6225 12.9404C77.615 12.8627 77.64 12.7951 77.6926 12.7375C77.7427 12.6824 77.7954 12.6523 77.848 12.6473C77.9006 12.6423 77.9707 12.6598 78.0609 12.6999L78.2889 12.8026L79.1282 11.8906C79.3287 11.6752 79.4289 11.4848 79.4339 11.3244C79.4389 11.1641 79.3662 11.0138 79.2159 10.8785C79.1408 10.8108 79.0656 10.7607 78.9854 10.7331C78.9053 10.7056 78.8351 10.6881 78.7675 10.6805C78.6898 10.6755 78.6171 10.6755 78.547 10.6855L77.3719 11.9633L77.4922 12.1813C77.5398 12.2665 77.5624 12.3366 77.5624 12.3892C77.5624 12.4418 77.5348 12.497 77.4847 12.5521C77.4321 12.6097 77.3644 12.6398 77.2868 12.6398C77.2091 12.6398 77.1339 12.6047 77.0588 12.537L76.1268 11.6802C76.0516 11.6125 76.0115 11.5374 76.0065 11.4622C75.999 11.3846 76.024 11.3169 76.0766 11.2593C76.1268 11.2042 76.1794 11.1741 76.2295 11.1716C76.2796 11.1691 76.3522 11.1866 76.4449 11.2317L76.7105 11.362L78.0609 9.89634V9.88131Z" fill="#764C25"/>
<path d="M83.7883 13.7372L83.648 13.4591C83.6104 13.3764 83.5929 13.3087 83.6004 13.2561C83.6079 13.2035 83.6405 13.1509 83.6981 13.1033C83.7582 13.0532 83.8184 13.0306 83.8735 13.0306C83.9286 13.0331 83.9962 13.0607 84.0714 13.1108C84.1491 13.1659 84.2343 13.2336 84.322 13.3138C84.4096 13.3939 84.4948 13.4841 84.575 13.5843C84.7003 13.7372 84.7579 13.8649 84.7479 13.9677C84.7379 14.0704 84.6552 14.1831 84.5023 14.3084L81.6913 16.6059L81.8266 16.8439C81.8692 16.924 81.8867 16.9892 81.8767 17.0418C81.8692 17.0944 81.8341 17.1445 81.7765 17.1921C81.7188 17.2397 81.6612 17.2623 81.6036 17.2573C81.546 17.2522 81.4783 17.2272 81.4032 17.1821C81.323 17.1345 81.2428 17.0744 81.1601 17.0042C81.0775 16.9341 80.9998 16.8539 80.9246 16.7612C80.8269 16.6434 80.7843 16.5332 80.7968 16.4305C80.8094 16.3303 80.8695 16.2351 80.9772 16.1474L81.0449 16.0922V16.0772C80.9296 16.0998 80.8144 16.1023 80.6941 16.0797C80.5889 16.0622 80.4736 16.0221 80.3509 15.957C80.2281 15.8918 80.1003 15.7816 79.9751 15.6287C79.7295 15.3281 79.6343 15.0074 79.6844 14.6642C79.7371 14.3209 79.9701 13.9802 80.386 13.6395C80.6114 13.4566 80.8394 13.3238 81.0674 13.2436C81.2979 13.1634 81.5234 13.1359 81.7464 13.1584C81.9694 13.181 82.1873 13.2561 82.3978 13.3814C82.6083 13.5067 82.8087 13.6846 82.9941 13.9125C83.0267 13.9526 83.0542 13.9902 83.0793 14.0253C83.1018 14.0604 83.1244 14.0929 83.1419 14.123C83.1594 14.1581 83.177 14.1906 83.192 14.2182H83.2096C83.2446 14.1856 83.2797 14.1531 83.3173 14.118C83.3549 14.0854 83.4025 14.0428 83.4601 13.9952L83.7833 13.7322L83.7883 13.7372ZM82.6408 14.6767C82.6358 14.6341 82.6233 14.5915 82.6083 14.5414C82.5932 14.4963 82.5732 14.4462 82.5431 14.3886C82.513 14.3309 82.4755 14.2733 82.4254 14.2132C82.27 14.0228 82.0796 13.9251 81.8566 13.9201C81.6337 13.915 81.3656 14.0378 81.0574 14.2934C80.7793 14.5214 80.619 14.7343 80.5789 14.9347C80.5413 15.1352 80.5814 15.3081 80.7041 15.4584C80.7693 15.536 80.8369 15.5962 80.9096 15.6363C80.9822 15.6763 81.0499 15.7039 81.115 15.7214C81.1902 15.739 81.2654 15.7465 81.338 15.744L82.6408 14.6792V14.6767Z" fill="#764C25"/>
<path d="M61.1319 39.2547C54.3673 39.2547 48.883 33.7704 48.883 27.0058C48.883 25.8207 49.0509 24.6758 49.3665 23.5909C44.263 25.0691 40.53 29.7768 40.53 35.3588C40.53 42.1234 46.0143 47.6077 52.7789 47.6077C58.3584 47.6077 63.0686 43.8747 64.5468 38.7712C63.462 39.0843 62.317 39.2547 61.1319 39.2547Z" fill="#D1AA3C"/>
<path d="M56.9128 62.4848C41.7701 62.4848 29.451 50.1658 29.451 35.0231C29.451 19.8804 41.7701 7.55881 56.9128 7.55881C72.0555 7.55881 84.3746 19.8779 84.3746 35.0206C84.3746 50.1632 72.0555 62.4823 56.9128 62.4823V62.4848ZM56.9128 9.48546C42.8324 9.48546 31.3777 20.9402 31.3777 35.0206C31.3777 49.101 42.8324 60.5557 56.9128 60.5557C70.9932 60.5557 82.4479 49.101 82.4479 35.0206C82.4479 20.9402 70.9932 9.48546 56.9128 9.48546Z" fill="#764C25"/>
<path d="M77.4422 33.1866C76.653 32.3648 75.6132 31.8137 74.4808 31.756L74.3956 31.979C75.1196 32.6154 75.6959 33.3144 76.0692 34.1562C76.5552 35.2561 76.6179 36.4562 76.3072 37.6037C76.0066 38.7236 75.3602 39.7934 74.2954 40.3446C71.8426 41.6123 69.5476 40.2995 68.6582 37.7865C68.553 37.4909 68.4903 37.1577 68.4628 36.8094C68.4402 36.4887 68.2298 36.2132 67.9216 36.123L67.8865 36.1129C67.4305 35.9801 66.9696 36.3008 66.932 36.7744C66.9245 36.8671 66.9169 36.9598 66.9069 37.0525C66.6965 39.2422 66.1177 41.3342 64.88 43.1306C60.0747 50.1808 50.2886 51.4109 43.7043 46.1245C39.5328 42.8049 37.9344 37.4859 39.0418 32.3448C39.8034 28.5391 42.4341 25.3196 45.8966 23.5583C47.0917 22.937 48.3895 22.476 49.7699 22.1628L49.7549 21.8647C46.8085 21.5215 43.7419 22.3858 41.2791 24.092C34.4093 28.8773 33.9934 38.478 39.0318 44.7766C43.6392 50.8322 52.5083 53.0319 59.3005 49.5369C63.1989 47.6077 66.4284 43.9824 67.7337 39.856C69.1893 42.3614 72.6017 43.544 75.4453 42.3739C77.4697 41.5422 78.1988 40.0339 78.6924 38.2576C79.1859 36.4988 78.6873 34.5045 77.4371 33.1816L77.4422 33.1866Z" fill="#764C25"/>
<path d="M67.0698 21.9574L67.9943 23.8264L70.0562 24.1246L68.563 25.5802L68.9162 27.6346L67.0698 26.6651L65.2258 27.6346L65.579 25.5802L64.0858 24.1246L66.1478 23.8264L67.0698 21.9574Z" fill="#D1AA3C"/>
<path d="M56.9128 68.9814C38.1874 68.9814 22.952 53.746 22.952 35.0206C22.952 29.1554 24.4703 23.3729 27.3465 18.302C27.5945 17.861 28.1558 17.7057 28.5967 17.9563C29.0377 18.2068 29.193 18.7655 28.9425 19.2064C26.2241 24.0043 24.786 29.4736 24.786 35.0231C24.786 52.7388 39.1971 67.1499 56.9128 67.1499C74.6285 67.1499 89.0396 52.7388 89.0396 35.0231C89.0396 29.4736 87.6015 24.0068 84.8832 19.2064C84.6326 18.7655 84.788 18.2068 85.2289 17.9563C85.6674 17.7082 86.2286 17.861 86.4791 18.302C89.3553 23.3754 90.8736 29.1579 90.8736 35.0206C90.8736 53.746 75.6382 68.9814 56.9128 68.9814Z" fill="#764C25"/>
</svg>
