<svg width="192" height="182" viewBox="0 0 192 182" fill="none" xmlns="http://www.w3.org/2000/svg">
<path d="M27.9538 157.061C28.6299 157.061 29.1835 156.837 29.6188 156.389C30.0498 155.941 30.2695 155.324 30.2695 154.534C30.2695 154.124 30.1935 153.752 30.0456 153.414C29.8977 153.076 29.6652 152.78 29.3483 152.527C29.0314 152.273 28.6257 152.083 28.1313 151.948C27.6368 151.812 27.041 151.749 26.348 151.749C25.9845 151.749 25.693 151.627 25.4732 151.386C25.2535 151.145 25.1436 150.819 25.1436 150.414C25.1436 150.211 25.1774 150.05 25.2493 149.936C25.3211 149.818 25.4014 149.729 25.4986 149.666C25.5915 149.602 25.7268 149.556 25.9 149.526C26.0733 149.497 26.3184 149.48 26.6353 149.48C27.1424 149.48 27.5904 149.421 27.9749 149.302C28.3595 149.184 28.6848 149.015 28.9342 148.791C29.1835 148.567 29.3779 148.305 29.5047 147.997C29.6314 147.688 29.6948 147.35 29.6948 146.987C29.6948 146.433 29.5004 145.985 29.1117 145.647C28.7229 145.309 28.1904 145.136 27.5101 145.136C27.21 145.136 26.9354 145.165 26.6903 145.22C26.4452 145.275 26.2212 145.334 26.0141 145.398C25.8071 145.461 25.6211 145.52 25.4563 145.575C25.2915 145.63 25.1352 145.655 24.9957 145.655C24.7253 145.655 24.5055 145.571 24.3323 145.398C24.159 145.224 24.0703 145.005 24.0703 144.738C24.0703 144.472 24.1717 144.236 24.3787 144.028C24.7084 143.699 25.2239 143.412 25.9254 143.166C26.6269 142.921 27.4467 142.799 28.3933 142.799C29.1497 142.799 29.8089 142.888 30.3752 143.061C30.9414 143.234 31.4147 143.475 31.7908 143.783C32.1669 144.092 32.45 144.464 32.6275 144.895C32.8092 145.33 32.898 145.799 32.898 146.306C32.898 146.716 32.8388 147.113 32.7205 147.489C32.6022 147.87 32.4331 148.225 32.2134 148.554C31.9937 148.884 31.7317 149.18 31.4232 149.429C31.1147 149.683 30.7724 149.881 30.3963 150.021V150.046C30.8696 150.156 31.2964 150.316 31.6809 150.528C32.0655 150.739 32.3993 151.01 32.674 151.339C32.9487 151.669 33.1642 152.053 33.3248 152.493C33.4811 152.932 33.5614 153.418 33.5614 153.955C33.5614 154.694 33.422 155.383 33.1473 156.026C32.8726 156.668 32.4712 157.226 31.943 157.699C31.4147 158.168 30.7724 158.54 30.016 158.806C29.2596 159.072 28.4102 159.208 27.4678 159.208C26.8086 159.208 26.2381 159.144 25.7564 159.017C25.2746 158.891 24.8858 158.722 24.5858 158.51C24.2858 158.299 24.066 158.058 23.9224 157.788C23.7829 157.522 23.7111 157.243 23.7111 156.959C23.7111 156.566 23.8252 156.25 24.0534 156.013C24.2815 155.776 24.5689 155.658 24.9154 155.658C25.1352 155.658 25.3338 155.73 25.507 155.869C25.6803 156.009 25.8747 156.173 26.086 156.351C26.2973 156.533 26.5466 156.693 26.8297 156.837C27.1128 156.976 27.4847 157.048 27.9411 157.048L27.9538 157.061Z" fill="#764C25"/>
<path d="M35.8434 151.111C35.8434 149.742 36.0124 148.542 36.3505 147.511C36.6885 146.479 37.1492 145.613 37.7323 144.912C38.3155 144.21 39.0001 143.682 39.7903 143.331C40.5805 142.976 41.4215 142.799 42.3216 142.799C43.285 142.799 44.1513 142.951 44.9247 143.259C45.698 143.568 46.353 144.045 46.8897 144.7C47.4263 145.355 47.8405 146.192 48.1321 147.215C48.4236 148.237 48.5673 149.459 48.5673 150.874C48.5673 152.29 48.3983 153.448 48.0602 154.487C47.7222 155.527 47.2615 156.397 46.6784 157.099C46.0952 157.8 45.4106 158.329 44.6204 158.679C43.8302 159.034 42.9892 159.212 42.0891 159.212C41.1257 159.212 40.2594 159.06 39.486 158.751C38.7127 158.443 38.0577 157.965 37.521 157.31C36.9844 156.655 36.5702 155.819 36.2786 154.796C35.9871 153.773 35.8434 152.544 35.8434 151.111ZM39.148 150.946C39.148 152.066 39.2325 153.004 39.4057 153.769C39.579 154.534 39.8114 155.151 40.0988 155.624C40.3861 156.097 40.72 156.435 41.0876 156.638C41.4553 156.841 41.844 156.947 42.2539 156.947C42.6639 156.947 43.0273 156.85 43.3949 156.651C43.7626 156.457 44.0837 156.127 44.3584 155.671C44.6331 155.214 44.8528 154.61 45.0176 153.854C45.1824 153.097 45.2627 152.163 45.2627 151.043C45.2627 149.923 45.1782 148.985 45.005 148.22C44.8317 147.456 44.6035 146.843 44.3119 146.378C44.0203 145.913 43.6865 145.579 43.3104 145.372C42.9343 145.169 42.5498 145.064 42.1568 145.064C41.7638 145.064 41.3665 145.161 41.0031 145.36C40.6397 145.558 40.3227 145.884 40.0523 146.34C39.7776 146.796 39.5579 147.401 39.3931 148.149C39.2283 148.897 39.148 149.831 39.148 150.946Z" fill="#764C25"/>
<path d="M63.6365 149.315C63.5731 149.298 63.5098 149.285 63.4506 149.268C63.3872 149.252 63.3111 149.239 63.2182 149.222C63.1252 149.205 63.0153 149.197 62.8886 149.197C62.1068 149.197 61.4476 149.514 60.9067 150.152C60.3658 150.786 60.0953 151.787 60.0953 153.152C60.0953 154.424 60.3742 155.362 60.932 155.966C61.4898 156.571 62.2631 156.871 63.2478 156.871C63.5309 156.871 63.7718 156.85 63.9788 156.812C64.1817 156.773 64.3676 156.731 64.5324 156.693C64.6972 156.655 64.8451 156.613 64.9803 156.575C65.1156 156.537 65.2339 156.516 65.3438 156.516C65.5931 156.516 65.7917 156.592 65.9312 156.74C66.0706 156.888 66.1424 157.099 66.1424 157.365C66.1424 157.665 66.0241 157.931 65.7875 158.168C65.6607 158.295 65.4917 158.422 65.2804 158.544C65.0691 158.671 64.8155 158.781 64.524 158.874C64.2324 158.967 63.907 159.047 63.5436 159.11C63.1801 159.174 62.7871 159.203 62.3646 159.203C60.632 159.203 59.2713 158.705 58.2782 157.703C57.2851 156.702 56.7907 155.316 56.7907 153.537C56.7907 152.543 56.9471 151.639 57.264 150.819C57.5767 150 58.0162 149.306 58.574 148.728C59.1318 148.153 59.7995 147.709 60.5813 147.392C61.363 147.079 62.2209 146.919 63.1675 146.919C63.8901 146.919 64.4521 146.987 64.8451 147.122C65.2381 147.257 65.5382 147.426 65.741 147.629C65.8678 147.756 65.9565 147.92 66.0114 148.123C66.0664 148.326 66.096 148.698 66.096 149.235V150.012C66.096 150.169 66.0875 150.422 66.0706 150.769C66.0537 151.098 65.965 151.339 65.8002 151.487C65.6353 151.635 65.4198 151.711 65.1494 151.711C64.8789 151.711 64.6676 151.635 64.5113 151.479C64.3549 151.322 64.2197 151.09 64.1098 150.777L63.6365 149.302V149.315Z" fill="#764C25"/>
<path d="M68.0272 153.401C68.0272 152.425 68.1793 151.538 68.4878 150.743C68.7963 149.949 69.2273 149.269 69.7851 148.702C70.3429 148.136 71.0148 147.701 71.7924 147.392C72.5699 147.084 73.432 146.932 74.3786 146.932C76.1576 146.932 77.5522 147.439 78.5579 148.453C79.5636 149.467 80.0707 150.895 80.0707 152.738C80.0707 153.714 79.9271 154.601 79.6355 155.396C79.3439 156.19 78.9213 156.871 78.372 157.437C77.8226 158.003 77.1507 158.439 76.3647 158.747C75.5787 159.056 74.6955 159.208 73.7193 159.208C71.9403 159.208 70.5457 158.701 69.54 157.686C68.5343 156.672 68.0272 155.244 68.0272 153.401ZM71.3318 153.025C71.3318 153.685 71.4078 154.263 71.5557 154.762C71.7036 155.256 71.9022 155.666 72.1473 155.992C72.3924 156.313 72.684 156.554 73.0221 156.71C73.3601 156.867 73.7193 156.947 74.0954 156.947C74.8519 156.947 75.4857 156.643 75.9971 156.038C76.5084 155.434 76.7662 154.458 76.7662 153.122C76.7662 152.459 76.6901 151.884 76.5422 151.386C76.3943 150.891 76.1957 150.481 75.9506 150.156C75.7055 149.835 75.4139 149.594 75.0758 149.433C74.7378 149.277 74.3786 149.197 74.0025 149.197C73.246 149.197 72.6122 149.501 72.1008 150.105C71.5895 150.71 71.3318 151.686 71.3318 153.021V153.025Z" fill="#764C25"/>
<path d="M83.4472 149.387H82.5513C81.8413 149.387 81.4906 149.074 81.4906 148.44C81.4906 148.064 81.6047 147.76 81.8329 147.532C82.0611 147.303 82.3865 147.189 82.8133 147.189H83.4514V146.644C83.4514 145.072 83.8824 143.855 84.7487 142.997C85.615 142.14 86.8658 141.713 88.5012 141.713C88.9576 141.713 89.3591 141.755 89.7056 141.844C90.0521 141.932 90.2972 142.042 90.4367 142.186C90.5 142.249 90.5508 142.313 90.5888 142.376C90.6268 142.44 90.6648 142.524 90.6944 142.625C90.724 142.727 90.7494 142.862 90.7663 143.027C90.7832 143.192 90.7916 143.403 90.7916 143.652V144.265C90.7916 144.392 90.7832 144.586 90.7663 144.857C90.7494 145.157 90.6649 145.376 90.5085 145.52C90.3521 145.66 90.1408 145.731 89.8704 145.731C89.5999 145.731 89.3887 145.655 89.2323 145.507C89.0759 145.36 88.9407 145.127 88.8308 144.81L88.5477 143.961C88.5139 143.961 88.4759 143.952 88.4294 143.935C88.3829 143.919 88.328 143.906 88.2646 143.902C88.2012 143.897 88.1294 143.889 88.0533 143.889C87.5969 143.889 87.2504 144.028 87.0137 144.303C86.7771 144.578 86.6588 145.055 86.6588 145.731V147.194H88.3364C89.0464 147.194 89.3971 147.511 89.3971 148.14C89.3971 148.533 89.2872 148.842 89.0675 149.061C88.8478 149.281 88.5139 149.391 88.0744 149.391H86.6588V156.689L87.7913 156.997C88.1378 157.09 88.3745 157.209 88.5012 157.352C88.628 157.492 88.6914 157.699 88.6914 157.965C88.6914 158.248 88.59 158.485 88.3829 158.675C88.1801 158.865 87.8969 158.958 87.5335 158.958H82.6907C82.3273 158.958 82.0442 158.865 81.8413 158.675C81.6385 158.485 81.5329 158.248 81.5329 157.965C81.5329 157.699 81.5962 157.496 81.723 157.361C81.8498 157.226 82.0864 157.107 82.433 156.993L83.4472 156.685V149.387Z" fill="#764C25"/>
<path d="M92.1143 149.387H91.2185C90.5085 149.387 90.1578 149.074 90.1578 148.44C90.1578 148.064 90.2719 147.76 90.5001 147.532C90.7283 147.303 91.0536 147.189 91.4805 147.189H92.1186V146.644C92.1186 145.072 92.5496 143.855 93.4159 142.997C94.2822 142.14 95.533 141.713 97.1684 141.713C97.6248 141.713 98.0262 141.755 98.3728 141.844C98.7193 141.932 98.9644 142.042 99.1038 142.186C99.1672 142.249 99.2179 142.313 99.256 142.376C99.294 142.44 99.332 142.524 99.3616 142.625C99.3912 142.727 99.4165 142.862 99.4334 143.027C99.4503 143.192 99.4588 143.403 99.4588 143.652V144.265C99.4588 144.392 99.4503 144.586 99.4334 144.857C99.4165 145.157 99.332 145.376 99.1757 145.52C99.0193 145.66 98.808 145.731 98.5376 145.731C98.2671 145.731 98.0558 145.655 97.8995 145.507C97.7431 145.36 97.6079 145.127 97.498 144.81L97.2149 143.961C97.1811 143.961 97.1431 143.952 97.0966 143.935C97.0501 143.919 96.9951 143.906 96.9318 143.902C96.8684 143.897 96.7965 143.889 96.7205 143.889C96.2641 143.889 95.9176 144.028 95.6809 144.303C95.4443 144.578 95.3259 145.055 95.3259 145.731V147.194H97.0036C97.7135 147.194 98.0643 147.511 98.0643 148.14C98.0643 148.533 97.9544 148.842 97.7347 149.061C97.5149 149.281 97.1811 149.391 96.7416 149.391H95.3259V156.689L96.4585 156.997C96.805 157.09 97.0416 157.209 97.1684 157.352C97.2952 157.492 97.3586 157.699 97.3586 157.965C97.3586 158.248 97.2571 158.485 97.0501 158.675C96.8472 158.865 96.5641 158.958 96.2007 158.958H91.3579C90.9945 158.958 90.7114 158.865 90.5085 158.675C90.3057 158.485 90.2 158.248 90.2 157.965C90.2 157.699 90.2634 157.496 90.3902 157.361C90.517 157.226 90.7536 157.107 91.1001 156.993L92.1143 156.685V149.387Z" fill="#764C25"/>
<path d="M102.501 153.592C102.611 154.661 102.962 155.476 103.554 156.034C104.145 156.592 104.973 156.871 106.043 156.871C106.406 156.871 106.715 156.845 106.977 156.799C107.234 156.752 107.462 156.706 107.661 156.659C107.86 156.613 108.029 156.567 108.181 156.516C108.329 156.469 108.477 156.444 108.616 156.444C108.87 156.444 109.064 156.52 109.208 156.668C109.347 156.816 109.419 157.027 109.419 157.293C109.419 157.45 109.389 157.593 109.335 157.72C109.28 157.847 109.187 157.974 109.064 158.096C108.798 158.362 108.337 158.616 107.682 158.853C107.027 159.089 106.182 159.208 105.143 159.208C104.213 159.208 103.385 159.077 102.649 158.819C101.914 158.561 101.305 158.181 100.807 157.686C100.312 157.192 99.9321 156.579 99.6743 155.857C99.4165 155.134 99.2855 154.306 99.2855 153.376C99.2855 152.37 99.4292 151.466 99.7208 150.671C100.012 149.877 100.418 149.205 100.938 148.652C101.458 148.102 102.079 147.675 102.801 147.375C103.524 147.075 104.327 146.927 105.21 146.927C106.689 146.927 107.843 147.346 108.671 148.178C109.499 149.015 109.909 150.219 109.909 151.791C109.909 152.391 109.766 152.839 109.482 153.135C109.199 153.431 108.798 153.583 108.278 153.583H102.493L102.501 153.592ZM106.778 151.774C106.748 150.845 106.554 150.177 106.199 149.767C105.844 149.357 105.383 149.154 104.817 149.154C104.204 149.154 103.702 149.383 103.304 149.839C102.911 150.295 102.658 150.942 102.548 151.774H106.774H106.778Z" fill="#764C25"/>
<path d="M115.065 153.592C115.175 154.661 115.525 155.476 116.117 156.034C116.709 156.592 117.537 156.871 118.61 156.871C118.974 156.871 119.282 156.845 119.544 156.799C119.802 156.752 120.03 156.706 120.229 156.659C120.423 156.613 120.596 156.567 120.748 156.516C120.896 156.469 121.044 156.444 121.184 156.444C121.433 156.444 121.632 156.52 121.775 156.668C121.919 156.816 121.987 157.027 121.987 157.293C121.987 157.45 121.957 157.593 121.902 157.72C121.847 157.847 121.758 157.974 121.632 158.096C121.365 158.362 120.905 158.616 120.25 158.853C119.595 159.089 118.75 159.208 117.71 159.208C116.78 159.208 115.952 159.077 115.221 158.819C114.49 158.561 113.873 158.181 113.379 157.686C112.884 157.192 112.504 156.579 112.246 155.857C111.988 155.134 111.857 154.306 111.857 153.376C111.857 152.37 112.001 151.466 112.293 150.671C112.584 149.877 112.99 149.205 113.51 148.652C114.029 148.102 114.651 147.675 115.373 147.375C116.096 147.075 116.899 146.927 117.782 146.927C119.261 146.927 120.415 147.346 121.243 148.178C122.071 149.015 122.481 150.219 122.481 151.791C122.481 152.391 122.337 152.839 122.054 153.135C121.771 153.431 121.37 153.583 120.85 153.583H115.065V153.592ZM119.341 151.774C119.307 150.845 119.117 150.177 118.762 149.767C118.407 149.357 117.947 149.154 117.38 149.154C116.768 149.154 116.261 149.383 115.868 149.839C115.475 150.295 115.221 150.942 115.111 151.774H119.337H119.341Z" fill="#764C25"/>
<path d="M133.037 156.803C133.181 156.867 133.337 156.921 133.51 156.968C133.667 157.002 133.861 157.031 134.089 157.061C134.318 157.09 134.571 157.107 134.859 157.107C135.568 157.107 136.059 156.993 136.333 156.765C136.608 156.537 136.747 156.241 136.747 155.878C136.747 155.514 136.6 155.256 136.3 155.049C135.999 154.842 135.628 154.661 135.18 154.496C134.732 154.331 134.242 154.158 133.718 153.976C133.189 153.794 132.703 153.562 132.255 153.279C131.807 152.996 131.431 152.636 131.136 152.205C130.836 151.774 130.688 151.208 130.688 150.515C130.688 150.029 130.789 149.564 130.992 149.121C131.195 148.681 131.512 148.297 131.934 147.975C132.357 147.654 132.893 147.396 133.536 147.206C134.178 147.016 134.939 146.923 135.822 146.923C136.764 146.923 137.479 147.003 137.964 147.16C138.45 147.316 138.772 147.477 138.932 147.633C139.059 147.76 139.148 147.908 139.203 148.081C139.258 148.254 139.287 148.512 139.287 148.859V149.471C139.287 149.628 139.279 149.792 139.262 149.966C139.228 150.266 139.131 150.486 138.966 150.625C138.801 150.769 138.586 150.836 138.315 150.836C138.045 150.836 137.838 150.764 137.69 150.625C137.542 150.486 137.411 150.262 137.301 149.966L137.064 149.281C136.925 149.252 136.764 149.209 136.591 149.163C136.452 149.133 136.278 149.099 136.084 149.07C135.885 149.04 135.67 149.023 135.433 149.023C134.77 149.023 134.33 149.116 134.111 149.307C133.891 149.497 133.781 149.746 133.781 150.063C133.781 150.38 133.929 150.633 134.229 150.832C134.529 151.031 134.901 151.208 135.349 151.364C135.797 151.521 136.287 151.69 136.811 151.872C137.339 152.053 137.825 152.29 138.273 152.582C138.721 152.873 139.097 153.245 139.393 153.693C139.693 154.141 139.841 154.72 139.841 155.43C139.841 155.95 139.731 156.435 139.511 156.892C139.291 157.348 138.962 157.745 138.522 158.084C138.083 158.422 137.521 158.692 136.84 158.899C136.156 159.102 135.361 159.208 134.449 159.208C133.443 159.208 132.682 159.119 132.162 158.95C131.643 158.777 131.305 158.612 131.148 158.455C131.021 158.329 130.933 158.181 130.878 158.007C130.823 157.834 130.793 157.576 130.793 157.23V156.571C130.793 156.414 130.802 156.25 130.819 156.076C130.848 155.776 130.95 155.556 131.114 155.413C131.279 155.269 131.495 155.202 131.765 155.202C132.036 155.202 132.243 155.273 132.391 155.413C132.539 155.552 132.67 155.776 132.779 156.076L133.037 156.807V156.803Z" fill="#764C25"/>
<path d="M142.858 149.387H142.055C141.328 149.387 140.969 149.074 140.969 148.44C140.969 148.064 141.083 147.76 141.311 147.532C141.539 147.303 141.865 147.189 142.292 147.189H142.93L143.357 145.512C143.483 144.992 143.665 144.616 143.91 144.379C144.155 144.143 144.506 144.024 144.962 144.024C145.326 144.024 145.6 144.113 145.791 144.295C145.981 144.476 146.074 144.738 146.074 145.085V147.185H148.106C148.816 147.185 149.171 147.502 149.171 148.132C149.171 148.525 149.061 148.833 148.842 149.053C148.622 149.273 148.292 149.383 147.849 149.383H146.078V154.741C146.078 155.497 146.188 156.026 146.408 156.326C146.627 156.626 146.944 156.774 147.35 156.774C147.65 156.774 147.887 156.748 148.06 156.702C148.233 156.655 148.406 156.63 148.58 156.63C148.799 156.63 148.973 156.697 149.099 156.828C149.226 156.964 149.29 157.154 149.29 157.407C149.29 157.581 149.256 157.741 149.184 157.889C149.112 158.037 149.015 158.176 148.888 158.303C148.744 158.447 148.457 158.612 148.026 158.798C147.591 158.988 146.982 159.081 146.196 159.081C144.984 159.081 144.126 158.755 143.623 158.1C143.12 157.445 142.866 156.554 142.866 155.421V149.374L142.858 149.387Z" fill="#764C25"/>
<path d="M157.547 151.796C157.547 150.849 157.382 150.198 157.052 149.835C156.723 149.471 156.148 149.29 155.328 149.29C154.872 149.29 154.475 149.319 154.137 149.374C153.799 149.429 153.503 149.488 153.249 149.552C152.996 149.615 152.78 149.674 152.598 149.729C152.417 149.784 152.256 149.814 152.117 149.814C151.85 149.814 151.631 149.729 151.453 149.556C151.276 149.383 151.195 149.154 151.195 148.871C151.195 148.622 151.297 148.39 151.504 148.187C151.643 148.047 151.859 147.904 152.142 147.764C152.425 147.62 152.767 147.494 153.169 147.375C153.57 147.257 154.018 147.16 154.513 147.08C155.007 146.999 155.54 146.961 156.106 146.961C157.792 146.961 158.988 147.287 159.694 147.942C160.403 148.597 160.754 149.624 160.754 151.022C160.754 151.952 160.746 152.852 160.729 153.727C160.712 154.602 160.746 155.582 160.822 156.668L161.718 156.807C162.03 156.854 162.254 156.955 162.381 157.103C162.508 157.251 162.571 157.462 162.571 157.729C162.571 157.995 162.499 158.206 162.36 158.354C162.216 158.502 161.997 158.633 161.697 158.743C161.38 158.853 161.033 158.941 160.657 159.013C160.281 159.085 159.863 159.119 159.406 159.119C158.853 159.119 158.455 158.988 158.202 158.73C157.948 158.472 157.826 158.088 157.826 157.585V157.467L157.779 157.441C157.589 157.771 157.34 158.062 157.023 158.316C156.757 158.536 156.402 158.739 155.962 158.92C155.523 159.102 154.978 159.191 154.331 159.191C153.765 159.191 153.245 159.102 152.772 158.92C152.298 158.739 151.893 158.498 151.555 158.189C151.217 157.881 150.955 157.517 150.777 157.091C150.595 156.664 150.507 156.216 150.507 155.742C150.507 155.269 150.612 154.83 150.824 154.42C151.035 154.01 151.36 153.659 151.791 153.368C152.222 153.076 152.776 152.848 153.444 152.683C154.111 152.518 154.901 152.434 155.818 152.434C156.068 152.434 156.296 152.442 156.503 152.459C156.706 152.476 156.888 152.493 157.048 152.506C157.221 152.522 157.386 152.539 157.543 152.552V151.796H157.547ZM157.521 154.369C157.412 154.352 157.285 154.331 157.141 154.297C157.014 154.28 156.858 154.268 156.676 154.251C156.495 154.234 156.292 154.225 156.072 154.225C155.265 154.225 154.686 154.335 154.335 154.555C153.989 154.775 153.811 155.075 153.811 155.451C153.811 155.827 153.959 156.152 154.251 156.419C154.542 156.685 154.944 156.82 155.451 156.82C155.785 156.82 156.076 156.778 156.33 156.689C156.583 156.6 156.799 156.503 156.972 156.393C157.179 156.266 157.361 156.127 157.517 155.966V154.361L157.521 154.369Z" fill="#764C25"/>
<path d="M165.196 149.552L164.11 149.315C163.793 149.235 163.569 149.125 163.438 148.985C163.302 148.842 163.239 148.639 163.239 148.373C163.239 148.09 163.307 147.874 163.438 147.722C163.573 147.574 163.797 147.451 164.11 147.354C164.439 147.261 164.82 147.181 165.242 147.118C165.665 147.054 166.075 147.025 166.468 147.025C167.068 147.025 167.482 147.143 167.718 147.38C167.955 147.616 168.073 148.009 168.073 148.559V148.867L168.12 148.892C168.31 148.529 168.568 148.208 168.897 147.925C169.181 147.688 169.557 147.468 170.017 147.266C170.482 147.063 171.07 146.957 171.775 146.957C173.144 146.957 174.201 147.337 174.94 148.102C175.68 148.867 176.052 149.995 176.052 151.491V156.685L176.948 156.968C177.277 157.078 177.505 157.205 177.632 157.344C177.759 157.484 177.822 157.691 177.822 157.957C177.822 158.24 177.721 158.477 177.514 158.667C177.307 158.857 177.028 158.95 176.664 158.95H172.274C171.91 158.95 171.627 158.857 171.424 158.667C171.222 158.477 171.116 158.24 171.116 157.957C171.116 157.691 171.179 157.484 171.306 157.344C171.433 157.2 171.661 157.078 171.991 156.968L172.84 156.685V152.244C172.84 151.191 172.65 150.443 172.274 150.012C171.898 149.581 171.344 149.362 170.622 149.362C170.258 149.362 169.941 149.421 169.667 149.539C169.392 149.657 169.159 149.788 168.969 149.928C168.75 150.101 168.559 150.283 168.403 150.473V156.685L169.252 156.968C169.582 157.078 169.81 157.205 169.937 157.344C170.064 157.484 170.127 157.691 170.127 157.957C170.127 158.24 170.026 158.477 169.819 158.667C169.616 158.857 169.333 158.95 168.969 158.95H164.435C164.072 158.95 163.788 158.857 163.586 158.667C163.383 158.477 163.277 158.24 163.277 157.957C163.277 157.691 163.34 157.488 163.467 157.353C163.594 157.217 163.831 157.099 164.177 156.985L165.191 156.676V149.543L165.196 149.552Z" fill="#764C25"/>
<path d="M186.967 144.333L185.881 144.096C185.568 144.016 185.34 143.906 185.209 143.766C185.074 143.623 185.011 143.42 185.011 143.154C185.011 142.871 185.078 142.655 185.209 142.503C185.344 142.355 185.568 142.232 185.881 142.135C186.211 142.042 186.591 141.962 187.014 141.899C187.436 141.835 187.88 141.806 188.336 141.806C189.046 141.806 189.528 141.937 189.79 142.194C190.052 142.452 190.179 142.938 190.179 143.648V156.634L191.146 156.799C191.459 156.862 191.683 156.964 191.81 157.107C191.937 157.247 192 157.454 192 157.72C192 157.986 191.928 158.198 191.789 158.346C191.645 158.493 191.425 158.624 191.125 158.734C190.808 158.844 190.462 158.933 190.086 159.005C189.71 159.077 189.308 159.11 188.881 159.11C188.328 159.11 187.931 158.979 187.677 158.722C187.423 158.464 187.301 158.079 187.301 157.576V157.268L187.254 157.243C187.064 157.606 186.806 157.927 186.477 158.21C186.194 158.464 185.818 158.688 185.357 158.882C184.892 159.081 184.305 159.178 183.599 159.178C182.213 159.178 181.106 158.717 180.269 157.796C179.432 156.875 179.018 155.455 179.018 153.532C179.018 152.493 179.166 151.563 179.466 150.747C179.766 149.928 180.197 149.235 180.764 148.668C181.33 148.102 182.027 147.671 182.855 147.371C183.684 147.071 184.622 146.923 185.678 146.923C185.868 146.923 186.037 146.932 186.185 146.948C186.333 146.965 186.473 146.978 186.599 146.995C186.743 147.025 186.866 147.05 186.976 147.067L187.022 147.02C187.005 146.847 186.992 146.67 186.988 146.488C186.98 146.306 186.976 146.082 186.976 145.816V144.328L186.967 144.333ZM186.967 149.649C186.84 149.569 186.692 149.501 186.519 149.437C186.363 149.374 186.173 149.319 185.953 149.273C185.733 149.226 185.48 149.201 185.196 149.201C184.313 149.201 183.616 149.505 183.096 150.109C182.576 150.714 182.319 151.736 182.319 153.169C182.319 154.458 182.551 155.383 183.016 155.945C183.481 156.503 184.06 156.782 184.753 156.782C185.116 156.782 185.433 156.727 185.708 156.617C185.982 156.507 186.215 156.381 186.405 156.241C186.625 156.068 186.815 155.878 186.971 155.675V149.653L186.967 149.649Z" fill="#764C25"/>
<path d="M13.7128 152.387C13.6578 152.962 13.7043 153.346 13.8522 153.541C14.0001 153.735 14.2199 153.832 14.5199 153.832C14.7861 153.832 15.0608 153.752 15.3355 153.592C15.6102 153.431 15.8553 153.169 16.075 152.806C16.2947 152.442 16.468 151.969 16.6032 151.381C16.7385 150.794 16.8018 150.076 16.8018 149.222C16.8018 147.422 16.2947 146.027 15.2806 145.043C14.2664 144.058 12.7577 143.568 10.7589 143.568C9.58415 143.568 8.50234 143.771 7.51773 144.176C6.53311 144.582 5.6795 145.144 4.96956 145.863C4.2554 146.581 3.69759 147.447 3.29191 148.449C2.88623 149.454 2.68339 150.553 2.68339 151.741C2.68339 153.963 3.20317 155.616 4.24695 156.698C5.29072 157.779 6.88808 158.324 9.04325 158.324C9.67289 158.324 10.2138 158.286 10.6702 158.21C11.1266 158.134 11.5111 158.046 11.8238 157.948C12.1365 157.851 12.407 157.762 12.631 157.686C12.8549 157.61 13.0493 157.572 13.2184 157.572C13.4296 157.572 13.5945 157.64 13.7128 157.784C13.8311 157.923 13.8903 158.092 13.8903 158.286C13.8903 158.54 13.7931 158.76 13.5987 158.958C13.4719 159.085 13.2606 159.225 12.9564 159.377C12.6521 159.529 12.2929 159.672 11.8661 159.795C11.4393 159.922 10.9533 160.027 10.4082 160.108C9.86306 160.192 9.27567 160.235 8.64602 160.235C7.21769 160.235 5.96685 160.053 4.88927 159.689C3.81169 159.326 2.91159 158.798 2.1932 158.105C1.47058 157.412 0.925454 156.562 0.557808 155.557C0.185936 154.551 0 153.393 0 152.091C0 150.579 0.270452 149.18 0.807131 147.895C1.34381 146.606 2.10446 145.495 3.08485 144.557C4.06524 143.619 5.24846 142.883 6.63031 142.355C8.01637 141.823 9.54612 141.556 11.228 141.556C12.5718 141.556 13.7508 141.721 14.765 142.051C15.7792 142.38 16.6244 142.849 17.2963 143.458C17.9682 144.067 18.4753 144.802 18.8176 145.664C19.1599 146.526 19.3331 147.485 19.3331 148.55C19.3331 149.683 19.1852 150.693 18.8936 151.572C18.5978 152.455 18.209 153.194 17.7188 153.794C17.2287 154.394 16.6582 154.851 16.0074 155.159C15.3566 155.468 14.6763 155.62 13.9621 155.62C13.3029 155.62 12.7704 155.502 12.3647 155.265C11.9591 155.028 11.6802 154.707 11.5238 154.301L11.4815 154.28C11.2872 154.534 11.0547 154.758 10.7885 154.952C10.5519 155.121 10.2645 155.273 9.92644 155.413C9.5926 155.552 9.19115 155.624 8.73054 155.624C8.22766 155.624 7.76705 155.544 7.35715 155.383C6.94302 155.223 6.58805 154.986 6.28801 154.669C5.98798 154.356 5.75556 153.968 5.59498 153.515C5.4344 153.063 5.35411 152.539 5.35411 151.952C5.35411 151.086 5.48934 150.295 5.76401 149.59C6.03447 148.884 6.41479 148.28 6.89231 147.773C7.36982 147.265 7.95299 146.881 8.62912 146.606C9.30525 146.336 10.0574 146.196 10.8815 146.196C11.5534 146.196 12.0943 146.26 12.5169 146.387C12.9352 146.513 13.2564 146.644 13.4804 146.784C13.717 146.936 13.8903 147.101 13.9959 147.278C14.1016 147.451 14.1396 147.688 14.11 147.984L13.7339 152.391L13.7128 152.387ZM11.5111 148.254C11.4393 148.225 11.3505 148.191 11.2364 148.149C11.1393 148.119 11.0209 148.094 10.8899 148.064C10.7547 148.035 10.5899 148.022 10.3913 148.022C10.0955 148.022 9.80812 148.094 9.52499 148.233C9.24186 148.373 8.99676 148.588 8.78547 148.884C8.57418 149.176 8.40515 149.547 8.27837 149.995C8.1516 150.443 8.08821 150.984 8.08821 151.614C8.08821 152.315 8.22766 152.822 8.51079 153.135C8.79392 153.452 9.15312 153.608 9.58838 153.608C9.84193 153.608 10.0659 153.57 10.2561 153.494C10.4462 153.418 10.6068 153.33 10.7336 153.232C10.8899 153.122 11.0209 152.996 11.135 152.856L11.5111 148.259V148.254Z" fill="#764C25"/>
<path d="M52.21 176.808H51.8127C51.4535 176.808 51.2761 176.652 51.2761 176.343C51.2761 176.157 51.331 176.01 51.4451 175.895C51.5592 175.781 51.7198 175.726 51.9268 175.726H52.2438L52.4551 174.898C52.5185 174.64 52.6072 174.454 52.7297 174.336C52.8523 174.218 53.0213 174.163 53.2495 174.163C53.427 174.163 53.5622 174.209 53.6552 174.298C53.7482 174.387 53.7946 174.518 53.7946 174.687V175.726H54.7962C55.1469 175.726 55.3202 175.883 55.3202 176.191C55.3202 176.386 55.2652 176.538 55.1554 176.648C55.0455 176.757 54.8849 176.812 54.6652 176.812H53.7904V179.462C53.7904 179.834 53.8454 180.096 53.9552 180.244C54.0651 180.392 54.2172 180.464 54.4201 180.464C54.568 180.464 54.6863 180.451 54.7708 180.43C54.8553 180.409 54.9398 180.396 55.0286 180.396C55.1385 180.396 55.223 180.43 55.2864 180.497C55.3497 180.565 55.3793 180.658 55.3793 180.785C55.3793 180.869 55.3624 180.95 55.3286 181.026C55.2948 181.097 55.2441 181.169 55.1807 181.228C55.1089 181.296 54.9694 181.381 54.7539 181.474C54.5384 181.566 54.2384 181.613 53.8496 181.613C53.2495 181.613 52.8269 181.452 52.5776 181.127C52.3283 180.806 52.2057 180.362 52.2057 179.804V176.817L52.21 176.808Z" fill="#764C25"/>
<path d="M60.0488 178C60.0488 177.535 59.9685 177.21 59.8037 177.032C59.6389 176.855 59.3558 176.762 58.9501 176.762C58.7262 176.762 58.5275 176.774 58.3627 176.804C58.1979 176.834 58.05 176.859 57.9275 176.893C57.8049 176.926 57.6951 176.952 57.6063 176.981C57.5176 177.011 57.4373 177.024 57.3654 177.024C57.2344 177.024 57.1246 176.981 57.04 176.897C56.9555 176.812 56.9133 176.698 56.9133 176.559C56.9133 176.436 56.964 176.322 57.0654 176.221C57.1372 176.149 57.2387 176.081 57.3781 176.009C57.5176 175.938 57.6866 175.874 57.8852 175.819C58.0838 175.76 58.3036 175.714 58.5487 175.671C58.7938 175.633 59.0558 175.612 59.3347 175.612C60.1672 175.612 60.7588 175.773 61.1095 176.094C61.4603 176.415 61.6335 176.922 61.6335 177.615C61.6335 178.076 61.6335 178.52 61.6208 178.951C61.6124 179.382 61.6293 179.868 61.6673 180.404L62.111 180.476C62.2674 180.497 62.373 180.548 62.4364 180.62C62.4998 180.696 62.5294 180.797 62.5294 180.928C62.5294 181.059 62.4956 181.165 62.4237 181.237C62.3561 181.309 62.2463 181.376 62.0984 181.427C61.942 181.482 61.773 181.524 61.587 181.562C61.4011 181.6 61.194 181.613 60.9701 181.613C60.6996 181.613 60.501 181.55 60.3742 181.423C60.2517 181.296 60.1883 181.106 60.1883 180.856V180.797L60.1629 180.785C60.07 180.949 59.9432 181.093 59.7911 181.216C59.6601 181.326 59.4826 181.423 59.2671 181.511C59.0473 181.6 58.7811 181.647 58.4599 181.647C58.181 181.647 57.9232 181.6 57.6908 181.511C57.4584 181.423 57.2556 181.3 57.0908 181.148C56.926 180.996 56.795 180.814 56.7062 180.607C56.6175 180.396 56.571 180.176 56.571 179.944C56.571 179.711 56.6217 179.492 56.7273 179.289C56.833 179.086 56.9893 178.913 57.2049 178.769C57.4204 178.625 57.6908 178.511 58.0204 178.431C58.3501 178.351 58.7431 178.308 59.191 178.308C59.3135 178.308 59.4276 178.313 59.5291 178.321C59.6305 178.329 59.7192 178.338 59.7953 178.346C59.8798 178.355 59.9643 178.363 60.0404 178.367V177.996L60.0488 178ZM60.0362 179.272C59.9812 179.263 59.9178 179.251 59.8502 179.238C59.7868 179.23 59.7108 179.221 59.622 179.213C59.5333 179.204 59.4319 179.2 59.322 179.2C58.9248 179.2 58.6374 179.255 58.4642 179.365C58.2909 179.475 58.2064 179.623 58.2064 179.808C58.2064 179.994 58.2782 180.155 58.4219 180.286C58.5656 180.417 58.7642 180.485 59.0135 180.485C59.1783 180.485 59.322 180.463 59.4488 180.421C59.5755 180.379 59.6812 180.328 59.7657 180.273C59.8671 180.21 59.9559 180.142 60.0362 180.062V179.268V179.272Z" fill="#764C25"/>
<path d="M64.2367 174.311L63.7719 174.205C63.6155 174.167 63.5056 174.112 63.438 174.036C63.3704 173.964 63.3408 173.859 63.3408 173.728C63.3408 173.588 63.3746 173.482 63.438 173.406C63.5056 173.335 63.6155 173.271 63.7719 173.225C63.9113 173.187 64.0888 173.149 64.3043 173.115C64.5198 173.081 64.7227 173.064 64.917 173.064C65.2678 173.064 65.5087 173.127 65.6354 173.254C65.7622 173.381 65.8298 173.622 65.8298 173.973V178.283L67.4399 176.774L67.2286 176.66C67.106 176.593 67.0173 176.512 66.9708 176.428C66.9243 176.343 66.899 176.246 66.899 176.14C66.899 176.018 66.9412 175.917 67.0257 175.84C67.1102 175.764 67.2328 175.726 67.3849 175.726H69.4049C69.5697 175.726 69.6922 175.764 69.7767 175.84C69.8613 175.917 69.9035 176.018 69.9035 176.14C69.9035 176.28 69.8655 176.394 69.7852 176.483C69.7091 176.572 69.5781 176.652 69.4006 176.732L69.0964 176.859L67.4737 178.275L68.116 179.107C68.2554 179.293 68.3949 179.462 68.5301 179.61C68.6653 179.758 68.8006 179.893 68.9316 180.011C69.0626 180.13 69.1978 180.24 69.333 180.337C69.4683 180.434 69.6077 180.523 69.7472 180.599C69.857 180.662 69.9289 180.721 69.9627 180.78C69.9965 180.84 70.0134 180.907 70.0134 180.983C70.0134 181.148 69.9331 181.292 69.7683 181.414C69.6035 181.537 69.3626 181.6 69.0457 181.6C68.8597 181.6 68.6823 181.575 68.509 181.528C68.3357 181.482 68.1709 181.41 68.0146 181.313C67.8582 181.216 67.6976 181.089 67.5413 180.928C67.3849 180.768 67.2286 180.578 67.0764 180.349L65.8171 178.549V180.409L66.0158 180.502C66.1932 180.586 66.3073 180.666 66.3581 180.734C66.4088 180.806 66.4341 180.903 66.4341 181.038C66.4341 181.178 66.3792 181.296 66.2693 181.389C66.1594 181.482 66.0158 181.528 65.8383 181.528H63.924C63.7465 181.528 63.607 181.482 63.5056 181.389C63.4042 181.296 63.3535 181.178 63.3535 181.038C63.3535 180.907 63.3831 180.806 63.4422 180.734C63.5014 180.662 63.6028 180.607 63.7507 180.561L64.2282 180.409V174.306L64.2367 174.311Z" fill="#764C25"/>
<path d="M72.7516 178.883C72.8066 179.411 72.9798 179.813 73.2714 180.092C73.563 180.366 73.9729 180.506 74.5011 180.506C74.6786 180.506 74.835 180.493 74.9617 180.472C75.0885 180.447 75.2026 180.426 75.2998 180.4C75.397 180.375 75.4815 180.354 75.5576 180.328C75.6294 180.303 75.7012 180.295 75.7731 180.295C75.8956 180.295 75.9928 180.333 76.0647 180.404C76.1365 180.48 76.1703 180.582 76.1703 180.713C76.1703 180.789 76.1576 180.861 76.1281 180.924C76.0985 180.988 76.0562 181.047 75.9928 181.11C75.8618 181.241 75.6336 181.368 75.3083 181.482C74.9829 181.596 74.5687 181.655 74.0532 181.655C73.5926 181.655 73.1827 181.592 72.8235 181.465C72.46 181.338 72.16 181.148 71.9149 180.903C71.6698 180.658 71.4839 180.358 71.3529 179.999C71.2261 179.64 71.1627 179.234 71.1627 178.773C71.1627 178.275 71.2346 177.831 71.3782 177.438C71.5219 177.045 71.7205 176.711 71.9783 176.441C72.2361 176.17 72.5403 175.959 72.8995 175.811C73.2587 175.663 73.656 175.591 74.0912 175.591C74.8223 175.591 75.3928 175.798 75.7984 176.208C76.2083 176.618 76.4112 177.214 76.4112 177.991C76.4112 178.287 76.3394 178.507 76.1999 178.655C76.0604 178.803 75.8618 178.875 75.6041 178.875H72.7474L72.7516 178.883ZM74.8603 177.987C74.8434 177.531 74.7504 177.197 74.573 176.994C74.3997 176.791 74.1715 176.69 73.8926 176.69C73.5883 176.69 73.339 176.804 73.1446 177.028C72.9502 177.252 72.8277 177.573 72.7728 177.983H74.8603V177.987Z" fill="#764C25"/>
<path d="M81.5118 178.79C81.5118 178.308 81.5878 177.869 81.74 177.476C81.8921 177.083 82.1034 176.745 82.3823 176.466C82.657 176.187 82.9908 175.972 83.3754 175.819C83.7599 175.667 84.1867 175.591 84.6516 175.591C85.5305 175.591 86.2193 175.841 86.718 176.343C87.2166 176.846 87.466 177.552 87.466 178.461C87.466 178.942 87.3941 179.382 87.2504 179.775C87.1068 180.168 86.8997 180.506 86.625 180.785C86.3546 181.064 86.0207 181.279 85.632 181.431C85.2432 181.583 84.8079 181.659 84.3262 181.659C83.4472 181.659 82.7584 181.41 82.2598 180.907C81.7611 180.404 81.5118 179.699 81.5118 178.79ZM83.1429 178.604C83.1429 178.93 83.181 179.217 83.2528 179.462C83.3289 179.707 83.4218 179.91 83.5444 180.071C83.6669 180.231 83.8106 180.349 83.9754 180.426C84.1402 180.502 84.3177 180.544 84.5079 180.544C84.8798 180.544 85.1925 180.396 85.446 180.096C85.6996 179.796 85.8263 179.314 85.8263 178.655C85.8263 178.33 85.7883 178.042 85.7165 177.797C85.6446 177.552 85.5474 177.349 85.4249 177.189C85.3066 177.028 85.1629 176.91 84.9939 176.834C84.8248 176.758 84.6516 176.715 84.4614 176.715C84.0895 176.715 83.7768 176.863 83.5233 177.163C83.2697 177.463 83.1429 177.945 83.1429 178.604Z" fill="#764C25"/>
<path d="M89.5027 176.888L89.0379 176.783C88.8815 176.745 88.7717 176.69 88.7041 176.614C88.6365 176.542 88.6069 176.436 88.6069 176.305C88.6069 176.166 88.6407 176.06 88.7041 175.984C88.7717 175.912 88.8815 175.849 89.0379 175.802C89.1774 175.764 89.3548 175.726 89.5704 175.693C89.7859 175.659 89.9887 175.642 90.1831 175.642C90.5338 175.642 90.7705 175.705 90.9015 175.832C91.0283 175.959 91.0916 176.2 91.0916 176.55V179.094C91.0916 179.601 91.1804 179.952 91.3579 180.155C91.5354 180.358 91.8016 180.459 92.1523 180.459C92.3298 180.459 92.4904 180.434 92.6298 180.379C92.7693 180.324 92.8876 180.261 92.9806 180.193C93.0905 180.109 93.1834 180.016 93.2595 179.914V176.893L92.7228 176.774C92.5665 176.736 92.4566 176.681 92.389 176.61C92.3214 176.542 92.2918 176.441 92.2918 176.305C92.2918 176.166 92.3256 176.06 92.389 175.984C92.4566 175.912 92.5665 175.849 92.7228 175.802C92.8876 175.756 93.0736 175.718 93.2848 175.684C93.4961 175.655 93.7117 175.638 93.9399 175.638C94.2906 175.638 94.5272 175.701 94.6582 175.828C94.785 175.955 94.8526 176.195 94.8526 176.546V180.383L95.3301 180.464C95.4865 180.493 95.5964 180.544 95.6555 180.616C95.7147 180.687 95.7485 180.785 95.7485 180.92C95.7485 181.055 95.7147 181.157 95.6429 181.228C95.571 181.3 95.4654 181.368 95.3175 181.419C95.1611 181.473 94.9921 181.516 94.8061 181.554C94.6202 181.592 94.4216 181.604 94.2103 181.604C93.9399 181.604 93.7412 181.541 93.6145 181.414C93.4877 181.288 93.4285 181.097 93.4285 180.848V180.696L93.4032 180.683C93.3102 180.861 93.1834 181.021 93.0186 181.161C92.8792 181.283 92.6932 181.397 92.4566 181.495C92.2242 181.592 91.9326 181.638 91.5818 181.638C90.9142 181.638 90.3986 181.457 90.0436 181.089C89.6845 180.726 89.507 180.18 89.507 179.458V176.88L89.5027 176.888Z" fill="#764C25"/>
<path d="M97.4473 176.808H97.0501C96.6909 176.808 96.5134 176.652 96.5134 176.343C96.5134 176.157 96.5684 176.01 96.6825 175.895C96.7966 175.781 96.9571 175.726 97.1642 175.726H97.4811L97.6924 174.898C97.7558 174.64 97.8446 174.454 97.9671 174.336C98.0897 174.218 98.2587 174.163 98.4869 174.163C98.6644 174.163 98.7996 174.209 98.8926 174.298C98.9855 174.387 99.032 174.518 99.032 174.687V175.726H100.034C100.384 175.726 100.558 175.883 100.558 176.191C100.558 176.386 100.503 176.538 100.393 176.648C100.283 176.757 100.122 176.812 99.9025 176.812H99.0278V179.462C99.0278 179.834 99.0827 180.096 99.1926 180.244C99.3025 180.392 99.4546 180.464 99.6574 180.464C99.8053 180.464 99.9237 180.451 100.008 180.43C100.093 180.409 100.177 180.396 100.266 180.396C100.376 180.396 100.46 180.43 100.524 180.497C100.587 180.565 100.617 180.658 100.617 180.785C100.617 180.869 100.6 180.95 100.566 181.026C100.532 181.097 100.481 181.169 100.418 181.228C100.346 181.296 100.207 181.381 99.9913 181.474C99.7758 181.566 99.4757 181.613 99.0869 181.613C98.4869 181.613 98.0643 181.452 97.815 181.127C97.5657 180.806 97.4431 180.362 97.4431 179.804V176.817L97.4473 176.808Z" fill="#764C25"/>
<path d="M108.726 176.774C108.696 176.766 108.663 176.757 108.633 176.753C108.603 176.745 108.561 176.736 108.519 176.732C108.472 176.724 108.418 176.719 108.358 176.719C107.974 176.719 107.644 176.876 107.378 177.189C107.112 177.501 106.977 177.996 106.977 178.672C106.977 179.301 107.116 179.762 107.391 180.062C107.665 180.362 108.046 180.51 108.536 180.51C108.675 180.51 108.794 180.502 108.895 180.48C108.996 180.459 109.085 180.442 109.17 180.421C109.25 180.4 109.326 180.383 109.389 180.362C109.453 180.341 109.516 180.333 109.571 180.333C109.694 180.333 109.791 180.371 109.863 180.442C109.93 180.518 109.968 180.62 109.968 180.751C109.968 180.899 109.909 181.03 109.795 181.148C109.732 181.211 109.647 181.271 109.546 181.334C109.44 181.397 109.318 181.452 109.174 181.499C109.03 181.545 108.87 181.583 108.692 181.617C108.515 181.651 108.32 181.664 108.109 181.664C107.255 181.664 106.579 181.419 106.089 180.924C105.599 180.43 105.354 179.745 105.354 178.866C105.354 178.376 105.43 177.928 105.586 177.527C105.743 177.121 105.958 176.779 106.233 176.495C106.507 176.212 106.841 175.993 107.226 175.836C107.61 175.68 108.037 175.604 108.502 175.604C108.861 175.604 109.136 175.638 109.33 175.701C109.525 175.769 109.673 175.849 109.774 175.95C109.837 176.014 109.88 176.094 109.909 176.195C109.935 176.297 109.952 176.479 109.952 176.745V177.129C109.952 177.205 109.947 177.332 109.939 177.501C109.93 177.666 109.888 177.784 109.804 177.856C109.723 177.932 109.613 177.966 109.482 177.966C109.351 177.966 109.246 177.928 109.17 177.852C109.094 177.776 109.026 177.662 108.971 177.505L108.739 176.779L108.726 176.774Z" fill="#764C25"/>
<path d="M111.477 178.79C111.477 178.308 111.553 177.869 111.705 177.476C111.857 177.083 112.069 176.745 112.348 176.466C112.622 176.187 112.956 175.972 113.341 175.819C113.725 175.667 114.152 175.591 114.617 175.591C115.496 175.591 116.185 175.841 116.683 176.343C117.182 176.846 117.431 177.552 117.431 178.461C117.431 178.942 117.359 179.382 117.216 179.775C117.072 180.168 116.865 180.506 116.59 180.785C116.32 181.064 115.986 181.279 115.597 181.431C115.208 181.583 114.773 181.659 114.291 181.659C113.412 181.659 112.724 181.41 112.225 180.907C111.726 180.404 111.477 179.699 111.477 178.79ZM113.112 178.604C113.112 178.93 113.15 179.217 113.222 179.462C113.294 179.707 113.391 179.91 113.514 180.071C113.632 180.231 113.776 180.349 113.945 180.426C114.114 180.502 114.287 180.544 114.477 180.544C114.849 180.544 115.162 180.396 115.415 180.096C115.669 179.796 115.796 179.314 115.796 178.655C115.796 178.33 115.758 178.042 115.686 177.797C115.61 177.552 115.513 177.349 115.394 177.189C115.272 177.028 115.128 176.91 114.963 176.834C114.794 176.758 114.621 176.715 114.431 176.715C114.059 176.715 113.742 176.863 113.493 177.163C113.239 177.463 113.112 177.945 113.112 178.604Z" fill="#764C25"/>
<path d="M119.679 176.808H119.236C118.885 176.808 118.712 176.652 118.712 176.343C118.712 176.157 118.767 176.009 118.881 175.895C118.995 175.781 119.155 175.726 119.362 175.726H119.679V175.46C119.679 174.683 119.895 174.082 120.322 173.656C120.748 173.229 121.365 173.018 122.177 173.018C122.401 173.018 122.599 173.039 122.773 173.081C122.946 173.123 123.064 173.178 123.136 173.25C123.166 173.28 123.191 173.313 123.212 173.343C123.233 173.373 123.25 173.415 123.263 173.466C123.28 173.516 123.288 173.584 123.297 173.664C123.305 173.744 123.309 173.85 123.309 173.973V174.277C123.309 174.34 123.305 174.437 123.297 174.568C123.288 174.716 123.246 174.826 123.17 174.894C123.094 174.961 122.988 174.999 122.857 174.999C122.726 174.999 122.62 174.961 122.54 174.89C122.46 174.818 122.397 174.699 122.342 174.547L122.202 174.129C122.202 174.129 122.168 174.129 122.143 174.116C122.118 174.108 122.092 174.104 122.063 174.099C122.033 174.095 121.995 174.095 121.957 174.095C121.733 174.095 121.56 174.163 121.446 174.298C121.332 174.433 121.272 174.67 121.272 175.004V175.726H122.101C122.451 175.726 122.625 175.883 122.625 176.191C122.625 176.386 122.57 176.538 122.46 176.648C122.35 176.757 122.189 176.812 121.97 176.812H121.268V180.417L121.83 180.569C121.999 180.616 122.118 180.675 122.181 180.742C122.244 180.814 122.274 180.911 122.274 181.047C122.274 181.186 122.223 181.304 122.122 181.397C122.02 181.49 121.881 181.537 121.703 181.537H119.312C119.134 181.537 118.995 181.49 118.893 181.397C118.792 181.304 118.741 181.186 118.741 181.047C118.741 180.916 118.771 180.814 118.834 180.751C118.898 180.683 119.012 180.624 119.185 180.569L119.688 180.417V176.812L119.679 176.808Z" fill="#764C25"/>
<path d="M124.543 176.808H124.1C123.749 176.808 123.576 176.652 123.576 176.343C123.576 176.157 123.63 176.009 123.745 175.895C123.859 175.781 124.019 175.726 124.226 175.726H124.539V175.46C124.539 174.683 124.755 174.082 125.181 173.656C125.608 173.233 126.225 173.018 127.036 173.018C127.26 173.018 127.459 173.039 127.632 173.081C127.806 173.123 127.924 173.178 127.996 173.25C128.025 173.28 128.051 173.313 128.072 173.343C128.093 173.373 128.11 173.415 128.122 173.466C128.135 173.516 128.148 173.584 128.156 173.664C128.165 173.744 128.169 173.85 128.169 173.973V174.277C128.169 174.34 128.169 174.437 128.156 174.568C128.148 174.716 128.106 174.826 128.03 174.894C127.953 174.961 127.848 174.999 127.713 174.999C127.577 174.999 127.476 174.961 127.4 174.89C127.324 174.818 127.256 174.699 127.201 174.547L127.062 174.129C127.062 174.129 127.028 174.129 127.003 174.116C126.982 174.108 126.952 174.104 126.922 174.099C126.893 174.095 126.855 174.095 126.817 174.095C126.593 174.095 126.419 174.163 126.305 174.298C126.187 174.433 126.132 174.67 126.132 175.004V175.726H126.96C127.311 175.726 127.484 175.883 127.484 176.191C127.484 176.386 127.429 176.538 127.32 176.648C127.21 176.757 127.049 176.812 126.829 176.812H126.128V180.417L126.69 180.569C126.859 180.616 126.977 180.675 127.041 180.742C127.104 180.81 127.134 180.911 127.134 181.047C127.134 181.186 127.083 181.304 126.982 181.397C126.88 181.49 126.741 181.537 126.563 181.537H124.171C123.994 181.537 123.854 181.49 123.753 181.397C123.652 181.304 123.601 181.186 123.601 181.047C123.601 180.916 123.63 180.814 123.694 180.751C123.757 180.683 123.871 180.624 124.045 180.569L124.547 180.417V176.812L124.543 176.808Z" fill="#764C25"/>
<path d="M130.257 178.883C130.311 179.411 130.485 179.813 130.776 180.092C131.068 180.366 131.478 180.506 132.006 180.506C132.184 180.506 132.34 180.493 132.467 180.472C132.593 180.447 132.708 180.426 132.805 180.4C132.902 180.375 132.986 180.354 133.063 180.328C133.139 180.303 133.21 180.295 133.278 180.295C133.401 180.295 133.498 180.333 133.57 180.404C133.641 180.48 133.675 180.582 133.675 180.713C133.675 180.789 133.663 180.861 133.633 180.924C133.603 180.988 133.561 181.047 133.498 181.11C133.367 181.241 133.139 181.368 132.817 181.482C132.496 181.6 132.078 181.655 131.562 181.655C131.102 181.655 130.692 181.592 130.333 181.465C129.969 181.338 129.669 181.148 129.424 180.903C129.179 180.658 128.993 180.358 128.862 179.999C128.735 179.64 128.668 179.234 128.668 178.773C128.668 178.275 128.739 177.831 128.883 177.438C129.027 177.045 129.225 176.711 129.483 176.441C129.741 176.17 130.045 175.959 130.404 175.811C130.764 175.663 131.157 175.591 131.592 175.591C132.323 175.591 132.893 175.798 133.303 176.208C133.713 176.618 133.916 177.214 133.916 177.991C133.916 178.287 133.844 178.507 133.705 178.655C133.565 178.803 133.367 178.875 133.109 178.875H130.252L130.257 178.883ZM132.369 177.987C132.353 177.531 132.26 177.197 132.082 176.994C131.909 176.791 131.681 176.69 131.398 176.69C131.093 176.69 130.844 176.804 130.65 177.028C130.455 177.252 130.333 177.573 130.278 177.983H132.365L132.369 177.987Z" fill="#764C25"/>
<path d="M137.047 178.883C137.102 179.411 137.276 179.813 137.567 180.092C137.859 180.366 138.269 180.506 138.797 180.506C138.974 180.506 139.131 180.493 139.258 180.472C139.384 180.447 139.498 180.426 139.596 180.4C139.693 180.375 139.777 180.354 139.853 180.328C139.929 180.303 140.001 180.295 140.069 180.295C140.191 180.295 140.289 180.333 140.361 180.404C140.432 180.48 140.466 180.582 140.466 180.713C140.466 180.789 140.453 180.861 140.424 180.924C140.394 180.988 140.352 181.047 140.289 181.11C140.158 181.241 139.929 181.368 139.608 181.482C139.287 181.6 138.869 181.655 138.353 181.655C137.893 181.655 137.483 181.592 137.124 181.465C136.76 181.338 136.46 181.148 136.215 180.903C135.97 180.658 135.784 180.358 135.653 179.999C135.526 179.64 135.459 179.234 135.459 178.773C135.459 178.275 135.53 177.831 135.674 177.438C135.818 177.045 136.016 176.711 136.274 176.441C136.532 176.17 136.836 175.959 137.195 175.811C137.555 175.663 137.948 175.591 138.383 175.591C139.114 175.591 139.684 175.798 140.094 176.208C140.504 176.618 140.707 177.214 140.707 177.991C140.707 178.287 140.635 178.507 140.496 178.655C140.356 178.803 140.158 178.875 139.9 178.875H137.043L137.047 178.883ZM139.16 177.987C139.143 177.531 139.051 177.197 138.873 176.994C138.696 176.791 138.472 176.69 138.188 176.69C137.884 176.69 137.635 176.804 137.44 177.028C137.246 177.252 137.124 177.573 137.069 177.983H139.156L139.16 177.987Z" fill="#764C25"/>
<path d="M57.7796 21.146C57.9824 21.3742 58.1514 21.4925 58.2782 21.5052C58.4092 21.5178 58.5233 21.4671 58.6332 21.3488C58.7304 21.2432 58.7938 21.1079 58.8318 20.9431C58.8698 20.7783 58.8529 20.5882 58.7895 20.3727C58.7262 20.1571 58.6036 19.9205 58.4219 19.6543C58.2402 19.3923 57.9824 19.1091 57.6486 18.8006C56.9429 18.1541 56.216 17.8541 55.4681 17.8963C54.7201 17.9428 53.989 18.3527 53.2706 19.1345C52.848 19.5951 52.5396 20.0895 52.3452 20.622C52.1508 21.1544 52.0663 21.6869 52.0916 22.2236C52.117 22.7602 52.2522 23.2885 52.5015 23.8082C52.7509 24.328 53.1058 24.8013 53.5707 25.2239C54.4412 26.0183 55.2737 26.4071 56.0681 26.3902C56.8668 26.3691 57.6486 25.9381 58.4219 25.0971C58.6459 24.852 58.8276 24.6238 58.9586 24.421C59.0896 24.2181 59.1952 24.0322 59.2713 23.8759C59.3474 23.7195 59.4065 23.58 59.4572 23.4659C59.5079 23.3519 59.5629 23.2589 59.622 23.1955C59.6981 23.1152 59.7826 23.0729 59.8798 23.0772C59.977 23.0814 60.0657 23.1194 60.1418 23.187C60.239 23.2758 60.2939 23.3941 60.2982 23.542C60.3024 23.635 60.2813 23.7702 60.2348 23.9435C60.1883 24.1167 60.1122 24.3069 60.0066 24.5224C59.9009 24.7337 59.7699 24.9619 59.6051 25.207C59.4445 25.4521 59.2502 25.6972 59.022 25.9423C58.5106 26.5001 57.9909 26.9269 57.4626 27.2143C56.9344 27.5058 56.4062 27.6664 55.878 27.7002C55.3497 27.734 54.8215 27.6411 54.2933 27.4255C53.765 27.21 53.2495 26.8677 52.7382 26.4029C52.1466 25.862 51.6986 25.2535 51.3859 24.5816C51.0774 23.9097 50.9126 23.2124 50.8957 22.494C50.8788 21.7756 51.0183 21.0488 51.3056 20.3177C51.593 19.5866 52.0409 18.8894 52.641 18.2344C53.1227 17.7104 53.6087 17.3089 54.1031 17.03C54.5933 16.7511 55.0793 16.5905 55.561 16.5441C56.0385 16.4976 56.5076 16.5652 56.9682 16.7384C57.4288 16.9117 57.8641 17.1906 58.2824 17.5709C58.7262 17.9766 59.0684 18.395 59.3051 18.826C59.546 19.257 59.6939 19.6754 59.753 20.0853C59.8122 20.491 59.7868 20.8797 59.6727 21.2432C59.5586 21.6066 59.3769 21.932 59.1192 22.2109C58.8825 22.4687 58.6459 22.6335 58.4092 22.7053C58.1726 22.7771 57.9444 22.7729 57.7289 22.6884L57.7035 22.6969C57.7331 22.8617 57.7373 23.0349 57.7162 23.2082C57.6951 23.3603 57.6528 23.5293 57.5894 23.711C57.5218 23.8928 57.4077 24.0745 57.2429 24.2562C57.0612 24.4548 56.8668 24.6027 56.6555 24.7083C56.4442 24.814 56.2245 24.8647 55.9921 24.8731C55.7596 24.8774 55.5272 24.8309 55.2906 24.7295C55.0539 24.628 54.8215 24.4759 54.5933 24.2646C54.2552 23.9519 53.9932 23.6181 53.8158 23.2589C53.6383 22.8997 53.5369 22.5363 53.5115 22.1686C53.4861 21.801 53.5411 21.4333 53.6805 21.0699C53.8158 20.7065 54.0313 20.3642 54.3271 20.043C54.568 19.781 54.7877 19.5909 54.9863 19.4726C55.1849 19.3542 55.354 19.2782 55.4892 19.2401C55.6329 19.2021 55.7596 19.1936 55.8653 19.2148C55.9709 19.2359 56.0766 19.3035 56.1822 19.4218L57.7711 21.1502L57.7796 21.146ZM55.3751 20.529C55.3413 20.5459 55.2948 20.5713 55.2356 20.5966C55.1892 20.6262 55.1384 20.66 55.0793 20.7023C55.0201 20.7445 54.9567 20.8037 54.8849 20.884C54.7792 20.9981 54.7032 21.1375 54.6567 21.2981C54.6102 21.4587 54.606 21.6319 54.6482 21.8221C54.6905 22.0123 54.7708 22.2067 54.9018 22.4179C55.0328 22.6292 55.2187 22.8448 55.4681 23.0729C55.7427 23.3223 55.9921 23.449 56.216 23.4533C56.44 23.4533 56.6302 23.373 56.7865 23.1997C56.8753 23.1025 56.9429 23.0011 56.9809 22.8997C57.0189 22.7983 57.0401 22.7053 57.0485 22.6208C57.0612 22.5194 57.057 22.4222 57.0443 22.3292L55.3835 20.5332L55.3751 20.529Z" fill="#764C25"/>
<path d="M63.9915 18.3104C64.2451 18.1161 64.3845 17.871 64.4183 17.5794C64.4521 17.2878 64.3549 16.992 64.1267 16.7004C64.0084 16.5483 63.8732 16.43 63.7211 16.3454C63.5689 16.2609 63.3957 16.2187 63.2055 16.2144C63.0154 16.2102 62.8083 16.2567 62.5843 16.3497C62.3603 16.4426 62.1195 16.5905 61.8617 16.7892C61.7265 16.8948 61.5828 16.9328 61.4307 16.9075C61.2785 16.8821 61.1433 16.7934 61.0292 16.6413C60.9701 16.5652 60.9362 16.4976 60.932 16.43C60.9278 16.3623 60.932 16.3074 60.9489 16.2567C60.9658 16.206 61.0039 16.1511 61.0588 16.0877C61.1137 16.0243 61.2025 15.9482 61.3208 15.8595C61.511 15.7116 61.6589 15.5637 61.7687 15.4073C61.8786 15.251 61.9504 15.0946 61.98 14.9382C62.0096 14.7819 62.0054 14.6298 61.9631 14.4776C61.9209 14.3255 61.849 14.1818 61.7434 14.0466C61.5828 13.8395 61.3842 13.7297 61.1391 13.7128C60.8982 13.6959 60.6489 13.7888 60.3953 13.9832C60.2855 14.0677 60.1883 14.1565 60.1164 14.2494C60.0404 14.3382 59.9728 14.4269 59.9136 14.5114C59.8544 14.5917 59.8037 14.6678 59.7572 14.7396C59.7108 14.8115 59.66 14.8622 59.6093 14.9044C59.5079 14.9805 59.4023 15.0143 59.2882 14.9974C59.1741 14.9805 59.0769 14.9256 59.0008 14.8242C58.9248 14.7227 58.8952 14.6086 58.9121 14.4734C58.9417 14.2537 59.0473 14.0001 59.2417 13.7043C59.4319 13.4127 59.7023 13.1296 60.0573 12.8549C60.3404 12.6394 60.6109 12.4788 60.8729 12.3816C61.1349 12.2844 61.38 12.238 61.6082 12.2422C61.8363 12.2464 62.0476 12.3056 62.242 12.4154C62.4364 12.5253 62.6054 12.6732 62.7491 12.8634C62.8674 13.0155 62.9604 13.1803 63.0238 13.3578C63.0914 13.5353 63.1294 13.717 63.1421 13.9029C63.1548 14.0889 63.1421 14.2748 63.0999 14.4565C63.0576 14.6382 62.9858 14.8115 62.8886 14.9721L62.897 14.9805C63.1041 14.8833 63.3112 14.8199 63.5182 14.7903C63.7211 14.7565 63.9239 14.765 64.1225 14.8072C64.3211 14.8495 64.5113 14.9298 64.6972 15.0481C64.8832 15.1664 65.0522 15.327 65.2085 15.5256C65.4198 15.8003 65.5677 16.1003 65.6523 16.4173C65.7368 16.7384 65.7452 17.0596 65.6861 17.3892C65.6269 17.7146 65.4917 18.04 65.2888 18.3569C65.086 18.6739 64.8071 18.9697 64.4521 19.2444C64.207 19.4345 63.9746 19.574 63.7591 19.6669C63.5436 19.7599 63.3492 19.8064 63.1759 19.8148C63.0027 19.8233 62.8505 19.7937 62.7195 19.7388C62.5885 19.6796 62.4829 19.5993 62.4026 19.4937C62.2885 19.3458 62.242 19.1979 62.2589 19.0415C62.2758 18.8894 62.3477 18.7626 62.4787 18.6612C62.559 18.5978 62.6562 18.5682 62.7618 18.5682C62.8674 18.5682 62.9858 18.5767 63.1168 18.5809C63.2478 18.5894 63.3872 18.5767 63.5351 18.5471C63.683 18.5175 63.8394 18.4372 64.0084 18.3062L63.9915 18.3104Z" fill="#764C25"/>
<path d="M65.8932 13.3832C65.5678 12.8253 65.3523 12.2971 65.2424 11.7942C65.1368 11.2956 65.1156 10.8308 65.1875 10.4082C65.2593 9.98559 65.4114 9.60527 65.6481 9.27566C65.8847 8.94182 66.1848 8.67137 66.5524 8.45585C66.9454 8.22765 67.3342 8.08398 67.7229 8.02481C68.1117 7.96565 68.4921 8.00791 68.8639 8.14314C69.2358 8.28259 69.6077 8.52346 69.9669 8.8742C70.3261 9.22495 70.6768 9.68134 71.0149 10.2603C71.3403 10.8181 71.56 11.3463 71.6656 11.8534C71.7755 12.3563 71.7924 12.8211 71.7248 13.2437C71.653 13.6663 71.5008 14.0466 71.2642 14.3762C71.0275 14.7058 70.7233 14.9805 70.3599 15.196C69.9669 15.4242 69.5781 15.5679 69.1893 15.6271C68.8005 15.6862 68.4202 15.6482 68.0483 15.5087C67.6765 15.3693 67.3046 15.1284 66.9454 14.7819C66.582 14.4354 66.2312 13.9705 65.8932 13.3874V13.3832ZM67.199 12.5295C67.4652 12.9859 67.723 13.3493 67.9765 13.6156C68.23 13.886 68.4709 14.0804 68.6991 14.2072C68.9315 14.3297 69.1428 14.3889 69.3414 14.3847C69.5401 14.3804 69.7218 14.3297 69.8908 14.2325C70.0514 14.1396 70.1824 14.0086 70.2838 13.8395C70.3852 13.6705 70.4401 13.4634 70.4444 13.2099C70.4444 12.9606 70.3937 12.6605 70.2796 12.314C70.1655 11.9675 69.9795 11.566 69.7133 11.1097C69.4471 10.6533 69.1893 10.2941 68.9358 10.0236C68.6822 9.75317 68.4456 9.55879 68.2174 9.44046C67.9892 9.32214 67.7737 9.26298 67.5708 9.27143C67.368 9.27566 67.1863 9.32637 67.0299 9.41933C66.8651 9.51653 66.7299 9.64753 66.6327 9.81234C66.5313 9.97714 66.4806 10.1884 66.4763 10.4378C66.4763 10.6871 66.527 10.9871 66.6369 11.3294C66.7468 11.6717 66.9369 12.0731 67.2032 12.5253L67.199 12.5295Z" fill="#764C25"/>
<path d="M78.727 6.33027C78.6974 6.33027 78.6678 6.33449 78.634 6.33872C78.6044 6.33872 78.5664 6.34717 78.5241 6.35562C78.4777 6.36407 78.4312 6.37675 78.3762 6.39788C78.0297 6.52043 77.7804 6.7613 77.6409 7.12895C77.4973 7.49659 77.5353 7.98256 77.7466 8.59108C77.9452 9.15734 78.2114 9.53344 78.5537 9.71515C78.896 9.89686 79.2848 9.91376 79.7243 9.76163C79.851 9.71937 79.9567 9.67289 80.0412 9.62218C80.1257 9.57147 80.2018 9.52499 80.2694 9.48273C80.337 9.44047 80.3962 9.39821 80.4511 9.36018C80.5061 9.32215 80.5568 9.29256 80.6032 9.27566C80.7131 9.23763 80.8145 9.24186 80.8991 9.28411C80.9836 9.3306 81.047 9.41089 81.0892 9.52921C81.1357 9.66021 81.123 9.79966 81.0554 9.94334C81.0174 10.0194 80.9624 10.0997 80.8864 10.1884C80.8103 10.2772 80.7173 10.3659 80.6032 10.4504C80.4891 10.5392 80.3539 10.6237 80.2018 10.7082C80.0497 10.7927 79.8806 10.8688 79.6905 10.9322C78.9171 11.1984 78.2368 11.19 77.6367 10.8984C77.0409 10.6068 76.6056 10.0659 76.3309 9.27144C76.1788 8.83195 76.107 8.40092 76.1197 7.99101C76.1323 7.57688 76.2211 7.20079 76.3817 6.85849C76.5422 6.5162 76.7704 6.21617 77.0705 5.95417C77.3705 5.69217 77.7297 5.48933 78.148 5.34143C78.4692 5.23156 78.7312 5.17239 78.9256 5.17239C79.12 5.17239 79.2806 5.20197 79.4031 5.26114C79.4792 5.29917 79.5426 5.35833 79.6017 5.43862C79.6567 5.52314 79.7285 5.68372 79.8088 5.92036L79.8426 6.01333C79.8764 6.11053 79.906 6.19504 79.9313 6.26688C79.9567 6.33872 79.9905 6.44859 80.037 6.60917C80.0792 6.75707 80.0792 6.87962 80.0285 6.97259C79.9778 7.06556 79.8933 7.13317 79.775 7.1712C79.6567 7.21346 79.551 7.20924 79.4538 7.16698C79.3566 7.12472 79.2637 7.0402 79.1665 6.91766L78.727 6.33449V6.33027Z" fill="#764C25"/>
<path d="M81.9597 7.30644C81.8625 6.8585 81.8456 6.43169 81.909 6.03447C81.9724 5.63724 82.1034 5.28227 82.3062 4.96533C82.5091 4.6484 82.7711 4.38217 83.1007 4.16243C83.4303 3.94269 83.8106 3.78633 84.2459 3.69336C85.0657 3.51588 85.7587 3.61307 86.325 3.98072C86.8912 4.34836 87.2631 4.96111 87.4448 5.80627C87.542 6.25421 87.5631 6.68101 87.504 7.07402C87.449 7.46702 87.3223 7.82621 87.1236 8.13892C86.925 8.45586 86.6588 8.72208 86.3292 8.94183C85.9954 9.16157 85.6066 9.31792 85.1544 9.41512C84.3346 9.58838 83.6416 9.49541 83.0753 9.12354C82.5091 8.75589 82.1372 8.14737 81.9555 7.29798L81.9597 7.30644ZM83.4472 6.80779C83.5106 7.11205 83.6035 7.37405 83.7219 7.58534C83.8402 7.79663 83.9712 7.96989 84.1149 8.09244C84.2585 8.21499 84.4191 8.2995 84.5882 8.33753C84.7614 8.37557 84.9304 8.37979 85.1079 8.33753C85.4544 8.26147 85.7207 8.05863 85.8939 7.72902C86.0714 7.3994 86.0925 6.92611 85.9615 6.30914C85.8982 6.00488 85.8052 5.74288 85.6869 5.53159C85.5686 5.31608 85.4375 5.14704 85.2939 5.02449C85.1502 4.90195 84.9938 4.81743 84.8206 4.7794C84.6473 4.74137 84.4783 4.73714 84.3008 4.7794C83.9543 4.85546 83.6881 5.0583 83.5148 5.38792C83.3373 5.71753 83.3162 6.19082 83.4472 6.80779Z" fill="#764C25"/>
<path d="M89.5493 3.99762L89.1267 4.03987C88.7929 4.07368 88.6154 3.94268 88.5858 3.64687C88.5689 3.46939 88.6069 3.32148 88.7041 3.20316C88.8013 3.08484 88.9492 3.01723 89.1478 2.9961L89.4479 2.96652L89.4225 2.71297C89.3507 1.97345 89.4943 1.38183 89.862 0.94235C90.2296 0.498639 90.7959 0.240864 91.565 0.164799C91.7805 0.14367 91.9707 0.14367 92.1355 0.169025C92.3003 0.19438 92.4228 0.236638 92.4947 0.2958C92.5285 0.321154 92.5538 0.350735 92.575 0.37609C92.5961 0.401445 92.6172 0.439477 92.6384 0.485961C92.6595 0.532445 92.6764 0.591607 92.6891 0.671897C92.706 0.747962 92.7186 0.845156 92.7313 0.963479L92.7398 1.05222C92.7482 1.12829 92.7524 1.19167 92.7609 1.25083C92.7651 1.31 92.7736 1.40296 92.7778 1.52974C92.782 1.66919 92.7524 1.77906 92.6848 1.8509C92.6172 1.92696 92.52 1.96922 92.3975 1.9819C92.2749 1.99458 92.1693 1.96922 92.089 1.90584C92.0087 1.84245 91.9326 1.74103 91.8692 1.59735L91.696 1.2128C91.696 1.2128 91.6622 1.2128 91.6411 1.20858C91.6199 1.20435 91.5903 1.20012 91.5608 1.20012C91.5312 1.20012 91.4974 1.20012 91.4594 1.20435C91.2438 1.22548 91.0875 1.30577 90.9903 1.44522C90.8931 1.58467 90.8593 1.81287 90.8931 2.13403L90.9607 2.81861L91.7467 2.74255C92.0805 2.70874 92.258 2.83974 92.2918 3.13555C92.3087 3.32148 92.2707 3.46939 92.1777 3.58348C92.0848 3.69758 91.9326 3.7652 91.7298 3.78632L91.0663 3.85394L91.4086 7.27685L91.9538 7.36559C92.1186 7.39517 92.2369 7.43743 92.3045 7.50082C92.3679 7.55998 92.4102 7.65295 92.4228 7.77972C92.4355 7.91495 92.3975 8.02904 92.313 8.12624C92.2284 8.22343 92.0975 8.28259 91.9284 8.2995L89.6591 8.52769C89.4901 8.54459 89.3507 8.51501 89.2492 8.43472C89.1436 8.35443 89.0844 8.24879 89.0718 8.11779C89.0591 7.99101 89.0802 7.89382 89.1309 7.82621C89.1816 7.75859 89.2873 7.69098 89.4479 7.62337L89.9085 7.4332L89.5662 4.01029L89.5493 3.99762Z" fill="#764C25"/>
<path d="M94.3878 3.6511L93.9652 3.65956C93.6314 3.66378 93.4624 3.5201 93.4581 3.2243C93.4581 3.04681 93.5088 2.90314 93.6145 2.79326C93.7201 2.68339 93.8723 2.62846 94.0751 2.62423H94.3751L94.3709 2.36223C94.3582 1.61849 94.5526 1.04378 94.9541 0.633872C95.3555 0.223968 95.9429 0.0126774 96.7162 0C96.9317 0 97.1219 0.0126774 97.2867 0.0507098C97.4515 0.0887421 97.5656 0.139452 97.6332 0.207065C97.6628 0.236646 97.6882 0.266226 97.7051 0.295807C97.7262 0.325388 97.7431 0.36342 97.7558 0.409904C97.7727 0.456388 97.7854 0.519775 97.7938 0.600066C97.8023 0.676131 97.8065 0.77755 97.8107 0.895873V0.984615C97.8107 1.06068 97.8107 1.12407 97.8149 1.18323C97.8149 1.24239 97.8149 1.33536 97.8065 1.46213C97.8023 1.60158 97.76 1.70723 97.6882 1.77484C97.6163 1.84246 97.5149 1.87626 97.3881 1.88049C97.2614 1.88049 97.1599 1.85091 97.0839 1.77907C97.0078 1.70723 96.9444 1.60158 96.8895 1.45368L96.75 1.05645C96.75 1.05645 96.7162 1.05645 96.6951 1.048C96.674 1.03955 96.6444 1.03532 96.6148 1.0311C96.5852 1.0311 96.5514 1.02687 96.5134 1.0311C96.2979 1.0311 96.1373 1.10294 96.0274 1.23394C95.9176 1.36494 95.8668 1.58891 95.8711 1.91007L95.8837 2.59888L96.674 2.5862C97.0078 2.58197 97.1768 2.72565 97.1811 3.02146C97.1811 3.20739 97.1346 3.35107 97.0332 3.45672C96.9317 3.56236 96.7754 3.6173 96.5683 3.62152L95.9007 3.6342L95.9556 7.07402L96.4923 7.20924C96.6571 7.2515 96.7669 7.30644 96.8303 7.36982C96.8895 7.43744 96.9233 7.5304 96.9233 7.65718C96.9233 7.7924 96.8768 7.90228 96.7838 7.99102C96.6909 8.07976 96.5557 8.13047 96.3866 8.13047L94.1047 8.1685C93.9356 8.1685 93.8004 8.13047 93.7032 8.04173C93.606 7.95299 93.5553 7.84311 93.5553 7.70789C93.5553 7.58111 93.5807 7.48815 93.6398 7.42476C93.699 7.36137 93.8089 7.30221 93.9695 7.24727L94.447 7.09514L94.392 3.65533L94.3878 3.6511Z" fill="#764C25"/>
<path d="M99.9617 5.75133C99.9659 6.25843 100.097 6.65565 100.35 6.94301C100.604 7.23037 100.98 7.3994 101.483 7.44588C101.652 7.46279 101.8 7.46279 101.922 7.45433C102.045 7.44166 102.155 7.42898 102.252 7.4163C102.345 7.40362 102.43 7.38672 102.501 7.37404C102.573 7.35714 102.641 7.35291 102.708 7.36137C102.827 7.37404 102.916 7.4163 102.975 7.49237C103.034 7.56843 103.059 7.66985 103.047 7.79662C103.038 7.86846 103.021 7.93608 102.992 7.99101C102.962 8.04595 102.911 8.10511 102.848 8.15582C102.713 8.26992 102.484 8.36711 102.168 8.45163C101.851 8.53614 101.449 8.55305 100.959 8.50656C100.524 8.46853 100.139 8.37134 99.8053 8.21498C99.4715 8.06285 99.201 7.85579 98.9897 7.60224C98.7784 7.34869 98.6263 7.04443 98.5376 6.69369C98.4488 6.34294 98.4235 5.94994 98.4615 5.51468C98.5038 5.04139 98.6136 4.62304 98.7827 4.26384C98.9517 3.90465 99.1715 3.60461 99.4419 3.36797C99.7081 3.13132 100.021 2.95806 100.372 2.85242C100.722 2.74255 101.107 2.70874 101.521 2.74677C102.214 2.81016 102.738 3.05526 103.093 3.48629C103.444 3.9131 103.587 4.49626 103.52 5.23578C103.494 5.51468 103.41 5.72175 103.262 5.84852C103.114 5.9753 102.92 6.03023 102.679 6.0091L99.9617 5.75978V5.75133ZM102.049 5.08365C102.075 4.64839 102.011 4.323 101.863 4.11594C101.715 3.90887 101.508 3.79055 101.242 3.76942C100.955 3.74407 100.705 3.82858 100.503 4.0272C100.3 4.22581 100.152 4.51739 100.063 4.90194L102.049 5.08365Z" fill="#764C25"/>
<path d="M106.457 6.63033C106.402 7.1332 106.478 7.54733 106.693 7.86004C106.909 8.17697 107.264 8.38827 107.758 8.49814C107.923 8.53617 108.071 8.55307 108.194 8.5573C108.316 8.56152 108.426 8.56152 108.523 8.5573C108.616 8.5573 108.701 8.55307 108.777 8.54462C108.849 8.54039 108.92 8.54462 108.984 8.5573C109.098 8.58265 109.182 8.63759 109.233 8.71788C109.284 8.8024 109.297 8.90382 109.267 9.02636C109.25 9.0982 109.225 9.16159 109.187 9.2123C109.149 9.26301 109.094 9.31372 109.022 9.3602C108.87 9.4574 108.633 9.52501 108.308 9.57149C107.982 9.61375 107.581 9.58417 107.103 9.47853C106.677 9.38556 106.305 9.24188 105.996 9.04749C105.683 8.85311 105.438 8.61646 105.261 8.33756C105.083 8.05865 104.969 7.74172 104.923 7.38252C104.876 7.02333 104.897 6.63033 104.995 6.19929C105.096 5.73445 105.252 5.333 105.468 4.99916C105.683 4.6611 105.937 4.39064 106.233 4.19203C106.529 3.99342 106.858 3.85819 107.222 3.79058C107.585 3.72719 107.97 3.73564 108.375 3.82438C109.056 3.97229 109.546 4.28077 109.842 4.74984C110.137 5.2189 110.209 5.81474 110.049 6.53736C109.99 6.81204 109.88 7.00642 109.719 7.11629C109.559 7.22617 109.36 7.25575 109.119 7.20081L106.453 6.61765L106.457 6.63033ZM108.608 6.22042C108.688 5.78939 108.667 5.464 108.544 5.23581C108.422 5.01184 108.232 4.87239 107.97 4.81322C107.686 4.74984 107.433 4.80477 107.205 4.97803C106.977 5.15129 106.799 5.42174 106.664 5.79361L108.612 6.2162L108.608 6.22042Z" fill="#764C25"/>
<path d="M115.17 10.7758C115.221 10.8307 115.28 10.8815 115.344 10.9322C115.407 10.9744 115.483 11.0251 115.576 11.0801C115.669 11.135 115.779 11.1899 115.902 11.2407C116.21 11.3717 116.442 11.4097 116.607 11.3632C116.768 11.3167 116.882 11.2111 116.95 11.0547C117.013 10.9026 116.996 10.7589 116.907 10.6152C116.814 10.4716 116.688 10.3236 116.523 10.1673C116.358 10.0109 116.176 9.85036 115.982 9.67287C115.787 9.49962 115.614 9.30945 115.475 9.10239C115.335 8.89532 115.234 8.67558 115.183 8.43048C115.132 8.18961 115.17 7.91493 115.297 7.6149C115.386 7.40361 115.517 7.21767 115.686 7.06554C115.855 6.91342 116.062 6.80354 116.303 6.74016C116.544 6.67677 116.827 6.66409 117.14 6.6979C117.452 6.73171 117.803 6.83312 118.183 6.99371C118.593 7.16696 118.889 7.33177 119.071 7.48813C119.253 7.64448 119.367 7.77126 119.405 7.86845C119.434 7.94451 119.447 8.02903 119.439 8.11355C119.43 8.19806 119.396 8.31639 119.333 8.46852L119.312 8.51923C119.278 8.59529 119.248 8.66713 119.223 8.73474C119.193 8.80236 119.16 8.87419 119.122 8.94603C119.054 9.06858 118.969 9.14887 118.872 9.17845C118.775 9.20803 118.669 9.19958 118.551 9.1531C118.433 9.10239 118.357 9.03478 118.319 8.94603C118.281 8.85729 118.264 8.73897 118.268 8.58684L118.289 8.24455C118.234 8.20652 118.171 8.16003 118.103 8.1051C118.048 8.06706 117.981 8.02058 117.9 7.96987C117.82 7.91916 117.731 7.87268 117.626 7.83042C117.338 7.70787 117.131 7.66984 117 7.71209C116.869 7.75435 116.776 7.84309 116.717 7.97832C116.658 8.11355 116.679 8.253 116.772 8.39245C116.865 8.5319 116.996 8.67558 117.161 8.82771C117.326 8.97561 117.507 9.14042 117.706 9.31368C117.9 9.48694 118.069 9.68133 118.213 9.88839C118.357 10.0955 118.45 10.3237 118.496 10.5772C118.543 10.8265 118.505 11.1054 118.374 11.4139C118.281 11.6379 118.141 11.8323 117.964 11.9886C117.786 12.145 117.571 12.2591 117.317 12.3267C117.064 12.3943 116.772 12.407 116.438 12.3732C116.104 12.3394 115.737 12.2379 115.344 12.0689C114.908 11.8872 114.592 11.7097 114.397 11.5365C114.203 11.3674 114.089 11.2322 114.046 11.135C114.017 11.0547 114.004 10.9744 114.013 10.8899C114.021 10.8054 114.055 10.6871 114.118 10.5349L114.148 10.4631C114.177 10.387 114.211 10.3152 114.237 10.2476C114.262 10.18 114.3 10.1081 114.338 10.0363C114.406 9.91375 114.49 9.83345 114.587 9.80387C114.684 9.77429 114.79 9.78275 114.908 9.82923C115.023 9.87994 115.103 9.94755 115.141 10.0363C115.179 10.125 115.196 10.2434 115.187 10.3955L115.166 10.7631L115.17 10.7758Z" fill="#764C25"/>
<path d="M121.492 9.82501L121.158 9.6433C120.858 9.4785 120.778 9.26721 120.922 9.0052C121.006 8.84885 121.12 8.74743 121.268 8.70517C121.412 8.66291 121.577 8.68827 121.75 8.78546L122.012 8.92914L122.566 8.32907C122.735 8.14314 122.895 8.02904 123.052 7.98678C123.204 7.94452 123.377 7.97411 123.567 8.07553C123.715 8.15582 123.812 8.25724 123.846 8.37556C123.884 8.49388 123.863 8.62488 123.787 8.76856L123.314 9.63908L124.154 10.0955C124.446 10.256 124.522 10.4631 124.383 10.7251C124.294 10.8899 124.18 10.9913 124.04 11.0336C123.901 11.0759 123.736 11.0463 123.554 10.9449L122.819 10.5476L121.611 12.7662C121.441 13.0789 121.365 13.324 121.391 13.4972C121.416 13.6705 121.509 13.8057 121.682 13.8945C121.805 13.9621 121.911 14.0043 121.991 14.0255C122.071 14.0466 122.151 14.0762 122.223 14.1142C122.316 14.1649 122.371 14.2283 122.392 14.3128C122.413 14.3973 122.397 14.4903 122.342 14.596C122.304 14.6678 122.253 14.727 122.189 14.7734C122.126 14.8199 122.054 14.8537 121.974 14.8791C121.885 14.9044 121.729 14.9087 121.505 14.8918C121.281 14.8706 121.01 14.7734 120.681 14.596C120.178 14.3213 119.899 13.9917 119.836 13.6113C119.772 13.2268 119.869 12.8 120.127 12.3309L121.488 9.82924L121.492 9.82501Z" fill="#764C25"/>
<path d="M127.455 14.803C127.708 14.4354 127.818 14.1396 127.789 13.9114C127.759 13.6832 127.586 13.4592 127.265 13.2352C127.087 13.1127 126.927 13.0155 126.779 12.9479C126.635 12.8803 126.504 12.8211 126.39 12.7788C126.276 12.7366 126.174 12.6986 126.09 12.6732C126.005 12.6436 125.934 12.614 125.879 12.576C125.773 12.5042 125.714 12.4112 125.693 12.2971C125.672 12.183 125.701 12.0731 125.777 11.9633C125.845 11.8661 125.946 11.8027 126.081 11.7816C126.174 11.7647 126.297 11.7647 126.445 11.79C126.593 11.8111 126.762 11.8534 126.948 11.9168C127.134 11.9802 127.336 12.0605 127.548 12.1619C127.759 12.2633 127.979 12.3943 128.199 12.5464C128.849 12.9986 129.225 13.4465 129.327 13.8902C129.424 14.3339 129.289 14.8284 128.908 15.3693C128.659 15.7285 128.414 16.075 128.173 16.4088C127.932 16.7427 127.683 17.1314 127.421 17.5752L127.73 17.871C127.839 17.9724 127.899 18.0696 127.907 18.1625C127.915 18.2555 127.882 18.3527 127.81 18.4541C127.738 18.5555 127.653 18.6189 127.56 18.6401C127.463 18.6612 127.345 18.6527 127.201 18.6147C127.049 18.5724 126.893 18.5133 126.728 18.4414C126.563 18.3696 126.39 18.2682 126.217 18.1456C126.005 17.9977 125.883 17.8414 125.853 17.6723C125.824 17.5033 125.879 17.3216 126.014 17.1272L126.048 17.0807L126.035 17.0596C125.874 17.1357 125.697 17.1822 125.507 17.1948C125.342 17.2075 125.152 17.1948 124.932 17.1441C124.712 17.0934 124.48 16.9835 124.226 16.8103C124.007 16.6581 123.829 16.4849 123.694 16.2863C123.559 16.0877 123.47 15.8848 123.419 15.6735C123.368 15.4622 123.368 15.251 123.411 15.0397C123.453 14.8241 123.542 14.6298 123.668 14.4438C123.795 14.2621 123.956 14.1184 124.146 14.017C124.336 13.9156 124.556 13.8649 124.805 13.8691C125.05 13.8691 125.325 13.9325 125.629 14.0466C125.934 14.1607 126.263 14.3424 126.614 14.5875C126.711 14.6551 126.796 14.7185 126.872 14.7819C126.948 14.841 127.011 14.896 127.07 14.9467C127.134 14.9974 127.193 15.0481 127.248 15.0988L127.451 14.8072L127.455 14.803ZM126.753 15.7961C126.715 15.758 126.673 15.7158 126.627 15.6651C126.58 15.6271 126.525 15.5763 126.462 15.5214C126.394 15.4665 126.318 15.4073 126.234 15.3481C125.921 15.1326 125.667 15.0185 125.473 15.0101C125.279 15.0016 125.131 15.0692 125.029 15.2171C124.928 15.365 124.898 15.5299 124.94 15.7116C124.983 15.8933 125.101 16.0539 125.295 16.1891C125.422 16.2778 125.549 16.3412 125.672 16.375C125.794 16.4088 125.904 16.43 126.001 16.4342C126.115 16.4426 126.225 16.4342 126.327 16.4173L126.758 15.7961H126.753Z" fill="#764C25"/>
<path d="M131.664 16.6666L131.364 16.2398C131.279 16.113 131.237 16.0032 131.237 15.9102C131.237 15.8172 131.279 15.7285 131.364 15.6355C131.452 15.5383 131.545 15.4834 131.643 15.4749C131.74 15.4665 131.854 15.4961 131.993 15.5637C132.137 15.6355 132.293 15.7285 132.462 15.8426C132.631 15.9567 132.784 16.075 132.919 16.2018C133.126 16.392 133.232 16.5652 133.24 16.7258C133.248 16.8821 133.164 17.0554 132.986 17.2498L132.889 17.3554L132.898 17.3766C133.079 17.3132 133.274 17.2836 133.477 17.2878C133.65 17.2963 133.848 17.3385 134.077 17.4146C134.305 17.4907 134.537 17.6428 134.787 17.871C135.26 18.3062 135.505 18.7795 135.518 19.2782C135.53 19.7768 135.298 20.2882 134.82 20.8079L133.16 22.6124L133.379 22.9969C133.46 23.1406 133.498 23.2589 133.498 23.3476C133.498 23.4364 133.451 23.5294 133.367 23.6223C133.278 23.7195 133.164 23.7702 133.033 23.7702C132.902 23.7702 132.775 23.7153 132.648 23.597L131.127 22.194C131 22.0799 130.933 21.9531 130.924 21.8264C130.912 21.6954 130.954 21.5813 131.043 21.4841C131.127 21.3911 131.216 21.3404 131.305 21.3319C131.393 21.3235 131.512 21.3531 131.664 21.4207L132.048 21.5939L133.464 20.0557C133.802 19.6923 133.971 19.3712 133.979 19.1007C133.988 18.8302 133.865 18.5767 133.612 18.3485C133.485 18.2344 133.358 18.1499 133.223 18.1034C133.088 18.0569 132.97 18.0273 132.855 18.0147C132.724 18.0062 132.602 18.0062 132.484 18.0231L130.502 20.1783L130.704 20.5459C130.785 20.6896 130.823 20.8079 130.823 20.8967C130.823 20.9854 130.776 21.0784 130.692 21.1714C130.603 21.2685 130.489 21.3193 130.358 21.3193C130.227 21.3193 130.1 21.2601 129.973 21.146L128.401 19.7008C128.275 19.5867 128.207 19.4599 128.199 19.3331C128.186 19.2021 128.228 19.088 128.317 18.9908C128.401 18.8979 128.49 18.8472 128.575 18.8429C128.659 18.8387 128.782 18.8683 128.938 18.9443L129.386 19.1641L131.664 16.692V16.6666Z" fill="#764C25"/>
<path d="M141.324 23.1701L141.087 22.7011C141.024 22.5616 140.994 22.4475 141.007 22.3588C141.02 22.27 141.075 22.1813 141.172 22.101C141.273 22.0165 141.375 21.9785 141.468 21.9785C141.561 21.9827 141.675 22.0292 141.801 22.1137C141.932 22.2066 142.076 22.3207 142.224 22.456C142.372 22.5912 142.516 22.7433 142.651 22.9124C142.862 23.1701 142.959 23.3857 142.942 23.5589C142.926 23.7322 142.786 23.9223 142.528 24.1336L137.787 28.0087L138.015 28.4101C138.087 28.5454 138.117 28.6552 138.1 28.744C138.087 28.8327 138.028 28.9172 137.931 28.9975C137.833 29.0778 137.736 29.1159 137.639 29.1074C137.542 29.099 137.428 29.0567 137.301 28.9806C137.166 28.9003 137.031 28.7989 136.891 28.6806C136.752 28.5623 136.621 28.4271 136.494 28.2707C136.329 28.0721 136.257 27.8861 136.278 27.7129C136.299 27.5439 136.401 27.3833 136.583 27.2354L136.697 27.1424V27.117C136.502 27.1551 136.308 27.1593 136.105 27.1213C135.928 27.0917 135.733 27.0241 135.526 26.9142C135.319 26.8043 135.104 26.6184 134.892 26.3606C134.478 25.8535 134.318 25.3126 134.402 24.7337C134.491 24.1548 134.884 23.58 135.585 23.0053C135.966 22.6968 136.35 22.4729 136.735 22.3376C137.123 22.2024 137.504 22.1559 137.88 22.194C138.256 22.232 138.624 22.3588 138.979 22.5701C139.334 22.7814 139.672 23.0814 139.984 23.4659C140.039 23.5336 140.086 23.5969 140.128 23.6561C140.166 23.7153 140.204 23.7702 140.234 23.8209C140.263 23.8801 140.293 23.935 140.318 23.9815H140.348C140.407 23.9266 140.466 23.8716 140.529 23.8125C140.593 23.7575 140.673 23.6857 140.77 23.6054L141.316 23.1617L141.324 23.1701ZM139.389 24.7548C139.38 24.683 139.359 24.6111 139.334 24.5266C139.308 24.4506 139.274 24.366 139.224 24.2688C139.173 24.1717 139.11 24.0745 139.025 23.973C138.763 23.6519 138.442 23.4871 138.066 23.4786C137.69 23.4702 137.238 23.6772 136.718 24.1083C136.249 24.4928 135.978 24.852 135.911 25.1901C135.847 25.5281 135.915 25.8197 136.122 26.0733C136.232 26.2043 136.346 26.3057 136.468 26.3733C136.591 26.4409 136.705 26.4874 136.815 26.517C136.942 26.5466 137.069 26.5592 137.191 26.555L139.389 24.759V24.7548Z" fill="#764C25"/>
<path d="M103.11 66.2101C91.7002 66.2101 82.4499 56.9598 82.4499 45.5501C82.4499 43.5513 82.733 41.6201 83.2655 39.7903C74.6575 42.2835 68.361 50.2238 68.361 59.6389C68.361 71.0487 77.6113 80.299 89.021 80.299C98.4319 80.299 106.376 74.0025 108.87 65.3945C107.04 65.9227 105.109 66.2101 103.11 66.2101Z" fill="#D1AA3C"/>
<path d="M95.9936 105.392C70.4528 105.392 49.6744 84.6136 49.6744 59.0727C49.6744 33.5319 70.4528 12.7493 95.9936 12.7493C121.534 12.7493 142.313 33.5277 142.313 59.0685C142.313 84.6093 121.534 105.388 95.9936 105.388V105.392ZM95.9936 15.999C72.2445 15.999 52.9241 35.3194 52.9241 59.0685C52.9241 82.8176 72.2445 102.138 95.9936 102.138C119.743 102.138 139.063 82.8176 139.063 59.0685C139.063 35.3194 119.743 15.999 95.9936 15.999Z" fill="#764C25"/>
<path d="M130.62 55.9752C129.289 54.5891 127.535 53.6594 125.625 53.5622L125.481 53.9383C126.703 55.0117 127.675 56.1907 128.304 57.6106C129.124 59.4657 129.23 61.4899 128.706 63.4253C128.199 65.3142 127.108 67.1187 125.312 68.0483C121.175 70.1866 117.304 67.9723 115.804 63.7338C115.627 63.2351 115.521 62.6731 115.475 62.0857C115.437 61.5448 115.082 61.08 114.562 60.9278L114.503 60.9109C113.734 60.687 112.956 61.2279 112.893 62.0266C112.88 62.1829 112.867 62.3393 112.85 62.4956C112.496 66.189 111.519 69.7175 109.432 72.7475C101.327 84.6389 84.8206 86.7138 73.7152 77.7973C66.6792 72.1981 63.9831 63.2267 65.8509 54.5553C67.1356 48.1363 71.5727 42.7061 77.4128 39.7354C79.4285 38.6874 81.6175 37.9098 83.9459 37.3816L83.9205 36.8787C78.951 36.2998 73.7786 37.7577 69.6246 40.6355C58.0374 48.7068 57.3359 64.9001 65.834 75.5238C73.6053 85.7376 88.5647 89.4479 100.021 83.5529C106.596 80.299 112.043 74.1842 114.245 67.2243C116.7 71.4501 122.456 73.4447 127.252 71.4713C130.667 70.0683 131.896 67.5243 132.729 64.5282C133.561 61.5617 132.72 58.198 130.612 55.9667L130.62 55.9752Z" fill="#764C25"/>
<path d="M113.125 37.0351L114.684 40.1876L118.162 40.6904L115.644 43.1456L116.24 46.6108L113.125 44.9754L110.015 46.6108L110.611 43.1456L108.092 40.6904L111.57 40.1876L113.125 37.0351Z" fill="#D1AA3C"/>
<path d="M95.9937 116.349C64.4099 116.349 38.7127 90.6522 38.7127 59.0684C38.7127 49.1758 41.2736 39.4226 46.1248 30.8696C46.5431 30.1258 47.4897 29.8638 48.2335 30.2864C48.9772 30.709 49.2392 31.6513 48.8166 32.3951C44.2316 40.4875 41.806 49.7125 41.806 59.0727C41.806 88.9534 66.1129 113.26 95.9937 113.26C125.874 113.26 150.181 88.9534 150.181 59.0727C150.181 49.7125 147.756 40.4918 143.171 32.3951C142.748 31.6513 143.01 30.709 143.754 30.2864C144.493 29.868 145.44 30.1258 145.863 30.8696C150.714 39.4268 153.275 49.18 153.275 59.0684C153.275 90.6522 127.577 116.349 95.9937 116.349Z" fill="#764C25"/>
</svg>
