<?xml version="1.0" standalone="no"?>
<!DOCTYPE svg PUBLIC "-//W3C//DTD SVG 20010904//EN"
 "http://www.w3.org/TR/2001/REC-SVG-20010904/DTD/svg10.dtd">
<svg version="1.0" xmlns="http://www.w3.org/2000/svg"
 width="370.000000pt" height="370.000000pt" viewBox="0 0 370.000000 370.000000"
 preserveAspectRatio="xMidYMid meet">
<metadata>
Created by potrace 1.14, written by Peter Selinger 2001-2017
</metadata>
<g transform="translate(0.000000,370.000000) scale(0.100000,-0.100000)"
fill="#000000" stroke="none">
<path d="M1615 3685 c-300 -42 -546 -134 -795 -300 -247 -164 -454 -393 -604
-668 -77 -141 -163 -386 -182 -517 -3 -19 -7 -41 -9 -48 -19 -56 -27 -396 -13
-517 23 -186 65 -342 138 -515 167 -389 470 -714 850 -912 265 -138 544 -206
850 -205 654 0 1248 336 1588 898 106 176 203 431 227 594 3 22 8 46 11 54 11
32 19 167 19 311 -1 164 -6 229 -30 350 -3 14 -7 34 -9 45 -27 142 -121 382
-204 519 -23 37 -42 70 -42 72 0 7 -102 145 -135 184 -62 72 -213 219 -280
272 -238 189 -508 310 -820 369 -134 26 -423 33 -560 14z"/>
</g>
</svg>
